<?xml version="1.0" encoding="UTF-8"?><svg id="Layer_1" xmlns="http://www.w3.org/2000/svg" viewBox="0 0 294.21 226.84"><g id="Q0kQRa"><path d="M257.63,156.85c4.4,1.56,8.75,3.32,13.23,4.63,3.55,1.04,3.18,3.11,2.56,5.89-.71,3.18-2.66,2.8-4.85,2.26-15.5-3.8-30.97-7.7-46.51-11.33-2.59-.61-5.47-.22-8.19,0-1.68,.14-3.29,1.17-4.95,1.24-7.34,.3-11.16,4.59-13.24,11.09-2.06,6.45-4.34,12.84-6.13,19.37-.34,1.23,.79,3.39,1.9,4.4,2.84,2.58,6.18,4.61,9.06,7.15,1.23,1.09,2.46,2.85,2.59,4.41,.64,7.28,.5,7.29-6.8,7.29-31.99,0-63.98,.01-95.97-.05-1.58,0-4.33-.46-4.5-1.19-.48-2.04-.77-5.34,.41-6.36,5.63-4.89,6.29-11.96,9-18.13,1.16-2.64,3.11-4.96,4-7.66,.72-2.21,.59-4.77,.48-7.15-.13-2.82,.95-3.78,3.74-3.67,4.66,.18,9.32,.05,14,.05-.04-.8-.05-1.31-.06-1.31-7.99,.05-15.65-4.75-23.93-1.45-1.49,.59-4.01,.05-5.44-.9-17.35-11.53-34.59-23.22-51.83-34.92-1-.68-2.37-1.83-2.37-2.76,0-3.89-2.62-4.81-5.52-6.02-5.12-2.14-10.22-4.42-15.02-7.18-1.54-.89-3.09-3.63-2.87-5.29,.39-2.89,3.12-3.79,6-3.28,5.74,1.02,11.47,2.07,18.08,3.27-4.35-6.56-1.92-12.41,.61-18.09,.55-1.23,2.55-2.11,4.05-2.52,1.88-.51,3.96-.21,5.91-.52,3.98-.62,7.91-1.54,11.9-2.04,.82-.1,1.74,1.23,2.73,1.58,3.31,1.18,6.75,2.02,9.96,3.4,1.09,.47,2.28,2.13,2.34,3.3,.21,3.88,5.05,9.63,8.93,9.34,10.13-.75,18.64,2.57,26.48,8.83,3.72,2.97,8.25,4.93,12.57,7.44,3.32-6.24,5.03-12.29,4.2-18.8-.5-3.93-1.77-7.76-2.26-11.69-.16-1.27,.72-3.6,1.67-3.94,4.9-1.75,3.44-5.01,2.47-8.65-3.12,2.03-6.02,4.02-9.02,5.85-6.76,4.11-10.89,3.61-16.12-2.1-4.15-4.53-8.15-9.18-12.11-13.88-1.74-2.07-4.52-3.93-2.28-7.37,.22-.33-.53-1.46-1.03-2.06-4.24-5.16-3.62-8.81,2.31-12.33-1.19-2.97-2.39-5.97-3.59-8.96,.34-.16,.68-.32,1.02-.48,1.33,2.57,2.65,5.14,3.98,7.7,.52,1,.89,2.14,1.61,2.96,6.1,6.97,12.28,13.87,18.84,21.26,5.61-5.82,10.75-11.77,16.59-16.93,2.47-2.19,6.38-2.79,9.69-3.98,1.57-.57,3.26-.81,4.97-1.22-1.95-5.4-3.4-10.57,.19-15.99-1.28-.48-2.36-.88-2.81-1.05,.89-1.48,1.83-2.9,2.6-4.4,.37-.72,.86-1.84,.56-2.36-2.71-4.65,.14-5.52,3.88-6.69,8.73-2.72,14.24-1.29,19.69,5.29,3.73,4.5,3.37,9.29,.43,13.45-6.62,9.37-3.71,11.28,6.08,14,.41,.11,.79,.37,1.2,.44,8.61,1.53,13,5.99,13.69,15.37,.61,8.27,4.02,16.3,5.31,24.58,.72,4.65,.09,9.65-.75,14.34-.65,3.65-.31,5.63,3.14,7.89,11.89,7.78,23.36,16.21,35.1,24.24,6.24,4.27,9.2,4.06,14.26-1.51,3.25-3.58,6.27-6.41,11.61-5.78,2.18,.26,3.45,.71,3.09,2.83-.69,4-1.42,8.05-2.73,11.87-.9,2.64-2.88,4.9-4.22,7.42-1.26,2.37-2.32,4.86-3.58,7.54Zm-170.3-8.78c-3.29-3.13-6.47-5.8-9.18-8.89-1.49-1.7-2.19-4.1-3.24-6.18,2.19-.6,4.38-1.21,6.58-1.79,.46-.12,.96-.11,2.1-.22-1.47-2-2.53-3.47-3.63-4.91-1.17-1.53-2.37-3.02-3.84-4.88-1.78,8.99-5.04,11.14-13.28,9.12-3.93-.96-7.77-2.25-11.66-3.38-.19,.32-.39,.64-.58,.97,1.16,1.11,2.2,2.37,3.49,3.29,7.32,5.2,14.82,10.14,22,15.52,3.58,2.68,6.97,3.4,11.23,1.34Zm130.61-3.27c-5.52-2.72-10.84-5.34-17.18-8.46,.36,3.74,.67,7.01,.98,10.17,5.61-.59,10.5-1.11,16.2-1.71Zm-42.89,21.96c-1.21,0-1.76-.05-2.31,0-2.09,.21-4.17,.46-6.19,.69-1.76,6.96,0,10.2,4.96,9.82,1.14-3.38,2.25-6.68,3.54-10.51Zm-8.08-13.9c7.25,5.6,10.23,4.38,11.82-1.44-3.94-3.96-10.56-3.82-11.82,1.44Zm-9.3,27.27l1.07-.24v-11.15h-4c.97,3.79,1.95,7.59,2.93,11.39Z"/></g></svg>