<?xml version="1.0" encoding="UTF-8"?><svg id="Layer_1" xmlns="http://www.w3.org/2000/svg" viewBox="0 0 115.94 284.93"><g id="uC9mpw"><path d="M87.32,127.3c-2.13-.89-4.08-1.7-6.04-2.52-.57,.48-1.23,1.47-2.03,1.6-1.02,.17-2.24-.18-3.22-.63-2.8-1.29-5.51-2.75-8.31-4.16-.46,8.32-.93,16.71-1.41,25.16-.02,.02-.11,.13-.2,.14-2.35,.41-2.16,.41-2.15,2.79,.02,4.74-.2,9.47-.29,14.21-.19,10.04-.58,20.08-.45,30.11,.06,4.58,1.19,9.15,1.73,13.74,.15,1.26,.4,2.94-.24,3.76-1.34,1.72-3.2,3.06-4.95,4.42-.39,.3-1.2,.09-1.81,.06-3.28-.14-6.57-.3-9.96-.46-.99,6.25-2.19,12.38-2.85,18.56-.35,3.27,.21,6.64,.45,9.95,.06,.85,.24,1.74,1.58,1.78,.58,.02,1.12,.85,1.7,1.29,.89,.67,1.72,1.51,2.72,1.94,1.11,.48,1.65,1.05,1.3,2.35,3.01,.4,5.73,1.33,7.71,3.6,.81,.93,1.45,2.15,1.77,3.35,.58,2.21-.63,3.91-2.9,4.29-1.61,.27-3.25,.32-4.63,.44,.45,1.48,1.22,3.06,1.34,4.69,.17,2.26-.46,3.12-2.69,3.3-3.75,.3-7.53,.35-11.29,.19-3.31-.15-6.6-.79-9.91-1.1-1.28-.12-2.59,.05-3.87,.16-3.46,.29-5.58-1.48-5.58-4.95,0-2.53-.37-5.34,.56-7.54,1.89-4.47,1.01-8.93,.96-13.41-.03-3.27-.59-6.54-.47-9.79,.18-5.07,.8-10.12,1.11-15.18,.15-2.46,.03-4.93,.03-7.6-1.77,.15-3.54,.34-5.32,.45-1.8,.12-3.6,.22-5.4,.24-1.73,.02-2.92-.88-3.36-2.54-.26-.98-.77-1.37-1.72-1.41-3.98-.17-4.66-1.9-4.32-5.46,.51-5.44,1.32-10.85,2.03-16.27,.89-6.87,1.58-13.78,2.76-20.61,.99-5.76,2.62-11.41,3.82-17.14,.62-2.96,.92-5.99,1.36-8.95-2.66-1.14-3.27-2.13-2.35-4.92,4.79-14.55,5.89-29.8,8.66-44.73,1.39-7.47,2.83-14.94,4.42-22.37,2.12-9.88,7.73-17.37,16.12-22.9,.75-.5,1.23-1.4,1.92-2.02,1.1-.98,2.27-1.89,3.27-2.7-2.89-.28-3.61-2.7-3.91-5.39-.25-2.22-.36-4.43,2.23-5.83-3.54-3.27-.7-5.86,1.19-8.14,2.37-2.87,5.48-5.01,9-6.42,.31-.13,.63-.24,.98-.38v-2c.35,.06,.68,.03,.75,.15,1.12,1.85,2.67,1.08,4.15,.72,3.39-.83,6.75-1.37,10.04,.4,3.68,1.97,4.94,5.53,3.1,9.25-.62,1.25-.46,2.07,0,3.45,.74,2.17,.37,4.73,.44,7.13,.01,.36-.14,.72-.26,1.32,.56-.62,.95-1.04,1.33-1.46,.18,.05,.35,.1,.53,.15-.15,1.05-.09,2.19-.5,3.11-.55,1.24-.36,2.09,.51,3.04,1.59,1.74,1.22,2.91-.99,3.61-.35,.11-.76,.64-.82,1.02-.38,2.56-1.95,4.48-3.39,6.45-.35,.48-1.13,.64-1.71,.96-.66,.36-1.32,.74-2.38,1.34,3.72,2.07,4.85,5.2,5.98,8.35,1.82,5.08,3.75,10.12,5.44,15.25,.5,1.53,.67,3.35,.38,4.92-.42,2.28-1.39,4.46-2.26,7.07-1.17-1.33-2.17-2.49-3.37-3.85-.26,1.55-.56,2.89-.67,4.25-.03,.4,.37,1.07,.74,1.22,6.09,2.48,12.07,5.29,18.62,6.49,1.09,.2,2.11,.86,3.11,1.28,1.76-.51,3.66-1.14,5.6-1.6,1-.23,1.52-.61,1.37-1.67-.29-1.98-.71-3.95-.81-5.93-.05-1.02,.31-2.15,.79-3.07,.4-.78,.59-1.18,.06-2.05-.5-.8-.41-1.97-.58-2.97,.14-.04,.28-.08,.42-.12-1.17-.91-2.43-1.73-3.48-2.77-.71-.7-.11-1.3,.68-1.37,1.06-.1,2.13-.03,3.52-.03,0-2.52,0-4.92,0-7.32,0-.97-.02-1.82,1.12-2.4,.39-.2,.28-1.39,.42-2.29,.2-.02,.8-.07,1.64-.15-1.15,1.14-1.57,2.07,.11,2.91,.36,.18,.47,1.11,.49,1.7,.05,2.42,.02,4.85,.02,7.55,1.26,0,2.26-.08,3.23,.04,.48,.06,.92,.49,1.38,.76-.33,.32-.66,.64-.99,.96-.89,.83-1.79,1.65-2.81,2.59,.86,1.38,.58,2.74-.93,3.76,.5,.72,1.02,1.23,1.23,1.84,.26,.75,.61,1.76,.32,2.38-1.7,3.68-.53,7.44-.7,11.13,2.42,.53,2.92,2.14,1.47,3.94-.65,.81-1.28,1.75-1.55,2.73-.46,1.67-1.56,2.24-3.09,2.33-3.3,.22-6.51-.24-9.66-1.27-.61-.2-1.57-.11-2.07,.26-1.19,.88-2.37,1.16-3.79,.85-4.67-1.02-9.36-1.99-14.04-2.99-.32-.07-.64-.14-1.04-.22,1.44,3.32,4.62,4,7.34,5.34,.82,.4,1.5,1.13,2.34,1.42,.78,.27,1.76,.36,2.55,.15,2.79-.76,3.38-.56,4.8,1.89,.47,.8,1.07,1.56,1.75,2.2,1.92,1.81,2.08,4.45,.33,6.49-.3,.35-.57,.84-.59,1.29-.25,5.16-.57,10.33-.66,15.5-.64,37.81-1.23,75.61-1.84,113.42-.01,.85-.03,1.7,.03,2.54,.03,.41,.11,1,.39,1.19,1.37,.96,1.6,2.37,1.73,3.86,.17,1.97,.36,3.93,.52,5.9,.18,2.35-.68,3.46-2.98,3.9-3.75,.71-5.04-.04-5.47-3.89-.25-2.3,.18-4.68,.37-7.02,.04-.48,.2-1.12,.54-1.39,2.18-1.72,1.59-4.13,1.64-6.35,.44-21.84,.85-43.67,1.25-65.51,.33-17.83,.65-35.66,.97-53.49,.02-1.32,.25-2.65-.84-3.81-.38-.4-.26-1.29-.34-1.82Z"/></g></svg>