<?xml version="1.0" encoding="UTF-8"?><svg id="Layer_1" xmlns="http://www.w3.org/2000/svg" viewBox="0 0 196.75 292.22"><g id="fEZ5e0"><g><path d="M77.7,279.77c-2.42-.5-2.95-2.33-3.13-4.41-.04-.44-.14-.92-.03-1.33,1.22-4.81-.44-9.06-2.14-13.49-2.81-7.32-2.61-15.17-3.07-22.86-.3-4.95-.08-9.93-.23-14.9-.05-1.45-.48-2.93-.94-4.33-1.44-4.34-2.31-8.73-2.08-13.34,.17-3.44-.4-6.74-1.74-10-.76-1.85-.71-4.05-.85-6.11-.1-1.46-.72-1.79-2.37-1.33-1.29,6.67-2.61,13.5-3.93,20.33-.15,.8-.17,1.66-.46,2.4-2.58,6.47-2.21,13.44-3.44,20.13-.05,.29-.08,.61-.02,.89,1.78,7.84,.15,15.7,.09,23.55-.02,2.3,.05,4.61,.13,6.91,.11,3.11-.21,6.06-2.33,8.6-.35,.42-.26,1.48-.01,2.1,1.08,2.71,.72,3.98-2.15,4.22-4.12,.34-7.73,3.11-12.1,2.17-1.45-.31-2.06-.51-2.57-2.19-.86-2.85-2.65-5.4-3.91-8.14-.58-1.26-1.14-2.65-1.2-4-.32-6.98-.95-13.99-.57-20.94,.37-6.93,1.82-13.8,2.77-20.7,.29-2.13,.45-4.28,.8-6.4,.45-2.69,1.13-5.35,1.52-8.05,.29-2.01,.74-4.17,.3-6.07-1.22-5.23-1.44-10.42-.66-15.7,.09-.61,.11-1.59-.24-1.86-1.94-1.44-1.84-3.49-1.79-5.47,.16-6.08,.58-12.17,.62-18.25,.03-4.74-.3-9.49-.58-14.23-.04-.62-.6-1.34-1.12-1.77-1.64-1.38-3.49-2.52-5.01-4-.78-.75-1.07-2.02-1.52-3.08-.43-1.01-.52-2.3-1.21-3.03-4.92-5.19-7.3-11.61-8.13-18.43-.7-5.78-.92-11.79-.13-17.53,.73-5.35,1.8-10.81,3.3-15.97,1.59-5.45,3.49-10.82,4.73-16.39,.44-1.99,1.67-3.24,3.63-3.83,4.26-1.28,8.44-3.03,12.79-3.78,4.91-.84,7.5-4.09,9.98-7.72,.61-.89,1.21-1.95,1.3-2.98,.05-.65-.71-1.6-1.36-2.04-2.16-1.45-3.06-6.82-1.97-9.02,.16-1.66,.32-3.32,.47-4.98,.04-.43,.08-.87,.01-1.29-.16-.97-.38-1.92-.65-3.27-.86-.16-2.31-.37-3.74-.7-4.61-1.05-5.2-2.99-1.93-6.49,2.76-2.96,6.23-4.81,10.04-5.95,2.97-.89,6.01-1.52,9.02-2.26,2.68,0,5.36,0,8.03,0,1.62,.47,3.27,.86,4.85,1.43,3.9,1.4,7.25,3.54,8.82,7.6,1.62,4.18,.03,6.97-4.32,7.88-.55,.12-1.41,.21-1.57,.56-1.23,2.84-2,5.86-.95,8.87,.97,2.78-.85,7.83-3.63,9.02-.26,1.58-.39,3.23-.83,4.79-.47,1.67,.26,2.94,1.39,3.69,1.82,1.21,3.82,2.27,5.89,2.96,4.5,1.5,9.09,2.69,13.63,4.07,3.37,1.02,4.97,3.38,5.37,6.87,.29,2.54,.94,5.07,1.63,7.54,.55,1.96,1.44,3.82,2.16,5.74,.58,1.57,1.12,3.16,1.68,4.74,.83,2.36,1.92,4.66,2.42,7.09,.71,3.43,1.54,6.7,3.47,9.74,1,1.58,1.41,3.75,1.47,5.67,.1,3.03-.39,6.07-.5,9.11-.09,2.42,.52,4.9-1.01,7.12-.22,.32-.22,.88-.15,1.3,.75,4.54-.04,8.65-3.17,12.2-.5,.57-.68,1.46-.91,2.23-.61,2.06-1.1,4.15-1.75,6.19-1.02,3.22-2.06,6.5-7.05,4.78,3.82,10.03,2.59,20.19,4.54,29.88-2.46,.74-4.4,1.24-6.28,1.93-.59,.21-1.36,.84-1.44,1.37-.56,3.81-1.19,7.64-1.39,11.48-.43,8.3-.69,16.62-.89,24.93-.17,6.91-.24,13.82,2.18,20.47,1.93,5.3,2.6,10.77,2.29,16.43-.13,2.39,.43,4.83,.79,7.23,.32,2.2,1.74,3.1,3.92,3.07,.8-.01,1.87,0,2.34,.48,1.16,1.15,2.28,2.48,2.88,3.96,.14,.35-1.69,1.78-2.81,2.3-1.17,.55-2.57,.82-3.87,.84-2.42,.03-4.84-.22-7.26-.35,.06,.18,.13,.36,.19,.54-.73,.38-1.43,.84-2.2,1.13-.67,.25-1.41,.32-2.12,.47h-8.03Z"/><path d="M183.01,106.62c-.8,2.28-1.63,4.55-2.4,6.85-.71,2.14-2.39,3.17-4.37,3.76-1.56,.46-2.12,1.37-2.44,2.98-.46,2.27-1.55,4.41-2.23,6.65-.3,.98-.64,2.22-.3,3.08,2.97,7.46,1.96,15.22,1.86,22.91,0,.58-.18,1.18-.39,1.73-3.61,9.74-4.9,20.02-6.72,30.16-.48,2.69,.74,5.66,1.05,8.51,.57,5.38,1.35,10.77,1.49,16.17,.47,17.46,.74,34.92,.97,52.38,.04,3.25-.5,6.51-.69,9.76-.09,1.5-.7,2.09-2.22,2-3.14-.18-6.29-.26-9.43-.33-.5-.01-1.01,.22-1.5,.39-6.17,2.07-12.52,2.4-18.94,1.96-2.95-.2-5.9-.49-9.04-.75,1.77-4.69-3.07-3.28-4.39-5.32,.42-1.72,1.54-2.88,3.4-3.19,2.05-.34,4.12-.5,6.17-.82,2.84-.45,5.06-1.87,6.83-4.19,2.95-3.87,4.7-8.25,5.7-12.93,.26-1.24-.22-2.62-.3-3.95-.5-8.34-2.71-16.37-4.44-24.48-.12-.57-.2-1.22-.54-1.65-2.85-3.63-3.58-7.89-3.92-12.32-.86-11.41-1.78-22.81-2.73-34.22-.12-1.39-.59-2.75-.8-4.14-.17-1.15-.12-2.34-.3-3.5-.32-2.08-.61-4.2-1.22-6.2-.14-.47-1.64-.91-2.36-.73-2.03,.49-3.83,.09-5.41-1.06-.59-.43-.88-1.42-1.09-2.22-.45-1.78-.84-3.58-1.12-5.39-.4-2.6-.89-5.21-.97-7.83-.14-4.37-.02-8.75,.03-13.12,.04-3.71,.09-7.42,.22-11.12,.14-4,.23-8.02,.65-12,.27-2.55,.87-5.12,1.7-7.55,1.93-5.6,4.06-11.14,6.2-16.67,.83-2.14,1.94-4.16,2.84-6.27,.37-.86,.65-1.8,.72-2.72,.12-1.6,.03-3.22,.03-5.03,1.04,.34,1.86,.61,3,.99-1.43-4.73,3.29-5.11,5.3-8.13-2.2-1.04-4.28-2.27-6.53-3.01-2.02-.67-2.93-1.65-2.83-3.82,.05-1.09-.31-2.33-.87-3.28-1.41-2.41-2.31-4.63-.85-7.48,1.24-2.42,.18-3.8-3.36-5.2,.28-.37,.52-.74,.82-1.05,2.94-3.18,2.6-7.06,2.26-10.91-.04-.47-.66-.91-1.07-1.31-1.33-1.29-2.84-2.43-4-3.85-2.16-2.63-1.54-4.83,1.55-6.18,.4-.18,.81-.34,1.21-.52,1.34,0,2.68,0,4.02,0,6.2,2.95,12.45,5.79,18.58,8.87,6.18,3.11,13.36,3.68,19.25,7.46-.03,.27-.06,.55-.09,.82h-9.96c0,4.28,.23,8.03-.09,11.74-.2,2.31-.21,4.17,1.47,6.05,1.72,1.93,2.64,4.63,4.5,6.36,5.07,4.74,8.64,10.32,10.7,16.91,.84,2.69,1.83,5.33,2.52,8.05,1.7,6.75,3.27,13.53,4.89,20.29v7.59Z"/></g></g></svg>