<?xml version="1.0" encoding="UTF-8"?><svg id="Layer_1" xmlns="http://www.w3.org/2000/svg" viewBox="0 0 153.68 255.51"><g id="_2y61UD"><path d="M85.22,61.77c3.26,1.34,3.4,1.34,3.24,5.2-.11,2.69-.67,5.36-.99,8.04-.07,.57,0,1.16,.1,1.73,1.53,9.15,3.22,18.27,4.55,27.44,.61,4.18,.5,8.47,.77,12.71,.05,.77,.25,1.56,.55,2.27,1.83,4.34,3.79,8.62,5.52,13,.97,2.44,1.96,4.96,.82,7.7-.15,.35,.29,1.08,.63,1.48,1.7,1.98,2.22,4.35,2.24,6.85,.03,2.74-2.23,4.73-5.12,4.62-.91-.04-1.81-.15-2.49-.2-.3,1.91-.58,3.72-.86,5.52,.92,1.75,1.92,3.72,2.98,5.64,2.01,3.64,4.23,7.18,6.04,10.92,1.8,3.74,3.39,7.61,4.7,11.55,.71,2.13,.59,4.52,.93,6.78,.15,1.03,.49,2.03,.75,3.04,.55,2.11,1.28,4.19,1.62,6.33,.55,3.38,1.79,6.39,4.16,8.86,2.13,2.22,3.12,4.73,2.57,7.79-.29,1.61,.31,2.01,1.73,1.26,1.43-.76,2.64-.6,4.05,.36,.93,.63,2.34,.6,3.55,.74,1.37,.16,2.89-.15,4.1,.33,2.81,1.12,5.54,1.17,8.36,.29,.31-.1,.66-.1,.99-.12,2.74-.16,4.06,1.46,3.1,3.99-2.4,6.33-6.07,11.44-12.93,13.62-5.36,1.71-10.62,3.74-15.99,5.44-4.86,1.54-7.55,.12-9.22-4.71-.69-1.99-1.1-4.08-1.67-6.12-.12-.41-.29-.97-.6-1.13-6.09-3.15-8.4-8.77-9.68-14.97-.51-2.48-1.31-4.78-2.22-7.13-2.14-5.55-3.82-11.28-5.75-16.91-.4-1.16-1.02-2.28-1.7-3.3-2.37-3.52-4.94-6.91-7.19-10.51-1.93-3.08-4.32-3.28-6.26-.18-1.62,2.58-3.09,5.27-4.76,7.82-4.73,7.21-10.41,13.59-17.12,19.04-.35,.28-.76,.62-.89,1.02-1.41,4.22-4.68,6.83-8,9.41-.89,.69-1.94,1.19-2.77,1.93-.61,.54-.99,1.34-1.47,2.02,.63,.38,1.24,.79,1.88,1.13,2.8,1.5,5.69,2.83,8.38,4.51,2.85,1.78,2.38,5.82-.88,7.83-4.41,2.72-8.82,2.04-13.23-.22-3.23-1.65-6.56-3.1-9.85-4.63-2.16-1-4.45-1.78-6.45-3.03-2.57-1.61-4.46-3.87-3.95-7.23,.55-3.62,2.63-6.15,6.13-7.1,2.15-.58,2.53-1.82,2.8-3.7,.24-1.62,.92-3.24,1.72-4.69,.84-1.54,2.1-2.84,3.09-4.31,4.25-6.26,8.5-12.51,12.69-18.81,3.85-5.8,8.65-10.74,13.69-15.49,.24-.22,.53-.47,.62-.76,.2-.62,.61-1.6,.36-1.86-.44-.44-1.36-.69-2-.59-1.9,.31-2.65-.13-2.73-2.02-.06-1.38-.01-2.76-.01-4.49-3.03,.66-5.95,1.37-8.9,1.93-4.21,.8-8.43,1.61-12.68,2.18-1.74,.23-3.29-.77-4-2.44-.75-1.75-1.22-3.62-1.9-5.71-2.76-.55-3.7-3.09-4.01-5.64-.62-5.06-1.13-10.16-1.15-15.25-.04-9.26,.72-18.5,4.36-27.14,2.44-5.79,3.31-11.96,5.08-17.9,.89-2.98,2.44-4.96,5.41-6.35,2.19-1.03,4.27-1.45,6.57-1.59,.76-.05,1.5-.49,2.24-.77,2.44-.95,4.88-1.91,7.02-2.75,.91-2.21,1.51-4.66,2.82-6.65,1.59-2.42,4.15-2.22,6.67-1.09,1.07-1.83,1.77-3.66,2.46-5.61,1.02-2.88,1.48-6.52,4.97-8.13-7.65-8.11-10.63-16.91-4.73-27.36-.62,.04-1.02,.06-1.43,.08-.15-.14-.3-.28-.46-.43,1.15-1.45,2.33-2.88,3.45-4.35,.73-.96,1.41-1.95,2.07-2.96,.82-1.25,1.59-2.54,2.58-4.12,.35,.94,.52,1.42,.73,2,6.38-4.73,12.95-3.8,19.63-.93,2.92,1.25,5.95,2.26,8.8,3.65,1.88,.92,4.05,1.96,5.16,3.59,1.82,2.65,2.97,5.79,4.23,8.79,.35,.82,.52,2.06-.95,2.4-.05,.01-.11,.09-.12,.15-.58,2.23-1,4.52-1.79,6.67-.87,2.36-1.03,4.44,.62,6.54,1.1,1.41,.78,2.68-.78,3.68-.55,.36-1.05,.96-1.32,1.57-.4,.91-.39,2.02-.88,2.85-.98,1.67-2.34,3.08-2.54,5.2-.05,.52-1.25,1.22-2,1.32-1.96,.27-3.96,.25-5.95,.36-.64,.04-1.28,.12-1.92,.18Zm-34.14,12.47q1.46-1.41,.94-5.5c-2.23,1.67-2.44,2.74-.94,5.5Z"/></g></svg>