<?xml version="1.0" encoding="UTF-8"?><svg id="Layer_1" xmlns="http://www.w3.org/2000/svg" viewBox="0 0 205.43 212.73"><g id="_1dpJD3"><path d="M42.12,165.18c.16,1.23,.23,2.48,.49,3.69,.64,3.03,1.42,6.02,2.04,9.05,.43,2.11-.52,3.72-2.51,4.31-3.09,.91-6.26,1.83-9.05-1.05-.44-.46-1.78-.44-2.51-.16-7.33,2.82-13.25-.86-19.27-4.08-1.18-.63-1.31-1.85-.42-2.67,1.4-1.29,2.92-2.62,4.63-3.36,3.02-1.3,6.28-2.05,9.33-3.29,1.14-.46,1.99-1.66,2.82-2.95-8.46-.14-16.27-1.87-23.86-5.74,1.55-2.31,3.1-3.82,5.81-4.03,2.44-.19,4.87-.7,7.24-1.33,1.17-.31,2.48-.98,3.21-1.9,2.08-2.64,4.98-3.5,7.98-4.39,.84-.25,1.79-.88,2.21-1.61,2.02-3.47,3.87-7.03,5.79-10.55,.48-.88,.6-1.56,.17-2.67-.44-1.15-.3-2.83,.23-4,3.43-7.64,6.92-15.26,10.62-22.77,2.02-4.09,4.59-7.91,6.72-11.96,2.87-5.45,7.4-7.18,13.22-6.36,.69,.1,1.38,.17,2.11,.26-.83-4.33,2.85-8.75,6.56-8.22-.57-3.59-.97-7.27-1.83-10.84-.3-1.25-1.72-2.23-2.64-3.36-3.23,1.12-4.1,.85-5.13-1.78,1.11,1.47,2.3,2.67,3.78,1.55-1.44-2.33-2.84-4.6-4.06-6.58,.38-.66,.97-1.28,1.08-1.98,.59-3.6,1.66-7.26,1.4-10.82-.24-3.3,.76-6.16,1.6-9.07,.65-2.26,2.32-4.24,3.58-6.31,.2-.33,.63-.67,.99-.71,5.62-.63,11.24-2.01,16.87,.05,.7,.26,1.55,.09,2.29,.28,.95,.25,1.85,.66,2.62,1.45-.53-.18-1.06-.36-1.46-.49,.89,1.45,1.78,2.92,2.68,4.39-.1,.08-.2,.17-.31,.25-.28-.15-.56-.29-.74-.39-.11,1.71,.31,3.76-.48,5.13-.81,1.42-.2,1.96,.41,2.8,.19,.27,.71,.34,.83,.61,.21,.5,.38,1.11,.31,1.63-.33,2.19-.91,4.35-1.05,6.54-.04,.69,1,1.44,1.51,2.13,.69-1.07,1.4-2.25,2.2-3.37,.52-.74,.93-1.97,2.22-.68,.19,.19,1.13-.38,2.4-.83-.66,1.44-1.1,2.39-1.57,3.42,.25-.05,.39-.03,.46-.09,.74-.56,1.47-1.14,2.2-1.71-.29,.85-.54,1.72-.88,2.56-.29,.71-.69,1.38-.85,2.33,.84-.77,1.67-1.55,2.51-2.32,.26,.16,.52,.32,.77,.48-5.36,7.29-6.48,15.99-9.25,24.6,6.4-.09,12.26,.14,17.18-3.92,3.48-2.87,6.98-5.71,10.43-8.62,.77-.65,1.36-1.53,2.3-2.6-1.28-.54-2.19-1.07-3.18-1.31-2.06-.5-4.15-.86-6.24-1.24-1.26-.23-1.88-1.89-1.22-3.45,.19-.45,.55-.84,.67-1.3,.12-.45,.03-.95,.03-1.41,.79-.23,1.51-.43,2.23-.64-1.73,.14-2.97-.08-3.09-2.26-.02-.39-1.44-.57-2-1.08-.53-.48-1.23-1.74-1.11-1.85,2.15-1.99,1.48-4.14,.53-6.34-.05-.12-.05-.28-.03-.42,.01-.14,.07-.27,.15-.57,.46,.15,.91,.29,.89,.28,.72-2.29,1.43-4.54,2.14-6.8-2.41-1.6-3.06-3.34-.93-5.36,3.2-3.04,6.67-6.4,10.67-7.86,5.06-1.84,10.53-.65,15.6,2.53,.54-.51,1.29-1.21,2.02-1.92,1.43-1.39,3.07-1.72,4.84-.82,1.06,.54,2.08,1.2,3,1.95,3.47,2.84,3.73,5.75,.7,9.02-1.09,1.17-1.54,2.07-1.04,3.77,1.22,4.08,.62,7.79-3.12,10.53-.56,.41-.77,1.27-1.16,1.92-.59,.97-1.06,2.06-1.82,2.87-.86,.92-.98,1.72-.08,2.5,1.04,.89,2.23,1.62,3.44,2.49,2.42-5.22,4.68-10.22,7.05-15.16,3.33-6.93,6.97-13.69,12.05-19.54,4.14-4.77,8.74-8.91,15.27-9.88,2.62-.39,5.34-.33,8-.2,2.13,.11,3.39,1.77,3.48,3.68,.17,3.84,.33,7.75-.23,11.53-1.62,10.93-5.29,21.28-9.59,31.42-.25,.58-.46,1.18-.67,1.77-.04,.11,.04,.25,.01,.11,2.67,0,5.35-.37,7.88,.08,5.28,.92,7.08,3.85,5.94,9.13-.24,1.12-.84,2.63-1.72,3.04-1.53,.73-2.84-.51-3.67-1.78-1.1-1.69-2-3.51-3.81-6.02-.42,.79-.82,1.6-1.27,2.37-2.41,4.2-5.23,8.21-7.17,12.62-6.23,14.17-12.14,28.49-18.16,42.75-.11,.26-.15,.54-.33,1.21,3.83-1.78,7.27-.73,10.67,.62,.07,.22,.14,.44,.21,.65-1.28,.49-2.54,1.29-3.85,1.4-3.41,.31-8.6,4.6-9.26,7.99-.34,1.74,.1,3.36,1.52,4.35,1.47,1.03,3.11,2.02,4.82,2.45,8.4,2.1,14.56,6.51,16.7,15.63,4.19-3.55,8.21-6.95,12.39-10.48,1.72,1.57,3.42,3.12,5.39,4.9-4.55,3.75-8.84,7.5-13.36,10.95-12.15,9.28-24.42,18.41-38.15,25.31-14.06,7.06-29.02,11.14-44.6,12.89-5.86,.66-11.81,1.24-17.67,.98-8.11-.36-15.45-3.61-22.15-8.11-2-1.34-4.04-2.3-6.39-2.44-2.11-.12-3.58-1.19-4.81-2.69-5.34-6.51-9.17-13.81-11.41-21.93-.09-.31-.23-.61-.34-.91-.2,.04-.4,.07-.59,.11Zm118.15,8.83c-.55-.48-.96-.84-1.36-1.21-3.97-3.69-7.87-7.47-11.94-11.06-3.2-2.82-6.52-5.55-9.97-8.05-4.45-3.23-9.37-3.6-14.41-1.44-5.73,2.45-11.72,3.94-17.86,4.91-.73,.12-1.57,.44-2.06,.95-2.91,3.04-5.91,6.03-8.51,9.32-1.99,2.53-2.83,5.64-2.39,8.97,1.42,10.79,13.17,17.27,23.01,12.63,4.3-2.03,7.73-5.14,10.43-9.03,3.62-5.2,3.42-10.29-.82-15.04-1.16-1.3-2.83-2.26-4.44-3-1.31-.6-2.16-1.41-1.69-2.65,.26-.68,1.5-1.26,2.36-1.37,2.32-.29,4.48,.64,5.82,2.41,2.31,3.07,4.55,6.28,6.22,9.72,.89,1.82,.86,4.27,.66,6.39-.51,5.45-2.92,9.99-7.38,13.42,11.61-4.88,23.94-8.03,34.33-15.87Zm-75.05,18.4c-.22-1.61-.27-2.44-.45-3.24-1.99-9.13-4.41-18.2-5.85-27.42-.84-5.37-3.2-7.97-8.38-8.7-1.35-.19-2.23-.05-3.22,.79-4.19,3.57-6.6,8.01-7.51,13.5-1.41,8.49,1.61,15.62,9.39,19.28,4.91,2.32,10.25,3.74,16.02,5.78Zm52.31-44.64c3.57,2.99,7.19,5.79,10.53,8.9,3.7,3.44,7.31,7.01,10.6,10.83,1.23,1.43,2.3,2.02,4.03,1.95,6.35-.28,14.01-7.55,14.58-13.88,.38-4.26-1.49-6.77-5.65-7.41-6.81-1.04-13.03-3.02-15.87-9.5-6.13,3.07-12.12,6.07-18.21,9.12Zm-9-23.76c2.41,2.03,5.23,4.14,7.72,6.6,1.5,1.49,2.79,3.38,3.57,5.33,.57,1.45,1.19,1.72,2.21,1.05,2.85-1.85,5.6-3.85,9.02-6.23-5.71-4.71-10.89-8.97-15.88-13.09-2.4,2.29-4.5,4.29-6.63,6.33Zm-77.95,23.65c-3.93,9.34-1.26,25.14,5.54,31.48-3.98-10.55-.55-19.28,5.6-27.59-3.9-1.36-7.46-2.61-11.14-3.9Zm13.81-16.02c-.26,4.36-.5,8.14-.69,11.93-.08,1.58,1.68,3.16,2.92,2.57,3.79-1.8,7.52-3.71,11.81-5.85-1.09-.81-1.74-1.48-2.54-1.83-3.97-1.73-8.12-3.11-11.51-6.82Zm10.6,16.35c5.77,1,11.54,2.01,17.31,3,.24,.04,.58-.06,.77-.22,1.89-1.58,3.76-3.19,5.73-4.88-2.61-.53-4.96-.76-7.13-1.49-6.25-2.12-11.41,.71-16.68,3.59Zm11.68,19.51c2.2-3.59,4.2-6.84,6.51-10.61-3.6-.32-6.86-.61-10.47-.94,1.39,4.05,2.6,7.6,3.96,11.55Zm5.59-113.62c.5,2.38-1.38,3.78-2.09,5.62,1.72,1.88,5.93,1.42,4.9,6.1,4.13-4.57,.74-8.54,.65-12.68-1.44,.4-2.57,.72-3.46,.96Zm68.49,59.33l-.37-.24c-2.24,1.26-4.47,2.53-6.25,3.53-.4,3.91-.77,7.52-1.13,11.13l.36,.09c2.46-4.84,4.93-9.67,7.39-14.51Zm-68.86,77.59c.46,3.9,1.18,4.34,6.83,4.47-2.05-1.34-4.46-2.91-6.83-4.47Zm-3.55-135.93c.19,1.59,.33,2.77,.5,4.25,2.34-2.18,2.27-3.06-.5-4.25Zm-14.37,27.43c-.24-.16-.48-.32-.72-.48-.85,1.33-1.7,2.66-2.54,3.99,.2,.14,.41,.27,.61,.41,.88-1.31,1.77-2.61,2.65-3.92Z"/></g></svg>