<?xml version="1.0" encoding="UTF-8"?><svg id="Layer_1" xmlns="http://www.w3.org/2000/svg" viewBox="0 0 125.45 96.63"><g id="deZdbU"><path d="M23.59,66.84c.39-1.14,.74-2.23,1.13-3.31,.68-1.88,1.73-3.55,2.95-5.12,.21-.27,.31-.49,.04-.81-.15-.18-.2-.48-.21-.72-.07-1.56,.85-2.59,2.41-2.72,0-.67-.07-1.36,.01-2.03,.23-1.74,1.23-3.03,2.54-4.11,1.21-.99,2.58-1.71,4.02-2.29,2.47-1,5.02-1.75,7.66-2.03,1.97-.21,3.92,.07,5.52,1.49,.7,.62,1.56,.76,2.46,.73,2.8-.1,5.41-.91,7.92-2.11,3.24-1.56,6.14-3.66,9.1-5.77-.67-1.06-.54-2.24-.52-3.4,.03-1.75-.55-3.39-.98-5.05-.5-1.91-1.07-3.81-1.11-5.81-.08-4.6,1.76-8.38,5.12-11.4,5.1-4.57,11.03-5.67,17.52-3.77,5.14,1.51,9.38,4.4,12.59,8.72,1.4,1.89,2.06,4.06,2.07,6.38,.01,1.51-.23,3.01-.35,4.52,0,.05-.03,.1-.03,.15,.23,1.25-.43,2.25-.88,3.32-.32,.76-.54,1.54-.19,2.35,.12,.28,.31,.53,.43,.81,.46,1.06,.54,2.18,.39,3.3-.15,1.1-.41,2.19-.71,3.27-.28,1.01-.89,1.83-1.65,2.58-1.02,1.01-2.07,2.02-2.69,3.37-.57,1.23-1.71,1.56-2.91,1.6-1.08,.04-2.16-.08-3.25-.12-.17,0-.33-.02-.56-.03,.52,1.15,.99,2.25,1.5,3.34,1.23,2.59,2.14,5.29,2.88,8.05,.45,1.69,1.21,3.18,2.37,4.46,1.89,2.09,2.74,4.67,3.39,7.32,.41,1.72,.64,3.48,.97,5.22,.03,.18,.22,.4,.38,.46,1.84,.71,3.59,1.56,5.2,2.72,.5,.36,1.06,.63,1.6,.95,.65,.39,1.28,.81,1.95,1.15,.42,.22,.9,.31,1.34,.48,.18,.07,.35,.18,.52,.27-.12,.18-.2,.45-.36,.52-.42,.18-.69,.41-.73,.89-.01,.13-.2,.27-.34,.37-.8,.58-2.24,.62-3.01,.14-.31,.29-.57,.72-.92,.81-.45,.11-1,.05-1.44-.1-.97-.34-1.89-.82-2.85-1.2-2.12-.84-4.34-.85-6.56-.68-.58,.04-1.17,.07-1.74,.17-.32,.06-.63,.24-.94,.37-.47,.2-.92,.49-1.4,.59-.72,.14-1.19-.29-1.24-1.03-.05-.72,.19-1.36,.6-1.93,.37-.51,.79-.99,1.19-1.49,.57-.71,.6-.86,.07-1.58-.49-.66-1.05-1.27-1.56-1.92-1.7-2.16-3.09-4.48-3.66-7.2-.13-.61-.37-1.15-.66-1.7-1.01-1.9-1.91-3.85-2.02-6.15-.4,.36-.73,.67-1.07,.97-2.37,2.16-4.74,4.31-7.38,6.14-2.62,1.8-5.41,3.21-8.56,3.81-.62,.12-1.25,.19-1.92,.29,.27,2.19,.96,4.2,2.05,6.08,.39,.67,.73,1.38,1.14,2.14,.19-.04,.52-.18,.85-.17,1.3,.02,2.61,0,3.9,.17,1.06,.13,2.11,.44,3.14,.78,.4,.13,.71,.56,1.06,.85,.09,.08,.15,.19,.24,.26,.58,.44,1.17,.89,1.77,1.31,.34,.23,.72,.4,1.06,.62,.3,.19,.61,.39,.83,.66,.22,.26,.39,.61,.11,.94-.3,.35-.69,.52-1.15,.34-.22-.09-.43-.21-.64-.32-.37,1.43-.93,1.78-2.43,1.36-.69-.19-1.33-.55-1.98-.85-.69-.32-1.38-.67-2.06-1.01-.04,.04-.07,.08-.11,.12,.08,.16,.18,.31,.24,.47,.12,.35,.32,.72,.31,1.07,0,.27-.22,.64-.45,.76-.23,.12-.6,0-.91-.04-.04,0-.09-.06-.12-.1-.54-.93-1.38-.96-2.32-.87-1.01,.09-2.03,.08-3.04,.1-3.75,.1-6.73-1.42-9.05-4.32-1.24-1.54-2.23-3.23-3.07-5-.15-.32-.35-.47-.69-.51-.8-.1-1.61-.2-2.39-.36-.62-.13-1.07,.04-1.43,.54-.45,.63-.92,1.24-1.38,1.87-1.47,2.05-3.49,2.92-5.96,2.66-2.54-.27-4.09-1.85-4.94-4.14-.45-1.21-.67-2.51-1-3.83-.26,.18-.64,.37-.95,.65-1.09,1-2.14,2.05-3.23,3.05-1.13,1.03-2.22,2.13-3.45,3.03-2.93,2.15-6.17,2.72-9.62,1.46-.91-.33-1.67-.71-2.62-.15-.33,.19-.84,.09-1.26,.09-.88,0-1.76,.02-2.63-.04-.45-.03-.89-.22-1.34-.28-.6-.08-.63-.58-.84-.99-1.2-2.31-.69-4.5,.55-6.57,1.19-1.97,2.49-3.88,3.79-5.79,1.54-2.25,3.72-2.99,6.35-2.53,.08,.01,.17,.02,.28,.03Z"/></g></svg>