<?xml version="1.0" encoding="UTF-8"?><svg id="Layer_1" xmlns="http://www.w3.org/2000/svg" viewBox="0 0 130.78 225.3"><g id="dQbHzU"><path d="M75.77,65.82c1.23-.63,2.56-.71,3.91,.01,.19,.1,.47,.1,.7,.08,1.3-.13,2.46,.07,3.58,.86,.71,.5,1.64,.71,2.49,1,3.77,1.28,7.45,2.75,10.91,4.72,.71,.4,1.39,.88,2.06,1.36,.93,.67,1.55,1.54,1.93,2.67,1.4,4.15,2.82,8.29,4.37,12.39,1.11,2.94,2.53,5.76,3.62,8.71,1.31,3.56,2.26,7.25,2.04,11.08-.15,2.73-.54,5.46-.95,8.16-.64,4.19-1.32,8.38-2.13,12.54-.37,1.9-1.05,3.74-1.62,5.59-.37,1.19-1.14,1.79-2.46,1.92-1.69,.16-3.21,.66-4.66,1.77-2.22,1.71-4.91,2.37-7.74,2.25-1.2-.05-2.41-.08-3.61-.23-1.86-.24-3.35-1.13-4.36-2.76-.11-.18-.48-.27-.73-.28-1.34-.03-2.67-.01-4.13-.01-.15,1.48-.32,3.08-.46,4.68-.38,4.15-.72,8.3-1.14,12.45-.42,4.17-.87,8.34-1.38,12.51-.26,2.12-.7,4.21-1.01,6.33-.06,.4,0,.87,.17,1.23,1.01,2.12,1.77,4.28,2.02,6.64,.13,1.25,.98,2.21,1.96,3.02,1.07,.89,2.21,1.74,3.1,2.79,1.72,2.01,1.34,3.97-.87,5.4-1.8,1.17-3.77,1.88-5.89,2.18-.13,.02-.26,.06-.41,.1,.11,.95,.25,1.86,.32,2.78,.06,.87,.11,1.75,.06,2.62-.06,1.07-.06,2.08,.31,3.14,.88,2.55,.21,4.14-2.09,5.33-.46,.24-.96,.42-1.47,.51-1.81,.32-3.63,.54-5.43,.89-2.52,.5-5.02,1.1-7.53,1.63-2.46,.52-4.93,.76-7.4,0-2.52-.78-4.07-2.85-3.97-5.48,.02-.45,.3-1.02,.65-1.31,1.35-1.15,3.05-1.53,4.74-1.64,3.19-.21,6.04-1.25,8.56-3.18,.58-.44,.99-1.1,1.57-1.77-1.42-.39-2.61-.64-3.75-1.05-.89-.32-1.78-.74-2.54-1.3-1.01-.74-1.08-1.69-.25-2.62,.47-.51,1.09-.9,1.68-1.28,.62-.4,1.32-.67,1.92-1.09,.72-.5,.74-.95,.25-1.67-2.96-4.41-5.57-9.01-7.28-14.05-1.04-3.05-1.75-6.21-2.56-9.33-1.11-4.25-2.1-8.53-2.28-12.92-.1-2.4,.1-4.82,.34-7.22,.44-4.39,1.14-8.76,1.46-13.16,.12-1.67-.49-3.39-.8-5.08-.58-3.23-1.16-6.46-1.78-9.69-.04-.23-.27-.52-.49-.62-6.87-2.99-11.3-8.08-13.33-15.3-.23-.81-.86-1.51-1.31-2.25-.23-.37-.46-.75-.74-1.09-1.05-1.24-1.67-2.6-1.41-4.28,.04-.23-.13-.52-.26-.74-2.19-3.59-5.27-6.21-8.96-8.14-1.73-.91-2.23-1.93-1.81-3.81,.2-.9,.24-1.85,.51-2.72,.23-.73,.69-1.39,1.04-2.08,.12-.23,.26-.46,.33-.71,.34-1.17,.75-2.25,2.16-2.51,.14-.03,.27-.18,.39-.29,1.63-1.31,3.25-1.33,4.71,.14,1.85,1.86,3.42,3.93,3.88,6.64,.03,.2,.21,.43,.39,.56,.83,.63,1.67,1.25,2.52,1.84,.21,.15,.5,.24,.76,.26,1.48,.13,2.78,.71,4.11,1.34,.76,.36,1.74,.24,2.66,.35,.26-2.18,.46-4.19,.76-6.19,.62-4.11,1.2-8.24,2.63-12.18,.17-.46,.37-.92,.6-1.35,.38-.72,.87-1.28,1.76-1.45,.58-.11,1.12-.41,1.66-.67,2.24-1.12,2.66-2.27,1.51-4.97-.74-1.74-2.24-2.29-4.16-1.94-1.15,.21-2.33,.39-3.49,.39-1.61,0-2.56-.87-3.03-2.41-.27-.9-.68-1.7-1.55-2.24-.26-.16-.3-.68-.33-1.1-1.69-.51-1.74-1.96-1.8-3.3-.77-.27-1.49-.44-2.15-.76-.99-.49-1.28-1.13-.94-2.17,.25-.77,.65-1.5,1.05-2.21,.75-1.34,1.34-2.72,.97-4.3-.17-.72-.45-1.37-1.42-1.26-.18,.02-.44-.1-.55-.25-1.05-1.42-2.02-2.91-2.21-4.71-.47-4.6,.98-8.53,4.28-11.76,.37-.36,.84-.6,1.3-.93-.32-.72,0-1.02,.73-1.25,3.02-.97,5.97-2.18,9.03-2.98,2.31-.6,4.75-.7,7.14-1.02,.16-.02,.36,.03,.48-.05,1.63-1.12,3.41-.53,5.12-.36,1.26,.13,2.54,.47,3.72,.95,.73,.3,1.32,.99,1.92,1.57,1.09,1.03,2.18,2.07,3.2,3.18,1.35,1.48,2.66,2.98,3.9,4.55,.84,1.06,1.41,2.28,1.22,3.73-.03,.25,.11,.52,.21,.77,.86,2.27,1.51,4.58,1.31,7.05-.11,1.38-.57,2.6-1.49,3.66-.23,.27-.35,.67-.44,1.02-.4,1.64-.96,3.21-2.07,4.51-.59,.69-1.22,1.35-2.29,1.2-.19-.02-.46,.3-.63,.51-.83,1.01-1.64,2.04-2.48,3.04-.17,.2-.45,.3-.69,.44-.4,.24-1.05,.4-1.16,.73-.32,.97-.45,2.01-.58,3.03-.02,.2,.29,.54,.52,.64,.15,.06,.47-.18,.65-.36,.36-.37,.65-.82,1.01-1.19,.54-.54,1.21-.64,1.78-.14,2.21,1.9,4.2,4.02,4.76,7,.21,1.12,.64,2.01,1.2,2.95,.69,1.16,1.2,2.43,1.82,3.72Zm3.69,3.99c-.17-1.07-.27-2.05-.52-3-.07-.28-.57-.68-.84-.65-.66,.06-1.3,.34-2.03,.56,1.21,1.1,2.24,2.04,3.39,3.09Z"/></g></svg>