<?xml version="1.0" encoding="UTF-8"?><svg id="Layer_1" xmlns="http://www.w3.org/2000/svg" viewBox="0 0 566.11 563.08"><defs><style>.cls-1{fill:#2d2d2d;}</style></defs><path class="cls-1" d="M323.62,513.05c7.63,8.92,16.63,15.71,28.99,16.85,3.96,.36,8-.17,11.99,.03,2.1,.1,4.96,.2,6.11,1.51,4.05,4.57,7.5,9.67,11.57,15.08-19.9,8.69-38.89,14.17-59.58,3.77,.6,6.62-3.99,7.34-8.08,8.27-18.17,4.15-35.98,4.21-52.91-5.03-1.55-.84-3.24-1.42-6.1-2.65,0,3.36-.14,5.73,.03,8.08,.22,2.98-.87,4.33-3.97,4.1-3.96-.29-7.94-.39-12.03-.58-.46-1.62-.85-3.02-1.34-4.74-9.05-.58-18.12-1.16-27.14-1.73-1.54-8.21-3.25-15.99-4.35-23.86-.46-3.3-2.47-3.38-4.72-3.94-8.54-2.15-17.41-3.51-25.48-6.81-7.7-3.15-14.57-8.34-21.78-12.66-1.18-.71-2.26-1.57-4.48-3.12,0,4.87-.15,8.46,.05,12.03,.18,3.13-.72,4.45-4.16,4.44-9.91-.02-9.91,.12-9.94-10.07v-6.07c-1.95,.81-3.16,.97-3.86,1.66-11.81,11.7-26.9,15.6-42.63,17.35-9.05,1.01-18.26,.92-27.39,.84-3.94-.03-5.59,.98-5.11,4.99,.22,1.81-.1,3.68,.07,5.49,.42,4.3-.19,7.74-5.6,7.48-.4,10.74-3.82,15.42-10.89,15.18-6.68-.23-9.82-4.93-9.67-14.49-12.89-4.87-15.33-27.72-1.48-37.91,7-5.15,14.99-6.87,23.41-7.55,11.11-.9,22.28-1.51,33.29-3.11,17.69-2.57,30.5-11.58,36.01-29.44,.36-1.18,2.84-2.37,4.38-2.43,9.46-.31,9.47-.2,9.47-9.68v-.5c-.1-4.49,1.43-10.27-.79-13.07-1.87-2.36-8.1-1.41-12.42-1.62-3.22-.16-4.43-1.6-4.3-4.72,.14-3.28,.03-6.56,.03-10.41h-29.16c-7.59-.01-8.32-.79-7.96-8.31,.3-6.14-.07-6.51-6.25-6.49-7,.02-14-.07-21,.03-4.28,.06-6.28-1.99-7.03-6.09-5.08-27.47-10.24-54.93-15.43-82.39C21.45,264.88,10.86,208.99,.3,153.1c-1.03-5.45,.53-7.53,6.25-6.75,13.44,1.82,25.23,6.43,32.96,18.86,10.01,16.1,14.92,34.04,19.79,51.99,3.74,13.79,6.77,27.78,9.83,41.75,.72,3.3,2.09,4.35,5.33,4.37,10.9,.08,10.64,.08,14.1-9.97,10.25-29.71,15.43-60.57,20.66-91.37,4.17-24.56,12.69-46.75,29.9-65.18,5.31-5.69,11.43-9.85,18.43-13.34,4.48-2.23,7.91-6.72,11.56-10.44,1.5-1.53,2.08-3.6,5.11-2.6,.89,.29,3.53-1.9,3.92-3.34,1.7-6.39,3.44-12.87,4.09-19.42,1.18-11.85,2.77-23.4,9.15-33.86,6.41-10.51,15.12-15.59,27.16-13.23,8.36,1.64,16.44,4.97,24.46,8.02,5.38,2.05,10.43,4.93,15.98,7.61-.18,.42-.63,1.46-1.3,2.99,2.18-.31,3.9-.55,5.9-.83,.08,.94,.43,2.21,.15,2.37-4.6,2.61-2.75,6.42-2.47,10.29,.27,3.72-1,7.53-1.23,11.33-.09,1.48,.84,3.01,1.31,4.52,.77,.3,1.54,.6,2.32,.9-1.74,1.45-3.64,2.76-5.17,4.41-1.14,1.23-2.63,2.97-2.53,4.37,.25,3.38,1.26,6.72,2.14,10.03,.73,2.75-.25,4.33-2.99,4.41-1.77,.05-3.55-.52-5.68-.87-.48,1.24-.99,2.54-1.67,4.27-3.8-.81-7.65-1.63-11.5-2.46-.27,.46-.53,.93-.8,1.39,2.78,3,5.56,6,8.75,9.44-2.33,1.09-3.91,1.82-5.56,2.59-.1,.44-.3,.92-.3,1.4-.07,9.83-2.21,11.18-11.31,7.3-1.65-.71-3.5-1.21-5.28-1.29-1.33-.06-2.7,.71-4.06,1.11,.48,1.26,.91,2.53,1.47,3.75,.19,.42,.97,.67,1.01,1.06,1.16,9.97,10.98,12.31,16.47,18.45,3.29,3.68,5.87,7.24,5.76,12.18-.1,4.62,1.21,8.47,4.74,11.55,3.73,3.25,7.06,7.14,11.24,9.64,2.15,1.29,5.85,.65,8.67,.06,18.39-3.83,36.73-7.89,55.09-11.86,.96-.21,2.51-.7,2.86-.28,4.85,5.78,11.03,2.98,15.11,.54,5.77-3.46,11.42-8.51,14.79-14.25,5.41-9.2,12.37-13.74,22.85-13.79,2.66,0,5.32-1.37,7.98-2.13,.15-.04,.3-.31,.39-.28,7.55,2.19,8.71-5.9,13.4-8.27,1.45-.73,3.36-1.74,4.67-1.35,14.9,4.47,29.73,9.18,44.88,13.92-.65,.68-1.75,2.29-3.25,3.31-5.49,3.74-10.73,8.17-16.74,10.75-19.83,8.49-33.32,23.88-45.99,40.36-1.01,1.31-2.05,2.6-3.26,4.13-3.25-4.04-6.29-7.91-9.43-11.7-2.99-3.61-6.7-4.56-11.16-2.89-6.99,2.61-14.08,4.96-21.03,7.69-2.48,.98-5.53,1.85-5.33,5.7,.03,.56-1.26,1.58-2.06,1.73-20.14,3.57-38.82,11.56-57.72,18.9-8.83,3.43-17.33,3.32-25.85-1.63-4.59-2.67-9.93-4.08-14.96-6.06-1.01,8.09-2.06,15.12-2.59,22.19-.08,1.12,2.06,3.35,3.3,3.45,4.57,.38,9.3,.67,13.78-.11,5.7-.99,11.21-3.07,16.81-4.64,4.43-1.24,8.63-1.78,13.52-1.27,4.87,.51,10.69-1.98,15.1-4.73,6.57-4.1,12.23-9.65,18.38-14.45,.94-.74,2.41-.8,3.64-1.16,2.32-.69,4.99-.87,6.92-2.15,8.97-5.99,19.2-5.57,29.24,5.11,.9,.95,2.52,1.43,3.88,1.7,10.42,2,20.55,.02,30.56-2.62,2.99-.79,4.73-.32,6.84,2.08,5.51,6.24,12.19,9.72,20.86,6.75,6.54-2.24,13.14-4.34,20.89-6.89-1.91,2.84-3.16,5.46-5.09,7.42-8.68,8.8-20.16,12.05-31.59,15.05-10.6,2.78-21.32,5.24-32.13,7-2.44,.4-5.94-2.18-8.07-4.28-2.68-2.64-4.46-6.2-6.62-9.35-8.12,7.19-14.05,12.59-20.2,17.72-.95,.79-4.07,.78-4.24,.35-.66-1.62-1.24-3.95-.52-5.31,1.66-3.15,3.19-5.9-.28-9.09-4.35,2.85-8.56,6.08-13.19,8.46-2.97,1.52-6.55,1.93-9.9,2.61-4.22,.85-8.79,.9-9.37,6.89-.12,1.22-1.48,2.67-2.66,3.37-2.73,1.61-4.85,3.16-4.5,6.91,.08,.87-2.07,2.34-3.46,2.91-18.46,7.57-36.92,15.13-55.49,22.41-3.45,1.35-4.96,3-5.08,6.77-.19,5.81-.9,11.62-1.65,17.4-.49,3.75,.74,6.64,3.78,8.57,3.47,2.21,7.05,4.36,10.8,6.03,3.59,1.6,5.54,.44,5.46-3.98-.2-10.81-.07-21.63-.07-32.88,1.65-.12,3.08-.32,4.51-.32,30.66,0,61.33,.11,91.99-.05,4.3-.02,8.59-1.82,12.89-1.86,24.64-.18,49.28-.17,73.91,.02,4.44,.03,8.87,1.32,13.33,1.76,1.41,.14,2.92-.6,5.46-1.19-2.01-1.6-3.06-2.44-5.08-4.05h43.82c.03-.41,.06-.82,.09-1.23-14.86-.78-29.73-1.56-44.59-2.34,.03-.54,.07-1.09,.1-1.63,28.01,.78,56.01,1.56,84.02,2.34,.11-.9,.22-1.8,.34-2.7-1.8-.3-3.6-.86-5.39-.87-18.83-.08-37.66,.02-56.49-.14-6.49-.05-12.97-.63-19.45-1.05-1.07-.07-2.11-.57-3.08-1.75h81.88c.07-.41,.13-.82,.2-1.23-1.73-.32-3.45-.91-5.18-.92-19.33-.14-38.65-.15-57.98-.28-5.83-.04-11.66-.3-17.49-.53-1.17-.05-2.32-.44-3.37-1.79h32.86l.11-1.76c-9.34-.47-18.67-.94-28.17-1.42,.33-1.32,.52-2.08,.71-2.85-1.72-.56-3.44-1.11-5.16-1.66l.16-1.35h16.22c.05-.5,.09-1,.14-1.5-2.72-.4-5.43-.79-8.15-1.19,0-.36,.02-.73,.03-1.09h69.18c.07-.37,.13-.74,.2-1.11-1.74-.32-3.47-.91-5.21-.93-20.32-.28-40.64-.46-60.95-.73-2.25-.03-4.49-.46-6.74-.7,.01-.67,.02-1.34,.04-2.02h62.64c0-.83,.02-1.66,.02-2.48h-66.42c0-.56,0-1.12,.01-1.69h53.26c.02-.61,.04-1.23,.06-1.84h-54.63c.02-.72,.04-1.43,.06-2.15,24.6-1.91,49.3,1.98,73.91,.58,.08-.69,.16-1.39,.24-2.08-1.71-.45-3.42-1.26-5.14-1.29-21.65-.38-43.3-.64-64.95-.96-.85,0-1.69-.36-2.49-1.24,23.65-2.19,47.35,1.04,70.97,.36,0-.77,.01-1.54,.02-2.31-24.81-.47-49.62-.94-74.43-1.4v-1.85h73.24c.13-.79,.26-1.59,.38-2.38-1.88-.44-3.77-1.27-5.65-1.25-12.65,.17-25.3,.73-37.95,.73-7.21,0-14.42-.81-21.78-2.3,1.48-.47,2.96-.95,5.69-1.82-3.37-.79-5.53-1.3-7.69-1.81l.18-.99h65.82c-2.3-8.86-4.22-16.23-6.13-23.61,.39-.23,.77-.47,1.16-.7,.92,1.41,2.12,2.71,2.72,4.24,1.93,4.95,3.76,9.95,5.39,15.01,1.03,3.19,2.77,4.5,6.23,4.07,2.97-.37,6.02-.08,9.04-.08,0,.63,.01,1.26,.02,1.89-2.29,0-4.64-.29-6.86,.1-1.63,.29-3.1,1.48-4.64,2.26,1.66,.67,3.29,1.83,4.98,1.91,2.77,.13,5.56-.43,8.35-.7l.15,1.7c-3.9,.53-7.81,1.06-11.71,1.58-.15,.56-.29,1.12-.44,1.69,2.29,.86,4.58,1.71,7.63,2.85-2.18,.57-3.96,1.03-5.75,1.5-.08,.53-.16,1.07-.23,1.6l9.66,2.06c.03,.24,.06,.47,.09,.71h-9.01c3.02,5.91,8.5,1.45,11.65,4.92-2.2,.11-4.03,.2-5.87,.29-.04,.27-.08,.53-.12,.8,1.25,.5,2.49,1.01,4.27,1.73-2.27,.13-3.98,.23-5.69,.33-.05,.26-.09,.52-.14,.78,1.22,.52,2.45,1.04,3.34,1.42-.57,1.69-1.14,3.36-1.84,5.43,1.01,.46,2.26,1.02,3.96,1.79-1.18,.92-2.11,1.63-2.72,2.11,.98,4.11,1.99,8.02,2.82,11.98,.79,3.72-.25,8.62,6.13,8.85-1.04,.36-2.09,.72-3.29,1.13,12.15,6.24,24.95,7.35,38.52,5.96v301.66c-4.54,0-9.14,.21-13.68-.19-.83-.07-2.04-2.66-2.06-4.09-.16-13.66-.25-27.33,0-40.99,.09-4.72-1.7-5.95-6.15-5.94-71.33,.16-142.65,.2-213.98,.26h-5.84c-.26,.58-.51,1.17-.77,1.75l-.02-.06h0Zm-156.23-89.03c0,3.99-.03,7.15,0,10.31,.03,3.29-1.39,4.94-4.84,4.78-2.83-.14-5.67,.1-8.49-.09-2.91-.2-3.79,1.14-3.76,3.82,.07,5.83-.21,11.67,.13,17.48,.08,1.28,1.98,2.98,3.41,3.51,1.6,.59,3.74-.34,5.4,.17,1.52,.47,3.72,1.84,3.89,3.06,1.59,11.02,8.43,18.08,17.09,24.02,11.71,8.03,25.28,9.76,38.79,11.63,1.04,.14,2.95-1.29,3.39-2.41,1.56-4.01,2.79-8.16,3.84-12.33,.23-.91-.59-2.91-1.27-3.09-5.26-1.36-5.07-4.88-4-8.97,1.56-6.02,4.07-12.01,4.33-18.1,.63-14.63,.06-29.31,.24-43.96,.05-3.93-1.57-4.84-5.06-4.71-5.66,.21-11.32,.14-16.99,.11-7.99-.04-7.99-.07-7.99,7.78,0,6.23-.58,6.9-6.79,6.98-6.95,.09-13.9,.02-21.36,.02h.04Zm102.14,97.14c2.96-2.79,5.14-4.61,6.96-6.75,.38-.44-.56-2.95-.97-2.97-4.54-.22-9.1-.14-15.15-.14,3.94,4.24,6.87,7.39,9.17,9.86h-.01ZM74.88,295.45c.5,0,1.01,.02,1.51,.03,1.39-5.58,2.77-11.16,4.24-17.08h-7.96c.78,6.05,1.49,11.55,2.2,17.04h.01Zm437.36-62.94v-.82h-50.21c-.01,.27-.02,.55-.03,.82h50.24Zm-31.95,3.98l-.06-1.3h-31.52l-.03,1.3h31.61Zm23.94,23.31c0-.38,0-.77,.02-1.15h-27.61v1.15h27.59Zm14.84-3.75v-1.12h-26.22c0,.37,.01,.75,.02,1.12h26.2Zm-25.28-19.61c-.02,.28-.04,.57-.07,.85h21.27c.03-.28,.07-.57,.1-.85h-21.3Zm-27.7,22.9c.02-.37,.04-.74,.06-1.11-6.09-.28-12.18-.55-18.27-.83-.03,.65-.05,1.29-.08,1.94h18.29Zm24.5-61.63v.77h13.63c-.04-.63-.08-1.25-.13-1.88-4.5,.37-9,.74-13.5,1.11Z"/><path class="cls-1" d="M422.14,237c-5.35,.26-10.69,.51-16.04,.77,0,.46,0,.93-.02,1.39,6.94,.62,13.87,1.24,20.81,1.86,.02,.5,.05,1.01,.07,1.51-11.15,1.23-22.44,.83-33.69,.88,0,.57,0,1.14-.01,1.72,3.63,.26,7.27,.65,10.91,.76,5.99,.18,12,.45,17.98,.16,3.78-.18,6.58,.53,8.61,5.17-29.91,1.41-59.3-.81-89.19-.31,2.71-6.77,7.04-7.28,12.31-6.77,4.99,.48,10.06,.1,15.1-1.03-8.2-.42-16.41-.85-24.61-1.27-.03-.66-.05-1.32-.08-1.98,1.42-.52,2.85-1.05,4.76-1.75-1.13-1.01-2.09-1.87-3.34-2.98h76.3c.04,.62,.08,1.25,.13,1.87Zm-55.72,.64c11.72,1.68,23.44,3.42,35.24,1.31,0-.44,.02-.87,.03-1.31h-35.27Zm-2.94,9.6c0,.36-.01,.72-.02,1.08h40.86c0-.36,.01-.72,.02-1.08h-40.86Z"/><path class="cls-1" d="M340.24,254.43h87.75v1.74c-29.25,1.27-58.5,1-87.75,.24v-1.98h0Z"/></svg>