<svg width="567" height="564" viewBox="0 0 567 564" fill="none" xmlns="http://www.w3.org/2000/svg">
<path d="M323.616 513.05C331.246 521.97 340.246 528.76 352.606 529.9C356.566 530.26 360.606 529.73 364.596 529.93C366.696 530.03 369.556 530.13 370.706 531.44C374.756 536.01 378.206 541.11 382.276 546.52C362.376 555.21 343.386 560.69 322.696 550.29C323.296 556.91 318.706 557.63 314.616 558.56C296.446 562.71 278.636 562.77 261.706 553.53C260.156 552.69 258.466 552.11 255.606 550.88C255.606 554.24 255.466 556.61 255.636 558.96C255.856 561.94 254.766 563.29 251.666 563.06C247.706 562.77 243.726 562.67 239.636 562.48C239.176 560.86 238.786 559.46 238.296 557.74C229.246 557.16 220.176 556.58 211.156 556.01C209.616 547.8 207.906 540.02 206.806 532.15C206.346 528.85 204.336 528.77 202.086 528.21C193.546 526.06 184.676 524.7 176.606 521.4C168.906 518.25 162.036 513.06 154.826 508.74C153.646 508.03 152.566 507.17 150.346 505.62C150.346 510.49 150.196 514.08 150.396 517.65C150.576 520.78 149.676 522.1 146.236 522.09C136.326 522.07 136.326 522.21 136.296 512.02C136.296 510.27 136.296 508.51 136.296 505.95C134.346 506.76 133.136 506.92 132.436 507.61C120.626 519.31 105.536 523.21 89.8059 524.96C80.7559 525.97 71.5459 525.88 62.4159 525.8C58.4759 525.77 56.8259 526.78 57.3059 530.79C57.5259 532.6 57.2059 534.47 57.3759 536.28C57.7959 540.58 57.1859 544.02 51.7759 543.76C51.3759 554.5 47.9559 559.18 40.8859 558.94C34.2059 558.71 31.0659 554.01 31.2159 544.45C18.3259 539.58 15.8859 516.73 29.7359 506.54C36.7359 501.39 44.7259 499.67 53.1459 498.99C64.2559 498.09 75.4259 497.48 86.4359 495.88C104.126 493.31 116.936 484.3 122.446 466.44C122.806 465.26 125.286 464.07 126.826 464.01C136.286 463.7 136.296 463.81 136.296 454.33C136.296 454.16 136.296 454 136.296 453.83C136.196 449.34 137.726 443.56 135.506 440.76C133.636 438.4 127.406 439.35 123.086 439.14C119.866 438.98 118.656 437.54 118.786 434.42C118.926 431.14 118.816 427.86 118.816 424.01C108.576 424.01 99.1159 424.02 89.6559 424.01C82.0659 424 81.3359 423.22 81.6959 415.7C81.9959 409.56 81.6259 409.19 75.4459 409.21C68.4459 409.23 61.4459 409.14 54.4459 409.24C50.1659 409.3 48.1659 407.25 47.4159 403.15C42.3359 375.68 37.1759 348.22 31.9859 320.76C21.4459 264.88 10.8559 208.99 0.295865 153.1C-0.734135 147.65 0.825865 145.57 6.54587 146.35C19.9859 148.17 31.7759 152.78 39.5059 165.21C49.5159 181.31 54.4259 199.25 59.2959 217.2C63.0359 230.99 66.0659 244.98 69.1259 258.95C69.8459 262.25 71.2159 263.3 74.4559 263.32C85.3559 263.4 85.0959 263.4 88.5559 253.35C98.8059 223.64 103.986 192.78 109.216 161.98C113.386 137.42 121.906 115.23 139.116 96.7997C144.426 91.1097 150.546 86.9497 157.546 83.4597C162.026 81.2297 165.456 76.7397 169.106 73.0197C170.606 71.4897 171.186 69.4197 174.216 70.4197C175.106 70.7097 177.746 68.5197 178.136 67.0797C179.836 60.6897 181.576 54.2097 182.226 47.6597C183.406 35.8097 184.996 24.2597 191.376 13.7997C197.786 3.28974 206.496 -1.79026 218.536 0.56974C226.896 2.20974 234.976 5.53974 242.996 8.58974C248.376 10.6397 253.426 13.5197 258.976 16.1997C258.796 16.6197 258.346 17.6597 257.676 19.1897C259.856 18.8797 261.576 18.6397 263.576 18.3597C263.656 19.2997 264.006 20.5697 263.726 20.7297C259.126 23.3397 260.976 27.1497 261.256 31.0197C261.526 34.7397 260.256 38.5497 260.026 42.3497C259.936 43.8297 260.866 45.3597 261.336 46.8697C262.106 47.1697 262.876 47.4697 263.656 47.7697C261.916 49.2197 260.016 50.5297 258.486 52.1797C257.346 53.4097 255.856 55.1497 255.956 56.5497C256.206 59.9297 257.216 63.2697 258.096 66.5797C258.826 69.3297 257.846 70.9097 255.106 70.9897C253.336 71.0397 251.556 70.4697 249.426 70.1197C248.946 71.3597 248.436 72.6597 247.756 74.3897C243.956 73.5797 240.106 72.7597 236.256 71.9297C235.986 72.3897 235.726 72.8597 235.456 73.3197C238.236 76.3197 241.016 79.3197 244.206 82.7597C241.876 83.8497 240.296 84.5797 238.646 85.3497C238.546 85.7897 238.346 86.2697 238.346 86.7497C238.276 96.5797 236.136 97.9297 227.036 94.0497C225.386 93.3397 223.536 92.8397 221.756 92.7597C220.426 92.6997 219.056 93.4697 217.696 93.8697C218.176 95.1297 218.606 96.3997 219.166 97.6197C219.356 98.0397 220.136 98.2897 220.176 98.6797C221.336 108.65 231.156 110.99 236.646 117.13C239.936 120.81 242.516 124.37 242.406 129.31C242.306 133.93 243.616 137.78 247.146 140.86C250.876 144.11 254.206 148 258.386 150.5C260.536 151.79 264.236 151.15 267.056 150.56C285.446 146.73 303.786 142.67 322.146 138.7C323.106 138.49 324.656 138 325.006 138.42C329.856 144.2 336.036 141.4 340.116 138.96C345.886 135.5 351.536 130.45 354.906 124.71C360.316 115.51 367.276 110.97 377.756 110.92C380.416 110.91 383.076 109.55 385.736 108.79C385.886 108.75 386.036 108.48 386.126 108.51C393.676 110.7 394.836 102.61 399.526 100.24C400.976 99.5097 402.886 98.4997 404.196 98.8897C419.096 103.36 433.926 108.07 449.076 112.81C448.426 113.49 447.326 115.1 445.826 116.12C440.336 119.86 435.096 124.29 429.086 126.87C409.256 135.36 395.766 150.75 383.096 167.23C382.086 168.54 381.046 169.83 379.836 171.36C376.586 167.32 373.546 163.45 370.406 159.66C367.416 156.05 363.706 155.1 359.246 156.77C352.256 159.38 345.166 161.73 338.216 164.46C335.736 165.44 332.686 166.31 332.886 170.16C332.916 170.72 331.626 171.74 330.826 171.89C310.686 175.46 292.006 183.45 273.106 190.79C264.276 194.22 255.776 194.11 247.256 189.16C242.666 186.49 237.326 185.08 232.296 183.1C231.286 191.19 230.236 198.22 229.706 205.29C229.626 206.41 231.766 208.64 233.006 208.74C237.576 209.12 242.306 209.41 246.786 208.63C252.486 207.64 257.996 205.56 263.596 203.99C268.026 202.75 272.226 202.21 277.116 202.72C281.986 203.23 287.806 200.74 292.216 197.99C298.786 193.89 304.446 188.34 310.596 183.54C311.536 182.8 313.006 182.74 314.236 182.38C316.556 181.69 319.226 181.51 321.156 180.23C330.126 174.24 340.356 174.66 350.396 185.34C351.296 186.29 352.916 186.77 354.276 187.04C364.696 189.04 374.826 187.06 384.836 184.42C387.826 183.63 389.566 184.1 391.676 186.5C397.186 192.74 403.866 196.22 412.536 193.25C419.076 191.01 425.676 188.91 433.426 186.36C431.516 189.2 430.266 191.82 428.336 193.78C419.656 202.58 408.176 205.83 396.746 208.83C386.146 211.61 375.426 214.07 364.616 215.83C362.176 216.23 358.676 213.65 356.546 211.55C353.866 208.91 352.086 205.35 349.926 202.2C341.806 209.39 335.876 214.79 329.726 219.92C328.776 220.71 325.656 220.7 325.486 220.27C324.826 218.65 324.246 216.32 324.966 214.96C326.626 211.81 328.156 209.06 324.686 205.87C320.336 208.72 316.126 211.95 311.496 214.33C308.526 215.85 304.946 216.26 301.596 216.94C297.376 217.79 292.806 217.84 292.226 223.83C292.106 225.05 290.746 226.5 289.566 227.2C286.836 228.81 284.716 230.36 285.066 234.11C285.146 234.98 282.996 236.45 281.606 237.02C263.146 244.59 244.686 252.15 226.116 259.43C222.666 260.78 221.156 262.43 221.036 266.2C220.846 272.01 220.136 277.82 219.386 283.6C218.896 287.35 220.126 290.24 223.166 292.17C226.636 294.38 230.216 296.53 233.966 298.2C237.556 299.8 239.506 298.64 239.426 294.22C239.226 283.41 239.356 272.59 239.356 261.34C241.006 261.22 242.436 261.02 243.866 261.02C274.526 261.02 305.196 261.13 335.856 260.97C340.156 260.95 344.446 259.15 348.746 259.11C373.386 258.93 398.026 258.94 422.656 259.13C427.096 259.16 431.526 260.45 435.986 260.89C437.396 261.03 438.906 260.29 441.446 259.7C439.436 258.1 438.386 257.26 436.366 255.65H480.186C480.216 255.24 480.246 254.83 480.276 254.42C465.416 253.64 450.546 252.86 435.686 252.08C435.716 251.54 435.756 250.99 435.786 250.45C463.796 251.23 491.796 252.01 519.806 252.79C519.916 251.89 520.026 250.99 520.146 250.09C518.346 249.79 516.546 249.23 514.756 249.22C495.926 249.14 477.096 249.24 458.266 249.08C451.776 249.03 445.296 248.45 438.816 248.03C437.746 247.96 436.706 247.46 435.736 246.28H517.616C517.686 245.87 517.746 245.46 517.816 245.05C516.086 244.73 514.366 244.14 512.636 244.13C493.306 243.99 473.986 243.98 454.656 243.85C448.826 243.81 442.996 243.55 437.166 243.32C435.996 243.27 434.846 242.88 433.796 241.53H466.656L466.766 239.77C457.426 239.3 448.096 238.83 438.596 238.35C438.926 237.03 439.116 236.27 439.306 235.5C437.586 234.94 435.866 234.39 434.146 233.84L434.306 232.49H450.526C450.576 231.99 450.616 231.49 450.666 230.99C447.946 230.59 445.236 230.2 442.516 229.8C442.516 229.44 442.536 229.07 442.546 228.71H511.726C511.796 228.34 511.856 227.97 511.926 227.6C510.186 227.28 508.456 226.69 506.716 226.67C486.396 226.39 466.076 226.21 445.766 225.94C443.516 225.91 441.276 225.48 439.026 225.24C439.036 224.57 439.046 223.9 439.066 223.22H501.706C501.706 222.39 501.726 221.56 501.726 220.74H435.306C435.306 220.18 435.306 219.62 435.316 219.05H488.576C488.596 218.44 488.616 217.82 488.636 217.21H434.006C434.026 216.49 434.046 215.78 434.066 215.06C458.666 213.15 483.366 217.04 507.976 215.64C508.056 214.95 508.136 214.25 508.216 213.56C506.506 213.11 504.796 212.3 503.076 212.27C481.426 211.89 459.776 211.63 438.126 211.31C437.276 211.3 436.436 210.95 435.636 210.07C459.286 207.88 482.986 211.11 506.606 210.43C506.606 209.66 506.616 208.89 506.626 208.12C481.816 207.65 457.006 207.18 432.196 206.72C432.196 206.1 432.196 205.49 432.206 204.87H505.446C505.576 204.08 505.706 203.28 505.826 202.49C503.946 202.05 502.056 201.22 500.176 201.24C487.526 201.41 474.876 201.97 462.226 201.97C455.016 201.97 447.806 201.16 440.446 199.67C441.926 199.2 443.406 198.72 446.136 197.85C442.766 197.06 440.606 196.55 438.446 196.04C438.506 195.71 438.566 195.38 438.626 195.05H504.446C502.146 186.19 500.226 178.82 498.316 171.44C498.706 171.21 499.086 170.97 499.476 170.74C500.396 172.15 501.596 173.45 502.196 174.98C504.126 179.93 505.956 184.93 507.586 189.99C508.616 193.18 510.356 194.49 513.816 194.06C516.786 193.69 519.836 193.98 522.856 193.98C522.856 194.61 522.866 195.24 522.876 195.87C520.586 195.87 518.236 195.58 516.016 195.97C514.386 196.26 512.916 197.45 511.376 198.23C513.036 198.9 514.666 200.06 516.356 200.14C519.126 200.27 521.916 199.71 524.706 199.44L524.856 201.14C520.956 201.67 517.046 202.2 513.146 202.72C512.996 203.28 512.856 203.84 512.706 204.41C514.996 205.27 517.286 206.12 520.336 207.26C518.156 207.83 516.376 208.29 514.586 208.76C514.506 209.29 514.426 209.83 514.356 210.36L524.016 212.42C524.046 212.66 524.076 212.89 524.106 213.13H515.096C518.116 219.04 523.596 214.58 526.746 218.05C524.546 218.16 522.716 218.25 520.876 218.34C520.836 218.61 520.796 218.87 520.756 219.14C522.006 219.64 523.246 220.15 525.026 220.87C522.756 221 521.046 221.1 519.336 221.2C519.286 221.46 519.246 221.72 519.196 221.98C520.416 222.5 521.646 223.02 522.536 223.4C521.966 225.09 521.396 226.76 520.696 228.83C521.706 229.29 522.956 229.85 524.656 230.62C523.476 231.54 522.546 232.25 521.936 232.73C522.916 236.84 523.926 240.75 524.756 244.71C525.546 248.43 524.506 253.33 530.886 253.56C529.846 253.92 528.796 254.28 527.596 254.69C539.746 260.93 552.546 262.04 566.116 260.65V562.31C561.576 562.31 556.976 562.52 552.436 562.12C551.606 562.05 550.396 559.46 550.376 558.03C550.216 544.37 550.126 530.7 550.376 517.04C550.466 512.32 548.676 511.09 544.226 511.1C472.896 511.26 401.576 511.3 330.246 511.36C328.296 511.36 326.346 511.36 324.406 511.36C324.146 511.94 323.896 512.53 323.636 513.11L323.616 513.05ZM167.386 424.02C167.386 428.01 167.356 431.17 167.386 434.33C167.416 437.62 165.996 439.27 162.546 439.11C159.716 438.97 156.876 439.21 154.056 439.02C151.146 438.82 150.266 440.16 150.296 442.84C150.366 448.67 150.086 454.51 150.426 460.32C150.506 461.6 152.406 463.3 153.836 463.83C155.436 464.42 157.576 463.49 159.236 464C160.756 464.47 162.956 465.84 163.126 467.06C164.716 478.08 171.556 485.14 180.216 491.08C191.926 499.11 205.496 500.84 219.006 502.71C220.046 502.85 221.956 501.42 222.396 500.3C223.956 496.29 225.186 492.14 226.236 487.97C226.466 487.06 225.646 485.06 224.966 484.88C219.706 483.52 219.896 480 220.966 475.91C222.526 469.89 225.036 463.9 225.296 457.81C225.926 443.18 225.356 428.5 225.536 413.85C225.586 409.92 223.966 409.01 220.476 409.14C214.816 409.35 209.156 409.28 203.486 409.25C195.496 409.21 195.496 409.18 195.496 417.03C195.496 423.26 194.916 423.93 188.706 424.01C181.756 424.1 174.806 424.03 167.346 424.03L167.386 424.02ZM269.526 521.18C272.486 518.39 274.666 516.57 276.486 514.43C276.866 513.99 275.926 511.48 275.516 511.46C270.976 511.24 266.416 511.32 260.366 511.32C264.306 515.56 267.236 518.71 269.536 521.18H269.526ZM74.8759 295.45C75.3759 295.46 75.8859 295.47 76.3859 295.48C77.7759 289.9 79.1559 284.32 80.6259 278.4H72.6659C73.4459 284.45 74.1559 289.95 74.8659 295.44L74.8759 295.45ZM512.236 232.49C512.236 232.22 512.236 231.94 512.236 231.67H462.026C462.016 231.94 462.006 232.22 461.996 232.49H512.246H512.236ZM480.286 236.47L480.226 235.17H448.706L448.676 236.47H480.286ZM504.226 259.78C504.226 259.4 504.236 259.01 504.246 258.63H476.636C476.636 259.01 476.636 259.4 476.626 259.78H504.236H504.226ZM519.066 256.03C519.066 255.66 519.066 255.28 519.056 254.91H492.836C492.836 255.28 492.846 255.66 492.856 256.03H519.066ZM493.786 236.42C493.766 236.7 493.746 236.99 493.716 237.27H514.986C515.016 236.99 515.056 236.7 515.086 236.42H493.776H493.786ZM466.086 259.32C466.106 258.95 466.126 258.58 466.146 258.21C460.056 257.93 453.966 257.66 447.876 257.38C447.846 258.03 447.826 258.67 447.796 259.32H466.086ZM490.586 197.69C490.586 197.95 490.586 198.2 490.586 198.46H504.216C504.176 197.83 504.136 197.21 504.086 196.58C499.586 196.95 495.086 197.32 490.586 197.69Z" fill="black"/>
<path d="M422.586 236.999C417.236 237.259 411.896 237.509 406.546 237.769C406.546 238.229 406.536 238.699 406.526 239.159C413.466 239.779 420.396 240.399 427.336 241.019C427.356 241.519 427.386 242.029 427.406 242.529C416.256 243.759 404.966 243.359 393.716 243.409C393.716 243.979 393.716 244.549 393.706 245.129C397.336 245.389 400.976 245.779 404.616 245.889C410.606 246.069 416.616 246.339 422.596 246.049C426.376 245.869 429.176 246.579 431.206 251.219C401.296 252.629 371.906 250.409 342.016 250.909C344.726 244.139 349.056 243.629 354.326 244.139C359.316 244.619 364.386 244.239 369.426 243.109C361.226 242.689 353.016 242.259 344.816 241.839C344.786 241.179 344.766 240.519 344.736 239.859C346.156 239.339 347.586 238.809 349.496 238.109C348.366 237.099 347.406 236.239 346.156 235.129H422.456C422.496 235.749 422.536 236.379 422.586 236.999ZM366.866 237.639C378.586 239.319 390.306 241.059 402.106 238.949C402.106 238.509 402.126 238.079 402.136 237.639H366.866ZM363.926 247.239C363.926 247.599 363.916 247.959 363.906 248.319H404.766C404.766 247.959 404.776 247.599 404.786 247.239H363.926Z" fill="black"/>
<path d="M340.686 254.43H428.436V256.17C399.186 257.44 369.936 257.17 340.686 256.41C340.686 255.75 340.686 255.09 340.686 254.43Z" fill="black"/>
</svg>
