<?xml version="1.0" encoding="UTF-8"?><svg id="Layer_1" xmlns="http://www.w3.org/2000/svg" viewBox="0 0 144.16 264.46"><defs><style>.cls-1{fill:#010101;}</style></defs><path class="cls-1" d="M133.62,174.17c-1.62-.32-1.23-1.07-1.11-2.25,.23-2.21,2.13-5.38-2.42-5.6-.09,0-.21-.25-.23-.4-.3-1.68-1.44-3.09-.73-5.11,1.01-2.84,.06-4.1-2.87-4.96-.35-.1-1.08,.05-.87-.55,.87-2.54-.67-2.61-2.92-2.22,.52-.66,.71-.9,.9-1.14,.83-1,1.68-2.15,1.02-3.4-.67-1.27-2.11-1.22-3.42-1.12-1.14,.09-2.28,.16-4.05,.28,1.92-1.6,2.2-4.21,4.22-4.43,3.76-.41,6.91-2.14,10.18-3.7,1.5-.72,2.47-2.11,2.57-3.52,.12-1.64-1.91-1.23-3.42-2.16,3.27-.69,1.19-3.71,2.92-5.26,1.37-1.23,1.43-2.37-.95-2.79-1.67-.3-4.02-.71-2.16-3.47,.39-.58,.33-1.25-.31-1.53-1.97-.88-1.41-1.96-.58-3.39,.84-1.45,.16-3.21-.12-4.62-.26-1.3-2.05-.27-3.17-.22-.71,.03-1.72,.66-2.07-.19-.29-.68,.11-1.61,.84-2.2,1.86-1.48,1.32-2.3-.77-2.64-.81-.13-1.53-.3-1.27-1.41,.51-2.2-.94-2.46-2.52-2.38-1.52,.08-3.03,.36-4.53,.58-.66,.1-1.55,.53-1.81-.28-.64-1.95-1.69-1.48-3.17-.28,.22-1.32,.38-2.06,1.39-2.34,2.21-.62,3.88-2.16,5.43-3.66,1.7-1.66,3.29-3.68,1.88-6.34-.76-1.43-.58-2.01,1.13-2.41,2.61-.61,4.44-2.46,5.66-4.79,.78-1.49,.94-2.95-1.55-2.67-.45,.05-1.02,.15-.99-.39,.11-1.71-1.42-2.68-1.75-4.27-.31-1.45-.24-3.86-3.02-3.58-.68,.07-.53-.74-.55-1.19-.05-.87-.04-1.75-1.09-2.05-1.08-.31-1.43,.67-2.03,1.21-.32,.29-.4,1.02-1.12,.71,1.45-4.23,1.53-4.35-2.6-7.09-2.66-1.76-3.53,1.59-5.29,2.38-.7-.53-.99-1.62-1.99-1.49-1.57,.19-.91-.75-.78-1.41,.06-.3,6.37-2.14,6.61-1.95,.56,.44,1.06,1.44,1.85,.66,.56-.55,.2-1.43-.16-2.15-.26-.52-.34-1.15-.64-1.65-1.07-1.78-1.96-4.76-3.35-5.03-2.66-.52-1.24-1.74-1.24-2.79,0-.84,.14-1.7,.02-2.51-.23-1.54-.96-2.17-2.4-1-.42,.34-.5,1.12-1.23,1.07-1.19-1.35-.63-3.8-2.56-4.48-2.29-.8-1.6-1.65-.32-2.66,.59-.46,.89-1.01,.9-1.73,0-.61-.09-1.13,.86-1.15,2.53-.05,2.37-1.46,1.96-3.47-.67-3.25-3.08-5.31-4.96-8.03,2.65-.33,2.49-1.71,1.57-3.38-.33-.59-.46-1.49-.96-1.76-1.47-.8-1.43-2.03-1.6-3.42-.16-1.33-.53-3.2-1.68-3.64-2.35-.89-3.26-2.83-4.19-4.69-1.09-2.18-2.91-3.63-4.64-3.05-1.38,.46-3.32,4.46-2.97,5.89,.17,.67,1.22,1.27,.45,2.01-.71,.68-1.39-.21-2.1-.36-.58-.12-1.17-.21-1.74-.36q-3.69-1-3.49,2.65c0,.08-.25,.17-.44,.29-.21-1.04-.66-1.84-1.64-2.37-2.05-1.11-4.23,1.28-6.25-.31-.14-.11-.84,.16-.85,.29-.3,2.72-3.77,4.22-2.82,7.45,.16,.54,.37,1.53-.98,1.57-4.72,.15-4.83,.32-4.87,5.01,0,.15-.11,.29-.17,.44-.16,.01-.33,.06-.48,.03-1.95-.36-4.55-3.37-5.26,1.3-.02,.13-.21,.25-.35,.34-.71,.43-6.76-.3-7.11-1.03-1.96-4.04-2.18-.55-2.83,.65-.44,.81-.74,1.72-1,2.61-.77,2.69,.65,7.62,2.63,7.83,2.54,.26,2.27,1.64,2.27,3.29-.02,4.29,3.81,4.43,6.45,5.57,1.64,.71,2.58-1.16,3.52-2.32,.84-1.03,1.52-2.47,3.2-1,.54,.47,.84-.05,1.09-.55,.58-1.17,0-4.73-1.15-5.09-2.36-.75-2.1-2.41-1.88-4.22-.39,2.13,2.07,1.92,2.58,3.21,.91,2.35,1.58,4.77,1.63,7.32,0,.5,.17,1.32-.34,1.35-2.92,.15-4.58,2.98-7.25,3.41-2.66,.42-3.07,1.58-1.9,3.77,.19,.36,.32,.84,.25,1.22-.16,.81-.87,1.22-1.53,1.59-.37,.21-.75-.08-.79-.37-.22-1.66-1.64-1.86-2.77-2.56-3.9-2.4-8.59-.19-9.03,4.41-.07,.75-.25,1.33-.96,1.64-1.74,.76-2.47,2.23-2.78,3.97-.35,1.99-1.81,2.22-3.39,2.12-.91-.06-1.81-.37-2.72-.59-2.09-.49-3.31,.43-3.14,2.57,.2,2.48,1.26,4.65,3.4,5.99,2.07,1.3,2.9,3.18,3.29,5.43,.33,1.92-.79,2.95-2.74,2.49-1.81-.43-3.55-1.18-5.46-1.18-1.01,0-1.62,.21-1.35,1.48,.81,3.81,4.94,7.97,9.83,6.19,1.59-.58,2.91-1.17,4.01,.75,.3,.52,1.07,.95,1.79,.76,3.05-.77,5.64-.67,8.63,1.2,1.49,.93,2.62,1.68,3.5,3.12,.43,.72,.83,1.34,.27,2.06-.76,.97-1.29-.16-1.94-.29-1.97-.39-3.92-2.39-5.92-.75-1.26,1.04-1.65,.87-2.73-.16-2.28-2.17-5.72-1.17-6.58,1.81-.38,1.32-1.31,1.19-2.18,1.17-2.92-.07-5.01,1.06-6.33,3.77-.54,1.11-1.42,2.14-2.36,2.97-3.83,3.38-4.31,6.31-1.55,10.85,.54,.88,.73,1.1-.48,1.76-3.79,2.04-3.65,2.15-2.63,5.79,.63,2.25,2.37,3.19,4.22,4.09,2,.96,3.97,1.59,5.26,3.93,1.16,2.11,3.05,4.08,6.49,2.7,3.12-1.26,6.64,.95,5.61,2.73-1.1,1.88-1.08,4.5-3.42,6.44,.31-2.79-1.34-3.06-2.8-3.04-1.4,.02-2.85,.51-3.78,1.78-.27,.37-.21,1.18-.93,.9-4.24-1.67-7.36,.76-10.78,2.63-2.35,1.28-3.41,2.74-2.89,5.39,.25,1.29,.3,2.59-1.05,3.6-3.85,2.9-3.85,2.95-2.48,7.77,.38,1.33,.29,2.11-1.28,1.64-1.79-.54-1.65,.56-1.51,1.62,.1,.74,.47,1.39,.48,2.21,.02,5.02,.95,6.88,5.55,8.06,2.93,.75,3.74,2.29,4.12,4.8,.25,1.66,.89,3.25,2.9,3.32,2.48,.09,4.87-.06,6.62-2.38,1.39-1.86,3.77-1.74,5.3-.02,.93,1.04,2.22,1.21,3.48,1.26,2.11,.09,4.23,.17,6.33,.06,.96-.05,1.46,.03,1.99,.96,2.37,4.22,5.99,5.5,10.77,3.95,3.41-1.1,3.55-1.05,5.4,2.08,.46,.78,1.03,1.41,2.05,1.04,.93-.34,1.63-.96,1.63-2.05,0-.41-.18-.82-.33-1.21-.32-.84-.01-1.6,.56-2.07,.6-.5,1.03,.31,1.5,.59,1.4,.82,2.82,1.14,4.37,.45,1.2-.54,1.65-.1,1.69,1.18,.12,3.3,.56,6.58,.42,9.91-.17,4.4,0,8.77,.9,13.15,1.55,7.48,1.42,15.2,1.49,22.74,.05,5.71,.19,11.59-.67,17.34-.22,1.45,.07,2.38,2.02,2.25,1.2-.08,2.54,.51,3.75,.87,1.39,.41,3.74,1.66,4.93,.02,1.34-1.85,3.27-2.59,5.08-3.84-.77-.72-1.97-.61-2.19-2.11-1.05-7.32-1.62-14.66-1.52-22.05,.1-7.38,.4-14.74,.05-22.13-.29-6.18,.05-12.39,.12-18.58,.01-.93,.61-2.03,1.39-1.07,1.31,1.62,2.08,.58,3.18-.01,1.92-1.04,1.09,2.19,2.61,1.76,.45-.13,.77-.65,1.2-.89,2.05-1.14,3.12-.73,3.74,1.52,.43,1.57,1.28,1.67,2.4,.8,1.53-1.2,3.07-2.42,4.46-3.77,.92-.9,1.8-.94,2.97-.7,3.36,.67,6.57,2.82,10.2,1.06,.54-.26,1.15,.09,1.65,.45,.36,.25,.88,.46,1.16,.09,1.33-1.72,3.82-2.14,4.75-4.32,.45-1.05,1.35-1.69,2.47-1.96,2.14-.52,3.07-2.24,3.98-4,.57-1.1,.17-2.02-.83-2.22ZM28.5,113.51c.52,.64,.35,1.78-.57,2.18-1.69,.73-1.33-1.53-2.5-1.75,1.09-.28,2.05-1.7,3.07-.43Zm1.71,12.51c-.2,.36-.93,.16-1.3-.3-.38-.47-.85-.84-1.47-.85-.68,0-1.76,.81-1.92-.22-.15-1.01,.75-2.05,1.63-2.63,.73-.48,1.74-.53,2.74-.81-.04,0,.05-.03,.12,0,.29,.13,.58,.28,.87,.42-1.31,1.32,.08,3.04-.67,4.39Zm-.61,27.03c-2.26-.23-3.55,1.71-5.41,2.37-.16,.06-.31,.13-.51,.23-.62-.28-1.5-.33-1.34-1.4,.24-1.62,2.54-3.01,4.16-2.43,.86,.31,1.62,.22,2.45,0,.45-.12,.81,.2,.89,.66,.03,.18-.18,.58-.25,.57Zm19.59-11.36c-1.72,.85-3.55,1.48-5.57,2.28,.15-1.91,.16-1.93,1.81-1.77,.6,.06,.68-.41,.8-.76,.26-.76,.84-1.23,1.37-1.77,.98-1.01,1.77-.65,2.51,.27,1.01,1.25-.42,1.51-.92,1.75Zm9.54,39.99c-.45-.52-.19-1.46-1.01-1.77,.3-.66,.82-1.04,1.52-1.26,.71,.23,1.16,.84,1.2,1.45,.06,1.06-1.24,.92-1.7,1.58Zm3.04-86.77c.44-1.68,1.12-2.64,2.52-2.78,.25-.03,.86,.63,.8,.81-.45,1.39-1.73,1.51-3.32,1.97Zm13.8-74.02c.71,.33,1.18-.47,1.89-.31-.24,1.04-.65,1.92-1.76,1.78-.5-.06-1.59,.2-1.5-.88,.07-.78,.79-.87,1.36-.6Zm1.22,33.13c-.87-.28-2.2,1.38-2.64-.59-.44-1.98-2.98-2.88-2.68-5.25,.05-.41-.07-.83,.43-1.29,.91,.84,.68,1.99,1.14,2.87,.5,.95,.65,2.32,2.48,1.54,1.16-.49,1.65,.96,2.16,1.72,.58,.87-.63,1.09-.89,1Zm3.57-6.57c.41-1.73-1.22-3.09-2.54-4.29,2.63,1.14,4.3,3.94,4.71,7.61-1.52-.78-2.66-1.24-2.16-3.32Zm11.12,60.42c-.31,.6-.68,1.5-1.6,1.45-1.45-.08-2.8,.45-4.65,.71,1.32-1.24,2.66-1.81,3.41-3.08,.25-.42,1.13-1.25,1.9-.39,.36,.4,1.27,.67,.94,1.3Zm.63-11.77c-1.97,.54-4.04-.27-6.31,.58,.44-.95,.79-1.9,1.66-1.63,1.57,.49,2.95,.18,4.41-.35,.69-.25,1.47-.03,1.53,.83,.07,1.02-.81,.45-1.29,.58Zm2.52-44.44c-1.4,.3-3.2,.36-4.03-.54-1.03-1.1-2.03-1.15-3.77-1.03,1.46-1.42,2.31-2.88,4.13-1.5,1.19,.91,2.49-.84,3.81,.31,.58,.5,1.27,.83,1.28,1.59,.02,.82-.83,1.04-1.43,1.16Zm4.77,15.53c-.78,.94-1.56,1.78-3.14,1.46,.29-1.19,1.36-1.41,1.87-2.19,1.97-3.03,2.17-2.99,4.3-.09,.38,.52,.39,.93,.05,1.32-.58,.67-.81,.08-1.01-.38-.62-1.41-1.37-.95-2.06-.12Zm1,46.68c-.13-.06-.28-.24-.3-.38-.06-.39,.19-.73,.53-.71,1.56,.1,1.17-.56,.65-1.43-.22-.37-.75-.94-.18-1.3,.45-.28,1.24-.44,1.66-.22,.53,.28,.83,1,1.16,1.43-.02,.99-2.8,2.94-3.52,2.61Zm14.47,26.01c-1.2,1.02-1.33,2.97-3.48,3.2,.87-1.37,1.7-2.77,2.62-4.1,.25-.37,.78-.3,1.14-.01,.61,.49-.02,.69-.28,.91Z"/></svg>