<?xml version="1.0" encoding="UTF-8"?><svg id="Layer_1" xmlns="http://www.w3.org/2000/svg" viewBox="0 0 172.6 260.71"><defs><style>.cls-1{fill:#010101;}</style></defs><path class="cls-1" d="M163.15,139.13c-2.53-.62-5.3-3.48-8.13,.23-.33-4.28-3.01-2.71-5.12-2.41,.32-1.37,1.88-3.05,.4-3.59-2.3-.83-4.25-3.17-7.15-2.13-1.37,.49-2.83,.74-4.23,1.18-.84,.26-1.37,.12-1.72-.99,3.59-.21,6.27-3.79,10.32-2.13,.9,.37,1.97-.91,2.47-1.85,.56-1.06-.52-1.57-1.16-2.17-1.49-1.41-3.45-2.46-2.34-5.23,.52-1.31-.62-2.17-2.09-2-.69,.08-1.28,.74-2.35,.22,.34-.92,1.35-2.09-.07-2.94-1.27-.76-1.99,.45-2.92,.89-.58,.27-1.12,.62-1.69,.9-.4,.2-.86,.45-1.24,.01-.34-.4-.13-.85,.03-1.28,.57-1.47,3.79-2.7,5.48-1.79,4.39,2.37,8.33,.47,12.12-1.32,2.84-1.34,3-4.72,.63-6.42,.38-.4,.79-.77,1.13-1.2,1.84-2.37,1.44-3.45-1.56-4.42-.25-.08-.51-.24-.68-.43-4.01-4.95-9.8-2.88-14.84-3.58-1.37-.19-3.21,.44-3.77-.93-.37-.91,.75-2.39,2.12-3.24,.5,1.01,.19,2.49,1.72,2.52,1.33,.03,6.04-3.45,6.17-4.79,.18-1.87,1.29-2.16,2.83-2.65,1.3-.41,3.44,.35,3.82-1.31,.34-1.49,1.2-1.67,2.19-2.24,1.09-.62,2-1.58,2.93-2.44,.68-.63,.82-1.44,.31-2.24-.47-.75-1.21-.65-1.96-.5-1.89,.36-3.78,.68-5.96,1.07,4.83-5.15,4.56-6.11-1.91-8.02-.18-.05-.36-.07-.54-.11-.87-.23-1.6-.67-1.49-1.67,.26-2.23,.16-4.02-2.91-3.22-.15,.04-.56-.45-.66-.75-.69-2.08-2.06-2.53-4.01-1.43,.15-1.91,1.01-2.74,2.56-3.32,2.06-.77,4.33-1.55,5.86-3.01,2.36-2.24,4.25-5.06,1.31-8.34-.52-.58-.27-1.21-.34-1.81-.28-2.52-1.08-3.08-2.95-1.52-1.69,1.41-2.76,.69-3.95-.42-.53-.5-.87-1.2-1.41-1.67-1.25-1.06-2.62-1.75-3.34,.48-.37,1.13-1.18,1.57-2.04,1.37-1.33-.31-2.51-.65-3.81,.18-.52,.33-1.33-.02-1.57-.71-.25-.72,.48-.88,.94-1.07,3-1.21,4.45-3.99,6.26-6.33,1.22-1.57,1.52-3.24-1.03-4.29-1.83-.76-3.44-1.95-4.36-3.95-.5-1.08-1.5-1.94-2.71-.35-.9,1.19-1.88,2.5-3.59,.77-.41-.41-1.48-.34-2,.33-.9,1.14-2.22,1.06-3.42,1.39,0-1.62,2.35-3.92,4.4-3.98,1.38-.04,2.66,.42,3.24-1.49,.39-1.29,1.28-2.44,1.18-3.88-.13-1.71-.68-3.13-2.78-2.92-1.02,.11-1.22-.15-1.48-1.19-.86-3.43-2.25-6.53-6.43-7.07-.54-.07-.99-.76-1.51-1.12-1.12-.77-2.2-1.3-2.48,.75-.16,1.14-.6,1.71-1.96,1.71-1.23,0-2.47,.56-3.7,.88-2.49,.65-5.15-.53-7.68,1.39-1.21,.92-2.3,1.27-1.86,2.88,.4,1.44,1.02,2.81,1.53,4.16,1.31-.21,1.25-1.79,2.59-1.83,.33,1.17,.48,2.47,1.05,3.54,.65,1.21,.61,1.76-.7,2.45-1.44,.76-1.74-.15-2.24-1.04-.54-.96-1.67-2.48-2.27-1.9-2,1.93-2.07-.51-2.56-1.05-1.34-1.51-3.32-2.54-3.53-4.99-.24-2.75-2.97-4.51-5.59-3.55-1.37,.5-2.74,.61-4,.45-1.56-.2-2.86-.05-4.17,.75-.91,.55-1.91,.43-2.93,.26-2.6-.43-4.27,.71-4.87,3.25-.35,1.45-1.11,2.62-2.41,3.13-1.61,.63-2.42,1.71-2.92,3.25-.48,1.48-1.03,2.85-3.01,2.97-1.13,.07-1.32,1.24-1.2,2.15,.27,2.02-1.63,2.13-2.16,1.6-1.71-1.73-4.47-.98-6.01-2.93-.65-.83-1.82-.9-2.82-.74-2.14,.35-4.2,1.51-6.3-.45-.66-.61-1.96,.11-2.53,1.08-.55,.94-1.04,1.93-1.42,2.95-.62,1.67-2.02,2.83-3.51,2.45-2.82-.72-3.63,.97-4.33,2.89-.66,1.8-2.86,2.63-2.89,4.77-2.32-.86-2.6,4.35-5.51,1.86-.02-.01-.54,.43-.69,.72-.8,1.62,.12,6.64,1.52,7.47,2.07,1.22,4.02,.12,5.46-1.17,1.21-1.09,1.53-.61,1.84,.4,.59,1.94,1.89,2.81,3.84,2.96,1.44,.11,2.61,1.77,4.07,1.18,3.18-1.29,5.65-.57,7.96,2.09-2.87,1.35-6.05,1.95-6.95,5.42-.16,.61-.84,.6-1.38,.71-2.06,.4-4.04,.83-5.94-.73-.83-.68-2.24-1.47-2.89,.35-.99,2.76,0,5.28,1.63,7.42,1.5,1.99,3.63,2.66,6.11,1.52,.85-.39,2.14-1.08,2.62,.25,1.4,3.85,4.51,4.33,7.93,4.41,.73,.02,1.41-.03,1.56,1.06,.35,2.47-4.15,6.66-6.47,5.91-.79-.25-1.4-.73-1.74-1.61-.32-.85-.93-1.58-1.3-2.41-.91-2.03-2.56-2.32-4.52-2.18-2.28,.16-3.37,1.93-4.67,3.53-1.13-1.18-.59-3.14-1.88-3.68-2.1-.87-1.91,1.62-2.86,2.46-2.9,2.55-4.69,5.61-3.16,9.67,.2,.54-.18,1.12-.13,1.54,.3,2.62-2.42,3.85-2.5,6.3-1.65-.61-2.86-2.39-4.67-1.27-1.94,1.2-3.61,2.86-3.19,5.29,.37,2.11-.44,4.93,3.59,5.39,1.44,.17,3.37,2.21,5.61,2.43-.48,1.2-1.29,1-1.87,.64-3.16-1.94-5.29-.17-7.47,1.87-1.97,1.84-1.41,3.86-.45,5.76,.94,1.85,2.76,1.22,4.13,.7,1.81-.68,3.32-1.35,4.6,.83,.39,.65,1.42,1.12,2.2,.88,2.89-.86,3.31,1.17,3.94,3.11,.56,1.72,.86,3.51,2.08,5.02,.7,.87,.33,2.18-.03,3.18-.24,.66-1.08,.42-1.69,.13-2.93-1.39-6.16-1.5-8.69,.17-2.2,1.46-6.67,.02-6.55,4.7,0,.18-.59,.37-.9,.56-2.66,1.66-3.17,2.83-1.68,5.67,.85,1.63,2.32,2.99,3.69,4.28,.71,.67,1.8,.84,2.84,.37,1.35-.61,2.29-.49,3,1.12,.8,1.8,2.41,1.82,3.93,.84,.89-.57,1.61-1.4,2.44-2.13,.89,.73,1.31,2.15,2.64,2.17,1.04,.01,1.4,.37,1.62,1.34,.36,1.6,1.37,1.87,2.6,.83,.92-.77,1.43-.95,2.3,.24,1.35,1.85,3.22,2.27,5.29,.94,1.22-.78,2.49-1.49,3.6-2.15,2.02,2.64,3.9,5.34,3.32,8.92-.92-.39-.64-1.24-.81-1.91-.48-1.83-1.91-1.78-3.28-1.5-1.55,.31-3.73,.33-3.89,2.29-.17,2.11,.29,4.35,.87,6.43,.61,2.2,2.87,2.86,4.7,1.68,1.37-.88,2.36-1.09,3.01,.94,.53,1.66,1.67,2.83,3.34,.8,.76-.92,1.4-1.04,2.05,.18,1.66,3.12,1.7,3.12,4.47,1.05,.5-.38,.93-.86,1.37-1.32,1.98-2.07,4.58,.02,6.73-1,.03-.02,.32,.32,.29,.38-.86,1.39,1.03,2.9,.33,3.7-1.01,1.15-1.89-.87-3.02-.98-.24-.02-.48-.04-.62-.06-.74,.78,.54,2.86-2.25,2.23-1.29-.29-3.43-.97-4.14-.67-3.19,1.32-7.4,1.37-8.74,5.68-.29,.93-.07,1.79-.08,2.64-.03,1.21-.51,1.39-1.43,1.37-1.8-.03-3.37-2.43-2.45-4.54-1.36,.96-2.29,1.85-3.4,2.35-2.51,1.13-2.99,3.03-3.02,5.61-.03,3.49,3.95,2.57,4.83,4.9,.09,.23,.6,.39,.93,.41,.34,.02,.82-.06,1.03-.28,2.61-2.87,5-.06,7.37,.45,.89,.19,1.16,.89,2.25-.02,2.22-1.85,3.35-1.36,4.47,1.37,.21,.51,.45,1.01,.71,1.48,1.37,2.42,3.95,2.59,5.28,.19,.74-1.34,1.12-.78,1.99-.25,3.18,1.96,5.43,4.73,7.65,7.68,4.71,6.24,8.34,12.58,7.5,20.94-.69,6.87-.48,13.84-2.18,20.59-.6,2.38-.07,4.19,1.45,6.05,1.62,1.98,4.69,2.68,5.89,2.24,2.46-.9,4.49,.05,6.66,.05,2.34,0,3.8-.06,1.93-3.3,.82,.52,1.1,.74,1.41,.88,.77,.34,1.35,1.61,2.34,.86,1.19-.9,.1-2.06-.37-2.62-2.01-2.38-2.51-5.36-2.69-8.11-.74-10.93-1.89-21.84-1.51-32.86,.13-3.9,1.37-6.72,3.84-9.37,.96-1.03,1.73-1.84,2.8-.03,1.05,1.76,2.5,1.89,3.63,.07,1.24-2.02,2.18-1.06,3.32,.04,3.34,3.23,5.12,3.13,8.1-.44,.51-.62,1.07-1.31,1.72-.5,.99,1.25,2.14,.67,2.94,.21,3.43-1.93,7.61-2.56,10.24-5.85,.61-.76,2.42-.8,1.7-2.34-.61-1.28-1.92-1.56-3.28-1.56-.78,0-1.71,.42-2.25-.5-1.09-1.86-2.94-3.24-3.52-5.42-.29-1.07-1.2-1.66-2.01-1.53-1.11,.18-1.89-.53-2.75-.57-1.84-.07-2.71-2.46-3.64-2.25-1.81,.41-3.44,.29-5.21,0,.38-.94,1.78-1.78,.86-2.84-.73-.84-1.91-1.16-3.21-.86-.94,.22-1.98,.07-2.97,0-.7-.05-1.47,.04-1.17-1.23,.52-2.23-1.53-1.69-2.57-2.01-1.32-.39-1.55,.71-1.76,1.72-.27,1.31-.45,2.74-2.75,2.72,1.87-3.43,2.8-7.2,7.33-7.85,1.16-.17,2.31-.59,3.38-1.09,1.37-.64,2.51-.61,3.83,.22,1.98,1.24,4.08,1.18,6.31,.4,1.71-.6,3.58-1.57,5.29,.28,.52,.57,1.36,.35,2.1,.2,2.68-.54,4.85-1.97,6.69-3.92,.82-.87,1.38-1.72,2.96-1.16,1.35,.48,2.73-.46,3.51-1.61,.72-1.06-.45-1.81-.98-2.6-1.07-1.59-.48-3.15,1.44-2.92,2.22,.26,3.8-3.18,6.2-.88,.03,.03,.28-.21,.45-.27,1.82-.74,3.54-1.79,4.45-3.49,1.1-2.06,3.41-2.09,4-1.04,1.83,3.28,4.66,2.27,7.28,2.63,2.46,.34,4.03-.5,5.2-3.3,1.44-3.45,1.23-6.77-.97-7.31ZM47.56,42.14c-2.92-.16-5.27,1.44-7.75,2.72,.99-4.52,5.16-2.47,7.51-4.13,.05-.03,.53,.42,.69,.71,.23,.41-.02,.73-.45,.7ZM26.69,110.71c-.91,.96-1.51,.62-1.91-.53-.48-1.39-1.32-2.14-3.08-.94,1.56-2.91,3.27-3.45,5.14-1.93,.93,.75,1.62,.47,2.29-.38,.51-.64,.72-1.67,2.11-1.64-1.07,2.38-2.98,3.77-4.55,5.42Zm78.48,79.91c-.87,.65-1.94,1.05-2.92,1.55-.11-.15-.22-.29-.32-.44,.68-.83,1.34-1.68,2.04-2.49,.37-.43,.87-.8,1.38-.3,.58,.56,.2,1.41-.18,1.69Zm-4.06-7.17q2.35-2.49,5.23-1.49c-1.53,.86-2.99,1.3-2.5,3.19,.1,.39-.58,1.62-1.3,1.46-.79-.17-1.54-.88-2.13-1.51-.84-.9,.28-1.19,.71-1.65Zm37.91-81.41c.45-.19,.83-.89,1.38-.3,.71,.76-.2,1.02-.52,1.5-1.16,1.73-2.58,2.1-4.76,2.38-4.47,.56-8.99,1.54-13.22,3.32-.9,.38-1.97,1.23-2.68,.11-.75-1.18,.81-1.32,1.35-1.89,.89-.94,1.51-2.41,3.26-1.94,5.36,.41,10.33-1.12,15.2-3.18Zm-6.59,15.2c-1.59-2.37-3.24-2.67-4.06-.47-.83,2.22-2.52,1.08-3.72,1.6-.85,.37-1.58-1.1-2.73-.88-.81,.16-1.67,.7-2.58-.23,2.49,.17,4.03-3.36,7.08-1.42,.66,.42,2.01-.34,2.65-1.1,1.57-1.87,4.34-1.83,5.77-4.25,.5,3.04-1.5,4.67-2.41,6.75Zm-26.95-29.25c-.87-1.4-2.75-.99-4.27-.37-.65,.27-1.33,.45-2.05,.7,.51-3.52,2.36-4.59,5.78-3.46,1.45,.48,2.49,.16,6.09-1.68-3.49,3.38-1.86,8.13-3.79,12.05-.57-.56-2.72-.36-1.27-2.1,1.69-2.03,.37-3.76-.48-5.13Zm-13.18,52.25c-1.05-2.3-.8-4.19-.33-5.99,.68-2.62,1.19-5.29,2.39-7.77,.88-1.81,.07-3.77-.02-5.64-.05-1.11-1.28-1.8-2.18-.67-1.53,1.93-4.12,1.58-5.92,2.99,1.69-2.21,2.27-5.29,5.47-6.19,1.63-.46,3.14-.88,4.6,.45,.44,.4,1.17,.48,1.74,.77,.94,.47,2.87-.54,2.8,1.25-.07,1.54,.09,3.23-1.7,4.57-2.33,1.75-3.16,4.74-3.2,7.57-.05,3.38-2.18,5.58-3.65,8.67Zm2.94,5.71c-.32,1.38-.53,2.79-2.18,3.91-.12-1.84,.58-3.05,.91-4.33,.1-.38,.29-.95,.91-.71,.53,.2,.47,.65,.36,1.13Zm3.09-14.7c.22-1.12,.45-3.12,1.69-2.92,1.13,.18,2.45,1.72,2.86,2.94,.26,.8-1.34,1.43-2.63,1.46-.71-.31-2.22,.03-1.92-1.47Zm10.26-69.76c-3.46-1.41-4.42-3.12-2.46-5.41-.88,2.88,3.16,2.76,2.46,5.41Zm-1.59,10.9c1.99-.95,3.42-2.47,5.48-.18,.94,1.05,.38,1.41,.3,2.08-.11,.89-1.47,.65-1.61,1.65-.05,.41-.35,.92-.91,.78-.74-.19-.54-.88-.48-1.35,.27-1.99-.17-3.31-2.78-2.98Zm3.04,31c2.46,2.33,4.91,4.97,7.69,.46,.08,.65,.17,.9,.14,1.14-.39,2.92-2.15,3.77-4.79,2.15-1.25-.77-2.29-1.88-3.42-2.84,.13-.3,.26-.61,.39-.91Zm7.48-8.34c-.98-.62-2.01-1.24-.64-2.65,.9-.93,1.05-2.43-.44-2.89-1.54-.47-1.19-1.52-1.03-2.33,.26-1.32,1.16-.04,1.63-.21,1.43-.5,2.77-1.23,4.46-2.01-.3,3.18-.54,6.06-1.68,8.77-.41,.98-.8,2.28-2.3,1.32Zm4.91,2.24c.76,3.38-.96,4.57-3.44,5.68,.3-2.57,2.28-3.58,3.44-5.68Zm15.57-20.33c-.03,2.19,1.44,4.42-.55,6.43-.45,.46-.35,1.56-.34,2.37,.01,1.45-.37,2.3-2.05,1.86-1.03-.27-1.83-.26-2.29,1.12-.36,1.07-1.57,1.3-3.17,1.11,3.1-4.3,5.8-8.5,8.41-12.88Zm-5.01-13.49c1.17,.07,1.49,1.56,1.4,1.65-.73,.75-1.21,1.98-2.34,2.06-1.27,.09-1.15-1.38-1.24-2-.23-1.53,1.52-1.07,2.19-1.72Zm-3.17,10.59c.1,.6,.23,1.13,.26,1.65,.04,.79,.25,1.49,1.04,1.76,.88,.3,1.61-.11,2.18-.76,1.27-1.47,2.52-2.96,4.04-4.23-4.6,6.25-7.32,13.82-13.7,19.25-.84-3.42,1.79-4.79,3.14-6.79,.6-.9,1.42-1.65,2.11-2.5,1.06-1.31,1.04-2.44-.52-3.4-1.15-.71-2.45-2.1-2.25-3.01,.3-1.38,2.15-1.66,3.7-1.98Zm-3.42-5.32c1.65,.59,1,1.17,.12,1.75-2.08,1.36-4.78,1.48-6.61,3.49-.43,.47-1.46-.68-2.03-1.45-.66-.89-.35-1.31,.47-1.61,2.4-.88,1.52-3.99,3.52-5.13-.28-.33-.56-.66-.84-.99-.53-.61-.07-.72,.37-.81,.54,.04,.88,.24,.99,.78,.46,2.2,2.11,3.29,4.01,3.97Zm-3.21-26.91c-.63,2.94-.68,3.13-3.45,2.42-2.6-.66-3.2,1.84-4.85,2.65-1.12,.55-1.95,1.05-2.94,.52,2.53-4.34,6.26-6.44,11.24-5.6Zm-6.92-23.25c-2.52,.41-3.14,3.29-5.63,3.55,.39-3.98,2.39-5.36,5.63-3.55Zm-8.8,9.69c1.71,.09,3.09-1.07,4.69-1.35,.82-.15,2.02-.05,2.05,1.2,.02,.83-.79,.84-1.69,.64-2.1-1.02-2.67,.22-2.86,2.25-.15,1.66-1.49,2.41-2.89,2.38-1.46-.03-1.2-1.75-1.32-2.58-.16-1.1,.15-2.63,2.03-2.54Zm-7.6,17.68c1.11,.05,1.64-.44,2.09-1.35,.8-1.62,3.11-1.74,3.92-.09,.57,1.16,.99,2.13,2.46,2.08,.54-.02,.84,.31,.84,.84,0,.65-.45,.56-.92,.63-2.23,.35-4.42,.72-6.37-.95-.73-.63-1.66-.68-2.58-.26-1.03,.47-2.08,.54-3.37-.11,1.37-.86,2.68-.84,3.93-.79Zm-2.94,7.59c1.44,4.09,1.14,4.19-2.4,4.98,.17-2.12-1.63-3.35-2.49-5.49,1.79,1.08,3.89-2.31,4.89,.51Zm-1.13,16.4c.44,.87,.87,1.57,1.16,2.32,.15,.39,.07,.87,.1,1.31-3.08-.05-2.98,4.38-6.55,4.29,1.79-2.67,3.44-5.15,5.29-7.92Zm-.32,13.61c-2.61,2.93-4.2,.6-5.97-.86q3.52-2.1,5.97,.86Zm-1.39,25.34c-1.1,.93-.28,3.03-2.07,3.42-2.39,.53-4.75,1.34-7.26,1.14-.64-.05-1.06-.43-1.18-.97-.22-.99-1-2.48,.6-2.7,1.61-.22,2.35-4.03,4.66-1.1,1.08,1.37,1.6,1.3,5.25,.21Zm-9.37-41.03c.29-1.15,1.3-2,2.42-2.38,.56,.26,1.45-.2,1.24,.78-.26,1.23-.67,2.55-1.87,3.04-.36,.15-2.07-.29-1.79-1.43Zm1.26-23.64c.97,.69,1.74,1.67,2.67,2.63-.3,.26-.7,.7-.79,.65-1.01-.6-2.07-1.17-2.88-1.99-.24-.24,.75-1.46,1-1.29Zm-2.38,13.01c1.62-.03,2.66-1.02,3.82-2.5,.42,1.54,1.04,2.94-.24,3.81-1.21,.82-2.74-.36-4.12,.11-.07,.02-.42-.39-.39-.57,.07-.5,.48-.84,.94-.85Zm-13.42-16.78c.61,.07,1.47-.75,1.77,.42,.13,.52,.08,1.22-.58,1.29-.78,.09-1.62,1.08-2.4-.05-.44-.64-.95-1.22-1.48-1.89,.95,.07,1.82,.12,2.69,.22Zm-10.28-5.82c.44,2.21,3.25,1.14,4.67,3.15-2.33-.81-5.21,.5-4.67-3.15Zm-11.4,24.37c2.17-2.22,5.15-3.18,7.08-5.56,.35-.44,1.02-.62,1.51-.37,2.1,1.09,4.6-.32,6.69,1.23,1.31,.97,2.34-.43,3.32-1.14,1.43-1.04,2.38-1.56,3.03,.87,.83,3.09,2.71,3.86,5.87,3.26,1.96-.37,3.03,1.73,4.78,2.08-.16,.52,.22,1.51-.82,1.32-2.93-.52-6.19,0-8.4-2.82-1.23-1.57-3.45-1.78-5-1.7-2.17,.11-3.92-.66-5.7-1.32-2.11-.78-3.48-.43-5.1,1.12-1.96,1.88-4.53,2.81-7.27,3.02Zm27.21,113.58c-.52-.05-.62-.38-.68-.93-.21-1.79,.97-4.12-1.88-5-.41-.13,.1-.77,.42-1.07,.34-.32,1.06-.6,1.13-.17,.38,2.15,2.61,2.28,3.73,3.65,2.08,2.55,2.18,2.47,1.45,6.47-1.31-1.5-2.35-2.79-4.17-2.95Zm3.04,13.08c-.4,.37-.45,.47-.53,.48-1.32,.23-2.66,.73-3.89-.23-.07-.06,.04-.56,.19-.67,1.44-1.08,2.64-.04,4.22,.43Zm-8.64-30.4c-.99-1.52-1.17-3.97-3.98-3.79-.68,.04-1.41-.76-2.12-1.18-2.35-1.4-2.61-2.47-1.13-4.79,.49-.77,1.03-1.01,1.57,.03,1.01,1.92,2.3,2.06,3.99,.72,1.09-.87,2.81,.06,2.87,1.48,.04,.99-.12,1.92-.63,2.87-.95,1.76-.95,3.67,1,4.75,1.83,1.01,3.47,.33,4.62-1.43,.35-.54,.72-1.06,1.73-1.37,1.14,4.32,2.16,8.43,2.06,13.35-3.07-4.29-7.37-6.62-9.98-10.65Zm6.61-35.72c-1.04-.85-1.27-2.88-3.28-2.32-2.02,.56-.66,2.13-.9,3.22-.29,1.31-.4,2.66-.67,4.49-1.67-2.26-2.9-3.94-4.15-5.61-.97-1.31,.58-2.09,.66-3.2,.07-.94,.67-1.11,1.54-.49,.76,.54,1.29-.27,1.41-.79,.5-2.26,1.82-1.46,2.61-.54,1.5,1.74,4.48,2.45,4.08,5.61-.07,.55-.32,.8-.74,1.01-.67-.27-.16-1.04-.57-1.37Zm.23,30.33c-.18,.89-1.52,.48-2.54,.32,.58-1.76,1.02-3.13,1.54-4.73,1,1.47,1.28,3.04,.99,4.41Zm-8.3-23.59c-2.32-1.47-4.25,1.12-6.6-.15,1.04-1.23,1.44-2.66,1.7-4.12,.32-1.85,1.03-1.64,2.02-.47,1.11,1.31,2.11,2.68,2.88,4.74Zm3.07-37.69c-4.64-3.12-4.47-7.26-2.16-11.84,1.4,1.56,3.45,1.07,5.25,1.47,.86,.19,1.59,.45,1.22,1.28-1.39,3.13-.09,7.56-4.31,9.09Zm-6.63-7.63c-1.62-1.29-2.91-2.92-3.93-4.45-.72-1.08,.18-3.25,.35-4.93,1.78,1.32,2.15-.71,3.23-1.47,.71,1.27,.49,4.23,3.43,1.47-1.13,3.43-2.09,6.34-3.09,9.37Zm-3.89-.21c2.02,3.58,4.81,6.57,7.56,9.58,.53,.58,1.56,1.1,.91,1.98-.77,1.06-1.35-.15-1.98-.47-1.24-.64-2.27-1.62-3.99-1.06-1.11,.36-1.08-1.12-1.29-1.87-.41-1.45-.62-2.99-2.77-2.35-.52,.15-.87-.12-1.05-.6-.56-1.52-1.33-1.84-3.1-1.48-1.68,.34-3.08-1.14-3.71-2.91-.63-1.76,.86-1.72,1.8-1.94,.91-.21,.93-1.34,1.99-1.5,.31,2.87,2.6,1.99,4.24,2,.74,0,1.01-.07,1.4,.61Zm-2.5,15.84c-1.1,1.08-1.06,2.41-1.08,3.71-.01,1.55-.69,3.79,2.36,2.33,.25-.12,.86,.25,1.15,.54,.5,.49-.07,.75-.37,1.06-.44,.46-1.02,.86-1.28,1.41-.45,.97-.33,1.97,.55,2.72,.94,.8,1.24-.23,1.72-.65,1.77-1.52,3.99-2.3,5.78-3.94,1.86-1.7,1.76,1.24,3.39,2.28-3.98,.2-6.66,.98-9,3.29-2.27,2.25-6.36,.06-7.13-3.68-.33-1.6-.54-3.27-.51-4.9,.06-2.7,2.52-3.1,4.4-4.16Zm18.46,14.38c-.63-2.19-3.33-1.47-4.83-3.49,2.66,.82,4.8,.77,6.82-.36,.67,1.59,.64,2.81-.97,3.53-.32,.15-.68,.21-1.02,.31Zm1.68-43.25c-.84,.04-2.75-.49-1.37-2.18,.18-.23,1.57-.24,2.57-.8-.13,1.42,.23,2.91-1.2,2.98Zm-42.47,23.17c1.26-.04,2.39-2.48,3.9,.34,1.08,2.02,3.67,1.32,5.6-.03,.45,1.62-.36,3.93,2.02,4.06,3.82,.21,2.5-3,3.01-5.1,.49,1.98,2.32,3.54,.77,5.82-1.55,2.3,.56,4.64,.4,7.49-1.51-1.44-2.81-2.59-4-3.84-3.2-3.33-6.72-6.11-11.42-6.96-.46-.08-.93-.22-.99-.77-.06-.5,.23-1,.71-1.01Zm-3.61,52.35c1.02-3.33,2.73-6.26,2.48-9.67,2.18,5.72,1.78,7.23-2.48,9.67Zm2.95-24.36c-.81,.31-1.73-.35-1.5-1.01,.48-1.37,1.04-2.99,2.91-2.83,1.56-.32,1.65,.75,1.67,1.61,.06,2.14-1.88,1.78-3.09,2.23Zm7.82,9.58c-1.11,1.65-2.66,.44-4.2,.21,.72-1.18,1.27-2.48,2.9-1.65,.56,.28,1.75,.77,1.31,1.44Zm-2.45-20.71c-1.94-.57-3.29-3.21-4.85-4.97-.33-.38-.08-.93,.36-1.15,.45-.23,.91-.08,1.09,.44,.3,.88,.09,2.29,1.58,2.06,1.11-.18,1.47-1.48,1.64-2.32,.62-2.93,1.95-1.92,3.28-.73,2.64,2.38,5.26,4.8,7.24,7.79,.27,.4,.92,.81,.39,1.38-.21,.22-.69,.18-1.34,.33-2.27-3.59-6.21-1.88-9.41-2.83Zm9.69,43.53c-.87-.55-.98-1.15-.54-2.03,.52-1.04,.46-1.99-.36-3-1.04-1.28-.2-2.04,.49-2.44,1.03-.13,1.54-.16,1.65,.42,.29,1.67,1.38,2.92,2.13,4.36,.71,1.35-1.05,1.64-1.5,2.55-.38,.78-1.15,.6-1.87,.14Zm13.59,12.55c-1.12-.84-2.36-1.3-3.77-1.46-2.07-.22-4.08-.73-5.48,1.64-.36,.61-1.53,1.5-2.59,.81-.71-.47-1.52-1.12-1.09-2.24,.28-2.9,1.79-4.62,4.68-3.8,2,.56,3.62,2.39,6,1.26,.62,1.56,1.81,2.41,3.39,2.86,.43,.12,.38,.55,.07,.86-.38,.39-.79,.38-1.21,.07Zm2.59,26.65c-2.45-1.2-2.41-4.32-4.98-5.05-.56-.16-.06-.79,.23-1.07,.48-.49,.83-1.33,1.73-1,.26,.1,.64,.66,.56,.8-1.01,1.92,1,2.51,1.72,3.48,.68,.92,.88,1.67,.73,2.84Zm-2.61-35.32c2.25,.44,3.72,1.66,4.3,4.7-1.95-1.68-2.73-3.56-4.3-4.7Zm8.05,38.54c-.91-2.64-3.11-4.36-3.93-6.96,1.58,1.61,3.57,2.42,5.65,3.46-1.1,.98-2.24,1.82-1.72,3.5Zm7.77,11.73c-2.22-1.65-2.83-4.27-4.37-6.15-2.27-2.76-2.41-4.62,.91-6.62,1.53-.92,2.5-2.76,3.94-4.42,.24,5.81,.1,11.38-.47,17.18Zm3.03-60.91c-.74,.3-1.4,1.01-2.05-.12-.55-.96-.91-2,.28-2.59,1.28-.63,.69-.96,.13-1.71-1.09-1.46-3.09-2.41-2.74-4.76,.14-.92,.4-1.7,1.33-1.79,.96-.09,1.04,.9,1.16,1.54,.62,3.26,2.03,6.1,4.43,8.75-1,.26-1.8,.38-2.53,.67Zm2.71,15.48c-.15-.01-.3-.02-.46-.03-.6-3.09-1.46-6.15-1.72-9.27-.16-1.94,1.74-2.57,3.69-3.15-.52,4.3-1.02,8.38-1.51,12.45Zm2.39-19.38c-1.16,1.24-1.95-1.31-3.35-1.24q1.43-1.23,2.7-3.28c.64,1.54,1.81,3.28,.65,4.52Zm4.49,55.33c-.28-4.13-.51-7.57-.79-11.62,1.2,1.49,.97,2.73,1.28,3.8,.25,.86,.22,2.13,.79,2.53,3.64,2.58,.05,3.26-1.28,5.28Zm4.9-20.41c.28-.13,.48-.43,.82-.75-.19,2.66-2.41,4.25-4.62,3.54-.42-.13-.63-.33-.57-.74,.05-.35,.35-.91,.62-.67,2.19,2.01,2.56-.8,3.75-1.38Zm-6.11-5.67c-.23-.06-.46-.12-.69-.18,.25-3.36,.5-6.73,.79-10.71,.88,2.04,1.69,3.42,4.02,2.64-1.52,3.03-2.82,5.64-4.13,8.24Zm14.31-15.49c-1.33,1.38-1.68,3.15-1.07,5.08,.2,.62,.91,1.3,.26,2-.2,.22-.76,.36-1,.23-.9-.47-.18-1.3-.32-1.95-.07-.32-.21-.63-.32-.97-1.23,.38-1.1,1.29-.95,2.05,.25,1.26-.48,1.61-1.45,1.84-.59,.14-1.39,.67-1.73-.03-.36-.75,.07-1.65,.57-2.31,1.82-2.4,2.45-5.28,3.33-8.05,.31-.98,.68-2.4-.69-2.85-1.17-.39-1.25,.98-1.72,1.7-1.32,2.01-3.46,2.19-5.71,2.71,1.94-4.18,6.18-4.55,9.4-7.05,.12,1.78,.73,3.01,1.58,4.2,.73,1.02,.97,2.18-.18,3.38Zm3.03-34.54c.47,3.3-1.16,5.96-1.85,8.92-.32,1.36-1.12,1.44-2.4,1.59,.42-1.25,.78-2.4,1.2-3.53,.36-.94,.88-1.81-.11-2.73-.6-.56-.44-1.38-.27-2.08,.82-3.26,1.66-6.51,3.63-9.75,.71,1.42,1.74,2.02,2.96,2.58,1.46,.67,2.42,.07,3.69-.65,.03,3.49-.49,4.14-3.47,3.28-2.55-.74-3.71,.12-3.39,2.38Zm2.58,36.67c-.1,.19-1.83-1.39-1.61-1.66,.86-1.06,1.99-2.01,3.21-2.62,.72-.36,1.2,.53,1.23,1.38,.02,1.82-2.17,1.6-2.83,2.89Zm.63-17.04c-.79-.17-1.68-.2-1.09-1.21,1.21-2.06,.82-3.58-1.61-4.71,.2-.17,.41-.33,.61-.5,.85,.23,1.72,.42,2.55,.71,1.16,.4,1.9-.18,2.63-.94,.77-.8,.77-1.62,.1-2.44-1.43-1.74,.51-2.78,.67-4.28,2.57,2.23,3.32,6.92,1.72,9.58-1.28,2.14-2.36,4.46-5.58,3.78Zm4.85,3.7c1.28-2.24,2.42-4.23,3.68-6.45q1.61,4.6-3.68,6.45Zm4.2-13.28c-.55-1.95-1.06-3.74-1.61-5.7,1.24-.04,2.41-.02,3.35-.84,.64-.56,1.42-.36,1.38,.41-.05,.99,2.16,.92,.9,2.3-1.2,1.32-2.26,2.77-4.02,3.84Zm2.95,6.94c-.39-1.3-.46-2.58,.5-3.67,.35-.39,.88-.62,1.36-.89,.68-.37,1.33-1.27,2.12-.79,.74,.45-.26,1.34,.16,2.2,.38,.57-.25,1.22-.27,1.91-.05,1.75-1.62,1.77-2.67,2.27-.82,.4-1.01-.41-1.2-1.04Zm3.21,21.76c-.19-.13-.37-.26-.56-.39,1.18-1.52,2.36-3.03,3.54-4.55,.88,2.95-2.23,3.12-2.98,4.94Zm8.53-19.82c-.71-.42-.1-.94-.14-1.38-.09-.98-.78-1.46-1.61-1.51-.81-.04-1.25,.54-1.35,1.4-.1,.9-.3,1.78-.47,2.67-.16,.79-.5,1.5-1.43,.98-.55-.31-1.49-.36-1.05-1.69,.7-2.12,.87-2.62,5.34-6.12-1.15,2.31,4.03,3.03,.71,5.65Z"/></svg>