<?xml version="1.0" encoding="UTF-8"?><svg id="Layer_1" xmlns="http://www.w3.org/2000/svg" viewBox="0 0 144.16 264.46"><defs><style>.cls-1{fill:#010101;}</style></defs><path class="cls-1" d="M135.09,122.74c-.97-.45-2.36-1.65-3.69-.36-.4,.39-.47,1.26-1.15,.97-1.22-.93-.08-4.53-2.87-2.76-2.46,1.56-4.59,.52-7.04,.77,.51-1.17,1-2,1.24-2.9,1.31-4.75,.54-6.45-2.91-6.57-.3-.45,.29-.91,.2-1.07-.86-1.42,1.59-4.28-1.46-4.46-3.39-.2-6.93-.12-10.08,1.68,2.48-7.11,.22-9.97-6.4-9.37-3.56,.32-2.7-2.27-3.18-3.56-.47-1.25,1.53-1.93,2.46-2.84,.83-.81,1.38-.44,2.02,.34,1.23,1.47,2.1,.44,3.06-.49,2.95-2.87,6.06-5.7,9.68-7.56,3.83-1.97,5.38-4.25,3.79-8.34-.9-2.32-1.41-4.32,.61-6.31,.45-.44,.37-1.38,.61-2.06,.84-2.43-.68-4.19-1.41-6.28-.59-1.69-.68-2.86-2.75-2.83-1.14,.02-2.06-.29-1.47-1.9,1.01-2.75,0-4.53-2.71-5.73-1-.44-2.74-1.29-2.14-2.86,.87-2.28,.78-4.2-1.8-4.56-2.85-.4-.14-4.09-2.89-4.15-.61-.01-1.23,.2-1.83,.16-.78-.04-1.43,.91-2.43,.18,1-.83,2.06-1.5,2.85-2.41,.67-.78,2.03-1.48,1.12-2.9-.8-1.25-1.98-.61-2.81-.23-2.01,.93-2.92,.11-4.01-1.55-.78-1.18-.36-2.46-.99-3.53-.69-1.17-1.38-2.64-2.93-2.46-1.35,.16-.44,1.76-.98,2.56-.16,.23-.13,.64-.59,.45-.08-.07-.2-.13-.22-.21-.06-.3-.13-.61-.11-.9,.26-2.69,.74-5.5-3.67-4.1-1.06,.34-1.24-.92-1.59-1.61q-2.02-4.02-5.59-1.5c-.49,.35-.92,1-1.62,.57-.59-.36-.67-1.08-.61-1.67,.07-.71,.34-1.42,.58-2.1,.36-1.01,.17-1.85-.66-2.53-.77-.63-1.47-.39-2.32-.04-1.23,.51-2.13,1.5-3.77,2.64,1.18-3.32,1.13-5.79-1.89-7.15-.75-.34-1.65-.36-2.36-.74-4.04-2.16-8.32-.48-9.38,3.84-.3,1.21-.62,1.71-1.97,1.8-3.31,.22-5.59,2.52-5.48,5.43,.21,5.36-2.87,9.92-2.73,15.3,.08,2.99-3.59,1.48-5.5,1.68-1.97,.21-4.11-.25-5.65,1.22-2.35,2.25-6.03,3.46-6.05,7.71,0,.89-1.17,2.24-2.09,2.57-2.68,.96-4.38,2.45-4.55,5.42-.03,.61-.65,.64-1.17,.81-3.9,1.24-5.17,3.64-4.21,7.77,.13,.58,.69,.9-.15,1.76-2.79,2.84-1.79,6.42,2.01,7.37,2.71,.68,3.83,2.22,3.86,4.87,.01,1.04,.13,2.1,.38,3.1,.66,2.6,3.13,3.72,4.76,2.5,2.1-1.58,4.06-1.41,6.23-1.51,.6-.03,1.5-.48,1.65,.21,.36,1.66,.41,3.38,.58,5.08-1.79-.08-3.13,1.85-4.97,1.25-3.79-1.25-5.45-.31-5.91,3.54-4.21-1.94-4.28-1.94-4.36,2.68-.02,1.51-.19,2.8-1.77,3.23-3.06,.83-3.87,2.88-3.37,5.74,.18,1.01,.04,2.32-.97,2.28-2.1-.08-4.18-.68-5.33,1.82-3.69-1.09-2.28,1.66-2.42,3.23-.14,1.52,1.41,2.98,.4,4.48-2.84,4.25-1.55,8.47-.04,12.7,.23,.65,.87,1.49,1.66,.85,1.06-.85,1.66-.18,2.44,.31,1.08,.67,2.24,.65,3.39-.07-.33,2.73-1.78,3.01-4.04,1.99,1.24,1.5,1.04,3.12,1.4,4.59,1.27,5.11,2.93,6.05,7.99,4.09,3.28-1.27,2.55,2.98,4.78,3.39,.57,.1-.67,1.24-1.23,1.72-1.41,1.2-2.35,2.22-.7,4.09,1.2,1.35-.12,2.55-1.05,3.49-.86,.87-1.63,1.58-2.03,2.92-1.04,3.44-2.84,5.89-7.28,5.23-1.78-.26-4.07,.85-4.94,2.97-.6,1.46-1.01,3.48,.3,4.42,1.42,1.02,1.96,2.21,2.43,3.67,.72,2.24,2.48,3.63,4.65,3.51,3.68-.2,3.76,1.96,3.07,4.32-.63,2.12,.43,3.33,1.48,4.78,1.45,2.01,3.91,1.92,6.72,3.01-3.43,.72-2.93,3.11-2.96,4.72-.02,1.23,1.94,1.94,3.27,1.94,4.93,0,10.08,1.16,14.43-2.42,.87-.72,1.91-.6,2.91-.07-1.12,1.52-1.13,1.54,.29,3.21,.33,.39,1.02,.87,.37,1.18-3.02,1.47-1.32,4.11-1.5,6.16-.2,2.28,1.35,3.06,3.55,2.21,.64-.25,5.1-.44,5.57-.07,1.64,1.3,2.58,4.38,5.56,2.06,1.4,2.49,2.31,5.31,4.85,7.03,.19,.13,.02,.8,0,1.22-.53,9.46,.37,19-1.48,28.41-.35,1.8,.47,3.95-.19,5.55-.89,2.15-.47,3.8,.92,5.09,1.58,1.46,3.6,1.3,5.6,.39,.68-.31,1-1.38,2.37-.61,2.19,1.22,3.79,0,4.08-2.52,1.06-9.26,.36-18.59,1.05-27.86,.34-4.51-.08-8.99-.27-13.48-.14-3.33,1.1-4.05,3.89-2.45,.46,.27,.8,.26,1.07-.08,1.07-1.34,2.37-3.24,1.6-4.51-1.4-2.3-.04-3.67,.77-5.33,1.71-3.5,4.1-6.48,6.79-9.32,1.72-1.82,2.74-2.2,4.62-.26,2.36,2.44,3.61,1.96,4.59-2.02,.89,2.85,2.75,2.13,4.17,1.55,3.87-1.58,7.99-2.45,11.72-4.42,3.2-1.69,4.84-5.5,2.45-7.81-2.5-2.42-.54-3.02,.78-4.06,2.59-2.03,4.08-4.36,2.44-8.11,1.99,0,3.76,.17,5.48-.05,1.37-.17,2.84-1.1,2.89-2.46,.06-1.64-1.64-1.89-3.01-2.09-.62-.09-1.24-.17-1.87-.21-2.48-.16-3.1-1.16-1.85-3.45,2.3-4.21,2.22-4.3-1.12-7.67-1.88-1.9-1.48-3.34,1.16-4.06,.6-.16,1.24-.21,1.81-.44,2.86-1.17,3.55-2.99,1.97-5.58-.36-.6-.11-.83,0-1.3,.79-3.35,.99-6.99,5.23-8.2,.63-.18,.99-1.29,1.47-1.98,.59-.86,1.5-2.16,.39-2.67Zm-35.83-48.32c.25-1.81-.19-3.75,1.13-5.9,.94,2.54-.31,5.81,3.44,6.1-.22,1.21-1.38,1.23-2.07,1.79-.77,.62-1.85,.88-2.65,.43-1.21-.68,.04-1.62,.15-2.41Zm9.98,73.06c1.29,1.49,.32,2.99,1.07,4.12-1.07,.12-2.12,2.21-3.19,.11-1.3-2.55,1.59-2.54,2.12-4.22Zm-10.22-28.5c1.63-1.44,1.6,1.56,2.92,1.26-1.2,.51-2.23,1.87-3.4,.71-.53-.52-.06-1.5,.47-1.97Zm4.7,12.66c-.72,1.5-1.75,2.16-1.21,3.44,.74,1.78,1.68,.4,2.51,.34,.81-.06,1.38,.34,1.01,1.02-.77,1.42-.94,3.54-3.33,3.47-.38-.01-1.03,.02-1.12,.22-1.48,3.27-3.59,1.06-5.53,.74,1.13-3.99,2.61-7.59,7.67-9.23Zm-7.01,39.67c-.18-.16,2.38-1.15,3.58-2.06-.77,2.62-.38,5.58-2.79,7.53-1.47-1.76,1.07-3.82-.8-5.47Zm-7.63-41.41c.37,4.85,.35,9.5-4.87,12.82,1.88-2.83,1.45-5.31,.55-7.88-.4-1.14,.59-1.95,1.52-2.48,1.08-.61,2.09-1.23,2.8-2.46Zm4.42-35.95c-1.89,1.08-1.32,3.35-2.35,4.79-.3,.42-1.52,.81-2.32,.26-.64-.44-.27-1.11-.15-1.72,.66-3.22,1.15-6.51,3.9-9.1,.25,2.05-.66,4.14,.92,5.77Zm-13.8-8.69c1.19-1.12,2.14-2.03,3.1-2.93,.4-.38,.32-1.32,1.23-1.09,.7,.18,.96,.74,1.03,1.4,.07,.74,.11,1.57-.86,1.7-1.41,.19-2.54,1.45-4.49,.93Zm2.57,9.19c-.38,.86-1.09,1.19-1.72,.65-1.87-1.61-5,.64-6.61-2.42-.41-.77-1.6,1.68-3.07,2.41-1.04-2.25-1.49-3.52,1.95-3.71,3.01-.17,5.57,.53,8.18,1.61,.61,.25,1.92,0,1.27,1.46Zm.03-59.66c.37-.62,.84-1.4,1.65-1.16,1.11,.33,.5,1.19,.19,1.75-.6,1.09,.69,1.89,.38,3.28-1.33-.61-2.35-1.07-3.39-1.55,.42-.85,.75-1.61,1.17-2.32Zm-.9,34.03c1.14,1.47,1.76,3.81,3.97,.45-.55,2.39,0,4.52-1.39,4.8-1.19,.24-3.11-.82-3.98-1.9-.98-1.21,1.38-1.64,1.4-3.35Zm-5.11,6.59c-.26,3.64,3.02,3.02,5.36,4.38-2.17,.63-3.87,1.13-5.57,1.62,2.26-2.1-2.8-4.09,.22-6.01Zm-10.69-58c1.41,.07,2.8,.78,3.16,2.72-1.77,.1-3.56-.64-5.33,.2,.75-1.08,.49-3,2.17-2.92Zm-4.2,60.99c.94-2.68,1.34-5.42,1.41-8.25,.02-.88,.14-2.06,1.46-1.97,1.2,.08,.98,1.19,.98,1.96,0,1.5,.23,2.09,1.98,1.37,1.28-.53,2.83-.34,4.16-1.09,.79-.44,1.89-.73,2.52,.25,.46,.72,.26,1.68-.28,2.35-.85,1.07-1.69,.31-2.41-.26-2.15-1.7-3.27-.09-2.88,1.49,.75,3.06-1.17,3.76-3.09,4.82-1.07,.58-2.03,1.36-3.15,2.12-.77-.92-.97-1.92-.68-2.78Zm5.89,14.34c-1.06,.7-1.79,.89-2.28-.66-.61-1.96-.7-4.05-2.07-6.38,1.73,.32,2.69,.77,3.67,.04,1.9-1.42,2.52-.26,2.04,1.38-.54,1.86,.83,4.18-1.36,5.62Zm-3.46,26.69c-.15-.97-.71-2.07,.29-2.91,.36-.3,1.12-.69,1.35-.22,.44,.89,.57,1.93,.82,2.91-.12,.01-.23,.03-.35,.04-.09,1.55-.17,3.11-.28,4.66-.06,.81-.61,1.08-1.29,.83-.56-.21-1.38-.97-.92-1.29,1.88-1.3,.59-2.65,.37-4.03Zm-5.82-53.55c.11,.27,.28,.49,.24,.64-.47,1.39-.22,3.82-1.73,3.87-1.68,.06,.46-2.92-1.4-3.9,.97-.2,1.94-.4,2.9-.6Zm-14.75,5.88c.43-.82,1.01-.22,1.57-.02,.48,.17,1.01,.21,1.51,.31,1.44,.3,3.07-1.5,4.1-.32,1.5,1.74,2.42,3.99,3.59,6.02-3.99,2.29-5.4-2.23-8.25-2.73-.74-.13-1.38-.86-2.04-1.34-.69-.5-.84-1.24-.48-1.93Zm8.94,56.4c.81,.42,1.35,0,1.99-.4,1.68-1.09,1.73,.12,1.62,1.26-.25,2.44-.59,4.87-.96,7.85-1.95-2.66-1.79-5.74-3.63-7.89-.34-.4,.07-1.29,.99-.83Zm.56,40.41c.52,.24,.89,.78,1.61,1.44-.95,.17-1.51,.28-2.08,.37-.72,.11-1.23,1.37-2.12,.41-.41-.45-.24-.99,.17-1.36,.68-.63,1.41-1.33,2.42-.86Zm-17.74-53.76c.82-1.97,3.25-.54,4.59-1.69,.17,.47,.36,.93,.5,1.4,.21,.68,.1,1.38-.72,1.36-3.55-.08-3.65,2.39-3.43,5.61-1.6-1.47-2.58-2.37-3.61-3.32,1.08-1.03,2.07-1.95,2.66-3.37Zm5.03,40.7c-2.42,1.83-4.86,.57-7.22,.97,1.69-1.12,3.49-2.06,4.08-4.46,1.18,1.31,2.12,2.35,3.14,3.48Zm-13.23-23.55c.2-1.84-.67-3.26,.33-4.54,.11-.15,1.73-.71,1.81,.12,.14,1.45-.06,3.06-2.14,4.42Zm-5.73,38.18c1.22-3.26,1.97-5.87,3.21-8.23,.42-.79,1.03-4.38,3.34-1.05,.41,.59,1.56-.09,2.35-.31,1.38-.38,2.74-.79,4.11-1.19-4.22,3.4-7.42,7.93-13.01,10.77Zm17.4,7.07c-.5,.63-1.21,1.11-2.51,.53,.58-.72,1.02-1.25,1.45-1.79,.49-.61,.79-1.5,1.78-1.46,.22,0,.55,.33,.63,.57,.38,1.2-.83,1.5-1.35,2.15Zm-3.59-13.15c2.19-1.37,4.63-1.03,6.53-2.31q-1.79,2.2-6.53,2.31Zm6.87-32.9q.3-3.02,4.09-3.8c-1.74,1.24-1.8,3.34-4.09,3.8Zm12.25,49.36c-.53,.44-1.17,.69-1.64,.03-1.76-2.45-3.44-.86-4.99,.16-1.3,.86-2.57,1.23-3.34-.26-.83-1.59,1.08-1.77,1.84-2.17,2.16-1.14,4.86-.6,6.87-2.03,1.11,.96-.46,2.72,1.34,3.32,.56,.19,.26,.67-.08,.95Zm2.67-30.25c-.72,0-5.35-3.57-5.38-4.15-.03-.56,.5-1.33,.72-1.2,1.35,.78,2.99,.5,4.22,1.12,1.07,.54,2.03,1.88,2.17,3.27,.14,1.34-1.08,.82-1.74,.96Zm1.98-50.26c-.76,.26-1.26,.03-1.08-.86,.73-3.63-2.25-5.35-4.03-7.62-.55-.7-1.33-.92-.49-1.83,.51-.55,.13-2.05,1.96-1.11,1.52,.78,2.37-1.45,3.66-2.37,.81,2.36,1.59,4.61,2.35,6.85,.31,.92,.45,1.78-.41,2.57-.9,.82-1.38,1.82-.82,3.08,.53,1.2-.53,1.08-1.14,1.29Zm1.35,57.8c.63-1.31,1.55-2.42,2.98-2.83,.73,.19,1.61,.73,1.35,1.13-.8,1.23-1.62,2.66-3.44,2.59-.51-.02-1.21-.23-.89-.89Zm5.92,8.19c.94-.32,1.51,.06,1.26,.78-.45,1.32-1.9,1.39-2.98,1.81-.51,.2-1.38-.45-1.29-1,.29-1.82,1.91-1.44,3.01-1.59Zm-4.97,8.09c-.2-.49,.96-.92,1.33-.82,1.42,.39,3.32-.39,4.23,1.18,.62,1.07-.02,2.13-1.37,3.05,.81-2.8,.21-3.83-2.4-2.38-1.07,.59-1.59-.56-1.79-1.03Zm5.83,12.83c-.93,1.35-1.13-1.29-2.2-1.63-1.33-.42-.15-1.45,.19-1.47,2.54-.14,3.53-2.25,5.11-4.18,.38,3.36-1.73,5.31-3.1,7.27Zm3.21-34.77c-.01,.76-.38,1.47-1.03,1.83-.89,.49-1.27-.44-1.77-.88-2.54-2.23-4.68-4.59-4.94-8.33-.12-1.75-.96-3.55-1.87-5.25-.61-1.14-2.32-3.7,1.61-3.15,1.06,.15,2.34-.61,3.18-1.71,1.78-2.34,3.03-1.46,4.02,.77,1.51,3.4,.86,6.95,.8,10.46,0,2.09,.02,4.18-.01,6.26Zm.52-26.81c-.99-3.38,.08-6.31,.19-9.26,.04-1.03,.89-1.45,1.77-1.35,1.57,.19,.57,1.26,.45,1.89-.3,1.63-1.05,3.25,.98,4.39,.75,.42,.08,.91-.29,1.12-1.25,.7-1.99,1.95-3.11,3.21Zm3.66,7.6c-1.44-3.39,.89-6.25,5.15-6.18,1.47,.03,2.88,.01,5.05-.88-2.31,1.97-3.77,3.34-5.84,3.9-1.45,.39-.92,1.95-1.22,2.97-.3,1.01-.79,1.81-1.78,1.94-1.2,.17-1.07-1.07-1.36-1.75Zm2.11,23.26c-1.31-2.06-.94-8.2,.81-10.06,.35-.38,1.03-.87,1.32-.37,2.16,3.61,3.6,.51,5.67-.72-1.38,4.36-2.13,8.39-5.21,11.4-1.08,1.05-1.7,1.16-2.59-.24Zm1.84,6.11c1.18-1.3,2.24-4.09,2.86-3.58,2.15,1.78,6.02-2.22,7.05,2.31-1.33,0-2.57,.02-3.81,0-1.22-.03-2.38-.34-3.11,1.24-.64,1.38-1.75,.27-2.99,.04Zm15.37,13.02c-.17,4.31-1.33,8.15-4.7,11.18-2.81,2.54-4.63,5.86-6.48,9.13-.43,.75-.43,2.14-1.68,1.87-1.13-.25-.84-1.43-1.1-2.37-.63-2.26-.07-3.33,2-4.13,1.19-.46,2.83-1.02,2.36-2.8-.51-1.91-2.25-.86-3.46-1.04-.35-.05-.75,.3-1.15-.14,.78-1.66,3.88-2.16,2.61-4.91,1.11-.51,2.1-1.26,3.39-1.45,1.53-.23,3.1-.51,4.53-1.08,1.55-.62,3.32-1.46,1.55-3.62-.57-.7-.49-1.34,.11-1.94,.36-.36,.77-.8,1.34-.59,.91,.34,.71,1.17,.68,1.88Zm-.05-27.29c-.22,.73-1.26,1.26-1.35,1.96-.43,3.26-2.43,4.02-4.8,3.58-1.08,.16-1.75,.43-2.12-.3-.34-.67,.06-1.22,.52-1.65,1.47-1.37,2.49-3.01,3.24-4.87,.22-.53,.83-.89,1.24-1.35,.97-1.07,2.26-1.38,3.31-.53,1.01,.82,.27,2.14-.03,3.16Zm-2.24-64.01c-.38,.64-.92,1.22-1.79,.92-.74-.26-.8-.93-.67-1.56,.63-3.16-.2-6.25-.45-9.36-.12-1.5,.07-2.42,1.96-2.17,2.17,.29,3.86-1.5,6.13-1.64,.11,5.5-2.69,9.6-5.19,13.81Zm14.54,89.94c-1.54,0-2.63,.41-2.84,2.17-.21,1.75,.58,2.77,2.13,3.37,.47,.18,.92,.4,1.89,.83-2.74,.48-4.35,3.7-7.28,1.1-.9-.8-1.28,.39-1.33,1.32-.03,.67,.21,1.63-.84,1.7-.39,.02-.87-.51-1.21-.88-.63-.68-.37-1.35,.22-1.92,.45-.43,.89-.89,1.41-1.24,2.31-1.55,4.07-3.41,4.68-6.31,.57-2.69,2.88-3.08,5.46-3.28-.38,1.48-.15,3.14-2.3,3.14Zm-2.07-13.69c2.25-.43,4.47-.68,6.86,.91-2.86,1.66-4.72-.91-6.86-.91Zm6.87-8.62c1.31-.41,1.92-2.54,3.74-1.43-1.27,2.83-2.28,3.24-3.74,1.43Zm4.74-23.12c.46-1.18-1.25-1.22-1.6-2.35,2.03-1.35,3.12-1.29,2.93,1.52-.09,1.41-.91,3.41,1.84,3.67-2.27,.25-4.6,.78-3.18-2.85Z"/><path class="cls-1" d="M68.28,136.5c-.89,0-1.98-1.4-2.75,.1-.78,1.53-2.22,2.82-1.57,5.54,.23,.3-.93,2.15,.78,2.45,1.39,.24,1.47-1.49,1.96-2.47,.64-1.3,1.25-2.63,1.81-3.97,.24-.58,.66-1.66-.21-1.65Z"/></svg>