<svg width="641" height="704" viewBox="0 0 641 704" fill="none" xmlns="http://www.w3.org/2000/svg">
<path d="M227.72 15.6299C229.46 17.8199 232.07 18.4399 234.23 22.6099C236.39 26.7799 235.75 28.5899 236.98 31.8599C237.84 34.1399 240.78 36.2599 241.94 38.8999C246.64 49.6099 242.24 64.3999 232.44 70.9099C234.43 65.8899 237.81 61.3599 237.22 55.6799C237.14 54.8999 236.7 52.6199 235.44 52.9099C235.88 64.3899 219.6 65.9699 221.43 78.9099C220.17 80.5699 219.62 78.7999 219.44 77.4299C218.95 73.6899 219.49 69.5499 220.44 65.9199L216.92 66.8899C214.94 72.2499 217.7 78.3299 217.48 83.3599C217.11 92.0399 213.28 98.7099 214.44 109.41C215.17 116.14 230.27 136.86 234.3 145.55C248.35 175.84 244.82 210.94 241.32 243.29C240.26 253.05 237.4 283.36 233.3 290.27C230.32 295.28 225.88 296.15 220.45 296.41C230.88 313.89 235.14 334.09 247.03 350.83C260.56 369.89 275.57 387.18 288.46 407.4C299.68 425 308.7 444.43 320.02 461.84C331.75 479.88 347.05 495.3 357.95 513.91C362.58 521.81 362.13 523.09 368.48 530.38C384.61 548.89 393.33 566.21 407.46 584.4C414.78 593.83 442.49 618.88 452.73 624.13C469.39 632.67 510.9 639.26 529.89 639.97C558.5 641.03 591.44 632.47 618.95 642.91C626.56 645.8 634.13 652.27 640.36 657.56C640.69 659.49 627.19 668.45 624.74 669.74C600.93 682.2 541.88 687.49 515.06 684.8C503.97 683.69 488.04 678.68 477.94 678.85C464.65 679.06 440.25 687.08 425.62 689.62C380 697.53 343.44 695.85 298.24 686.63C291.3 685.21 271.03 678.61 266.04 678.98C257.75 679.58 233.71 689.64 223.43 692.44C203.2 697.95 176.71 706.98 157.92 694.26C135.47 711.98 116.85 700.6 93.64 694.22C85.92 692.1 78.05 691 70.2 688.66C68.12 688.04 65.73 686.01 63.92 686.01C62.31 686.01 53.43 690.42 50.2 691.22C38.6 694.1 13.91 696.11 12.41 679.93L1.29995 679.36C-5.29005 670.38 14.92 646.73 19.83 638.85C42.4 602.65 55.55 563.04 68.68 522.7C89.16 459.77 110.82 396.15 123.12 331.14C126.63 312.57 131.49 290.02 132.44 271.39C132.75 265.23 126.85 259.18 120.42 259.94L122.37 267.89C111.45 272.61 112.57 264.27 109.43 262.36C108.25 261.64 103.63 263.92 101.56 261.8L101.42 256.94L92.33 254.54C92.15 250.89 89.79 246.5 89.37 243.5C88.72 238.83 93.52 230.03 87.78 229.03C85.25 228.59 81.51 237.34 77.45 238.54C74.48 239.42 72.64 237.77 69.97 237.91C67.63 238.03 59.64 240.71 58.5 239.88C56.58 236.36 58.93 234.09 60.42 230.95H56.41L57.41 222.95C51.05 223.13 43.49 221.35 38.42 217.44L49.41 217.94C46.82 214.04 50.02 210.56 50.05 208.45C50.08 206.65 45.74 201.24 47.28 197.58L40.43 192.45C41.94 190.15 43.37 191.15 45.4 191.95C45.4 189.81 45.68 187.61 46.63 185.66C51.3 176.12 61.46 163.11 72.01 159.04C75.19 157.81 77.36 158.45 79.7 157.73C82.27 156.95 83.03 153.09 87.92 152.87C93.25 152.63 108.52 153.71 113.15 155.69C115.87 156.85 115.97 159.44 116.54 159.86C116.95 160.16 122.17 157.74 126.35 160.5C128.61 161.99 128.55 164.33 129.97 165.88C131.39 167.43 133.55 167.99 134.88 169.97C135.91 171.51 136.32 174.66 136.51 174.83C137.08 175.33 148.76 174.81 151.4 176.95C148.23 179.94 142.84 180.98 144.9 186.93C158.02 174.79 169.5 160.67 177.58 144.61C181.49 136.84 181.93 131.34 180.41 122.43C180.21 121.26 179.89 120.64 178.91 119.96C173.99 124.58 162.87 130.26 158.89 121.95C157.04 118.09 158.87 113.23 154.61 113.79C153.43 106.67 152.03 104.85 144.83 104.01C143.52 99.6999 146.02 96.0199 145.35 91.5099C144.58 86.3699 139.57 78.7899 138.66 72.1799C137.91 66.7499 139.71 60.3299 139.21 56.6499C138.83 53.8399 135.05 48.6599 134.49 44.3499C132.14 26.3399 146.17 21.8399 161.27 20.7999C162.26 16.5399 163.05 9.21992 168.11 8.13992C170.29 7.66992 172.9 8.36992 174.75 7.77992C176.41 7.23992 179.26 1.09992 186.17 0.129921C191.29 -0.590079 193.48 2.63992 196.85 2.78992C199.7 2.91992 203.78 1.01992 207.26 1.57992C209.06 1.86992 217.21 4.96992 219.97 5.86992C227.31 8.26992 224.77 11.9699 227.7 15.6499L227.72 15.6299ZM128.42 227.91L127.94 217.92L121.45 222.41L128.42 227.91Z" fill="black"/>
</svg>
