<?xml version="1.0" encoding="UTF-8"?><svg id="Layer_1" xmlns="http://www.w3.org/2000/svg" viewBox="0 0 313.56 192.23"><defs><style>.cls-1{fill:none;}</style></defs><path class="cls-1" d="M212.79,71.4s-.02,0-.02,.02v.02s.02-.02,.05-.02c-.02,0-.02-.02-.02-.02Zm-40.6-5.77h-.05v.05h.07s0-.05-.02-.05Zm35.47,4.8v.02h.02s.05,0,.02-.02h-.05Zm-35.8-5.74s-.02,.02-.02,.02c0,.02,.02,.02,.05,.02,0,0,.02,0,.02-.02-.02,0-.02-.02-.05-.02Zm11.06,1.8s-.02,0-.02,.02c.02,0,.05,.02,.05,.02t.05-.02s-.05-.02-.07-.02Zm30.08,4.94s-.02,.02-.02,.02c0,.02,0,.05,.05,.02l.02-.02s-.05-.02-.05-.02Zm-16.19-2.41s-.02,.02-.05,.02c0,.02,.02,.05,.05,.05,0,0,.02-.02,.05-.02-.02,0-.02-.02-.05-.05Zm-26.02-4.14l-.02,.02s.02,.05,.02,.05c.02,0,.02-.02,.05-.02l-.05-.05Zm21.39,4.54v.02s.05,0,.09,.02v-.05h-.09Zm-20.47-3.99v.02s.02,0,.05,.02l.02-.02s-.05-.02-.07-.02Zm35.9,5.96h-.09v.02s.05,.02,.09,.02l.02-.02-.02-.02Zm-37.03-6.31s-.05,0-.09-.02h-.07s-.02,.02-.02,.02v.07h.19l.02-.02s0-.02-.02-.05Zm8.22,7.11l-.02,.02v.05s-.02,.05-.02,.07,0,.05,.02,.05,.02,0,.05-.02,.05-.07,.02-.12c0-.02-.02-.05-.05-.05Zm-7.7-7.59s-.09,0-.14,.02c0,0,0,.02-.02,.05,.12,.05,.26,.07,.38,.07,0,0,.02,0,.02-.02v-.02c-.07-.02-.14-.07-.24-.09Zm-2.29,.92s-.09,0-.09,.02l.02,.02h.09s-.02-.05-.02-.05Zm-.43-.05s-.07-.02-.07,.02v.07s.07-.02,.09-.02c.02-.02,0-.05-.02-.07Zm-.28,.02h-.12s-.02,.02-.02,.05c0,0,0,.02,.02,.02t.05,.02s.05,0,.07-.02t.02-.02s-.02-.05-.02-.05Zm.5-.9v.07s0,.02,.02,.02c.05,.02,.12,0,.14-.05v-.02s-.09-.07-.17-.02Zm46.96,6.59s-.02,0-.02,.02l.05,.05c.07,.02,.17,.02,.28,0-.09-.07-.21-.07-.31-.07Zm-.71-.26v.02l.02-.02h-.02Zm-.17-.09h-.09s-.05,.05-.05,.07c0,0,.02,.02,.05,.02,0,.02,.02,.02,.05,.02h.07s.02-.05,.02-.05c.02-.05-.02-.09-.05-.07Zm-.85,.73s.02,.02,.02,.02v-.02h-.02Zm-2.48,.45v.05l.02-.02s0-.02-.02-.02Zm-6.97-3.12l.02,.02h.02v-.02h-.05Zm4.63,1.39v.02h.02v-.02h-.02Zm-32.42-3.12s-.05,.02-.02,.05c0,.02,.02,.02,.05,0l-.02-.05Zm2.01,.78s-.05-.02-.05,.02l.02,.02h.07s-.02-.05-.05-.05Zm23.35,4.84v.05s.09,.05,.14,.02c-.05-.02-.09-.02-.14-.07Zm2.46,1.02c-.07,0-.09,.02-.07,.07,.02,0,.05,0,.09-.02l.02-.02s-.05-.02-.05-.02Zm-14.63,3.64s-.02,.02-.05,.02l.02,.02s.09,.05,.14,.05h.02v-.02c-.02-.07-.07-.07-.14-.07Zm14.89-5.74c-.07-.02-.14,0-.21,.07,0,0,0,.02,.02,.02,.07,.07,.17,.07,.24,0v-.05l-.05-.05Zm-25.41-13.09l.21,.5c.19,.38,.35,.76,.52,1.13,.02,.05,.05,.09,.09,.14,.02,.05,.05,.05,.09,.05,.05-.02,.12-.05,.17-.07,.19-.09,.38-.21,.59-.31,.12-.07,.24-.14,.35-.24,.07-.02,.09-.12,.05-.19-.05-.05-.07-.12-.12-.17-.43-.59-.83-1.23-1.25-1.8-.02-.02-.02-.05-.05-.07-.31-.5-.66-.99-.99-1.49-.24-.4-.5-.8-.78-1.18,0-.02-.02-.05-.02-.07-.38-.59-.76-1.16-1.09-1.77l-.07-.07h-.12s.05,.05,.05,.07c.24,.54,.47,1.09,.73,1.63,0,.02,.02,.07,.05,.09,.14,.43,.33,.85,.52,1.28m28.57-16.76s.02,.05,.05,.02v-.02h-.05Zm-31.93,25.55s-.02,.02,.02,.02v-.02h-.02Zm36.39,5.72v.02s.09-.02,.14-.05c-.05,.02-.09,.02-.14,.02Zm-38.66-6.24s.02,.09,.05,.14h.02v-.02s-.05-.07-.07-.12Zm-.07-.12s.02,0,.02,.02v-.02h-.02Zm-.05-.07h-.02v.02s.05,0,.05,.02t-.02-.05Zm37.06,6.17l.02,.02v-.02h-.02Zm-.05-.09s0,.02,.02,.02v-.02h-.02Zm-.07-.09v.02l.02-.02h-.02Zm-41.29-4.66h-.12s-.02,.02-.02,.05c0,0,0,.02,.02,.02t.05,.02s.05,0,.07-.02t.02-.02s-.02-.05-.02-.05Zm.28-.02s-.07-.02-.07,.02v.07s.07-.02,.09-.02c.02-.02,0-.05-.02-.07Zm.21-.87v.07s0,.02,.02,.02c.05,.02,.12,0,.14-.05v-.02s-.09-.07-.17-.02Zm.21,.92s-.09,0-.09,.02l.02,.02h.09s-.02-.05-.02-.05Zm1.77-.45s-.05,0-.09-.02h-.07s-.02,.02-.02,.02v.07h.19l.02-.02s0-.02-.02-.05Zm.21-.19l-.02,.02s.02,.05,.02,.05c.02,0,.02-.02,.05-.02l-.05-.05Zm.31-.28s-.09,0-.14,.02c0,0,0,.02-.02,.05,.12,.05,.26,.07,.38,.07,0,0,.02,0,.02-.02v-.02c-.07-.02-.14-.07-.24-.09Zm.26-2.69s-.02-.02-.05-.05c-.57-.24-1.09-.5-1.58-.8l1.32,.92h.33s0-.05-.02-.07Zm.35,3.52v.02s.02,0,.05,.02l.02-.02s-.05-.02-.07-.02Zm.14-.73s-.02,.02-.02,.02c0,.02,.02,.02,.05,.02,0,0,.02,0,.02-.02-.02,0-.02-.02-.05-.02Zm.33,.95h-.05v.05h.07s0-.05-.02-.05Zm.26-1.46h-.02v.02s.05,0,.05,.02t-.02-.05Zm.05,.07s.02,0,.02,.02v-.02h-.02Zm.07,.12s.02,.09,.05,.14h.02v-.02s-.05-.07-.07-.12Zm2.27,.52s-.02,.02,.02,.02v-.02h-.02Zm1.75,2.29s-.05,.02-.02,.05c0,.02,.02,.02,.05,0l-.02-.05Zm2.01,.78s-.05-.02-.05,.02l.02,.02h.07s-.02-.05-.05-.05Zm.21,4.23l-.02,.02v.05s-.02,.05-.02,.07,0,.05,.02,.05,.02,0,.05-.02,.05-.07,.02-.12c0-.02-.02-.05-.05-.05Zm10.97,5.27s-.02,.02-.05,.02l.02,.02s.09,.05,.14,.05h.02v-.02c-.02-.07-.07-.07-.14-.07Zm25.78-6.26s-.02,0-.02,.02l.05,.05c.07,.02,.17,.02,.28,0-.09-.07-.21-.07-.31-.07Zm-.71-.24l.02-.02h-.02v.02Zm-.26-.12s-.05,.05-.05,.07c0,0,.02,.02,.05,.02,0,.02,.02,.02,.05,.02h.07s.02-.05,.02-.05c.02-.05-.02-.09-.05-.07h-.09Zm-.73,.76v-.02h-.02s.02,.02,.02,.02Zm-.87-.14s0,.05,.05,.02l.02-.02s-.05-.02-.05-.02c-.02,0-.02,.02-.02,.02Zm-.21-.02v.02s.02-.02,.05-.02c-.02,0-.02-.02-.02-.02t-.02,.02Zm-1.42,.64l.02-.02s0-.02-.02-.02v.05Z"/><path d="M171.36,61.9s-.02-.02-.05-.05c-.57-.24-1.09-.5-1.58-.8l1.32,.92h.33s0-.05-.02-.07Z"/><path d="M269.32,87.54c-16.87-8.48-34.46-14.96-52.39-19.43,.21-.05,.4-.12,.59-.19,.43-.17,.85-.38,1.25-.57,.21-.12,.43-.24,.64-.38,.09-.05,.17-.09,.24-.17,.07-.05,.17-.12,.24-.17,.35-.21,.66-.5,.97-.78,.69-.61,1.32-1.3,1.82-2.08,.24-.33,.45-.66,.66-1.02,.24-.4,.43-.85,.64-1.28,.12-.31,.21-.61,.31-.92,.07-.17,.09-.31,.14-.47,.02-.07,.02-.14,.05-.19,.07-.14,.09-.28,.12-.43,.09-.5,.17-.99,.24-1.49,.07-.35,.09-.71,.07-1.06-.02-.05,0-.12,0-.17t.05-.02l.02,.02c.02,.31,.07,.28,.33,.33,.02,.02,.05,.02,.07,.02,.07,0,.12-.05,.17-.12,.05-.07,.07-.14,.09-.24,.02-.35,.05-.73,.09-1.09,0-.05-.02-.09-.02-.14,.02-.12,.02-.24,.02-.38,.02-.07,.05-.14,.12-.21,.05-.02,.09-.07,.12-.14,.02-.07,0-.17-.07-.19-.07-.02-.14-.02-.21-.05-.07-.02-.09-.07-.12-.14-.02-.07-.05-.17-.05-.24-.12-.59-.28-1.16-.5-1.73-.19-.57-.45-1.11-.76-1.63-.21-.38-.45-.76-.71-1.13-.24-.28-.45-.59-.66-.87-.43-.47-.85-.95-1.35-1.35-.12-.12-.26-.21-.38-.33-.05-.05-.07-.12-.02-.17,.17-.31,.33-.61,.54-.92,0-.02,.02-.02,.05-.05,.07-.05,.14-.09,.24-.05h.09c.07-.02,.14-.05,.21-.07,.31-.12,.28-.26,.24-.5-.05-.12-.14-.19-.26-.21-.09-.02-.17-.02-.26-.05-.02,0-.05-.05-.05-.07-.02-.05,0-.12,.05-.14,.05,0,.09-.02,.14-.02,.09,0,.17-.02,.24-.05,.07-.02,.12-.07,.12-.14,.02-.17-.12-.38-.28-.43-.14-.02-.31-.02-.47-.02-.26,0-.52,0-.8-.05-.24-.05-.5-.07-.76-.12-.26-.02-.54-.07-.83-.12-.05,0-.09-.02-.14-.05-.02,0-.05-.05-.05-.07,0-.07,0-.14,.02-.21,.05-.35,.09-.69,.17-1.02,.02-.17,.05-.31,.07-.47,.07-.05,.14-.07,.21-.12,.07-.02,.12-.09,.17-.14,.05-.02,.05-.09,.02-.14-.12-.24-.31-.4-.57-.45-.19-.02-.4-.07-.59-.09-.07-.02-.14-.02-.19-.07-.02,0-.02-.02-.02-.02,.02-.12-.02-.19-.12-.24-.24-.12-.47-.19-.73-.21-.09,0-.17,0-.26,.02-.21,.05-.24,.05-.45,.21-.12,0-.26-.02-.4-.05-.9-.14-1.82-.28-2.74-.43l-.85-.14c-.21-.02-.43-.07-.61-.12-.14-.02-.28-.05-.43-.05-.17-.02-.31,0-.43,.09-.09,.07-.19,.12-.28,.19-.02,.02-.05,.07-.02,.12,.07,.12,.14,.21,.21,.31-.12,.31-.14,.59-.19,.9-.05,.24-.09,.45-.14,.69,0,.05-.02,.09-.02,.14-.02,.05-.07,.09-.12,.09-.09-.02-.21-.02-.33-.02-.54-.09-1.11-.17-1.65-.26-.09,0-.19-.02-.28-.05-.05-.02-.09-.05-.12-.09-.05-.05-.07-.12-.09-.19-.14-.33-.28-.69-.4-1.02-.05-.09-.07-.17-.09-.24,0-.05,0-.09,.02-.12h.09c.07,.02,.14,.05,.21,.07,.12,.07,.26,.09,.38,.09,.26,0,.47-.09,.59-.31,.05-.12,.05-.19-.02-.28-.05-.05-.09-.09-.14-.17-.02-.05-.05-.09-.07-.17-.02-.09,.02-.14,.12-.17s.19-.02,.26-.05c.12-.05,.21-.17,.19-.28,0-.12-.02-.24-.09-.35-.02-.05-.05-.09-.09-.14-.02-.07,0-.14,.05-.17,.07-.05,.17-.07,.21-.14,.07-.05,.12-.12,.09-.21-.05-.24-.14-.45-.31-.61-.05-.05-.12-.09-.17-.14-.05-.05-.07-.09-.07-.17,0-.02,.07-.07,.14-.07,.12-.02,.24-.02,.38-.02,.35,.02,.71-.05,1.06-.14,.19-.05,.38-.14,.52-.26,.05-.05,.07-.09,.05-.14-.02-.14-.07-.28-.09-.43-.26-1.04-.52-2.1-.78-3.14-.09-.47-.21-.92-.33-1.39-.09-.28-.17-.59-.21-.9-.02-.12-.05-.26-.09-.38-.09-.35-.24-.66-.45-.95-.09-.09-.17-.19-.21-.31-.28-.45-.52-.9-.76-1.37-.17-.31-.31-.64-.4-.99,0-.07-.05-.17-.07-.24-.24-.71-.43-1.44-.61-2.17-.05-.24-.12-.47-.19-.71-.05-.17-.12-.35-.14-.52-.09-.43-.21-.85-.35-1.28-.09-.33-.24-.64-.43-.92-.14-.21-.28-.4-.4-.61-.24-.38-.54-.71-.87-1.02-.45-.45-.95-.83-1.49-1.13-.19-.09-.33-.21-.43-.43-.07-.14-.17-.24-.31-.28-.17-.07-.28-.17-.4-.26-.02-.05-.07-.07-.09-.12-.31-.24-.61-.5-1.02-.57-.02,0-.07-.07-.05-.12,.02-.19,.05-.38,.12-.59,.07-.05,.17-.09,.26-.17,.09-.07,.17-.17,.24-.24,.05-.05,.07-.12,.07-.21-.02-.17-.07-.31-.17-.45-.02-.05-.05-.09-.09-.14,0-.02,.02-.05,.05-.05,.14-.02,.31-.02,.47-.02,.14,0,.28-.02,.43-.05,.09-.02,.17-.05,.24-.09,.09-.07,.12-.21,.05-.33-.07-.12-.19-.21-.31-.31-.21-.12-.43-.24-.66-.31-.19-.05-.38-.09-.57-.17-.02,0-.05,0-.05-.02-.02-.02-.05-.05-.05-.05,0-.12-.02-.24-.02-.33,.02-.31-.02-.59,.09-.87,.07-.17,0-.35-.17-.43-.24-.14-.47-.24-.71-.28-.4-.09-.8-.14-1.21-.21-.38-.05-.76-.05-1.16-.05-.24,0-.5,.02-.73,.05-.43,0-.85,.07-1.25,.19-.09,0-.17,.02-.26,.07-.07,.02-.14,.07-.19,.12-.09,.07-.12,.17-.09,.28,.02,.02,.02,.05,.05,.07,.07,.17,.09,.33,.07,.52v.26c.05,.24-.02,.5-.07,.73,0,.09-.05,.17-.17,.19-.24,.07-.45,.14-.66,.19-.26,.07-.5,.17-.71,.33l-.14,.14s-.02,.12,0,.14c.05,.05,.09,.09,.14,.12,.07,.05,.14,.07,.24,.09,.26,.05,.52,.07,.8,.09,.17,0,.33,0,.5,.02,.09,0,.14,.05,.14,.14,.02,.05,.02,.12,.02,.17,0,.09,.02,.17,.07,.24,.12,.09,.12,.24,.12,.38,0,.17-.05,.33-.17,.47-.12,.17-.19,.35-.28,.54-.05,.12,.02,.26,.17,.26h.14s.09,.02,.14,.02,.09,.07,.09,.09c.02,.14-.07,.26-.19,.26h-.26s-.07,.05-.05,.07c.07,.26,.17,.35,.43,.38h.21c.21-.05,.28-.02,.31,.24,0,.07,0,.17,.02,.26,0,.12,0,.24,.02,.35,0,.09,.05,.17,.12,.21,.09,.07,.21,.09,.35,.09,.21-.05,.43-.09,.61-.19,.14-.05,.28-.12,.4-.17,.09-.05,.19-.05,.28,.02,.12,.09,.21,.19,.33,.31,.12,.09,.21,.21,.35,.31,.05,.05,.14,.05,.24,0,.19-.14,.33-.31,.45-.52,.35-.52,.8-.97,1.25-1.42,.02-.02,.02-.05,.05-.05h.05v.02c-.02,.12-.05,.21-.09,.33-.17,.4-.33,.83-.47,1.25-.05,.09-.09,.21-.12,.31-.05,.12-.12,.21-.24,.26-.24,.12-.45,.19-.71,.12-.28-.07-.31-.02-.26,.26,0,.07,0,.12,.02,.19,0,.05,0,.12-.05,.17-.05,.07-.09,.14-.14,.21-.07,.09-.14,.19-.19,.31-.07,.17-.14,.33-.21,.52-.07,.19-.14,.38-.14,.59,0,.07,0,.14-.02,.21,0,.07-.02,.12-.07,.17-.12,.09-.17,.24-.17,.38-.02,.12-.02,.24-.07,.33-.07,.12-.09,.26-.12,.38,0,.07,0,.12-.07,.17-.33,.17-.38,.09-.61,.57-.07,.12-.17,.21-.26,.28-.07,.05-.12,.07-.17,.12-.09,.07-.19,.17-.24,.31-.05,.09-.07,.17-.12,.26-.02,.05-.07,.07-.12,.09-.02,.02-.07,.02-.09,.05-.28,.05-.54,.19-.8,.33-.14,.07-.26,.14-.31,.31-.02,.09-.07,.17-.14,.24-.09,.09-.19,.19-.31,.26-.26,.19-.5,.35-.76,.52-.21,.14-.43,.28-.61,.45-.09,.07-.17,.12-.24,.17-.28,.21-.59,.43-.87,.61-.26,.19-.52,.38-.78,.57-.09,.07-.21,.14-.31,.24-.09,.07-.14,.17-.14,.28,0,.17,0,.19-.17,.21-.21,.05-.4,.05-.61,.05-.43,0-.83,.05-1.23,.17-.17,.05-.33,.09-.5,.17-.02,0-.05,0-.09,.02-.02-.05-.05-.05-.05-.07-.05-.19-.19-.33-.33-.47-.09-.07-.19-.14-.31-.21-.19-.12-.38-.21-.57-.31-.19-.09-.38-.17-.59-.19-.07,0-.12,0-.17,.05-.05,.02-.09,.05-.12,.07-.17,.12-.26,.28-.31,.45-.05,.12-.07,.24-.14,.35-.05,.09-.07,.21-.09,.33-.05,.19-.07,.38-.09,.54-.07,.38-.05,.76-.02,1.13,.02,.19,.09,.38,.19,.54,.09,.14,.24,.21,.4,.24,.21,0,.43-.02,.61-.07,.26-.09,.5-.17,.71-.33,.05-.02,.07-.02,.12,.02-.05,.05-.09,.09-.12,.17-.21,.31-.4,.64-.57,.97-.28,.54-.59,1.09-.87,1.61-.17,.28-.31,.57-.45,.85-.61,1.23-1.28,2.43-1.87,3.66-.05,.12-.12,.19-.21,.24-.14,.07-.26,.17-.35,.28-.02,.02-.07,.07-.14,.07-.14-.07-.31-.12-.45-.19-.87-.43-1.77-.83-2.67-1.21-.57-.24-1.13-.45-1.7-.64-.24-.09-.47-.17-.71-.24-.07-.02-.19-.05-.28-.07-.05,0-.09,.02-.12,.05-.12,.09-.17,.21-.17,.35,.02,.28,.12,.54,.17,.83,0,.07,.07,.14,.14,.14l.43,.07c.07,0,.14,0,.17,.07,.05,.09,.07,.21,.05,.31,0,.02-.02,.05-.05,.05-.19,0-.4,.02-.59,0-.28-.02-.57-.05-.87-.05-.45-.02-.92,0-1.37,.02-.28,.02-.57,.07-.83,.09-.66,.07-.52,.17-.66-.5v-.33c0-.17,.02-.35,.09-.52,.12-.24,.24-.45,.4-.61,.02-.02,.05-.05,.07-.07,.02-.02,.02-.05,.05-.07,0-.05,0-.07-.02-.09-.05-.05-.12-.07-.14-.07-.05,.05-.12,.07-.17,.12-.31,.28-.47,.61-.54,.99-.07,.28-.09,.57-.02,.85,.02,.09,.02,.21,.05,.31,0,.09-.05,.17-.12,.19-.14,.05-.26,.07-.4,.12-.59,.14-1.16,.31-1.7,.59-.07,.05-.14,.07-.21,.09-.07,.05-.17,.09-.26,.14-.14,.07-.28,.17-.45,.24-.24,.14-.47,.26-.69,.43-.05,.05-.09,.07-.14,.09-.12,.05-.24,.14-.33,.24-.09,.05-.17,.12-.26,.19-.17,.12-.33,.26-.47,.4-.05,.05-.09,.09-.14,.12-.26,.17-.45,.4-.66,.64-.38,.38-.73,.8-1.04,1.25-.33,.45-.59,.9-.85,1.37-.28,.5-.52,1.02-.69,1.56-.05,.14-.12,.28-.14,.43-.09,.28-.17,.57-.24,.85-.12,.38-.19,.8-.21,1.21-.05,.4-.09,.78-.09,1.18,0,.26-.02,.54,0,.83,0,.76,.12,1.51,.31,2.25,.12,.5,.28,1.02,.45,1.49,.09,.31,.24,.57,.35,.85,0,.02,.02,.05,.02,.07,.12,.19,.21,.38,.31,.57,.05,.12,.09,.21,.17,.31,.19,.28,.35,.59,.59,.87,0,.02,.02,.02,.05,.05,.14,.26,.33,.5,.52,.71,.5,.61,1.06,1.16,1.7,1.65,.38,.28,.76,.54,1.16,.78,.5,.31,1.02,.57,1.58,.8t.05,.05s.02,.05,.02,.07h-.33l-1.32-.92c-44.43-2.41-89.33,7-129.89,28.19l-27.48,14.37,2.27,79.97,90.11-1.09-.24-15.62c-.43-29.16,23.11-53.01,52.28-52.96,28.86,.02,52.16,23.44,52.16,52.23v.78l-.24,15.86,89.97,.8,2.53-79.97-31.88-16.07ZM186.3,30.19c0,.07-.02,.17-.05,.24,0,.17-.05,.33-.12,.5-.05,.07-.07,.17-.09,.24h-.02s-.02,0-.02-.02c-.05-.05-.02-.09-.02-.17,.05-.28,.09-.57,.14-.87,.02-.19,.05-.4,.09-.59,0-.05,.02-.09,.05-.14,.07,.05,.07,.14,.07,.19,0,.21-.02,.43-.02,.64Zm-8.6,8.22s-.05,.05-.07,.07c-.09,0-.17,0-.24-.05-.05-.02-.09-.07-.09-.12,.02-.17,.05-.31,.07-.47,0-.02,.02-.05,.05-.05,.09,.02,.17,.05,.24,.07,.05,.02,.07,.05,.07,.09,.05,.09,.05,.24,.02,.38-.02,0-.02,.05-.05,.07Zm-9.59,27.15s-.05,.02-.07,.02-.02,0-.05-.02c-.02,0-.02-.02-.02-.02,0-.02,.02-.05,.02-.05h.12s.02,.02,.02,.05,0,.02-.02,.02Zm.21,0v-.07s.05-.05,.07-.02c.02,.02,.05,.05,.02,.07-.02,0-.05,.02-.09,.02Zm.28-.9v-.07c.07-.05,.12-.02,.17,.02v.02s-.09,.07-.14,.05c-.02,0-.02-.02-.02-.02Zm.14,.9l-.02-.02s.05-.02,.09-.02c0,0,0,.02,.02,.05h-.09Zm1.84-.43h-.19v-.07s0-.02,.02-.02h.07s.07,.02,.09,.02t.02,.05l-.02,.02Zm.21-.19s-.02-.02-.02-.05l.02-.02,.05,.05s-.02,.02-.05,.02Zm.54-.24s-.02,.02-.02,.02c-.12,0-.26-.02-.38-.07,.02-.02,.02-.05,.02-.05,.05-.02,.09-.02,.14-.02,.09,.02,.17,.07,.24,.09v.02Zm44.24,6.55l-.05-.05s.02-.02,.02-.02c.09,0,.21,0,.31,.07-.12,.02-.21,.02-.28,0Zm-1.04-.35s.02-.05,.05-.07h.09s.07,.02,.05,.07c0,0-.02,.02-.02,.05h-.07s-.05,0-.05-.02c-.02,0-.05-.02-.05-.02Zm.31,.05v-.02h.02l-.02,.02Zm-1.02,.61h.02v.02s0-.02-.02-.02Zm-.8-.09s-.05,0-.05-.02c0,0,0-.02,.02-.02,0,0,.02,.02,.05,.02l-.02,.02Zm-.26-.02v-.02s0-.02,.02-.02c0,0,0,.02,.02,.02t-.05,.02Zm-1.42,.61v-.05s.02,.02,.02,.02l-.02,.02Zm-9.41,.78v-.05s.09,.05,.14,.07c-.05,.02-.09,.02-.14-.02Zm2.46,.97s.02,0,.05,.02l-.02,.02s-.07,.02-.09,.02c-.02-.05,0-.07,.07-.07Zm-.02-4.92h.05v.02h-.02l-.02-.02Zm.07,2.88c.07-.07,.14-.09,.21-.07l.05,.05v.05c-.07,.07-.17,.07-.24,0-.02,0-.02-.02-.02-.02Zm8.58-11.77c.05,.61,.02,1.25,.07,1.87,0,.09,0,.17,.02,.26,0,.14,0,.31,.02,.47v.14c.07,.45,.09,.92,.12,1.37v.17c.09,.69,.12,1.39,.17,2.1,.02,.19,.05,.38,.07,.57,0,.07,0,.12,.02,.19,0,.05-.05,.12-.09,.12-.57-.14-1.16-.26-1.75-.4,.02-.07,.02-.17,.05-.21,.05-.21,.07-.4,.07-.61-.02-.14,0-.26,.02-.4,.12-.66,.21-1.32,.33-1.98,.02-.24,.07-.45,.05-.69,0-.09,.02-.17,.02-.26,.05-.31,.09-.61,.17-.95,.02-.21,.07-.45,.09-.69,.02-.09,.02-.21,.05-.33,.02-.64,.17-1.28,.26-1.91,.02-.02,.02-.05,.05-.09,0-.02,.07-.05,.07-.05,.02,.02,.05,.05,.07,.05v.14c.02,.38,.02,.76,.05,1.13Zm1.09,7.28h-.14c-.09,0-.14-.05-.14-.09l-.07-.28c-.05-.61-.09-1.25-.14-1.89-.02-.52-.07-1.06-.12-1.61-.02-.35-.05-.71-.07-1.09-.02-.64-.07-1.28-.09-1.91-.02-.52-.05-1.02-.07-1.51v-.09s.02-.02,.02-.02h.07c.02,.07,.07,.14,.07,.21,.05,.12,.07,.26,.09,.38,.21,.76,.43,1.49,.66,2.22,.19,.64,.38,1.3,.57,1.94,.26,.92,.54,1.82,.83,2.69,.05,.17,.09,.31,.14,.45,.02,.07,.05,.12,.05,.19,0,.02-.02,.07-.05,.09-.05,.02-.09,.05-.14,.05-.47,.14-.97,.21-1.47,.28Zm-4.58,3.05v.02l-.02-.02h.02Zm-.05-.09v.02s-.02-.02-.02-.02h.02Zm-.07-.09l-.02,.02v-.02h.02Zm-.4,.14h.02v.02h-.02v-.02Zm-.31-4.07s0-.07,.02-.12c.35-.71,.71-1.42,1.06-2.13,.24-.47,.47-.95,.71-1.39,.09-.24,.21-.45,.33-.66,.12-.24,.24-.47,.38-.71,.02-.07,.07-.14,.17-.21-.12,.43-.21,.8-.33,1.21-.07,.24-.17,.5-.26,.76-.09,.33-.19,.64-.28,.97-.14,.5-.26,.97-.4,1.44-.09,.38-.21,.71-.31,1.09-.35-.09-.71-.17-1.09-.24Zm-1.32-.69s-.02-.02-.02-.05c.05-.14,.14-.26,.21-.38,.57-.76,1.11-1.51,1.65-2.27,.33-.45,.66-.9,.99-1.35,.07-.12,.17-.24,.26-.35,.17-.24,.33-.45,.47-.69,.05-.07,.09-.14,.14-.21,.12-.17,.24-.31,.38-.47,.02-.02,.05-.05,.12-.12v.12c-.05,.09-.09,.19-.14,.28-.5,.95-.97,1.89-1.44,2.84-.47,.95-.97,1.84-1.37,2.79-.07,.14-.14,.26-.21,.38-.02,.05-.09,.07-.14,.05-.31-.14-.61-.35-.9-.57Zm.33,4.89s.02,.02-.02,.02h-.02v-.02h.05Zm-.07,.97l-.02,.02s-.07-.02-.09-.02v-.02h.09l.02,.02Zm2.98-13.19c.12-.12,.26-.21,.43-.28,0,.05,.02,.09,0,.12-.09,.12-.21,.21-.38,.26,0,0-.05-.02-.05-.05-.02,0,0-.05,0-.05Zm-.05-.24c-.33,.24-.71,.35-1.13,.35h-.43s-.07-.02-.09-.05v-.02s.07-.05,.09-.07c.21-.02,.4-.09,.59-.17,.28-.12,.57-.17,.85-.19,.05,0,.09,0,.14,.02,.02,0,.02,.02,.02,.05-.02,.02-.02,.05-.05,.07Zm.24-3.71c-.31-.33-.64-.64-.97-.95-.21-.21-.45-.43-.69-.64-.76-.73-1.51-1.46-2.24-2.2-.24-.21-.45-.4-.66-.61-.09-.09-.19-.19-.28-.31-.07-.07-.05-.17,.02-.21,.17-.17,.33-.33,.52-.47,.17-.14,.35-.28,.54-.43,.07-.05,.12-.05,.17,.02,.76,1.02,1.54,1.99,2.24,3.03,.38,.57,.73,1.13,1.11,1.68,.31,.45,.61,.87,.92,1.32,.05,.05,.07,.09,.09,.14,.02,.02,.02,.05,.02,.07-.02,.02-.05,.02-.07,.05h-.07c-.14-.02-.26-.09-.35-.19-.09-.09-.21-.19-.31-.31Zm-5.55,.99c.64,.12,1.25,.21,1.87,.33,.09,0,.19,.02,.28,.07v.02s0,.05-.02,.07h-.12c-.14-.02-.31-.02-.47-.02-.38-.05-.78-.05-1.18-.12h-.14c-.4-.05-.8-.07-1.21-.09-.07,0-.14-.02-.21-.02l-.85-.07c-.09-.02-.14-.05-.14-.17,.02-.09,.02-.19,.05-.28,.02-.07,.07-.09,.14-.09,.09,.02,.19,.02,.28,.05,.59,.09,1.18,.19,1.73,.33Zm-1.68-2.17s.02-.09,.07-.12c.02,0,.05-.02,.07-.02,.07,.02,.14,.02,.21,.05,.28,.12,.59,.24,.87,.35,.09,.05,.17,.09,.24,.14-.02,.02-.05,.02-.05,.02-.21-.07-.45-.12-.69-.17-.24-.02-.47-.09-.69-.19-.05,0-.05-.02-.05-.07Zm2.77,.52c-.12-.05-.21-.09-.31-.12-.64-.21-1.25-.45-1.87-.69-.02-.02-.05-.02-.09-.05-.38-.17-.35-.14-.19-.5,.14-.26,.26-.52,.4-.78,.05-.07,.12-.17,.17-.24,.05-.07,.12-.07,.19-.02,.05,.02,.07,.05,.12,.07,.87,.69,1.77,1.3,2.65,1.94,.33,.26,.69,.47,1.02,.73,.07,.05,.14,.09,.19,.14,.02,.02,.02,.05,.02,.07-.17,0-.28-.05-.43-.07-.09-.02-.19-.07-.28-.07-.54-.09-1.06-.28-1.58-.43Zm1.75-.24c-.21-.17-.45-.33-.66-.5-.57-.4-1.11-.8-1.65-1.21-.31-.21-.61-.43-.9-.69-.05-.02-.07-.07-.09-.09s-.02-.05-.02-.07c.02-.05,.02-.07,.05-.09,.24-.31,.47-.61,.73-.9,.02-.02,.07-.05,.09-.07,.05,.02,.07,.05,.09,.07,.24,.21,.45,.4,.66,.61,.09,.09,.21,.19,.31,.28,.07,.05,.14,.12,.21,.19,.21,.21,.43,.43,.64,.64,.76,.71,1.49,1.42,2.22,2.13,.28,.26,.57,.54,.83,.8,.02,.02,.02,.05,0,.07l-.02,.02h-.05c-.21-.05-.45-.09-.69-.12-.26-.05-.52-.17-.73-.35-.33-.26-.66-.5-1.02-.73Zm3.57,.87c-.38-.57-.76-1.13-1.13-1.7-.05-.05-.07-.09-.12-.14-.59-.97-1.28-1.89-1.96-2.81-.24-.33-.5-.66-.73-.99-.09-.12-.19-.24-.24-.38-.02-.05,0-.09,.05-.12,.31-.19,.64-.4,.97-.57,.05-.05,.12-.05,.17-.07,.02,.02,.07,.05,.07,.09,.54,1.04,1.02,2.1,1.51,3.17,.17,.38,.33,.8,.5,1.21,.26,.54,.52,1.06,.78,1.61,.12,.24,.21,.47,.28,.71,0,.05,0,.09-.05,.14-.02-.05-.07-.09-.09-.14Zm.09,3.73v.02c-.07,.17-.21,.24-.38,.19-.05,0-.05-.05-.05-.07,.09-.12,.19-.21,.31-.24,.02,0,.07,0,.09,.02,.02,.02,.02,.05,.02,.07Zm-.45-.83h.02s0,.05-.02,.05l-.02-.02s.02-.02,.02-.02Zm.5,1.42h.02s.02,.05,.02,.07c0,.05-.02,.09-.05,.12-.24,.38-.47,.73-.76,1.09-.38,.5-.73,.99-1.11,1.49-.4,.57-.83,1.16-1.23,1.73-.43,.59-.85,1.18-1.28,1.77-.09,.12-.19,.24-.26,.35-.05,.05-.09,.07-.14,.12-.02-.02-.05-.02-.07-.05-.24-.17-.47-.35-.71-.57-.02-.02-.05-.07-.07-.09-.02-.02-.02-.09,0-.14,.05-.02,.09-.07,.14-.12,.21-.24,.45-.45,.66-.69,.33-.38,.69-.71,1.04-1.09,.47-.47,.92-.97,1.39-1.47,.02-.05,.05-.07,.07-.09,.45-.54,.97-1.02,1.44-1.56,.12-.09,.21-.21,.33-.33,.17-.21,.35-.38,.54-.54Zm-.57,12.03s.09,0,.14-.02c-.05,.02-.09,.02-.14,.05v-.02Zm-1.13-4.09c.02-.12,.05-.21,.07-.33,.02-.07,.05-.14,.07-.21,.09-.33,.17-.69,.28-1.02,.12-.38,.19-.78,.31-1.16,.12-.33,.21-.64,.33-.97,.07-.24,.12-.5,.19-.73,.07-.14,.12-.31,.17-.45,.17-.57,.33-1.13,.5-1.73,.09-.28,.19-.57,.28-.85,.05-.12,.09-.24,.21-.31h.02l.02,.02c0,.07-.02,.14-.02,.21-.09,.45-.19,.9-.24,1.35-.02,.33-.09,.64-.17,.95-.05,.17-.09,.33-.12,.5-.02,.09-.02,.19-.02,.26,.02,.14,0,.28-.02,.45-.05,.33-.12,.66-.17,.99-.02,.21-.07,.45-.07,.66v.19c-.09,.54-.17,1.09-.24,1.65-.02,.17-.05,.35-.05,.54,0,.09,0,.19-.02,.28-.43-.12-.87-.21-1.32-.31Zm2.86-13.94c-.05,.35-.05,.71-.02,1.09,0,.05,0,.09-.02,.14-.05-.02-.07-.07-.07-.12-.02-.09-.05-.19-.07-.28-.09-.5-.21-.97-.35-1.47-.02-.12-.05-.26-.09-.38-.02-.12-.05-.24-.07-.35-.14-.52-.28-1.06-.43-1.58-.24-.83-.45-1.65-.69-2.46-.02-.14-.05-.26-.09-.4,0-.05,.02-.09,.07-.09,.02-.02,.05-.02,.07-.05,.24-.02,.47-.07,.69-.09,.09-.02,.14,.02,.17,.12,.05,.35,.12,.71,.17,1.06,.05,.19,.05,.35,.09,.54,.12,.71,.26,1.44,.35,2.15,.02,.12,.05,.24,.07,.35,.07,.45,.17,.9,.24,1.35,.02,.14,.02,.31,0,.47Zm-1.87-3.71c.02,.09,.07,.19,.09,.28,.17,.69,.4,1.37,.54,2.08,.02,.12,.07,.24,.12,.33,.12,.38,.19,.73,.28,1.11,0,.05,.02,.12,0,.17,0,.02,.02,.02,.05,.05,0,.02,.02,.05,.05,.09v.17s-.05-.05-.05-.09c0-.02,.02-.05,.05-.07q-.12-.02-.09-.14s-.05-.02-.07-.02c-.02-.12-.07-.24-.12-.35-.26-.85-.54-1.7-.83-2.58-.19-.61-.4-1.23-.59-1.87-.07-.21-.14-.43-.21-.61-.02-.14-.05-.26-.09-.4,0-.05,.02-.12,.09-.14,.02,0,.07-.02,.09-.02,.05,0,.12,.02,.12,.07,.02,.02,.02,.07,.05,.09,.12,.45,.26,.92,.38,1.37,.05,.17,.09,.33,.14,.5Zm-.69,.64c.09,.28,.19,.59,.28,.9,.05,.09,.07,.21,.12,.31,.19,.5,.33,.99,.5,1.49,0,.05,0,.09,.02,.14v.02s0-.02-.02-.02c-.07-.09-.12-.24-.17-.35-.4-.92-.8-1.82-1.23-2.74-.28-.57-.54-1.16-.83-1.75-.02-.05-.02-.12-.05-.17,0-.02,.02-.05,.02-.07,.12-.05,.24-.09,.35-.14,.14-.05,.19-.02,.24,.12,.09,.31,.19,.59,.28,.87,.17,.47,.31,.92,.47,1.39Zm-1.39-3.88c-.07,.05-.12,.07-.19,.12-.4,.14-.8,.33-1.21,.52-.54,.28-1.06,.61-1.56,.97-.45,.31-.85,.66-1.25,1.04-.52,.5-.97,1.02-1.39,1.58-.5,.64-.87,1.32-1.25,2.03-.07,.14-.12,.28-.19,.43-.02,.02-.05,.05-.07,.07l-.05-.05v-.12c.19-.45,.4-.87,.66-1.3,.38-.66,.8-1.3,1.3-1.89,.35-.43,.73-.8,1.16-1.18,.33-.28,.69-.57,1.04-.83,.14-.12,.28-.19,.4-.26,.4-.28,.83-.5,1.23-.71,.38-.19,.76-.35,1.16-.5,.05-.02,.12-.02,.17-.02,.02,0,.05,.02,.07,.05,0,0,0,.05-.02,.05Zm-6.05,11.3h.4c.17,0,.35,0,.54,.02,.4,.02,.83,.02,1.23,.05,.47,0,.92,.02,1.39,.05,.21,0,.4,0,.61,.02h2.6c.24,.02,.47,.02,.73,.02,.07,.02,.17,.02,.24,.05,.02,0,.05,.02,.05,.05s-.02,.05-.02,.05c-.12,.02-.21,.05-.33,.07-.76,.09-1.51,.17-2.29,.19-.66,.05-1.32,.05-1.99,.07-.28,.02-.54,.02-.8,.05-.54,0-1.09,0-1.61,.02-.19,0-.38,0-.54,.02v-.02h-.14c-.07,0-.12-.02-.14-.09,0-.17-.02-.33-.05-.47,0-.07,.05-.12,.12-.14Zm1.54,1.84h-.02c-.02-.07,.02-.05,.05-.05,.02,.02,.05,.05,.09,.05,.02-.02,.02-.07,.05-.07,.61-.05,1.21-.17,1.82-.24,.52-.07,1.02-.19,1.51-.35,.12-.02,.24-.05,.35-.07,.07-.02,.17,0,.24,0,0,0,.02,.02,.02,.05v.02s-.09,.07-.14,.07c-.24,.09-.47,.17-.73,.26-.14,.05-.28,.07-.45,.12-.07,.02-.17,.05-.24,.05-.4,.05-.78,.14-1.18,.12-.26,0-.54,.02-.83,.05h-.54Zm.33,.33v.02h-.02s-.02-.05,.02-.02Zm-1.87-.78s.02-.02,.05-.05h.02c.4,0,.8-.07,1.21-.07,.43-.02,.87-.05,1.3-.05,.38-.02,.73-.02,1.09-.09,.02,.02,.05,.02,.07,.02h-.07l-.07,.07c-.12,.05-.26,.07-.38,.09h-.14c-.54,.12-1.09,.12-1.63,.21-.07,.02-.14,.05-.21,.05-.35,0-.71,.05-1.06,.12-.09,0-.19-.05-.19-.17,0-.05,0-.09,.02-.14Zm.19,.78h1.39s.05,.02,.05,.05v.02s-.07,.05-.09,.05c-.4,.09-.78,.19-1.16,.31-.05,0-.09,.02-.14,0-.05,0-.07-.02-.09-.05-.02-.07-.05-.17-.07-.24,0-.07,.05-.12,.12-.14Zm.19,.71c.17-.05,.35-.09,.52-.14,.52-.12,1.04-.24,1.56-.4,.09-.02,.21-.05,.31-.07,.47-.09,.95-.19,1.39-.28,.17-.02,.33-.05,.47-.07,.19-.05,.38-.09,.57-.12,.21,0,.4,0,.59-.05,.09,0,.19-.02,.28-.02,.05,0,.07,.02,.12,.02-.02,.05-.05,.07-.07,.09-.57,.24-1.11,.5-1.65,.76-.17,.07-.33,.14-.5,.21-.12,.05-.24,.09-.33,.17-.87,.4-1.77,.78-2.62,1.23-.02,.02-.07,.05-.12,.07-.07,.02-.17,0-.19-.07-.02-.05-.02-.07-.05-.09-.12-.31-.21-.59-.33-.9-.02-.07-.05-.17-.07-.24,.05-.05,.07-.07,.12-.09Zm.59,1.68s.07-.05,.12-.07c.87-.4,1.75-.83,2.62-1.23,.43-.21,.87-.38,1.3-.59,.52-.28,1.04-.5,1.56-.8,.24-.14,.47-.21,.76-.17,.02,0,.05,.02,.05,.05v.02s-.05,.07-.09,.09c-.17,.14-.33,.26-.5,.38-.24,.17-.47,.33-.69,.47-.33,.24-.66,.47-.99,.71-.09,.07-.19,.14-.31,.21-.09,.07-.19,.14-.28,.21-.17,.12-.31,.24-.47,.35-.09,.05-.17,.12-.26,.19-.61,.45-1.23,.87-1.84,1.32-.05,.05-.09,.07-.14,.12-.07,.02-.17,.02-.21-.05-.07-.09-.14-.19-.19-.28-.14-.24-.28-.47-.4-.71-.02-.05-.05-.09-.05-.14-.02-.05,0-.07,.02-.09Zm1.06,1.47c.28-.21,.59-.43,.87-.61,.61-.47,1.25-.92,1.89-1.37,.47-.35,.95-.69,1.42-1.04,.33-.26,.69-.52,1.04-.78,.14-.12,.28-.24,.4-.38,.12-.09,.24-.17,.38-.21,.07-.02,.14-.02,.21-.02,.05,.02,.07,.07,.05,.12,0,.02,0,.05-.02,.07-.17,.19-.33,.38-.52,.57-.14,.14-.26,.28-.4,.43-.09,.09-.19,.21-.28,.31-.28,.28-.57,.57-.85,.87-.54,.59-1.11,1.18-1.68,1.77-.33,.33-.66,.71-.99,1.04-.17,.19-.33,.33-.5,.5-.12,.12-.14,.12-.26,0-.02-.02-.05-.05-.07-.05-.19-.24-.4-.47-.59-.69-.07-.07-.12-.17-.19-.24-.02-.05-.02-.09-.05-.12,.02-.09,.09-.12,.14-.17Zm12.41,3.45s-.02,.02-.02,.02c-.38,.17-.73,.33-1.13,.43,0,.02-.02,.02-.02,.02-.05,0-.12-.02-.12-.07-.05-.12-.09-.24-.14-.38-.21-.64-.4-1.3-.61-1.94-.21-.71-.4-1.39-.61-2.1-.02-.12-.05-.21-.09-.31-.31-1.02-.59-2.03-.9-3.05-.02-.09-.07-.19-.05-.28,0-.02,.02-.05,.05-.09,.02,.02,.05,.02,.07,.02,.02,.05,.07,.09,.09,.17,.12,.24,.21,.5,.33,.73,.61,1.35,1.25,2.69,1.89,4.02,.21,.47,.43,.92,.66,1.39,.17,.33,.35,.66,.52,.99,.05,.09,.09,.19,.14,.31,.02,.05,0,.09-.05,.12Zm2.17-1.39s-.05,.05-.07,.07c-.33,.35-.71,.59-1.13,.83-.12,.07-.24,.14-.38,.21-.05,.02-.09,.05-.14,.07-.02-.02-.07-.02-.07-.05-.14-.24-.31-.47-.43-.71-.28-.57-.57-1.11-.83-1.68-.19-.35-.33-.71-.5-1.06-.24-.5-.47-.99-.71-1.46-.14-.31-.26-.59-.4-.87-.21-.45-.4-.87-.61-1.32-.07-.17-.14-.33-.19-.52-.02-.02,0-.07,0-.09s.02-.05,.05-.02c.02,0,.05,.02,.07,.02,.05,.07,.09,.12,.14,.19,.26,.35,.52,.69,.8,1.02,.38,.43,.73,.85,1.09,1.28,.31,.38,.61,.73,.95,1.09,.31,.33,.59,.71,.92,1.04,.14,.14,.26,.31,.4,.45,.31,.31,.57,.64,.87,.95,.05,.07,.09,.14,.17,.19,.24,.19,.24,.24,0,.4Zm1.54-1.54c-.28,.38-.59,.73-.95,1.04-.05,.05-.12,.07-.17,.02-.09-.09-.21-.17-.31-.28-.4-.43-.83-.87-1.23-1.32-.83-.95-1.65-1.89-2.48-2.81-.33-.38-.64-.76-.95-1.13-.17-.17-.31-.33-.45-.52-.05-.07-.09-.14-.14-.21v-.12s.05,0,.07-.02c.02,.02,.07,.02,.09,.05,.54,.45,1.06,.9,1.61,1.32,.33,.28,.66,.52,.99,.78,.5,.4,.97,.78,1.47,1.16,.28,.24,.59,.45,.87,.66,.5,.4,.99,.78,1.49,1.18,.02,.02,.07,.05,.07,.07,.02,.02,.02,.07,.02,.09s-.02,.02-.02,.05Zm-6.52-7.4v-.07h.02s.02,.02,.02,.05t-.05,.02Zm5.55-6.85c.19,.19,.4,.38,.59,.59,.05,.05,.12,.12,.17,.19s.05,.12,0,.17c-.21,.17-.43,.33-.66,.47-.09,.05-.19,.09-.28,.17-.38,.28-.78,.54-1.18,.83-.14,.09-.26,.19-.38,.28-.02,.02-.05,0-.07,0l-.02-.02c.05-.07,.07-.14,.12-.21,.14-.24,.28-.45,.43-.69,.28-.43,.54-.85,.83-1.28,.09-.17,.21-.33,.31-.5,.05-.05,.12-.05,.17,0Zm-.14-2.17c0-.07,.05-.12,.09-.09,.12,0,.19,.07,.21,.19,0,.05-.02,.12-.05,.12-.05,0-.07,0-.09-.02-.07-.05-.14-.12-.17-.19Zm-4.58,9.5h-.12s-.05-.05-.05-.09v-.07c.02-.17,.17-.28,.31-.35,.05,0,.07-.02,.12-.02,.17-.05,.35-.09,.52-.14,.73-.19,1.44-.45,2.17-.66,1.04-.33,2.08-.69,3.12-1.04,.43-.14,.83-.31,1.25-.47,.07-.02,.12-.02,.19-.05,0,0,.05,.02,.05,.05,.02,0,.02,.02,.05,.05,.09,.35,.21,.69,.26,1.02,.02,.09,.02,.21,.05,.31,0,.09-.05,.14-.17,.17-.09,.02-.19,.05-.28,.07-.38,.07-.76,.14-1.13,.21-.43,.07-.85,.12-1.28,.19-.8,.14-1.63,.26-2.43,.4-.43,.05-.85,.14-1.25,.21-.47,.07-.92,.14-1.37,.24Zm.4,.47v.05s0,.05-.02,.05h-.12c-.07-.02-.12-.05-.09-.07s.05-.05,.07-.05c.05,0,.09,0,.12,.02h.05Zm-.54,.24v.02l-.02,.02s-.12,0-.17,.02c-.05-.02-.07-.02-.09-.05v-.05c.09-.05,.19-.05,.28,.02Zm7.35-3.83c-.24,.09-.5,.17-.73,.26-1.28,.5-2.58,.9-3.88,1.3-.59,.19-1.18,.38-1.75,.59-.17,.07-.31,.09-.47,.12-.05,.02-.09,0-.09-.02v-.07c.14-.33,.38-.54,.66-.71,.26-.17,.54-.31,.8-.45,.4-.24,.83-.47,1.23-.71,.02-.02,.07-.05,.09-.05,.69-.33,1.32-.73,2.01-1.06,.02,0,.07-.02,.09-.05,.47-.28,.97-.52,1.42-.8,.05-.02,.07-.02,.12-.05,.02,.05,.07,.07,.09,.12,.19,.4,.4,.8,.54,1.23,.09,.21,.07,.28-.14,.35Zm-.71-1.99s-.02,.02-.05,.05c-.17,.09-.33,.21-.5,.31-.14,.09-.31,.17-.45,.26-.38,.19-.76,.4-1.13,.59-.43,.21-.83,.43-1.25,.66-.35,.21-.73,.43-1.11,.64-.19,.14-.43,.24-.64,.35,0,.02-.05,0-.05,0v-.07c.14-.21,.31-.45,.45-.66,.12-.19,.24-.35,.33-.52,.09-.12,.19-.24,.31-.33,.33-.26,.64-.5,.99-.73,.54-.38,1.09-.78,1.65-1.13,.17-.09,.33-.24,.47-.33,.05-.05,.12-.07,.17-.09,.02-.02,.09-.02,.09,0,.24,.28,.5,.59,.69,.9,.02,.02,.02,.05,.02,.07v.05Zm-2.36-2.43c-.05,.07-.07,.12-.09,.17-.47,.73-.92,1.47-1.37,2.2-.33,.52-.66,1.04-.99,1.54-.21,.33-.45,.64-.66,.97-.14,.19-.28,.38-.4,.57-.09,.12-.19,.21-.33,.28t-.05-.02s-.02,0-.02-.02c0,0,.02-.02,.02-.07,.05-.07,.12-.19,.19-.31,.19-.28,.38-.57,.54-.87,.17-.24,.33-.5,.5-.76,.07-.12,.14-.26,.24-.38,.5-.8,.97-1.63,1.49-2.41,.24-.38,.5-.73,.69-1.13,.05-.07,.12-.07,.19-.02,.02,.02,.05,.05,.05,.05,.05,.05,.07,.12,.05,.19-.02,.02-.02,.05-.02,.05Zm-.97-.07c-.24,.4-.5,.8-.76,1.21-.14,.24-.28,.5-.43,.73-.35,.61-.73,1.23-1.11,1.84-.33,.57-.69,1.11-1.04,1.65-.12,.19-.24,.35-.38,.5-.02-.07,0-.09,.02-.14,.38-.73,.76-1.47,1.18-2.17,.52-.9,1.04-1.8,1.56-2.69,.28-.5,.59-.97,.9-1.47,.02-.05,.07-.12,.12-.17,.02-.02,.07-.02,.09-.02,.07,.02,.14,.07,.14,.17-.09,.19-.19,.38-.31,.57Zm-.31-.95c-.02,.07-.05,.12-.07,.17-.05,.09-.12,.17-.17,.24-.5,.78-.97,1.58-1.42,2.39-.43,.76-.87,1.54-1.3,2.29-.14,.26-.26,.54-.4,.83-.07,.14-.14,.26-.21,.4-.02,.02-.05,.02-.07,.05-.02-.09,.02-.19,.05-.28,.14-.33,.26-.66,.38-.99,.19-.4,.33-.83,.5-1.25,.12-.35,.26-.69,.35-1.04,.09-.4,.24-.76,.35-1.16,.17-.52,.35-1.04,.52-1.56,.07-.19,.14-.4,.21-.61,0-.05,.02-.09,.05-.14,.02-.02,.07-.05,.09-.05,.05,0,.07,.02,.12,.05,.31,.14,.59,.28,.9,.47,.02,.02,.07,.05,.12,.09,.02,.02,.02,.09,0,.12Zm3.85,13.99c-.21,.38-.45,.71-.71,1.04-.02,.05-.09,.05-.17,.02-.07-.07-.14-.12-.24-.19-.83-.66-1.68-1.3-2.53-1.96-.9-.69-1.77-1.39-2.65-2.08-.09-.07-.19-.14-.28-.24-.24-.19-.45-.38-.69-.59-.05-.05-.09-.07-.12-.14v-.05s.02-.02,.05-.02,.07,0,.09,.02c.07,.02,.12,.05,.17,.07,.26,.19,.54,.33,.83,.47,.28,.17,.57,.33,.85,.5,.35,.19,.69,.35,1.04,.54,.14,.07,.28,.14,.43,.21,.28,.17,.59,.33,.9,.5,.66,.35,1.35,.71,2.03,1.06,.31,.17,.59,.31,.9,.47,.07,.05,.12,.07,.17,.17-.02,.05-.05,.12-.07,.19Zm.85-1.99c-.14,.4-.26,.8-.45,1.18-.02,.07-.07,.14-.12,.19,0,.05-.09,.05-.12,.05-.05-.02-.07-.02-.12-.05-.05-.02-.12-.07-.19-.09-1.25-.66-2.51-1.32-3.73-1.96l-.92-.5s-.09-.05-.14-.07c-.38-.26-.78-.43-1.18-.61-.12-.05-.24-.09-.35-.17-.05-.02-.09-.05-.12-.09h.09c.17,.05,.33,.09,.5,.12,.07,.02,.14,.05,.21,.07,.5,.14,.97,.28,1.44,.43,.21,.07,.45,.14,.66,.19,.38,.09,.76,.19,1.13,.28,.09,.02,.17,.05,.26,.07,.76,.19,1.54,.4,2.34,.54,.24,.05,.5,.14,.73,.19,.05,.02,.07,.07,.07,.12v.12Zm-6.66-2.22s.02-.05,.02-.05c.02,0,.07-.02,.09-.02,.21,0,.43,0,.61,.07,.07,.02,.12,.05,.19,.05,.47,.07,.95,.21,1.42,.35,.17,.07,.31,.12,.47,.19,.4,.12,.8,.26,1.21,.4,.17,.05,.33,.12,.47,.17-.21,.02-.45,0-.64-.09-.33-.09-.64-.17-.97-.26-.14-.02-.31-.05-.45-.12-.02-.02-.05-.02-.07-.02-.28-.05-.54-.14-.8-.21-.38-.09-.76-.19-1.13-.31-.14-.05-.28-.09-.4-.12-.02,0-.02-.02-.02-.02Zm6.83,1.49s-.09,.02-.14,0c-.07,0-.14-.02-.21-.05-.19-.05-.4-.09-.59-.14-.14-.05-.31-.12-.45-.17-.59-.19-1.18-.38-1.77-.59-.38-.14-.78-.24-1.18-.38-.12-.05-.28-.07-.4-.12-.05,0-.09-.05-.09-.12,.09,0,.19,.02,.31,0,.28,0,.57,0,.87-.02,.14-.02,.31,0,.47,.02,.35,.02,.73,.02,1.09,.05,.33,.05,.66,.05,.99,.07,.12,0,.26,0,.38,.02,.28,.05,.57,.09,.85,.07,.07,0,.09,.05,.09,.12,.02,.43-.07,.83-.21,1.23Zm.17-1.61h-.07c-.38-.02-.73-.07-1.18-.09,.4-.09,.73-.07,1.06-.09,.07,0,.14,0,.19,.02,.05,0,.09,.05,.09,.07,0,.05-.02,.09-.09,.09Zm.14-.61s-.05,.07-.09,.07c-.21,.02-.4,.05-.59,.05-.45,.02-.9,.02-1.35,.05-.47,0-.95,0-1.42,.02-.33,0-.66,.02-.99,.02h-.47c-.54,.02-1.11,0-1.65-.05-.02,0-.07-.02-.09-.02-.28-.09-.57-.19-.85-.33-.02-.02-.02-.05-.02-.07s.02-.05,.02-.05c.05-.02,.09-.05,.14-.05,.19,0,.38-.05,.57-.09,.12,0,.24-.05,.33-.05,.45-.07,.9-.14,1.35-.19,.21-.05,.43-.07,.64-.12,.83-.12,1.63-.26,2.46-.38,.54-.09,1.09-.19,1.65-.31,.09-.02,.19-.05,.28-.02,.02,.02,.05,.07,.05,.12,.07,.45,.07,.9,.05,1.35v.05Zm-2.03-9.05c.33,.33,.66,.66,.99,1.02,.54,.64,.99,1.35,1.39,2.1,0,.02,0,.05,.02,.07,.05,.07,0,.14-.02,.19,.02,0,.05-.02,.05-.02v.02h-.05s-.02-.07-.02-.09c-.31-.52-.64-1.02-1.02-1.49-.45-.64-.99-1.21-1.56-1.73-.12-.12-.24-.24-.35-.35-.05-.05-.02-.09,.02-.17,.19,.14,.35,.31,.54,.45Zm-.35-2.62s.09-.02,.12,0c.07,.09,.14,.19,.09,.35,0,.02-.02,.09-.05,.14-.14,.26-.31,.52-.47,.78-.02,.02-.05,.05-.07,.07-.05,.02-.07,.05-.12,.02-.09-.05-.19-.12-.24-.21v-.14c.19-.28,.35-.59,.57-.85,.05-.07,.09-.14,.17-.17Zm-.9-.61c.07,0,.14,0,.19,.02h.14c.07,.02,.17,.05,.24,.07,0,0,.02,.05,0,.05-.02,.05-.05,.07-.07,.07-.17,.07-.33,.02-.5-.02-.02,0-.02-.02-.05-.05,0-.02,0-.05-.02-.07,0-.02,.05-.07,.07-.07Zm-1.16-.19c.17,.02,.31,.05,.47,.07,.02,0,.05,.07,.05,.09l-.07,.07s-.05,.02-.07,.02c-.07,0-.14-.02-.21-.02-.07-.02-.14-.02-.21-.05-.05-.02-.07-.07-.05-.12,0-.05,.05-.09,.09-.07Zm-1.39,.59c.07,0,.12-.02,.19-.02,.43,.05,.85,.07,1.25,.12,.4,.02,.8,.12,1.21,.19,0,.05,0,.07-.02,.09-.12,.21-.24,.4-.38,.59-.05,.07-.09,.07-.19,.05-.17-.09-.33-.19-.5-.28-.45-.21-.9-.43-1.37-.61-.05-.02-.12-.05-.19-.07v-.05Zm-.59,.28c.31,.09,.61,.21,.92,.33,.5,.19,.95,.45,1.42,.69,.05,.02,.09,.07,.12,.12v.07s-.05,.05-.07,.02c-.05,0-.09-.02-.14-.05-.4-.24-.83-.45-1.25-.64-.43-.21-.87-.38-1.32-.54-.12-.02-.21-.07-.33-.19,.26,.05,.45,.12,.66,.19Zm-1.94,1.61l.07-.28s.05-.07,.07-.07c.28,.02,.54,.05,.83,.14,.19,.07,.4,.14,.61,.24,.05,.02,.09,.07,.09,.14-.02,.05-.02,.12-.05,.17-.14,.47-.28,.92-.45,1.39-.19,.45-.33,.92-.47,1.37-.12,.35-.24,.73-.35,1.09-.05,.17-.12,.31-.17,.47-.05,.17-.12,.33-.17,.5-.02,.07-.07,.17-.12,.26-.17,.35-.26,.73-.4,1.09-.17,.5-.35,.97-.52,1.44-.05,.07-.07,.17-.12,.24-.02,.02-.07,.02-.09,.02-.05,.02-.07-.05-.07-.09,0-.12,.02-.21,.05-.33,.07-.43,.14-.85,.21-1.3,.05-.24,.07-.47,.12-.71,.02-.19,.05-.38,.07-.54,.09-.45,.19-.87,.21-1.18,.19-1.16,.35-2.15,.52-3.14,.05-.31,.07-.61,.12-.9Zm-.33-.52c.07,.02,.12,.09,.12,.17,0,.05,0,.07-.02,.12-.12,.76-.24,1.51-.38,2.27-.09,.52-.17,1.04-.24,1.58-.12,.69-.24,1.39-.35,2.08-.05,.33-.09,.64-.12,.95-.07,.47-.14,.92-.28,1.37-.02,.02-.02,.05-.05,.09,0,.02-.02,.02-.05,.02s-.07,0-.07-.02c-.02-.05-.02-.09-.02-.14-.02-.12-.02-.24-.02-.35,.05-.38,0-.76,0-1.13-.02-.61-.02-1.25,.09-1.87,.05-.21,.07-.45,.09-.69,.02-.09,.05-.21,.02-.33,0-.21,.05-.45,.07-.69,.05-.28,.07-.57,.09-.87,.02-.28,.07-.59,.12-.9,.05-.31,.09-.59,.09-.9,.02-.24,.05-.47,.07-.71,.02-.05,.05-.09,.09-.09,.24,0,.5,0,.73,.05Zm-1.21-1.73c.12-.02,.24,0,.43,.07-.21,.02-.31,0-.4-.02-.02,0-.05-.02-.05-.05h.02Zm0,1.65c.07,0,.12,.07,.12,.12-.02,.12-.02,.21-.02,.26-.05,.19-.07,.33-.05,.47v.35s0,.09-.02,.12c-.07,.21-.05,.45-.07,.69-.05,.21-.09,.43-.12,.64-.02,.19-.02,.35-.05,.52-.02,.14-.05,.26-.07,.4-.02,.12-.05,.26-.05,.4,0,.17-.02,.33-.09,.5h-.05s-.02-.05-.02-.07c-.07-.5-.17-.99-.26-1.49-.12-.71-.24-1.42-.35-2.15-.02-.21-.07-.4-.09-.61,0-.05,.02-.12,.09-.14,.07,0,.17-.02,.24-.02h.78s.07,0,.09,.02Zm-.4-1.68s.07,.02,.09,.05v.02c-.07,.02-.14,.05-.21,.05-.66,0-1.32,.09-1.99,.24-.12,.02-.21,.05-.33,.07-.02,0-.07,0-.09-.02-.02,0-.05-.02-.05-.05s0-.05,.02-.07c.05-.02,.12-.05,.17-.05,.64-.14,1.3-.21,1.96-.24h.43Zm-.78-.47v.02s-.02,.02-.02,.05c-.02,.02-.05,.02-.07,.02-.59,.07-1.18,.14-1.77,.26-.09,0-.14-.02-.19-.09-.02-.07-.02-.12-.05-.17-.05-.14-.09-.28-.14-.43-.05-.12,0-.19,.14-.17,.17,.02,.31,.07,.52,.09,.5,.07,1.04,.24,1.58,.4Zm-2.43-1.09s.02-.05,.05-.05c.17,.02,.33,.05,.47,.05,.17,.05,.31,.07,.45,.12,.02,0,.05,.02,.02,.05-.02,.02-.02,.05-.05,.05-.31,.07-.59,.02-.87-.09-.02,0-.05-.02-.07-.05v-.07Zm0,1.99s0,.05,.02,.07c-.02,.07-.07,.09-.12,.14-.02,.02-.09,.02-.12-.02-.05-.02-.05-.09-.02-.12,.07-.02,.12-.07,.17-.07,.02-.02,.05,0,.07,0Zm-.43-1.39c.12,.26,.21,.54,.26,.83,.02,.14,0,.17-.12,.21t-.05,.02s-.09-.02-.12-.05l-.14-.28c-.09-.28-.21-.59-.31-.87-.02-.05,.02-.09,.07-.09h.07c.17,0,.26,.09,.33,.24Zm-.61-.73h.33l.07,.07s0,.05,0,.07c0,0,0,.02-.02,.02h-.21s-.12-.05-.17-.05c-.02-.02-.02-.05-.02-.07s.02-.05,.02-.05Zm-.17-2.41c-.07,0-.14-.02-.19-.09-.02-.02,0-.07,.02-.09,.07-.05,.09-.05,.24-.02,.05,0,.07,.05,.05,.09-.02,.07-.07,.12-.12,.12Zm.07-2.34c.05-.09,.07-.19,.12-.26,.02-.02,.05-.05,.09-.07,.14,.09,.26,.21,.38,.33,.05,.05,.02,.12-.02,.14-.14,.07-.31,.09-.45,.05-.07,0-.14-.09-.12-.17v-.02Zm.43,.99c0,.09-.05,.14-.14,.14-.35,0-.35,.02-.52-.31-.05-.09-.09-.19-.12-.28-.02-.02,0-.07,.02-.07,.09,.02,.19,.02,.28,.05,.26,0,.47,.24,.47,.47Zm-.52-1.7s.02,.05,0,.07c0,.02-.02,.02-.05,0,0,0-.02-.02-.02-.05s.07-.05,.07-.02Zm-.61,.64c.07-.12,.17-.19,.31-.21,.02,0,.07,0,.09,.02,.07,.05,.09,.12,.12,.19,.02,.09-.05,.19-.14,.19h-.09c-.09-.02-.19-.07-.28-.12-.02-.02-.02-.05,0-.07Zm-.12,1.02c.07-.07,.24-.07,.33-.02,.07,.05,.12,.09,.14,.17v.05s-.05,.02-.07,.02c-.09,.02-.19,.05-.28,.07-.07,.02-.12,0-.14-.05-.05-.09-.02-.21,.02-.24Zm-.26,.61s.07,0,.09,.02c.17,.05,.31,.05,.47,0h.02c.19-.05,.26,0,.38,.19-.02,.02-.05,.05-.09,.07-.28,.07-.57,.05-.85-.02-.07-.02-.09-.09-.09-.19,0-.02,.05-.07,.07-.07Zm-.35-.61s.05-.05,.07-.05c.09,.02,.17,.07,.19,.17,0,.02,0,.07-.02,.09s-.07,.02-.09,.02c-.07-.02-.14-.07-.17-.14,0-.02,0-.07,.02-.09Zm-.54,.07v.02s-.05,0-.05-.02h.05Zm-.14,.4c.14,.05,.24,.12,.31,.26,0,.02-.02,.07-.05,.07-.07,0-.14,0-.19-.02-.07-.02-.14-.02-.21-.05-.07-.05-.07-.14-.02-.19,.05-.05,.09-.07,.17-.07Zm-.69,1.04c.05-.09,.09-.19,.17-.28,.02-.05,.09-.09,.19-.07,.21,.02,.43,.05,.64,.07,.07,.02,.14,.05,.17,.12,.07,.14,.14,.26,.19,.38,.09,.26,.21,.54,.31,.8,.05,.09,.07,.19,.09,.28,.02,.02,0,.07,0,.12h-.17c-.31-.05-.61-.07-.92-.12-.33-.05-.66-.12-.99-.17-.05-.02-.07-.02-.12-.05-.05,0-.07-.07-.05-.09,.02-.07,.05-.12,.07-.17,.14-.28,.28-.54,.43-.83Zm-1.63,.71c.09-.17,.21-.33,.33-.47,.24-.33,.47-.64,.71-.97,.02,0,.02-.02,.05-.05,.02,0,.07-.02,.07-.02,.02,.02,.02,.07,.05,.09-.05,.07-.07,.17-.09,.24-.24,.43-.47,.87-.71,1.3-.02,.02-.05,.05-.05,.07-.05,.02-.07,.07-.14,.05-.07-.02-.14-.05-.24-.07,0,0-.02-.05-.02-.07s.02-.07,.05-.09Zm-2.6,5.48c.05-.14,.09-.31,.12-.45,.02-.17,0-.33,.02-.47v-.07c-.02-.21,.02-.4,.09-.57,.05-.14,.05-.26,.02-.4-.02-.05-.05-.12-.05-.17s.02-.12,.05-.14c.05-.07,.09-.14,.17-.19,.33-.31,.59-.66,.83-1.02,.19-.26,.35-.52,.52-.8,.05-.07,.12-.14,.17-.24,.05-.05,.09-.07,.17-.07,.09,.02,.21,.05,.31,.05,.05,.02,.07,.07,.05,.09,0,.05-.02,.12-.07,.17-.33,.66-.66,1.32-1.02,1.96-.4,.71-.76,1.44-1.13,2.17-.05,.07-.09,.17-.14,.24-.02,.02-.05,.02-.07,0,0,0-.02,0-.02-.02v-.07Zm-.66,3.12c.47-.92,.97-1.84,1.47-2.74,.38-.69,.76-1.39,1.11-2.1,.24-.45,.47-.9,.71-1.35,.17-.28,.31-.59,.45-.87,.07-.14,.12-.28,.24-.43h.19c.19,.05,.38,.07,.57,.09l1.84,.28c.09,.02,.19,.05,.28,.07,.07,0,.14,.05,.17,.12,.02,.05,.05,.09,.07,.14,.21,.52,.45,1.02,.61,1.56,.02,.02,.05,.07,.05,.12,0,.02-.02,.05-.02,.07-.05,.02-.09,.05-.14,.05-.64,.26-1.25,.52-1.87,.85-.78,.43-1.51,.95-2.17,1.54-.9,.78-1.68,1.65-2.29,2.67-.33,.57-.61,1.13-.87,1.73-.02,.05-.05,.12-.07,.17-.12,.26-.07,.31-.43,.24-.21-.02-.4-.07-.61-.12-.09-.02-.14-.07-.09-.19,0-.05,.02-.09,.02-.14,.24-.59,.5-1.18,.8-1.75Zm-2.08,8.53s.05-.12,.07-.17c.02-.07,.07-.09,.12-.09,.05-.02,.09-.02,.14-.02,.33,.05,.64,0,.95,.02h.87c.07,0,.12,.02,.14,.07,.05,.07,.07,.14,.09,.21,0,.02-.05,.09-.07,.09-.02,.02-.05,.02-.07,.02-.43,.02-.83,.07-1.25,.05-.33,0-.69,.02-1.04,.02-.02,0-.07-.02-.09-.02,.05-.07,.09-.12,.14-.19Zm-.19-1.63v-.12h.09c.14,.24,.19,.5,.21,.76,0,.02-.02,.02-.05,.05,0,0-.02,0-.02-.02-.07-.21-.17-.45-.24-.66Zm2.22-.19s.05,.02,.12,.05c.02,.26,.02,.5,.05,.71,0,.14-.05,.21-.19,.21-.19,.02-.38,.02-.59,.05-.24,0-.5,.02-.76-.02-.02,0-.07-.02-.09-.02,.09-.28,.24-.54,.26-.83,0-.09,.07-.14,.14-.14s.12-.02,.19-.02c.28,0,.57,.02,.87,.02Zm-.54-1.65s0-.09,.02-.14c.02-.09,.07-.19,.12-.31,.05-.09,.12-.14,.24-.12,.09,0,.19,.02,.28,.02,.12,.02,.14,.07,.14,.19-.02,.14-.02,.28-.09,.43-.26,.02-.47,0-.71-.07Zm-.85-34.53s.07,.02,.07,.05v.05s-.02,.12-.05,.24c-.02,.12-.07,.28-.14,.45,0,.02-.02,.05-.05,.05s-.05-.02-.05-.05c-.02-.05-.02-.09-.02-.14-.02-.09-.02-.21-.05-.31,0-.14,.12-.31,.28-.33Zm.02,17.28c.17-.02,.33-.05,.5-.07,.05-.02,.09,.05,.09,.09-.02,.02-.02,.07-.02,.09-.02,.09-.07,.19-.09,.28-.17,.4-.33,.83-.47,1.25-.14,.4-.31,.78-.5,1.16-.05,.09-.12,.14-.24,.12h-.02s-.05-.02-.07-.02c-.54-.07-1.06-.14-1.7-.26-.38-.05-.87-.12-1.37-.21-.07,0-.17-.02-.24-.05-.14-.02-.17-.05-.19-.19,0-.14-.02-.31-.05-.47,0-.26-.05-.52-.05-.8-.02-.09-.02-.21-.02-.31,0-.07,.05-.09,.09-.12h.14c.54-.05,1.09-.09,1.63-.12,.5-.02,.95-.07,1.42-.17,.38-.05,.78-.14,1.16-.21Zm-1.89,6.62c.02,.43,.05,.83,.02,1.25-.02,.12,0,.26-.02,.4,0,.26,0,.5-.05,.76,.02,.4-.07,.78-.05,1.18,0,.09-.02,.19-.02,.28,0,.07-.02,.17-.02,.26,0,.19,0,.38-.05,.57v.19c.02,.21-.02,.4-.05,.61-.07,.43-.14,.85-.21,1.25,0,.12-.02,.21-.05,.31q-.05,.24-.31,.21c-.69-.05-1.35,.05-2.01,.31h-.07s-.07-.07-.12-.12c-.19-.26-.38-.5-.57-.76-.09-.12-.19-.24-.26-.35-.07-.09-.05-.17,.05-.21,.19-.07,.4-.12,.61-.14,.07,0,.14,.02,.17,.09,.14,.28,.17,.31,.47,.31,.28-.02,.54-.02,.8-.05,.19,0,.35-.05,.54-.09,.09-.05,.17-.12,.17-.21,.02-.09,0-.17,.02-.24,0-.09,0-.19,.02-.28,.05-.09,.05-.21,.05-.33,0-.45-.12-.9-.26-1.35-.09-.21-.19-.43-.35-.59-.26-.24-.33-.52-.35-.85,0-.09-.02-.19-.02-.28,.05-.09,.14-.07,.21-.09,.05-.05,.07-.09,.05-.17-.05-.17-.09-.33-.14-.5-.14-.45-.21-.95-.26-1.42-.07-.73-.14-1.47-.24-2.17-.02-.31-.05-.59-.07-.87-.02-.12-.05-.24,0-.38h.14c.17,.02,.31,.02,.47,.05,.66,.12,1.3,.24,1.94,.33,.09,.02,.21,.05,.31,.05,.31,.07,.4,.09,.38,.14-.02,.14-.14,.24-.21,.33-.07,.07-.14,.14-.21,.21-.38,.35-.52,.8-.5,1.32,0,.35,.05,.69,.05,1.04Zm-1.89,9c-.19-.24-.35-.5-.52-.73-.05-.07-.02-.12,.05-.14,.33-.14,.66-.24,1.02-.24,.12,0,.17,.05,.14,.17-.12,.28-.14,.59-.19,.9-.02,.09-.05,.17-.12,.21-.07,.05-.14,.07-.21,.02-.05-.07-.12-.12-.17-.19Zm.02,.97v.07s-.02,.07-.07,.07-.07,0-.09-.05c-.02-.02-.02-.07,.02-.09,.02-.02,.05-.02,.07-.05h.05s.02,.05,.02,.05Zm-.61,.4l.05-.02s.07,.02,.12,.02c.07,.07,.14,.14,.19,.21,0,.02,.02,.07,0,.12,0,.02-.05,.05-.07,.05-.05,0-.07,0-.12-.02-.05,0-.09,0-.14-.02-.02-.02-.05-.05-.05-.09-.05-.07-.02-.17,.02-.24Zm-.07-1.11l.02-.02s.09,.05,.09,.09c-.02,0-.02,.02-.05,.02h-.02s-.02-.07-.05-.09Zm1.49-.8c.05-.14,.09-.31,.14-.45,0-.02,.02-.02,.05-.02l.02,.02v.12c-.05,.21-.09,.43-.14,.64-.02,.09-.07,.17-.14,.24h-.02s-.02-.02-.02-.02c-.02,0-.02-.02-.02-.02,.05-.17,.09-.33,.14-.5Zm-1.96,2.67s.12,.02,.14,.07c.05,.09,.09,.21,.07,.35,0,.02-.02,.05-.07,.07-.02,.05-.05,.05-.07,.07-.19,.09-.35,.19-.52,.28-.12,.05-.21,.09-.33,.14-.05,0-.12-.02-.12-.07-.09-.19-.17-.38-.24-.57-.05-.17-.07-.33-.05-.5,.02-.02,.05-.02,.07-.02,.38,0,.76,.07,1.11,.17Zm-.52-.61v-.02l.02-.02,.02-.02c.19-.02,.35-.07,.54-.09,.05-.02,.09,.02,.09,.07v.09s-.02,.05-.02,.09c-.02,.02-.05,.07-.09,.05l-.57-.14Zm.69-.5c-.07,.05-.14,.07-.24,.09-.19,.05-.4,.09-.59,.14-.14,.02-.26,.02-.4,.02-.02-.05-.02-.07-.02-.12,0-.09,.02-.19,.05-.28,.12-.31,.28-.61,.5-.87,.07-.07,.14-.07,.21,0,.17,.19,.31,.38,.45,.59,.05,.05,.09,.14,.12,.21,.07,.12,.05,.19-.07,.21Zm-.14-1.39h.05s.02,.05,.05,.05t-.02,.05s-.02,.02-.05,0c-.05-.05-.05-.07-.02-.09Zm-6.48-3.66s-.02,0-.02-.02c-.02-.02-.07-.07-.07-.12-.02-.09-.05-.21-.07-.31-.02-.19-.07-.38-.12-.57-.17-.73-.4-1.47-.71-2.15-.17-.35-.35-.71-.54-1.04-.54-.95-1.21-1.8-1.94-2.6-.12-.09-.21-.24-.31-.35-.02,0,0-.05,0-.05h.02s.09,.07,.14,.09c.76,.71,1.39,1.49,1.94,2.34,.28,.47,.54,.95,.78,1.44,.26,.52,.45,1.04,.61,1.61,.09,.33,.19,.71,.26,1.04,.05,.19,.07,.38,.07,.54v.12s-.02,.02-.05,.02Zm.05,1.32c.02,.17,.02,.35,0,.54,0,.14,0,.28-.02,.43v.31c-.02,.09-.05,.14-.05,.21-.02,0-.05,.02-.07,.02s-.05,0-.05-.02v-.17c.02-.21,.02-.43,.05-.64,.02-.19,.02-.38,.02-.54-.02-.09,0-.19,0-.31,.02,0,.02-.02,.02-.02,.02,.02,.07,.02,.07,.05,.02,.05,.02,.09,.02,.14Zm-6.71,6.31l-.21-.21c-.33-.35-.69-.71-1.02-1.09-.45-.47-.9-.97-1.37-1.47-.54-.59-1.06-1.21-1.63-1.77-.09-.12-.19-.24-.28-.33-.02-.05-.02-.07,0-.09-.02,0-.05,0-.05-.05,0,0,.02,0,.02-.02t.02,.05v.02s.07,0,.09,.02c.31,.24,.61,.5,.9,.76,.02,0,.05,.02,.07,.05,.33,.35,.73,.61,1.13,.9,.38,.28,.76,.57,1.13,.85,.87,.69,1.75,1.35,2.67,1.99,.14,.12,.31,.21,.47,.33,.07,.05,.17,.12,.24,.17,.07,.07,.09,.14,.02,.24-.05,.09-.12,.19-.21,.28-.12,.14-.24,.31-.38,.45-.33,.33-.24,.33-.57,0-.35-.35-.71-.71-1.06-1.06Zm1.04,1.51s.02,.09-.02,.14-.07,.07-.12,.12c-.14,.09-.28,.21-.38,.33-.12,.12-.24,.19-.35,.26-.09,.05-.14,.05-.19-.02-.19-.24-.38-.47-.54-.73-.45-.66-.92-1.32-1.37-1.99-.26-.38-.52-.78-.76-1.16-.21-.31-.43-.64-.61-.95-.26-.4-.5-.78-.76-1.18-.14-.21-.28-.45-.43-.66-.05-.07-.02-.09,.02-.14,0,.02,.02,.05,.05,.09,.12,.12,.24,.26,.33,.38,.47,.52,.97,1.04,1.42,1.58,.33,.35,.66,.71,.99,1.06,.8,.9,1.65,1.77,2.51,2.62,.07,.07,.14,.17,.21,.24Zm-.85-16.12c-.14,.28-.28,.54-.45,.8-.12,.17-.24,.35-.35,.54-.33,.54-.69,1.09-1.02,1.65-.38,.61-.8,1.23-1.23,1.84-.09,.17-.19,.33-.31,.5-.02,.05-.05,.07-.12,.09v-.12c.05-.09,.07-.17,.12-.26,.12-.24,.21-.47,.33-.69,.28-.5,.47-1.04,.69-1.58,.19-.45,.33-.92,.5-1.39,.17-.5,.33-.97,.5-1.47,.07-.19,.14-.4,.19-.61,0-.05,.09-.09,.14-.07,.02,.02,.07,.02,.09,.05,.24,.14,.5,.28,.73,.43,.07,.05,.12,.09,.19,.14,.02,.02,.02,.05,.02,.07s-.02,.05-.02,.07Zm.33,.31s.07-.07,.12-.05c.07,0,.09,.07,.12,.12v.12s-.05,.09-.07,.17c-.28,.43-.52,.87-.83,1.28-.17,.24-.31,.47-.45,.71-.35,.5-.69,.99-1.02,1.49-.09,.12-.19,.21-.26,.33-.09,.12-.19,.21-.26,.33-.35,.47-.73,.95-1.16,1.37-.14,.14-.31,.31-.47,.45h-.05s0-.05,.02-.05c.02-.07,.07-.12,.09-.17,.38-.4,.69-.85,1.04-1.28,.09-.14,.19-.31,.31-.45,.12-.19,.26-.38,.38-.57,.21-.31,.4-.59,.59-.9,.07-.12,.14-.21,.21-.33,.43-.64,.85-1.28,1.25-1.94,.14-.21,.28-.43,.43-.64Zm-1.84-.8c-.09,.24-.17,.47-.24,.71-.07,.19-.12,.38-.19,.59-.14,.43-.31,.87-.45,1.3-.17,.43-.35,.85-.52,1.28-.12,.31-.26,.61-.4,.9-.21,.43-.4,.87-.64,1.28-.14,.24-.24,.47-.35,.73-.05,.09-.09,.19-.19,.24t-.05,0h-.02c0-.07,0-.12,.02-.19,.14-.45,.24-.95,.4-1.39l.07-.35c.07-.26,.12-.52,.21-.78,.02-.07,.02-.14,.05-.21,.05-.31,.12-.61,.19-.92,.09-.31,.12-.61,.19-.9,.05-.33,.09-.69,.21-.99,.05-.14,.05-.28,.07-.45,.05-.19,.07-.4,.09-.57,.09-.38,.17-.73,.24-1.06,.05-.14,.09-.17,.24-.12,.21,.07,.43,.17,.64,.21,.12,.05,.26,.12,.4,.19,0,0,.02,.02,.05,.02,.07,.05,.09,.09,.07,.17-.05,.12-.07,.24-.09,.33Zm-2.62,7.37c-.02-.14,0-.17,.12-.24,0,.02,0,.05-.02,.07-.02,.05-.07,.09-.09,.17Zm.05,.26s-.02,.07-.05,.07v.02l-.02-.02q0-.07,.07-.07Zm5.36,6.69c-.61-.43-1.21-.87-1.8-1.32-.73-.54-1.44-1.11-2.2-1.63-.28-.21-.57-.45-.85-.66-.14-.09-.26-.21-.38-.31-.17-.17-.35-.31-.52-.45-.05-.02-.05-.05-.05-.09,.07,0,.12,.02,.17,.05,.76,.47,1.51,.9,2.32,1.28,.31,.14,.61,.33,.92,.5,.66,.33,1.35,.69,2.01,1.04,.14,.09,.28,.14,.43,.21,.28,.17,.57,.33,.85,.47,.26,.14,.5,.26,.76,.38,.05,.02,.07,.05,.12,.12-.19,.33-.33,.69-.59,.99-.05,.05-.09,.07-.14,.12-.02,.02-.05,.02-.07,0-.05,0-.07-.05-.12-.07-.26-.21-.57-.43-.85-.61Zm1.11-1.18c-.69-.38-1.37-.76-2.08-1.09-.43-.21-.83-.45-1.25-.66-.38-.21-.76-.43-1.18-.59-.02,0-.05-.02-.09-.05-.57-.31-1.16-.59-1.73-.92-.07-.05-.14-.09-.21-.14-.02-.02-.02-.05-.05-.05,.02-.02,.05-.02,.07-.02,.4,.14,.8,.28,1.21,.43,.24,.09,.45,.21,.69,.33,.24,.12,.47,.24,.71,.38,.38,.19,.76,.38,1.13,.59,.4,.21,.8,.45,1.21,.66,.09,.07,.19,.12,.28,.17,.33,.17,.69,.33,.99,.52,.19,.09,.38,.21,.54,.31,.14,.07,.28,.14,.43,.24,.05,.02,.12,.07,.17,.12,.05,.02,.02,.07,.02,.09-.05,.07-.09,.09-.17,.07-.24-.12-.47-.26-.69-.38Zm-4.18-5.88s0-.05,.02-.07c.05-.07,.12-.14,.19-.19,.33-.26,.59-.59,.87-.9,.07-.07,.12-.14,.17-.24,.12-.19,.28-.33,.47-.45,.05-.05,.12-.07,.17-.12,.61-.4,1.25-.78,1.87-1.16,.21-.12,.4-.26,.61-.38,.07-.05,.14-.09,.21-.14,.05-.02,.07-.02,.12-.02,.02,.02,.05,.05,.07,.07,.14,.26,.28,.52,.43,.78,.05,.07,.07,.14,.09,.21,.14,.43,.17,.4-.24,.57-.45,.19-.92,.38-1.37,.57-.35,.14-.71,.28-1.06,.43-.33,.12-.66,.26-1.02,.4-.47,.21-.95,.43-1.44,.61-.05,.02-.09,.05-.17,.02-.02,.05-.05,.07-.05,.09v.02l-.02-.02s-.05,.02-.07,.02t-.05-.02s.02-.02,.02-.02c.05-.02,.07,0,.09,.02q-.02-.07,.07-.09Zm1.47-.26c.09-.05,.17-.07,.24-.09,.78-.31,1.56-.61,2.34-.92,.4-.17,.78-.33,1.18-.52,.09-.02,.19-.09,.31-.09,.02,.05,.05,.07,.07,.09,.14,.43,.26,.83,.33,1.28,.02,.21-.02,.28-.24,.33-.35,.07-.73,.14-1.11,.21-.95,.19-1.91,.38-2.86,.54-.28,.05-.54,.09-.83,.14-.5,.09-.97,.17-1.47,.26-.05,0-.09,.02-.14,.02-.28,0-.54,.07-.8,.14-.07,.02-.17,.05-.28,.05h-.02v-.02c.07-.05,.12-.07,.17-.09,.45-.21,.9-.4,1.35-.59,.59-.24,1.18-.47,1.77-.73Zm-2.58,1.58c.24-.05,.5-.09,.73-.12,.17-.02,.35-.07,.54-.09,1.37-.21,2.72-.45,4.09-.71,.43-.09,.85-.19,1.28-.28,.12-.02,.24-.05,.35-.07,.07,0,.12,.05,.14,.12,.07,.38,.14,.78,.07,1.18v.19s-.07,.09-.12,.09h-.35c-.14,.02-.31,.02-.45,.02h-2.17c-.69-.02-1.37-.02-2.06,0-.47,0-.97,.02-1.44,0-.26,0-.5,0-.73,.02-.19,0-.4,0-.59-.02-.09-.02-.19-.05-.28-.07v-.07s.09-.05,.14-.05c.28-.05,.57-.09,.85-.14Zm5.7,4.16c-.43-.26-.87-.47-1.3-.71-.24-.12-.45-.24-.69-.35,0-.02-.02-.05-.05-.07,.07,.02,.14,0,.19,.05,.26,.12,.54,.19,.8,.31,.38,.17,.76,.31,1.11,.45,.17,.07,.33,.14,.47,.19,.07,.02,.12,.07,.17,.09,.05,.02,.05,.09,.05,.14-.02,.09-.05,.19-.19,.21-.17-.09-.38-.19-.57-.31Zm.73-.33s-.02,0-.02-.02c-.35-.17-.71-.28-1.09-.45-.47-.21-.97-.38-1.44-.57-.12-.07-.26-.09-.38-.17-.4-.14-.78-.31-1.18-.47-.33-.14-.66-.33-.99-.52-.02-.02-.02-.05-.02-.07h.05s.05,0,.07,0c.69,.12,1.35,.24,2.01,.35,.21,.02,.43,.09,.66,.14,.83,.14,1.65,.26,2.48,.4,.09,.02,.21,.05,.31,.07,.05,0,.09,.07,.09,.12-.02,.28-.09,.57-.21,.85-.02,.07-.07,.17-.12,.26-.05,.09-.12,.12-.21,.07Zm.4-1.58c-.38-.07-.76-.14-1.13-.19-.52-.09-1.04-.19-1.56-.28-.83-.14-1.68-.28-2.51-.43-.14-.02-.26-.07-.4-.09-.19-.05-.38-.09-.57-.12-.17-.02-.33-.07-.5-.14-.17-.09-.35-.14-.52-.24-.02,0-.05-.02-.05-.05,0,0,.02-.02,.02-.05,.45-.05,.87-.07,1.32-.07,.59,0,1.21,.05,1.82,0,.17,0,.35,.02,.54,.02h1.13c.33,.02,.64,0,.97,0h1.18c.14,0,.28-.02,.43-.02,.05,0,.09,.02,.14,.05,.02,0,.05,.02,.05,.05,.02,.07,.02,.12,.02,.19-.02,.26-.05,.52-.07,.78-.02,.17-.05,.31-.09,.45-.02,.14-.09,.17-.24,.14Zm1.8-7.44c-.05-.12-.12-.21-.17-.31-.28-.47-.59-.95-.92-1.39-.07-.09-.14-.17-.21-.26-.07-.07-.14-.17-.21-.26-.28-.38-.61-.73-.97-1.09-.09-.07-.17-.17-.24-.26-.07-.07-.07-.14-.02-.24l.07-.07s.07-.07,.12-.07h.14c.17,0,.26-.17,.19-.31-.02-.07-.07-.12-.12-.19-.05-.07-.05-.12,0-.19,.02-.02,.05-.02,.07-.02,.02,.02,.05,.05,.07,.07l.35,.43c.35,.47,.71,.97,1.06,1.44,.35,.5,.71,.99,1.06,1.49,.38,.52,.76,1.06,1.16,1.58,.14,.21,.28,.4,.43,.61l.02,.02c.33,.38,.59,.83,.9,1.23,.24,.31,.45,.61,.69,.9,.05,.07,.07,.14,.12,.19,.09,.19,.09,.28-.12,.4-.14,.09-.28,.19-.4,.31-.07,.07-.14,.12-.26,.12-.45,0-.9,.02-1.25-.02-.14-.02-.21-.05-.26-.05-.02,0-.05-.02-.05-.05-.02-.02-.02-.05-.02-.07-.05-.17-.07-.31-.09-.47-.07-.52-.19-1.06-.33-1.56-.21-.66-.47-1.3-.8-1.91Zm2.41,.26c-.33-.43-.66-.87-.99-1.3-.24-.33-.47-.66-.71-.97-.26-.35-.52-.71-.78-1.06-.14-.19-.28-.38-.4-.57-.38-.5-.76-1.02-1.13-1.51-.07-.07-.12-.14-.17-.21-.05-.09-.07-.19,0-.28,.02-.05,.05-.12,.07-.17,.02-.02,.07-.07,.12-.07,.12,.02,.21,.02,.33,.05,.43,.07,.87,.14,1.3,.21,.31,.05,.61,.09,.95,.14,.73,.12,1.47,.24,2.2,.35,.43,.07,.43,.02,.47,.52,.09,.9,.14,1.82,.17,2.72,.02,.28,.05,.59,.05,.87l.07,1.35v.14c.02,.09,.05,.17,.14,.21,.05,.02,.12,.05,.17,.07,.33,.07,.64,.17,.97,.21,.09,0,.19,.02,.28,.05,.12,.02,.17,.09,.19,.19,.02,.12,.02,.26,.02,.38,0,.17,0,.33-.02,.5,0,.09-.05,.19-.12,.26-.07,.09-.17,.19-.28,.24-.21,.14-.4,.26-.61,.38-.05,.02-.09,.02-.14,.05s-.09,0-.14-.05c-.09-.14-.21-.28-.33-.43-.54-.76-1.11-1.51-1.65-2.27Zm1.75-10.11c-.31,.17-.54,.43-.73,.71-.09,.17-.17,.33-.19,.52-.02,.21-.02,.43,0,.64,.05,.35,.09,.69,.17,1.02,.05,.33,.09,.69,.14,1.02,0,.07-.05,.12-.09,.12s-.09,0-.12-.02c-.07,0-.12,0-.19-.02-1.18-.19-2.36-.38-3.57-.57-.19-.05-.4-.07-.59-.14-.05-.02-.05-.05-.07-.09,0,0,0-.02,.02-.02,0-.05,.02-.09,.02-.14,.02-.05,.07-.09,.14-.12h.07c.14-.07,.21-.17,.12-.31-.02-.02-.05-.05-.05-.07-.05-.05-.05-.09-.02-.14,.12-.21,.19-.45,.28-.66,.02-.07,.05-.14,.09-.19,.05-.09,.12-.17,.24-.12,.07,.02,.14,0,.19-.07,.02-.09,.09-.17,.19-.21,.02,0,.05-.02,.07-.02,.05-.05,.07-.12,.05-.17-.05-.07-.09-.17-.14-.24-.02-.05-.02-.09,.02-.12,.05-.07,.07-.12,.07-.21,0-.12,.02-.26,.09-.38,.28-.52,.57-1.06,.85-1.61l.07-.14s.07,.02,.09,.05c.02,.05,.07,.07,.09,.12,.19,.21,.4,.38,.66,.5,.09,.05,.19,.09,.31,.14,0,0,.02,.02,.05,.02,.45,.12,.87,.28,1.32,.24,.14-.02,.26-.02,.4-.09,.02-.02,.05-.02,.09-.05,.09-.05,.17-.05,.26,0,.09,.05,.17,.07,.24,.12,.12,.05,.26,.09,.4,.07,.05,0,.09-.02,.09-.07,.02-.05,.05-.09,0-.14-.07-.09-.17-.19-.24-.26-.02-.02-.02-.09,0-.12,0,0,0-.02,.02-.02,.14-.12,.26-.24,.4-.35,.05-.02,.09-.05,.14-.07,.09-.05,.21-.05,.31,.02,.07,.05,.17,.12,.24,.17,.09,.09,.19,.14,.33,.09,.12-.07,.26-.07,.38-.02,.33,.09,.66,.12,.97-.02,.05,0,.07,0,.09,.02t-.02,.05c-.09,.02-.21,.07-.31,.09-.61,.21-1.23,.4-1.84,.59-.57,.19-1.11,.43-1.63,.71Zm.43-1.84c-.05-.09-.02-.21,.07-.28,0-.02,.05-.02,.07-.02v.21s0,.07-.02,.09c-.02,.02-.05,.05-.05,.05-.02,0-.05-.02-.07-.05Zm3.43,.38s0-.05,.02-.05c.12-.05,.21-.09,.33-.12v.05c-.12,.09-.21,.14-.35,.12Zm.38-.17s.02-.02,.05-.02v.02s-.02,.02-.05,0Zm-5.7-2.46s.07-.02,.12-.02c.14-.02,.26-.07,.38-.14,.05-.05,.12-.07,.19-.12,.07-.02,.14-.07,.24-.09,.24-.07,.47-.17,.71-.24,.05-.02,.09,0,.14,.02,.05,.07,.09,.12,.14,.19,.17,.21,.35,.43,.59,.57,.12,.09,.24,.17,.35,.26,.05,.02,.12,.05,.17,.07,.07,0,.12,0,.19-.02,.12-.07,.24-.12,.33-.21,.99-.66,1.94-1.35,2.88-2.06,.09-.05,.17-.12,.24-.17,.38-.21,.69-.45,1.04-.69,.19-.14,.35-.31,.5-.47,.07-.09,.14-.19,.21-.26,.09-.09,.19-.14,.33-.17,.02-.02,.09,.02,.09,.07,.02,.14,.05,.28,.05,.43,.02,.33,.05,.66,.09,.99v.19c0,.26,.05,.24-.19,.4-.45,.33-.87,.64-1.3,.95-.26,.17-.5,.33-.73,.47-.09,.07-.19,.14-.28,.19-.09,.07-.21,.12-.31,.19-.12,.07-.26,.17-.38,.24-.12,.09-.21,.19-.33,.28-.07,.05-.12,.09-.14,.17-.02,.09-.09,.14-.17,.14-.21,.02-.43,0-.61-.07-.17-.07-.35-.14-.52-.21-.14-.09-.31-.14-.47-.17-.12-.02-.21-.02-.33-.05-.35-.07-.71,0-1.02,.17-.14,.07-.28,.17-.4,.24-.19,.12-.33,.26-.43,.45-.02,.05-.05,.09-.07,.14-.02,.02-.07,.02-.09,.02-.05-.02-.09-.05-.12-.09-.17-.12-.31-.24-.45-.38-.24-.26-.5-.5-.8-.69-.07-.05-.17-.09-.21-.19,.05-.19,.19-.31,.38-.33Zm-.05,1.42c.21,.21,.43,.4,.64,.61,.09,.12,.19,.26,.24,.4,.02,.14,.09,.21,.21,.28,.07,.07,.14,.17,.24,.24v.05s-.02,.02-.05,.05h-.21c-.12,0-.24-.02-.33-.02-.33-.05-.61-.17-.9-.28-.4-.19-.66-.47-.8-.85-.05-.14-.07-.24,.02-.35,.09-.14,.19-.28,.24-.45,.05-.07,.09-.09,.19-.05,.19,.09,.38,.24,.52,.38Zm-1.56-1.77c.17-.14,.38-.19,.61-.24h.19c.09,0,.12,.02,.14,.05,0,.02,0,.05-.02,.07-.09,.09-.19,.19-.24,.31-.12,.21-.12,.26-.4,.12-.09-.05-.19-.09-.28-.14-.05-.02-.05-.12,0-.17Zm-.09,.95h.02c.21,.07,.33,.19,.12,.45-.02,.02-.09,.02-.09,0-.09-.09-.17-.19-.19-.31s.05-.17,.14-.14Zm-.28-1.65s.05-.02,.07-.02c0,0,.02,.02,.02,.05v.05s-.02,.07-.05,.12c-.02,.02-.05,.02-.07,.02l-.02-.05s.02-.12,.05-.17Zm-.19,2.34s.09-.05,.12,0c.05,.07,.12,.14,.17,.24,.02,.02,0,.07,0,.09v.05c-.33,.66-.64,1.32-.99,1.99-.07,.12-.14,.24-.21,.38-.12,.17-.24,.31-.4,.38-.07,.14-.07,.28-.09,.43,0,.12-.05,.26-.12,.38-.14,.24-.26,.5-.38,.73-.05,.07-.12,.14-.19,.17-.17,.02-.21,.14-.21,.28v.05c.02,.07,0,.14-.05,.21-.07,.12-.12,.24-.19,.35-.28,.52-.59,1.06-.87,1.58-.07,.09-.12,.19-.19,.26-.02,.02-.05,.02-.07,.02s-.07-.05-.05-.09v-.09c.07-.14,.12-.28,.19-.4,.31-.59,.64-1.21,.97-1.8,.24-.5,.5-.97,.76-1.46,.17-.31,.33-.64,.5-.97,.07-.19,.17-.38,.26-.57,.24-.54,.5-1.06,.76-1.61,.09-.19,.19-.38,.31-.59Zm-3.9,6.14c.4-.73,.78-1.51,1.16-2.27,.54-1.04,1.06-2.08,1.63-3.1,.26-.47,.5-.95,.76-1.42,.02-.05,.05-.07,.09-.12h.02s.05,0,.05,.02c.02,.05,.02,.09,.02,.14,0,.09,0,.19-.05,.28-.07,.14-.14,.28-.21,.43-.31,.57-.57,1.16-.85,1.75-.26,.54-.52,1.09-.8,1.63-.14,.24-.26,.5-.4,.73-.07,.19-.17,.35-.26,.52-.33,.57-.64,1.18-.95,1.77-.07,.17-.17,.35-.31,.5h-.07s-.02-.02-.05-.05v-.05c.02-.09,0-.21-.02-.33,.07-.14,.14-.28,.24-.45Zm-.17,1.87s.05-.02,.07-.05c.05-.02,.07,0,.07,.02,0,.14-.09,.33-.21,.4h-.05c0-.14,0-.26,.12-.38Zm-.45,.85s-.02,.02-.05,0c-.05,0-.05-.02-.02-.05l.02-.02s.05,.05,.05,.07Zm-.14-.99s.05-.02,.05,0c.02,0,.02,.02,.02,.05,.02,.05-.02,.09-.05,.12h-.05l-.02-.02s0-.12,.05-.14Zm-.35,4.58l.5-.85s.05-.05,.07-.07,.07-.02,.07,0c.05,0,.07,.02,.09,.05,.24,.24,.43,.5,.64,.76,.05,.07,.07,.17,.07,.26-.05,.02-.07,.07-.12,.12-.19,.09-.35,.21-.54,.33-.38,.24-.78,.47-1.18,.71-.12,.07-.24,.17-.35,.26-.09,.05-.17,.12-.28,.17,0-.05-.02-.07,0-.09,.07-.12,.14-.24,.21-.33,.31-.43,.57-.87,.83-1.3Zm-.14-1.73s-.02,.07-.05,.09c-.47,.87-.95,1.75-1.49,2.55-.26,.38-.52,.78-.8,1.13-.45,.54-.95,1.09-1.51,1.51-.17,.14-.33,.26-.5,.38-.21,.17-.45,.33-.69,.47-.05,.05-.07,.07-.12,.05,0-.02,0-.07,.02-.09,.19-.17,.4-.35,.59-.52,.31-.26,.59-.54,.83-.85,.33-.45,.71-.9,1.06-1.32,.05-.07,.09-.14,.14-.21,.45-.64,.9-1.25,1.28-1.91,.07-.09,.12-.19,.19-.26,.21-.31,.4-.59,.57-.9,.07-.12,.17-.24,.24-.35,.02-.05,.09-.05,.14-.02,.09,.07,.12,.17,.09,.26Zm-4.14-5.1s.02-.05,.05-.05,.07,0,.12,.02c.31,.07,.61,.21,.9,.35,.87,.35,1.73,.73,2.55,1.13,.09,.05,.17,.09,.24,.12,.05,.02,.07,.09,.05,.12-.02,.05-.07,.07-.12,.07t-.09-.02c-.12-.05-.26-.09-.43-.17-.24-.09-.47-.21-.69-.33-.19-.07-.35-.14-.54-.21-.14-.05-.28-.12-.43-.19-.38-.17-.76-.33-1.13-.5-.17-.07-.31-.14-.47-.24-.02-.02-.05-.09,0-.12Zm-.09,.87h.14c.31,.02,.59,.14,.87,.24,.31,.12,.64,.24,.95,.35,.45,.17,.85,.38,1.25,.59,.07,.05,.14,.09,.21,.14,0,.02,0,.05,.02,.07-.02,0-.02,.02-.05,.02-.02-.02-.07-.02-.09-.02-.12-.05-.24-.09-.33-.17-.57-.28-1.16-.5-1.75-.73-.33-.07-.64-.19-.99-.26-.09-.02-.19-.02-.26-.07-.02-.02-.02-.05-.05-.07,0-.02,.02-.07,.07-.09Zm-1.73,4.96c.05-.59,.09-1.18,.14-1.75,.02-.14,.02-.31,.05-.45,.02-.28,.07-.57,.07-.87,0-.07,.02-.17,.05-.24,.02-.17,.05-.19,.21-.17,.38,.05,.73,.12,1.11,.19,.07,0,.12,.05,.12,.14-.02,.12-.02,.26-.05,.38-.09,.54-.19,1.09-.28,1.65-.02,0-.02-.02-.02-.02-.12,.57-.24,1.13-.33,1.7-.07,.33-.14,.66-.24,.99-.09,.45-.21,.9-.33,1.35-.09,.33-.17,.69-.24,1.02-.07,.33-.17,.66-.28,.99-.05,.19-.14,.38-.24,.57-.02,.05-.05,.09-.09,.12,0,.02-.07,.05-.09,.02-.02,0-.05-.02-.05-.05-.02-.07-.05-.17-.02-.24,.05-.47,.07-.97,.14-1.42,.07-.5,.09-.99,.14-1.49s.09-.97,.17-1.47c0-.07,.02-.17,0-.26,0-.21,.02-.43,.07-.64v-.07Zm-.05,8.63v.09s-.02,.09-.07,.12c.02-.07,.02-.14,.07-.21Zm-3.03-11.98s.07-.05,.09-.05c.26-.05,.5-.09,.76-.12,.07-.02,.12,0,.19,0,.05,0,.09,.05,.09,.07,.02,.09,.05,.21,.05,.31,.05,.47,.07,.97,.12,1.44,.07,.92,.14,1.82,.19,2.74,.05,.57,.12,1.13,.14,1.7l.07,1.35c.02,.26,.02,.5,.07,.76,.02,.05,.02,.09-.02,.14-.02-.05-.07-.07-.07-.12-.07-.24-.14-.5-.19-.73-.21-.9-.43-1.8-.61-2.67-.19-.9-.4-1.77-.54-2.65-.12-.66-.24-1.32-.35-1.99-.02-.05-.02-.09-.02-.14,0-.02,.02-.05,.05-.05Zm-1.37,.35c.24-.07,.47-.14,.73-.24,.02,0,.09-.02,.14,0,.02,0,.05,.02,.07,.05,.02,.05,.05,.09,.05,.14,.05,.17,.09,.35,.12,.52,.12,.57,.21,1.13,.33,1.7,.14,.76,.31,1.51,.5,2.27,.14,.61,.26,1.23,.4,1.84v.02c.02,.17,.07,.35,.09,.52,0,.02,0,.05-.02,.07-.02,0-.05-.02-.07-.05-.05-.09-.09-.21-.12-.31-.12-.35-.26-.71-.4-1.06-.07-.14-.12-.28-.19-.43-.14-.4-.31-.78-.45-1.16-.14-.35-.28-.73-.43-1.09-.19-.52-.38-1.06-.59-1.58-.12-.28-.24-.59-.33-.87-.07-.24-.09-.26,.17-.35Zm2.41,7.42v.02s-.05-.02-.05-.02h.05Zm-4.06-6.71c.17-.12,.69-.35,.99-.47,.05,.02,.09,.05,.09,.09,.07,.12,.12,.24,.17,.35,.31,.76,.59,1.49,.87,2.22,.17,.43,.33,.87,.47,1.3,.05,.09,.07,.21,.12,.31,.26,.54,.45,1.11,.66,1.65,.12,.26,.26,.5,.38,.76,.05,.07,.09,.14,.14,.21,.02,.05,0,.07-.05,.12,0-.02-.02-.07-.05-.09-.28-.38-.5-.83-.73-1.25-.19-.35-.4-.73-.59-1.09-.09-.17-.19-.31-.26-.47-.14-.24-.28-.47-.43-.69-.21-.31-.38-.61-.59-.92-.24-.38-.47-.73-.73-1.11-.19-.28-.35-.57-.54-.85,.02-.02,.05-.07,.07-.07Zm3.92,6.64s-.02-.05-.05-.07q.07-.02,.05,.07Zm-5.51-5.6s.05-.02,.07-.05c.28-.21,.57-.4,.85-.61,.05-.02,.12-.05,.17-.09,.05,0,.12,0,.14,.02,.07,.12,.17,.21,.24,.33,.57,.78,1.11,1.58,1.63,2.43,.24,.38,.45,.76,.69,1.16,.57,1.04,1.13,2.08,1.73,3.1,.05,.07,.12,.14,.09,.26h.02v.02h-.02v-.02s-.05,0-.05-.02c-.07-.05-.12-.12-.17-.19-.12-.14-.21-.28-.33-.43-.26-.31-.52-.59-.78-.9-.57-.64-1.16-1.3-1.73-1.96-.33-.4-.71-.73-1.02-1.16-.07-.07-.17-.14-.24-.24-.12-.12-.24-.24-.33-.38-.07-.07-.12-.14-.17-.19-.28-.26-.5-.57-.76-.85-.02-.02-.05-.07-.05-.09-.02-.02-.02-.12,0-.14Zm-1.37,1.37s.02-.05,.05-.07c.24-.28,.5-.57,.78-.83,.05-.05,.12-.07,.17-.12,.02-.02,.07-.02,.09,.02,.14,.14,.28,.31,.43,.45,.45,.5,.87,.99,1.32,1.47,.52,.57,1.02,1.13,1.54,1.73,.31,.33,.59,.66,.9,1.02,.17,.19,.31,.38,.47,.59,.24,.28,.52,.54,.78,.83,.07,.09,.14,.19,.24,.28,.02,.02,.02,.05,0,.09-.28-.21-.57-.45-.83-.66-.57-.43-1.13-.85-1.68-1.28-.57-.45-1.13-.87-1.68-1.3-.69-.52-1.35-1.06-2.01-1.58l-.43-.35s-.09-.07-.14-.12c-.02-.05-.05-.12,0-.17Zm-1.09,1.56c.07-.12,.12-.24,.19-.33,.17-.24,.33-.5,.52-.73,.02-.05,.07-.07,.12-.07,.02,0,.05,0,.07,.02,.4,.31,.83,.64,1.23,.97,.05,.05,.09,.09,.14,.12,.4,.26,.76,.59,1.13,.87,.35,.28,.71,.57,1.09,.85,.57,.43,1.13,.87,1.7,1.3,.14,.12,.28,.21,.4,.33,.19,.17,.38,.31,.59,.43,.12,.09,.26,.19,.35,.31v.02s-.02,.02-.05,.02c-.07-.05-.17-.07-.26-.12-.19-.14-.4-.26-.64-.35-.09-.05-.21-.12-.31-.17-.52-.26-1.04-.52-1.56-.8-.95-.45-1.89-.92-2.81-1.42-.38-.21-.76-.4-1.16-.61-.21-.09-.4-.24-.59-.33-.05-.02-.07-.05-.09-.07-.12-.07-.12-.14-.07-.24Zm-.73,1.61c.12-.33,.24-.64,.38-.95,.02-.05,.05-.07,.05-.09,.02-.05,.12-.09,.17-.07,.07,.02,.14,.07,.19,.09,.43,.24,.85,.47,1.3,.69,.31,.17,.59,.33,.9,.5l.85,.43c.5,.24,.99,.5,1.49,.76,.14,.05,.28,.12,.4,.17,.26,.14,.52,.26,.78,.4,.45,.24,.9,.47,1.37,.69,.05,.05,.12,.07,.17,.09,.12,.07,.24,.12,.38,.14,.02,.02,.07,.05,.12,.07,.02,.02,.02,.05,.02,.07h-.05s-.02,0-.09,0c-.19-.05-.43-.14-.69-.21-.02-.02-.07-.05-.09-.05-.24-.05-.45-.14-.66-.19-.5-.17-.97-.31-1.47-.45-.59-.17-1.18-.35-1.75-.52-.73-.21-1.44-.43-2.17-.66-.43-.12-.85-.28-1.28-.43-.05,0-.07-.02-.12-.02-.26-.12-.33-.12-.19-.45Zm-.38,1.3c.05-.17,.07-.31,.12-.47,.02-.12,.12-.19,.24-.14,.31,.09,.59,.19,.9,.28,.28,.09,.57,.21,.87,.26,.17,.05,.33,.12,.52,.17,.43,.14,.87,.28,1.32,.43,.07,.02,.17,.02,.24,.05,.24,.07,.45,.14,.66,.19h.05c.52,.19,1.04,.33,1.56,.47,.4,.12,.78,.26,1.16,.38,.07,.02,.14,.05,.21,.07,.28,.07,.59,.14,.87,.21,.02,0,.07,.02,.09,.05,.02,0,.02,.02,.02,.02l-.05,.05c-.26-.05-.54,0-.8-.12-.02-.02-.07-.02-.09-.02-.05,0-.09,.02-.14,.02-.33-.02-.64-.05-.95-.09-.33-.02-.69-.05-1.02-.07-.19,0-.4-.02-.59-.02-.4-.02-.83-.05-1.23-.12-.5,0-.99-.12-1.49-.17-.12-.02-.24-.02-.35-.05-.14,0-.31-.02-.45-.02-.17-.02-.33-.05-.5-.05-.26-.02-.52-.05-.78-.07-.17-.02-.33-.07-.5-.09-.05,0-.09-.07-.07-.09,.02-.35,.05-.71,.17-1.04Zm8.81,3.59v.02s-.02,0-.02-.02h.02Zm-.05-.33v-.02h.02l-.02,.02Zm-8.98-.45c0-.28-.02-.54,0-.8,0-.12-.02-.24,0-.38,0-.07,.05-.12,.12-.14h.31c.43,.05,.85,.07,1.28,.14,.09,.02,.19,.02,.28,.02,.07,.02,.17,.02,.26,.05,.12,.02,.26,.02,.38,.02,.12,.02,.24,.02,.33,.02,.21,.05,.45,.09,.66,.07,.31,.09,.66,.02,.97,.09,.64,.05,1.3,.14,1.94,.17,.24,0,.47,.02,.73,.05,.09,.02,.19,.02,.28,.02h.07c.35,.02,.73,.05,1.09,.07,.09,.02,.17,.05,.26,.05-.02,.05-.02,.07-.02,.07-.05,.02-.09,.02-.14,.02-.19,.02-.35,.02-.52,.05-.07,0-.14,0-.21,.02-.69,.12-1.35,.17-2.03,.24-.61,.09-1.23,.12-1.84,.17-.97,.05-1.94,.12-2.93,.19-.35,.02-.71,.07-1.09,.09-.07,0-.12-.02-.12-.09-.02-.07-.02-.14-.05-.21Zm.43,2.17s-.05-.07-.07-.12c-.05-.21-.09-.4-.14-.61-.05-.26-.09-.52-.14-.8,.05-.02,.09-.05,.14-.07,.12,0,.24-.02,.35-.02,.92-.07,1.84-.12,2.76-.19,.64-.02,1.25-.07,1.87-.12,.19-.02,.35-.05,.54-.07,.45-.05,.92-.12,1.37-.17,.17-.02,.31-.02,.47-.05,.4-.02,.78-.07,1.16-.14,.07-.02,.14-.02,.21,0v.05s-.05,.02-.07,.02c-.31,.09-.64,.19-.97,.26-.09,.02-.17,.05-.26,.07-.4,.17-.83,.26-1.25,.35-.07,.02-.12,.02-.19,.05-.54,.17-1.11,.33-1.68,.5-.09,.02-.19,.05-.28,.07-.64,.17-1.28,.31-1.91,.5-.54,.14-1.11,.33-1.68,.47-.05,.02-.12,.05-.17,.05-.02,0-.05,0-.07-.02Zm.47,1.47s-.05-.12-.07-.17c-.09-.24-.19-.47-.26-.73-.02-.02-.02-.07-.02-.09-.02-.09,0-.14,.09-.17,.21-.07,.4-.14,.61-.19,.38-.12,.76-.21,1.13-.33,.24-.07,.5-.14,.73-.19,.71-.21,1.39-.4,2.08-.59,.5-.12,.99-.26,1.49-.4,.19-.05,.35-.12,.54-.17,.12-.05,.24-.07,.35-.12,.05-.02,.12-.02,.17-.07,.26-.14,.54-.19,.85-.24h.19s.05-.02,.07-.02h.02s0,.02-.02,.02h-.07s-.07,.02-.09,.02c-.05-.02-.07-.02-.09-.02-.02,.02,0,.05-.02,.07-.07,.02-.12,.07-.19,.09-.31,.12-.61,.28-.92,.43-.43,.21-.87,.4-1.3,.61-.61,.28-1.25,.57-1.87,.85-.43,.19-.83,.38-1.25,.59-.05,.02-.09,.05-.12,.05-.57,.21-1.09,.5-1.65,.73-.05,.05-.12,.07-.19,.09-.09,.02-.14,0-.19-.07Zm.76,1.39l-.02-.02c-.14-.26-.31-.52-.45-.8-.02-.02-.05-.05-.05-.09-.02-.02,0-.12,.02-.12,.05-.02,.07-.05,.12-.07l.99-.43c.07-.02,.14-.05,.21-.07,.45-.24,.95-.45,1.42-.69,.5-.24,1.02-.47,1.51-.71,.28-.12,.59-.24,.87-.38,.28-.14,.54-.28,.8-.43,.47-.24,.92-.5,1.44-.66,.09-.02,.21-.09,.33-.14,.05-.02,.07,0,.09,.02-.07,.07-.14,.12-.24,.17-.33,.19-.66,.4-.97,.59-.43,.26-.8,.54-1.21,.83-.31,.19-.64,.38-.95,.57-.05,.05-.09,.07-.14,.09-.33,.24-.69,.45-1.02,.66-.17,.09-.33,.21-.5,.31-.12,.07-.24,.14-.33,.24-.12,.07-.21,.14-.33,.21-.24,.12-.43,.24-.61,.4-.02,.02-.05,.05-.09,.07-.24,.09-.43,.26-.64,.4-.05,.02-.12,.07-.17,.09-.02,.02-.09,0-.12-.05Zm1.28,1.37s-.02,.02-.02,.02c-.07,.07-.14,.07-.19,0l-.21-.21c-.19-.24-.38-.47-.57-.71-.05-.07-.02-.14,.05-.19,.07-.07,.17-.12,.26-.19,.66-.43,1.3-.85,1.96-1.25,.33-.21,.64-.43,.95-.61,.33-.21,.66-.43,.99-.64,.17-.12,.35-.21,.52-.33,.64-.4,1.25-.85,1.87-1.28,.12-.07,.24-.14,.35-.21,.05-.02,.09,0,.14,.02-.12,.07-.24,.17-.33,.26-.26,.26-.54,.52-.8,.76-.07,.07-.17,.14-.21,.24-.05,.05-.07,.07-.12,.12-.17,.17-.35,.35-.54,.52-.28,.26-.57,.5-.85,.76-.31,.26-.59,.54-.9,.8-.14,.14-.28,.26-.43,.4-.43,.4-.87,.76-1.3,1.16-.19,.21-.43,.38-.61,.57Zm1.28,.92s-.09,.12-.17,.19c-.02,.02-.07,.05-.12,.07-.05-.02-.09-.05-.12-.07-.24-.21-.45-.4-.69-.61-.02-.02-.02-.05-.05-.05-.02-.05-.02-.12,0-.14,.07-.07,.12-.14,.19-.19,.54-.5,1.09-.99,1.65-1.49,.47-.43,.95-.85,1.42-1.3,.33-.33,.69-.64,1.02-.95,.31-.28,.61-.57,.87-.9,.02-.02,.05-.07,.09-.09,.17-.14,.31-.28,.43-.45,.02-.02,.05-.02,.05,0v.02c-.31,.5-.64,.97-.99,1.44-.52,.69-1.04,1.37-1.56,2.06-.21,.26-.43,.52-.66,.78-.45,.57-.9,1.11-1.37,1.68Zm1.23,1.18s-.09,.05-.12,.02c-.35-.21-.66-.4-.99-.64,0-.02-.02-.05-.05-.05-.02-.05-.05-.09-.02-.14,.07-.07,.12-.14,.17-.19,.19-.19,.33-.4,.5-.59,.19-.24,.38-.45,.57-.66,.28-.35,.59-.69,.85-1.06,.09-.12,.21-.24,.31-.35,.12-.17,.24-.31,.35-.47,.12-.14,.24-.31,.35-.45,.14-.17,.26-.33,.38-.5,0-.02,.02-.05,.02-.07,.31-.43,.61-.83,.9-1.23,.02-.05,.07-.05,.09-.09,0,.05,.02,.07,0,.09-.33,.57-.61,1.16-.92,1.73-.33,.66-.66,1.32-.99,1.96-.31,.57-.59,1.16-.87,1.73-.09,.21-.19,.43-.31,.61-.05,.12-.12,.24-.21,.35Zm.83,5.39s-.05-.02-.05-.02v-.02s.05,.02,.07,.02l-.02,.02Zm.12-.73s-.05,0-.05-.02c0,0,0-.02,.02-.02s.02,.02,.05,.02c0,.02-.02,.02-.02,.02Zm.26,.95v-.05h.05s.02,.02,.02,.05h-.07Zm.28-1.49v-.02h.02s0,.02,.02,.05c0-.02-.02-.02-.05-.02Zm.09,.07s-.02-.02-.02-.02h.02v.02Zm-.09-3.71c-.09,.21-.14,.24-.33,.14-.26-.09-.5-.21-.73-.31-.05-.02-.07-.05-.09-.07s-.02-.07-.02-.09,.02-.07,.05-.09c.21-.45,.45-.9,.66-1.35,.33-.66,.66-1.32,1.02-1.96,.28-.57,.57-1.13,.85-1.7,.19-.33,.38-.69,.57-1.02,.09-.21,.21-.4,.31-.61,.07-.14,.12-.31,.24-.43,0,0,.02,0,.05-.02,.02,0,.02-.02,.02-.05l.02,.02s-.02,.02-.05,.02c0,.07,0,.12-.02,.19-.12,.33-.24,.69-.35,1.02-.17,.45-.31,.87-.47,1.32-.05,.14-.09,.31-.17,.47-.24,.5-.38,1.02-.54,1.54-.14,.47-.31,.92-.47,1.39-.12,.4-.31,.8-.4,1.23-.05,.12-.07,.24-.12,.35Zm.21,3.95h-.02s-.05-.09-.05-.14c.02,.05,.05,.07,.07,.12v.02Zm1.39-3.36s-.07,.09-.12,.07h-.07c-.33-.07-.64-.14-.97-.21-.02,0-.07-.02-.09-.05-.05-.02-.09-.09-.09-.14,.02-.09,.02-.17,.07-.26,.09-.31,.19-.64,.28-.97,.09-.31,.21-.61,.33-.92,.07-.26,.17-.5,.24-.73,.09-.33,.21-.64,.33-.97,.24-.76,.57-1.47,.8-2.22,.12-.35,.24-.73,.35-1.09,.12-.33,.21-.66,.31-.99,.05-.12,.09-.21,.21-.35-.05,.28-.07,.47-.12,.66-.07,.24-.12,.47-.17,.71-.09,.59-.19,1.21-.31,1.8-.05,.38-.12,.76-.19,1.11-.02,.19-.05,.35-.09,.52-.14,.52-.21,1.06-.31,1.61-.09,.71-.21,1.42-.33,2.13-.02,.12-.05,.21-.07,.31Zm.83,3.76s-.05,0-.02-.02h.02v.02Zm1.04-8.74v.28c0,.43-.02,.85-.05,1.28v.87c-.07,.47-.02,.95-.05,1.42v1.06c-.02,.09-.02,.17-.07,.24-.02,.02-.05,.05-.07,.05-.38,.02-.76,.05-1.13-.05-.14-.05-.17-.09-.14-.24,.05-.35,.12-.73,.19-1.11,.07-.43,.12-.83,.19-1.25,.14-1.09,.31-2.15,.52-3.21,.05-.28,.09-.59,.14-.9,.09-.47,.17-.95,.24-1.39,.05-.24,.12-.45,.17-.69h.02s.02,.07,.02,.09v1.06c.05,.47,0,.97,.05,1.47,0,.33,0,.66-.02,1.02Zm.07-6.45s-.02-.05-.02-.07v-.14c-.02-.4-.05-.83-.05-1.23-.02-.26-.02-.5-.02-.73-.12-1.47-.24-2.91-.33-4.37-.07-.78-.12-1.56-.19-2.32v-.12s.05-.09,.07-.12c.24-.02,.47-.05,.71-.02,.21,0,.43,.02,.64,.05,.07,0,.12,.07,.12,.12,0,.12,0,.24,.02,.33,.02,.14,.02,.28,0,.45-.02,.09-.05,.21-.05,.31-.02,.26-.07,.52-.07,.78,0,.07-.02,.14-.02,.21-.02,.35-.07,.71-.09,1.04-.02,.12-.02,.24-.05,.33-.02,.17-.05,.33-.02,.52,0,.12-.02,.26-.05,.4-.02,.21-.05,.43-.05,.64s-.05,.4-.07,.59c-.02,.14-.05,.28-.02,.43,0,.12-.02,.24-.02,.33-.02,.26-.05,.52-.09,.76-.02,.31-.07,.61-.12,.92,0,.14-.02,.31-.02,.47,0,.14-.02,.31-.07,.47,0,0-.02,.02-.05,.02-.02,.02-.07,0-.07-.05Zm.59,17.51s-.02-.05,.02-.05l.02,.05s-.05,.02-.05,0Zm1.39-6.1c-.09,.02-.19,.05-.28,.07-.33,.07-.64,.12-.97,.17h-.54s-.05-.02-.05-.05c-.02-.09-.02-.19-.02-.28,0-.28,.02-.54,.02-.8v-.47c.02-.5,.02-.99,.02-1.51,.02-.45,.05-.9,.05-1.35,.02-.09,0-.19,0-.28,.05-.66,.02-1.35,0-2.01,0-.38,0-.78-.02-1.16,0-.14-.02-.28-.05-.4,0-.07,0-.14,.02-.21t.02-.02h.02s.05,.12,.05,.17c.07,.52,.19,1.02,.31,1.51,.14,.54,.26,1.09,.4,1.63,.12,.59,.26,1.18,.4,1.77,.21,.97,.45,1.91,.66,2.88,.02,.07,.02,.14,.05,.21,0,.07-.02,.12-.09,.14Zm.61,6.88l-.02-.02s.02-.05,.05-.02c.02,0,.05,.02,.05,.05h-.07Zm.26,4.35s-.02,.02-.05,.02-.02-.02-.02-.05,0-.05,.02-.07v-.05l.02-.02s.05,.02,.05,.05c.02,.05,0,.09-.02,.12Zm.87-11.72s-.05,.02-.07,.02c-.35,.14-.71,.26-1.06,.35-.02,.02-.05,0-.07,.02-.05,0-.12-.05-.12-.09-.02-.02-.02-.05-.02-.07-.02-.07-.07-.17-.09-.26-.19-.87-.4-1.75-.59-2.6-.12-.54-.24-1.09-.35-1.63-.17-.71-.35-1.42-.52-2.1-.09-.43-.21-.85-.31-1.28,0-.02,.02-.05,.02-.07l.02,.02c.14,.33,.28,.66,.43,.99,.12,.26,.21,.52,.33,.78,0,.02,.02,.07,.05,.09,.28,.83,.66,1.61,.97,2.41,.24,.59,.5,1.16,.76,1.73,.21,.5,.43,.97,.64,1.44,.02,.05,.05,.09,.05,.14,0,.02-.02,.07-.05,.09Zm3.24,5.91s-.02-.02-.05-.02c0-.02,.02-.02,.02-.02,.02,0,.05,.02,.07,.02t-.05,.02Zm6.97,11.01h-.02s-.09,0-.14-.05l-.02-.02s.05-.02,.05-.02c.07,0,.12,0,.14,.07v.02Zm2.36-8.11v.02s-.07-.02-.09-.02v-.02h.09v.02Zm-11.86-7.61c.26-.09,.5-.24,.76-.35,.38-.19,.73-.4,1.06-.64,.43-.28,.85-.57,1.23-.92,.21-.21,.43-.4,.64-.59,.47-.45,.9-.95,1.3-1.44,.07-.07,.12-.14,.19-.21,.05-.05,.09-.09,.17-.09-.09,.09-.09,.19-.07,.31,.05,.12,.12,.21,.17,.33,.12,.17,.26,.33,.4,.47,.05,.02,.12,.02,.17-.02t.02-.05c.21-.5,.47-1.02,.66-1.54,.31-.78,.61-1.56,.87-2.36,.12-.33,.24-.64,.31-.97,.12-.61,.28-1.21,.38-1.82,.02-.31,.09-.61,.07-.92-.02-.07,.05-.12,.14-.09,.09,.02,.19,.05,.26,.09,.24,.12,.5,.19,.73,.21,.12,.02,.21,.02,.31,.05,.33,.07,.66,.05,1.02,.05,.24,0,.45-.05,.66-.14,.14-.05,.28-.09,.43-.09,.09-.02,.19-.02,.26,.02,.14,.09,.31,.12,.5,.12,.07-.02,.17,.02,.21,.09,.31,.43,.64,.83,.9,1.25,0,.09-.05,.12-.07,.17-.12,.12-.24,.24-.35,.35-.14,.17-.28,.33-.35,.54-.05,.07-.09,.14-.14,.24-.05,.09-.09,.21-.14,.33,0,.05-.02,.12-.05,.17-.09,.26-.09,.33-.38,.17-.05-.02-.12-.05-.17-.07-.14-.05-.28-.05-.43,.02s-.26,.14-.4,.21c-.09,.07-.12,.19-.05,.28,.02,.02,.02,.05,.05,.07,.14,.17,.33,.28,.52,.38,.05,0,.12,.02,.17,.02,.12-.02,.24-.02,.35-.05,.07,0,.12,.05,.14,.12,.02,.09,.05,.19,.07,.28,.07,.35,.14,.71,.31,1.02,.02,.07,0,.12-.07,.14-.02,0-.05,.02-.07,.02-.21,.02-.4,.05-.61,.02-.21-.02-.43-.02-.61-.05-.12-.02-.24,0-.33,.02-.17,.05-.28,.14-.35,.31,0,.05-.02,.09-.05,.12-.05,.12-.02,.24,.05,.31,.02,.02,.05,.05,.07,.05,.35,.26,.73,.47,1.13,.64,.05,.02,.12,.05,.17,.07,.14,.02,.28,.07,.43,.12,.26,.07,.5,.12,.76,.12,.09-.02,.17,0,.26,0h.26c.07-.02,.14-.02,.21,.02,.09,.07,.21,.12,.33,.14,.17,.02,.35,.07,.54,.12,.28,.05,.57,.09,.85,.17,.33,.05,.66,.07,.99,.02h.24s.05,.02,.05,.05c.02,.07,.02,.14,.02,.21-.07,.43-.12,.85-.19,1.25,0,.02,0,.05-.02,.07-.05,.02-.12,.05-.17,.07-.26,.05-.43,.24-.5,.47-.02,.05-.02,.09-.05,.14,0,.07,.02,.17,.09,.19,.12,.05,.24,.09,.35,.12,.28,0,.54,.05,.83,.09,.07,0,.12,.02,.19,.02s.14-.02,.19-.07c.05-.02,.09-.05,.09-.09,.02-.17,0-.31-.02-.45,0-.07-.05-.12-.09-.19-.07-.05-.14-.12-.19-.17-.05-.05-.05-.09-.05-.14,.07-.14,.12-.31,.19-.47,.09-.21,.17-.43,.26-.64,.05-.09,.07-.21,.05-.33-.05-.09-.19-.05-.26-.14v-.05c.17-.02,.33-.05,.47-.02,.24,.02,.5,0,.73,0,.54,.02,1.09,0,1.63-.02,.14-.02,.26,0,.38,0,.05,0,.09,.05,.09,.09,.05,.28,.21,.54,.24,.83,0,.09,.05,.17,.07,.26,.09,.26,.21,.54,.31,.8,.28,.73,.64,1.39,1.04,2.06,.21,.33,.45,.64,.66,.97,.05,.07,.12,.12,.17,.19,.05,.05,.12,.09,.14,.17,.09,.17,.21,.28,.33,.38,.07,.07,.12,.14,.19,.19,.12,.17,.26,.33,.43,.45-8.18-1.63-16.4-2.84-24.65-3.64Zm16.4,7.26s-.05-.02-.05-.05t.05-.02s.02,.05,.05,.05c-.02,0-.05,.02-.05,.02Z"/><path d="M199.72,20.66v.05s-.02,.12-.05,.24c-.02,.12-.07,.28-.14,.45,0,.02-.02,.05-.05,.05s-.05-.02-.05-.05c-.02-.05-.02-.09-.02-.14-.02-.09-.02-.21-.05-.31,0-.14,.12-.31,.28-.33,.02-.02,.07,.02,.07,.05Z"/><path d="M168.76,64.62v.02s-.09,.07-.14,.05c-.02,0-.02-.02-.02-.02v-.07c.07-.05,.12-.02,.17,.02Z"/><polygon points="166 63.78 165.97 63.78 165.97 63.76 166 63.78"/><polygon points="167.81 63.1 167.83 63.09 167.83 63.11 167.81 63.1"/><path d="M213.85,71.57v.02s0-.02-.02-.02h.02Z"/><path d="M215.86,71.26c-.12,.02-.21,.02-.28,0l-.05-.05s.02-.02,.02-.02c.09,0,.21,0,.31,.07Z"/><path d="M214.73,70.91s-.02,.02-.02,.05h-.07s-.05,0-.05-.02c-.02,0-.05-.02-.05-.02,0-.02,.02-.05,.05-.07h.09s.07,.02,.05,.07Z"/><polygon points="214.87 70.93 214.84 70.95 214.84 70.93 214.87 70.93"/><path d="M168.12,65.54s0,.02-.02,.02c-.02,.02-.05,.02-.07,.02s-.02,0-.05-.02c-.02,0-.02-.02-.02-.02,0-.02,.02-.05,.02-.05h.12s.02,.02,.02,.05Z"/><path d="M168.83,65.56h-.09l-.02-.02s.05-.02,.09-.02c0,0,0,.02,.02,.05Z"/><path d="M168.41,65.54s-.05,.02-.09,.02v-.07s.05-.05,.07-.02c.02,.02,.05,.05,.02,.07Z"/><polygon points="169.18 65.53 169.2 65.55 169.18 65.55 169.18 65.53"/><path d="M204.71,71.76v.05c-.07,.07-.17,.07-.24,0-.02,0-.02-.02-.02-.02,.07-.07,.14-.09,.21-.07l.05,.05Z"/></svg>