<svg width="269" height="291" viewBox="0 0 269 291" fill="none" xmlns="http://www.w3.org/2000/svg">
<path d="M195.125 90.4297C195.18 90.4908 196.079 90.5841 196.491 90.8285C198.01 91.7288 199.391 93.3332 200.072 94.9667C200.387 95.7191 200.525 97.6869 201.058 97.8219C204.026 96.9795 206.641 96.8091 209.722 96.8831C227.829 97.3043 246.161 99.5679 264.313 100.115C267.095 100.632 268.64 100.246 268.939 103.523C269.135 105.661 268.997 107.844 266.803 108.709C263.465 110.024 258.226 110.786 254.519 111.848C251.31 112.767 247.969 114.211 244.828 115.008C241.532 115.847 238.93 115.69 235.564 115.542L235.554 131.146C235.429 132.223 236.74 134.034 236.858 134.69C237.009 135.513 236.097 138.59 236.213 140.458C236.688 148.095 238.06 155.403 238.445 163.307C238.542 165.294 240.633 172.747 236.685 170.21C236.181 167.474 236.21 164.371 235.561 161.686C235.445 161.201 235.789 161.12 234.928 161.204L233.611 171.461C231.799 172.303 231.41 170.21 231.372 168.763C231.292 165.744 231.687 162.165 231.729 159.13C231.799 153.86 231.574 148.616 232.037 143.362C231.285 143.362 230.868 145.555 230.784 146.288C228.947 162.349 232.287 181.525 224.058 196.146C220.123 203.133 211.35 206.2 205.215 199.84C201.029 202.776 195.482 201.679 191.727 198.496C181.172 189.544 186.546 167.57 187.985 155.535C188.55 150.799 188.874 146.014 189.308 141.268C183.459 148.741 175.753 154.49 166.514 157.034C166.742 159.686 167.645 163.13 165.554 165.233C164.748 166.043 163.035 166.522 162.509 167.329C161.583 168.734 161.963 171.84 162.509 173.406C168.795 186.515 170.115 201.483 174.243 215.358L174.763 215.801L213.223 220.689C213.92 220.602 215.937 218.837 216.625 218.28C222.089 213.869 228.503 205.949 234.388 202.943C240.273 199.937 248.075 196.872 254.214 194.493C256.128 193.75 259.113 192.207 261.075 192.413C264.419 192.763 266.558 196.789 264.487 199.628C260.301 203.798 255.72 207.586 251.464 211.673C249.325 213.727 247.333 216.666 245.05 218.435C242.547 220.37 238.927 221.284 236.431 222.991C235.32 223.75 234.546 225.02 233.434 225.779C225.751 231.023 213.175 234.081 205.266 239.383C204.177 240.113 203.352 241.415 202.321 242.222C198.787 244.991 195.055 245.184 190.77 244.795C174.198 243.296 157.665 239.155 141.016 239.296C135.574 238.769 133.685 234.824 131.546 230.447C124.328 215.692 118.916 199.892 110.792 185.628C109.623 184.644 108.328 184.175 107.57 182.75C106.475 184.081 104.959 184.779 103.266 185.027L103.237 195.281C111.595 195.043 108.903 202.982 109.655 208.56C112.103 210.248 113.047 211.483 112.408 214.596C111.842 217.358 110.458 216.718 110.609 220.859C110.77 225.239 111.267 231.283 111.945 235.599C112.453 238.833 113.477 242.47 116.32 244.402C127.563 246.1 151.895 250.991 155.439 263.765C157.504 271.203 150.733 277.01 144.999 280.338C120.898 294.312 72.0592 293.923 47.1229 282.158C31.277 274.679 26.2082 262.495 43.9139 252.785C52.5772 248.036 62.7214 246.18 72.3805 244.624C74.8089 243.451 75.6569 236.878 75.9267 234.348C76.3572 230.322 76.7426 225.2 76.8904 221.165C76.9643 219.155 77.4365 216.702 75.1687 215.885C74.2146 216.731 73.6718 217.554 72.2423 217.493C70.8129 217.432 70.4274 216.142 69.3835 216.187C68.4712 216.226 67 217.11 66.0396 217.38C63.1036 218.206 59.991 218.721 57.1225 219.708C55.8761 220.136 55.3879 221.036 53.9263 221.039C50.1038 221.052 50.4122 214.853 54.1672 215.602C54.9478 215.756 55.4425 216.515 56.4543 216.489C57.9994 216.451 61.6645 214.943 63.4505 214.47C65.0759 214.039 67.8352 213.885 69.2807 213.3C69.6661 213.145 69.6565 211.92 70.0034 211.377C70.9639 209.869 73.7135 209.625 74.4845 211.361C75.5638 210.046 78.2074 209.097 78.4837 207.322C78.7599 205.547 78.352 203.383 78.5061 201.557C78.8852 197.078 80.8511 195.515 85.2132 194.927C85.2743 191.715 85.4574 188.406 84.4455 185.313C81.5481 187.056 78.5543 188.609 75.6376 190.323C73.1867 191.763 71.1309 192.792 68.7539 194.011C64.0287 196.435 59.0177 200.348 54.2058 202.306C51.9572 203.223 50.7848 203.258 48.6101 204.419C44.1548 206.795 39.8055 199.467 45.6228 198.187C53.7914 200.084 60.3058 192.737 67.2698 189.651L67.2634 187.564C68.4776 187.712 69.6212 188.133 70.8804 187.805C71.616 187.612 77.7031 183.991 78.6186 183.335C78.8049 183.2 79.0073 183.098 79.1422 182.901C77.6935 181.882 77.9665 180.403 77.5264 178.892C75.249 179.638 73.4309 179.561 71.0988 179.059C70.254 178.876 68.6543 177.991 68.0054 177.988C67.5365 177.985 67.1542 178.577 66.4636 178.593C65.6445 178.615 64.9506 177.779 64.2761 177.959C63.6015 178.139 62.352 179.905 60.5917 180.11C59.4642 180.242 58.5744 179.554 57.5015 179.561C54.5752 179.58 52.2046 181.802 49.2847 181.467C49.2879 183.319 48.2664 184.715 46.2941 184.284C44.4985 183.892 45.0381 182.612 44.476 181.676C44.2929 181.371 43.7404 181.284 43.4899 180.988C42.0315 179.242 43.5284 177.622 43.477 175.683C38.9285 174.863 32.2343 175.249 31.6015 169.236C22.4788 171.374 18.4989 161.699 21.2774 154.358C16.276 146.059 10.115 137.371 12.9739 127.117C11.7211 127.117 10.6193 127.343 9.59784 126.478C7.44566 124.654 4.41976 112.516 9.76488 112.323C7.27542 103.198 4.06 93.9763 1.8243 84.7449C0.725723 80.208 -0.478855 74.7483 0.529779 70.1277C0.928093 68.3014 3.95399 62.4268 5.13287 60.9092C6.23145 59.4976 7.73798 58.5812 9.11922 57.5041C7.55167 57.7163 6.81607 54.6584 6.5334 54.4559C6.43703 54.3851 5.34809 54.9318 4.21739 54.3755C1.52878 53.054 1.68296 49.4238 4.94335 50.2694C4.93372 49.4816 5.0076 48.681 4.91123 47.8932C4.81487 47.1055 2.93572 39.6329 2.70444 39.2438C2.55347 38.9898 1.72151 38.8258 1.23004 38.3982C-1.65131 35.8934 1.05016 30.6298 4.62213 32.9095C4.84699 30.6266 3.5621 28.4433 4.94335 26.3147C7.91786 21.736 16.3692 23.5495 21.1811 23.2762C27.4866 22.916 33.3489 20.3308 38.9671 24.7359C43.9653 28.6555 46.2267 38.0123 43.1205 43.6296C40.0978 49.0958 34.9261 47.3788 29.8251 47.6842C26.8924 47.8611 23.9821 48.6842 21.0044 48.3402C20.9016 50.8482 21.4798 52.906 22.649 55.0572L39.4585 54.115C52.9177 54.1729 57.8292 62.2436 62.5897 73.4299C67.1478 84.1469 69.9938 95.5262 72.7595 106.819C76.4246 107.111 80.7097 107.214 84.211 108.378C87.5324 109.484 88.6053 111.156 88.4736 114.748C88.3323 118.696 85.7368 119.243 82.3512 119.725C83.3598 121.957 81.7087 124.674 79.2996 124.886C76.2319 125.156 70.8515 124.32 68.1243 124.934C66.6724 125.262 61.626 128.22 59.3903 129.053C56.04 130.301 49.85 131.336 47.2481 132.654C46.2909 133.14 45.9857 134.301 44.4471 133.873L46.0821 139.31C50.9454 138.317 55.6641 136.741 60.5049 135.632C71.9757 133.005 83.7292 131.307 95.5212 131.291C93.7095 128.619 91.9589 125.767 91.2329 122.564C90.8089 120.683 90.992 118.674 90.6868 117.002C90.4716 115.812 89.3859 115.433 89.3891 113.452C89.3923 110.738 91.3004 110.822 91.1301 108.516C90.8796 105.098 87.7991 105.497 87.783 101.877C87.7637 97.4683 92.0263 96.1885 95.6658 95.9152C103.388 95.3364 111.434 96.3654 119.131 96.5679C129.22 96.8316 139.946 96.5551 149.962 97.2174C153.868 97.4747 157.751 97.7126 158.4 102.275C158.988 106.417 157.295 108.086 153.479 109.092C153.225 110.684 153.543 112.684 151.854 113.571C150.305 114.384 149.827 113.558 148.667 113.6C134.88 114.13 121.061 112.159 107.243 111.687C105.071 111.613 102.874 111.693 100.706 111.729C100.163 113.841 99.0386 115.88 96.8607 116.558C96.5748 122.22 100.189 126.989 103.446 131.246C114.017 132.066 124.64 132.523 135.192 133.551C141.163 134.133 156.935 135.056 160.861 139.368C163.312 142.059 164.07 147.728 163.948 151.233C164.654 150.895 164.352 149.972 165.323 149.532C165.843 149.294 166.614 149.561 167.34 149.358C174.641 147.326 182.222 141.41 185.842 134.732C187.573 131.532 188.531 121.079 187.339 117.687C187.185 117.243 186.491 117.082 186.15 116.626C185.042 115.134 185.575 113.095 185.466 111.362C183.571 111.147 178.762 111.028 177.603 109.426C176.915 108.478 176.841 103.79 177.413 102.822C178.499 100.983 185.807 101.388 188.02 100.417C188.177 97.494 187.856 94.5133 188.039 91.5905C188.158 89.6773 188.354 87.7642 189.305 86.105C187.365 67.9798 194.107 41.0991 183.799 25.4112C177.857 16.3663 155.75 -1.87148 146.11 10.3921C143.842 13.2763 146.088 12.5399 146.531 14.4853C146.727 15.3502 146.358 17.3502 146.438 17.4884C146.624 17.81 148.234 18.6299 148.686 19.0833C154.587 25.0318 154.314 32.9995 152.612 40.694C152.233 42.411 151.677 43.2213 149.705 43.1763C142.047 43.0026 123.243 33.469 116.94 28.6748C114.971 27.1764 111.232 24.6266 112.854 21.7971C113.298 21.0254 117.367 17.4531 118.328 16.6653C121.746 13.8647 125.976 11.003 130.611 11.4563C131.604 11.5528 135.092 12.7329 135.468 12.6203C135.934 12.4821 136.406 11.0448 137.37 10.6429C138.334 10.2409 139.535 10.6203 140.177 10.2377C140.82 9.85508 143.765 5.3696 145.314 4.12524C158.782 -6.70744 181.891 12.3342 188.817 23.9289C198.932 40.858 192.18 66.7419 194.126 85.8156C194.078 86.6324 194.878 87.0889 195.039 87.7931C195.19 88.4555 194.974 90.24 195.138 90.4265L195.125 90.4297ZM17.1369 48.0186C11.2907 48.3402 7.17905 42.6329 6.20896 37.4078C5.42519 37.7294 5.21639 38.6104 5.30633 39.411C5.42197 40.4271 7.64161 47.9254 8.12665 48.5138C8.6117 49.1022 9.52718 49.1183 10.0283 49.8257C10.6386 50.681 10.5069 51.9543 10.8892 52.8224C11.3035 53.7613 12.7619 54.89 12.9353 56.2436L17.4517 55.4108C16.7868 54.488 15.8809 53.5877 15.8231 52.353C15.7396 50.5202 17.6701 50.0025 17.1305 48.0186H17.1369ZM196.272 94.7512C196.14 94.6291 195.447 94.2818 195.414 94.3236C195.437 95.0342 195.196 98.7448 195.932 98.8477L197.676 98.3203C197.747 97.5486 196.863 95.2979 196.272 94.7545V94.7512ZM217.884 114.272L212.757 114.581C213.817 120.722 214.402 127.124 212.927 133.24C210.444 143.535 213.281 157.342 213.734 168.104C214.155 178.11 214.482 189.712 207.663 197.702C208.405 199.165 210.515 197.84 211.479 197.062C216.503 193.004 217.649 179.117 217.91 172.953C218.044 169.738 218.311 163.696 217.91 160.705C217.781 159.76 217.11 159.149 216.959 158.12C215.94 151.194 215.417 142.442 215.957 135.307C216.111 133.278 217.145 131.423 217.264 129.847C217.373 128.359 216.557 127.298 216.621 126.336C216.673 125.568 217.45 124.288 217.572 123.095C217.852 120.359 217.608 117.079 217.884 114.272ZM208.536 114.304L205.694 114.262C207.072 118.584 206.847 124.002 206.67 128.584C206.314 137.683 205.141 147.384 204.405 156.542C203.583 166.802 201.566 177.68 203.275 187.901C203.737 190.657 204.598 193.068 205.694 195.612C209.972 191.786 210.875 185.22 211.164 179.709C211.726 169.027 209.975 158.217 209.532 147.555C209.368 143.619 209.918 139.153 209.548 135.32C209.397 133.76 208.691 131.947 208.568 130.191C208.417 128.037 209.249 114.751 208.536 114.307V114.304ZM228.176 114.902L221.112 114.259C221.074 117.169 220.457 120.179 220.788 123.101C220.948 124.526 222.137 125.699 222.073 126.616C222.008 127.532 221.061 127.896 221.09 129.191C221.128 130.905 222.487 131.455 222.696 132.764C223.165 135.68 223.049 143.236 222.991 146.529C222.905 151.445 221.363 156.133 220.778 160.709C220.065 166.297 220.659 172.355 220.142 178.078C219.442 185.856 217.784 194.724 212.115 200.422C220.919 201.191 224.302 190.413 225.831 183.448C228.343 172.011 228.079 154.172 226.329 142.625C225.934 140.024 225.812 138.439 226.477 135.863C226.859 134.381 228.173 130.484 228.173 129.201V114.892L228.176 114.902ZM232.348 138.375C231.982 135.153 233.139 132.066 233.344 128.889C233.383 128.297 233.004 127.703 233.023 127.246C233.174 123.767 233.755 119.828 233.328 116.333C233.286 115.992 233.341 115.587 233.013 115.365L231.25 115.208C231.003 115.285 230.765 117.198 230.733 117.626C230.277 123.413 231.163 128.973 231.738 134.349C231.87 135.596 230.903 137.432 232.348 138.378V138.375ZM203.442 197.853C199.52 190.065 199.52 181.188 199.912 172.622C200.58 158.104 203.191 143.159 203.776 128.58C203.872 126.15 204.126 118.282 203.281 116.51C203.111 116.153 202.982 115.79 202.639 115.552C201.029 116.966 198.405 116.484 196.378 116.838C196.156 119.362 195.7 121.873 195.411 124.391C194.856 129.214 194.605 130.314 193.32 134.838C191.801 140.185 191.887 147.323 191.194 152.966C189.893 163.535 185.951 181.429 190.114 191.104C192.283 196.146 197.846 200.721 203.439 197.856L203.442 197.853ZM36.3845 142.841L34.1648 135.301C30.8466 135.542 23.5838 135.777 21.0237 133.355C20.0729 132.458 20.2784 131.378 19.3887 130.654C19.5364 132.67 19.4401 135.262 19.742 137.211C20.4069 141.526 26.4009 149.683 29.0831 153.583C29.8155 154.651 30.6828 155.641 31.4312 156.699C31.5276 154.915 30.8755 153.191 30.9333 151.387C31.049 147.657 32.2311 143.567 36.3845 142.841ZM155.214 180.773C155.063 178.168 154.054 175.728 154.86 172.979L152.217 169.995L121.958 179.474L120.621 180.387C120.082 181.972 121.212 189.769 122.632 190.811C122.934 191.033 123.227 191.162 123.609 191.13L155.214 180.776V180.773ZM165.162 217.206C164.468 216.795 159.849 218.83 158.805 219.251C152.165 221.927 145.513 224.882 139.207 228.245L140.511 230.319L166.498 219.242L165.162 217.206Z" fill="black"/>
</svg>
