<svg width="571" height="461" viewBox="0 0 571 461" fill="none" xmlns="http://www.w3.org/2000/svg">
<path d="M374.72 460.501H403.63C403.29 459.401 403.36 458.141 403.95 456.831C403.43 455.941 403.19 454.651 403.31 452.761C403.48 449.941 401.51 447.051 401.1 444.121C400.05 436.441 397.81 428.501 398.82 421.041C400.4 409.421 403.96 398.031 407.25 386.711C412.28 369.371 414.86 351.931 411.35 333.971C409.65 325.261 410.6 316.771 412.98 308.311C414.07 304.441 416.21 302.521 420.35 302.201C423.8 301.941 427.18 300.801 430.6 300.101C434.63 299.271 436.19 297.311 435.83 292.771C433.74 266.401 433.68 239.831 428.15 213.781C427.91 212.631 428.99 210.491 430.05 209.911C434.5 207.491 439.2 205.521 443.77 203.321C446.69 201.921 447.08 199.911 446.02 196.761C443.65 189.711 441.77 182.501 439.8 175.331C438.92 172.111 440.43 169.821 443.62 169.671C450.01 169.381 452.98 166.221 456.16 160.541C460.85 152.161 460.1 143.441 461.09 134.801C461.4 132.091 462.26 131.821 464.37 131.051C466.94 130.121 471.06 128.271 471.16 126.611C471.72 117.041 472.3 107.191 467.24 98.4208C465.45 95.3308 462.68 92.8108 459.96 89.5508C461.84 87.7008 464.39 84.8708 467.26 82.4308C473.18 77.3908 473.6 71.0008 471.9 64.2008C470.12 57.0708 465.98 51.4508 458.39 50.5008C452.74 49.8008 446.81 50.4508 441.12 51.2508C436.77 51.8608 432.58 53.6508 428.2 54.9508C429.11 61.0608 430.12 67.4108 430.96 73.7908C431.1 74.8708 430.62 76.0608 430.33 77.1808C428.39 84.6308 432.08 91.2908 439.06 93.0708C436.89 95.3708 434.68 97.7008 433.23 99.2408C429.92 99.5408 426.49 98.8208 425.14 100.171C421.02 104.291 428.33 105.991 428.15 111.031C421.28 102.561 417.77 91.3708 404.83 93.2608V83.3008C407.16 84.4408 409.03 85.3608 412.13 86.8908C410.45 84.6708 409.61 83.5708 408.44 82.0208C410 81.8208 410.97 81.6908 411.84 81.5808C410.73 80.3608 409.69 79.2208 408.07 77.4408C410.59 77.2208 412.1 77.0808 414.46 76.8808C412.67 76.0508 411.67 75.5808 410.81 75.1908C411.22 72.1408 411.6 69.2708 412.07 65.7708C412.96 67.0608 413.52 67.8508 414.31 68.9908C413.17 63.5308 412.13 58.6008 410.96 52.9908C402 53.8208 399.04 46.7108 396.79 38.8008C396.52 37.8508 396.06 36.9408 395.58 36.0808C391.31 28.3308 384.43 22.0108 373.92 26.6408C373.19 26.9608 372.31 27.0308 371.49 27.0908C359.34 28.0808 345.31 40.8408 342.85 53.8808C344.59 51.6308 345.87 49.9708 347.15 48.3108C347.5 48.5708 347.85 48.8308 348.2 49.0908C346.23 53.0008 344.18 56.8708 342.32 60.8308C341.75 62.0508 341.6 63.5008 341.44 64.8708C341.3 66.0708 341.81 67.5208 341.31 68.4608C340.22 70.4808 338.41 72.1208 337.34 74.1508C335.02 78.5408 335.55 82.0308 338.3 84.8308C338 82.5608 337.65 79.9108 337.27 76.9608C340.49 80.2008 343.09 82.8308 346.07 85.8408C344.88 87.7108 343 90.0708 341.8 92.7308C340.51 95.6108 338.59 98.8308 342.15 101.661C340.33 96.0208 344.66 93.2708 348.01 89.1208C346.63 93.8208 345.58 97.7308 344.26 101.541C344.06 102.121 342.57 102.251 341.67 102.581C341.47 104.451 341.47 106.381 341.03 108.201C338.83 117.271 332.33 125.801 337.78 135.791C338.06 136.301 337.87 137.111 337.78 137.761C336.72 145.001 336.48 152.481 334.4 159.421C329.77 174.861 325.33 190.211 322.82 206.271C320.96 218.211 319.97 230.701 314.06 241.801C313.5 242.851 313.3 244.661 313.83 245.631C317.77 252.871 314.75 259.871 313.27 266.891C313.01 268.101 311.76 269.981 310.88 270.041C305.88 270.341 300.86 270.191 294.53 270.191C298.17 263.951 302.09 259.561 303.44 254.501C308.62 235.101 307.74 230.591 289.76 222.621C282.41 219.361 268.45 226.211 267.72 234.241C266.97 242.551 266.58 251.171 271.94 258.781C274.23 262.021 275.5 265.981 276.93 268.971C271.79 269.271 266.75 269.701 261.71 269.821C258.74 269.891 255.73 269.661 252.79 269.201C251.74 269.031 250.31 267.971 249.98 267.001C247.78 260.591 250.86 252.301 256.79 248.251C259.5 246.401 260.75 244.321 260.03 240.711C256.55 223.081 253.2 205.431 250.16 187.721C249.33 182.891 250.01 177.831 249.56 172.921C249.13 168.261 248.18 163.641 247.28 159.041C247.07 157.991 246.08 157.111 245.49 156.131C244 153.641 241.81 151.301 241.2 148.611C239.3 140.191 238.06 131.631 236.47 123.131C234.64 113.341 233.23 103.441 230.67 93.8408C228.56 85.9208 223.04 80.4008 215.13 77.4208C210.63 75.7308 206.21 73.7608 201.89 71.6408C194.4 67.9708 193.01 63.4208 199.77 58.7608C205.17 55.0308 205.95 51.8308 206.3 45.9308C206.65 39.9808 210.22 34.2108 212.01 29.3508C215.3 27.6608 217.97 26.2908 220.75 24.8708C219.53 23.7408 218.4 22.6808 217.11 21.4908C218.31 20.5808 219.22 19.8808 219.77 19.4608C215.33 15.7608 210.96 12.4508 206.97 8.73076C198.92 1.22076 190.27 -2.32924 179.11 1.73076C171.15 4.63076 166.31 9.53077 164.27 17.6808C162.37 25.2808 163.88 32.5508 165.67 39.8608C167.42 46.9808 164.38 53.1708 162.12 59.6308C160.75 63.5508 157.83 64.0708 154.72 64.9508C154.11 65.1208 153.65 65.7508 153.06 66.0308C147.3 68.8508 141.76 72.4108 135.7 74.2808C126.03 77.2708 118.99 82.8008 115.91 92.3208C113.73 99.0708 112.62 106.201 111.4 113.231C109.04 126.831 110.61 141.311 102.09 153.491C101.91 153.751 101.8 154.121 101.81 154.441C102.18 162.541 97.61 170.611 101.71 178.721C100.54 195.631 99.3 212.531 98.24 229.441C97.96 233.831 96.83 238.941 98.57 242.511C101.4 248.301 100.66 252.351 96.52 256.571C95.72 257.391 95.07 258.431 94.59 259.471C92.58 263.841 89.5 264.761 84.85 263.651C75.26 261.351 65.52 259.621 55.87 257.581C55.02 257.401 54.29 256.641 53.5 256.151C54.01 256.231 54.53 256.301 55.04 256.381C57.03 251.261 59.03 246.141 61.02 241.021C61.56 239.641 61.79 238.041 62.65 236.891C71.51 225.041 67.62 210.761 51.41 204.111C43.11 200.711 29.79 205.631 25.49 213.441C25.02 214.301 24.37 215.321 24.46 216.201C25.2 223.381 26.02 230.551 27.02 237.691C27.21 239.051 28.02 240.531 28.98 241.541C34.47 247.291 33.76 253.651 26.97 257.741C24.42 259.281 21.79 260.701 19.14 262.081C14.66 264.421 11.47 267.741 10.05 272.751C7.82004 280.581 5.28004 288.321 3.11004 296.161C2.78004 297.361 3.32004 299.661 4.19004 300.171C6.91004 301.741 6.72004 303.691 6.02004 306.131C5.29004 308.681 4.46004 311.261 4.21004 313.881C3.01004 326.291 1.93004 338.711 1.00004 351.141C0.860045 353.031 1.49004 355.121 2.28004 356.891C3.74004 360.141 6.10005 362.191 9.60005 361.181C8.62005 358.411 7.68004 355.761 6.74004 353.121C7.24004 352.911 7.74004 352.691 8.23004 352.481C9.42004 353.861 10.62 355.241 11.81 356.611C12.41 356.581 13 356.551 13.6 356.531C5.89005 340.051 13.01 325.781 18.93 310.081C19.15 311.931 19.21 312.541 19.29 313.151C20.84 324.501 17.31 335.621 18.56 347.161C20.1 361.481 19.16 376.061 19.4 390.521C19.42 391.661 20.08 393.621 20.78 393.781C25.86 394.971 25.8 398.721 25.93 402.721C26.03 405.861 26.35 409.081 27.19 412.091C29.94 422.021 32.85 431.901 35.92 441.731C37.81 447.791 34.86 452.881 32.61 457.881C31.95 459.341 27.98 459.311 25.53 459.961C25.52 460.141 25.5 460.331 25.49 460.511H58.88C58.85 460.291 58.82 460.081 58.79 459.861C58.78 459.531 58.81 459.201 58.87 458.891C56.46 458.261 55.26 456.631 54.84 453.341C54.42 450.071 52.77 446.921 52.57 443.661C52.26 438.641 51.85 433.361 53.05 428.581C55.67 418.131 59.15 407.891 62.59 397.671C63.14 396.031 65.4 395.011 66.75 393.591C67.96 392.321 69.85 390.991 69.99 389.541C70.7 382.271 71.15 374.961 71.27 367.651C71.37 361.501 70.69 355.341 70.75 349.191C70.78 346.071 71.76 342.961 72.18 339.831C72.33 338.721 72.16 337.551 72.06 336.421C70.58 320.171 68.97 303.941 67.65 287.681C67.2 282.161 68.46 281.301 73.72 283.261C77.65 284.721 80.05 284.541 81.97 280.141C82.72 278.431 86.12 276.841 88.23 276.931C95.24 277.251 100.18 274.621 103.24 268.411C105.23 264.381 107.13 260.321 108.99 256.231C110.41 253.111 111 249.391 115.4 248.751C115.98 248.671 116.77 247.581 116.85 246.891C117.52 240.431 118.25 233.951 118.5 227.471C118.57 225.711 117.44 223.541 116.2 222.151C111.97 217.421 111.06 211.951 112.91 206.291C116.21 196.231 120.22 186.401 123.58 176.361C124.71 172.991 124.62 169.241 125.36 165.721C127.52 155.481 129.83 145.271 132.22 134.421C132.73 135.611 133.19 136.351 133.36 137.151C137.04 154.651 135.89 172.071 134.17 189.791C130.48 227.921 127.93 266.171 132.84 304.481C133.83 312.181 133.25 320.071 133.45 327.881C133.49 329.361 133.69 330.851 133.97 332.301C134.31 334.091 135.31 335.901 135.17 337.631C133.87 353.781 140.72 368.461 143.22 383.911C144.24 390.231 144.21 396.721 144.65 403.141C144.71 403.961 144.42 405.121 144.86 405.541C148.5 409.101 148.35 413.751 148.71 418.261C148.89 420.521 149.45 422.891 149 425.031C148.08 429.411 146.9 433.791 145.27 437.961C142.7 444.561 141.87 451.111 144.74 458.871C144.59 458.871 144.45 458.871 144.31 458.871C144.5 459.381 144.61 459.931 144.63 460.491H161.87C161.87 459.831 161.98 459.171 162.19 458.541H162.06C164.56 446.631 167.06 435.061 169.38 423.451C170.66 417.051 173.56 410.621 169.63 404.121C169.4 403.751 169.36 403.011 169.58 402.661C174.92 394.011 167.42 386.471 167.42 378.211C167.42 369.791 166.08 361.351 165 352.951C164.48 348.881 163.23 344.901 162.32 340.871C162.25 340.551 162.1 340.171 162.2 339.901C166.77 327.941 163.09 315.121 166.36 302.841C169.47 291.171 170.5 278.951 172.49 266.981C172.75 265.441 173.3 263.961 173.72 262.451C174.24 262.431 174.77 262.411 175.29 262.391C176.24 267.111 177.54 271.801 178.08 276.571C179.82 291.931 181.56 307.301 182.71 322.721C183.27 330.161 182.28 337.691 182.42 345.181C182.48 348.471 184.25 351.781 184.09 355.031C183.79 360.991 182.47 366.891 181.88 372.841C180.68 384.901 180.95 397.271 178.28 408.981C175.29 422.121 178.38 434.471 179.53 447.141C179.55 447.311 179.57 447.471 179.58 447.641C180 452.321 180.23 454.991 179.48 456.521C179.62 457.101 179.77 457.671 179.91 458.251C181.29 458.671 182.21 459.501 182.75 460.501H207.69C208.82 459.191 209.87 457.571 211.03 456.111C210.87 455.731 210.73 455.301 210.61 454.791C210.23 453.121 208.45 451.491 206.92 450.391C200.37 445.671 199.33 441.751 201.99 434.541C203.07 431.611 202.74 428.141 202.97 424.901C203.12 422.781 202.88 420.621 203.18 418.541C205.99 399.141 208.88 379.751 211.72 360.351C212.31 356.311 211.57 352.211 211.55 348.311C211.49 333.381 212.3 318.351 214.22 303.541C217.22 280.341 217.39 257.111 218.12 233.811C218.84 210.971 214.56 188.861 212.76 166.401C212.14 158.721 212.99 150.921 213.17 143.181C213.89 143.091 214.6 142.991 215.32 142.901C216.65 148.341 217.76 153.841 219.37 159.201C221.95 167.761 224.17 176.541 227.85 184.631C231.51 192.681 236.94 199.901 241.3 207.651C244.91 214.061 247.04 220.471 242.57 227.841C241.07 230.321 242.59 234.551 242.48 237.981C242.31 243.201 242.22 248.461 241.53 253.621C240.85 258.711 239.33 263.671 238.44 268.741C237.66 273.151 239.3 276.411 243.48 278.561C245.25 279.471 247.76 281.441 247.73 282.891C247.62 289.101 252.01 289.041 255.86 289.091C260.33 289.151 261.65 290.951 261.33 295.201C260.18 310.471 259.16 325.751 258.3 341.031C258.16 343.451 259.11 345.931 259.61 348.691C259.03 351.601 258.13 355.031 257.71 358.521C256.43 369.251 255.5 380.031 254.07 390.741C253.57 394.491 253.92 396.711 258.09 397.721C259.39 398.041 260.69 400.291 261.14 401.901C263.33 409.681 265.37 417.501 267.18 425.381C268.24 429.981 269.15 434.671 269.45 439.371C269.81 445.091 269.58 450.851 269.55 457.181C269.82 457.951 269.93 458.831 269.84 459.831C269.83 459.991 269.79 460.131 269.76 460.281C278.49 460.191 287.21 459.851 295.93 459.191C298.32 459.011 301.66 459.141 303.78 457.811C304.2 457.551 304.57 457.231 304.91 456.871C304.63 456.351 304.46 455.681 304.45 454.761C304.44 453.541 303.88 451.921 302.99 451.181C298.14 447.201 298.79 442.471 300.21 437.161C303.05 426.511 304.71 415.681 303.57 404.581C303.14 400.361 304.02 397.051 309.14 396.411C311.97 396.051 313.35 394.361 313.05 391.161C311.74 376.931 309.36 362.631 309.87 348.451C310.18 339.771 306.54 331.831 307.75 323.291C308.94 314.891 309.72 306.441 310.57 298.001C311.05 293.261 312.82 289.781 317.89 288.511C319.08 288.211 320.74 286.791 320.88 285.721C322.02 277.141 323.15 268.541 323.66 259.911C323.96 254.911 324.99 250.771 329.46 247.991C333.18 245.681 333.86 242.501 332.15 238.531C331.04 235.941 330.19 233.231 329.36 230.541C327.47 224.381 328.31 218.621 330.93 212.651C336.93 198.991 342.84 185.241 347.81 171.181C349.91 165.221 349.42 158.381 350.36 151.971C350.79 149.061 351.82 146.231 352.93 141.991C359.71 154.371 362.62 166.181 363.25 178.581C363.34 180.271 362.53 182.161 361.7 183.721C349.2 207.251 343.22 232.431 342.4 258.951C342.04 270.601 341.74 282.261 341.14 293.901C340.94 297.651 342.38 299.501 345.81 300.271C348.57 300.891 351.29 301.961 354.06 302.131C358.68 302.401 361.2 304.371 361.42 309.071C361.97 320.851 361.92 332.691 363.26 344.381C364.81 357.871 367.29 371.291 369.98 384.611C371.62 392.731 374.13 400.721 376.79 408.581C379.48 416.531 380.05 424.341 378.53 432.621C377.1 440.421 376.73 448.421 375.57 456.281C375.55 456.451 375.45 456.631 375.32 456.811C375.36 457.171 375.38 457.541 375.35 457.961C375.27 458.891 375.04 459.721 374.71 460.481L374.72 460.501ZM425.25 177.081C427.72 181.681 430.8 186.081 432.42 190.961C433.22 193.361 431.33 196.661 430.66 199.551C429.94 199.511 429.22 199.461 428.5 199.421C427.3 195.931 425.68 192.511 425.01 188.921C424.32 185.231 424.56 181.371 424.4 177.591C424.68 177.421 424.97 177.261 425.25 177.091V177.081ZM417.18 136.041C422.2 143.541 421.19 147.291 412.15 154.281C411.71 154.111 411.26 153.951 410.82 153.781C412.95 147.851 415.07 141.911 417.18 136.041ZM383.95 309.601C383.94 307.591 382.19 304.611 386.21 304.301C390.15 304.001 389.1 306.911 389.24 309.091C389.84 318.361 390.51 327.631 391.07 336.901C391.22 339.381 391.27 341.901 390.98 344.361C389.95 353.101 388.75 361.811 387.61 370.531C386.51 357.151 381.84 344.261 384.11 330.491C385.23 323.721 384 316.571 383.95 309.591V309.601ZM342.37 70.6508C343.3 74.9908 344.02 78.3008 344.92 82.4908C340.78 79.0308 339.64 75.7708 342.37 70.6508ZM44.69 411.721C43.9 411.701 43.11 411.671 42.31 411.651C42.31 406.421 42.23 401.181 42.39 395.961C42.42 395.081 43.5 394.231 44.1 393.371C44.93 394.221 46.52 395.131 46.46 395.921C46.06 401.211 45.32 406.461 44.68 411.731L44.69 411.721ZM289.95 428.901C289.43 437.981 288.77 447.061 287.7 456.091C287.57 457.181 284.54 457.931 283.25 458.621C283.25 453.221 283.87 448.691 283.13 444.391C280.93 431.611 278.2 418.921 275.69 406.191C275.56 405.551 275.42 404.801 275.61 404.211C277.87 397.471 280.2 390.761 282.78 383.291C283.01 384.801 283.12 385.691 283.28 386.571C284.13 391.161 283.81 395.531 287.13 400.101C290.03 404.091 289.19 410.911 289.69 416.511C290.06 420.621 290.18 424.791 289.94 428.901H289.95Z" fill="black"/>
<path d="M564.01 272.961C560.44 272.901 556.74 273.801 554.8 269.901C551.75 263.751 549.05 257.421 546.2 251.161H559.75C555.85 248.401 552.6 246.101 549.35 243.791C549.56 243.451 549.77 243.121 549.98 242.781C551.36 242.961 552.74 243.141 553.13 243.191C551.07 238.891 548.11 234.601 546.96 229.871C545.28 222.941 544.9 215.701 543.98 208.601C545.35 209.141 546.72 209.681 548.4 210.341C545.82 207.461 543.62 204.991 540.9 201.961C542.95 201.791 543.73 201.721 544.59 201.651C542.18 196.281 540.12 191.181 537.64 186.301C533.4 177.981 526.78 172.811 517.14 172.701C507.48 172.591 501.02 178.101 496.09 185.761C495.48 186.711 495.27 188.061 495.25 189.231C495.2 192.691 496.59 196.851 495.12 199.451C492.32 204.411 493.84 209.141 493.77 214.011C494.29 211.801 494.82 209.601 495.36 207.281C497.78 211.051 499.97 214.281 501.97 217.631C503.16 219.621 505.39 222.391 504.78 223.751C503.8 225.961 501.11 228.051 498.7 228.831C494.63 230.141 490.2 230.341 485.94 231.091C480.6 232.021 479.29 234.231 480.81 239.551C481.31 241.281 482.65 243.371 482.12 244.701C479.44 251.381 476.28 257.861 473.23 264.511C457.76 254.211 457.38 253.301 462.08 239.481C462.33 238.731 462.63 237.481 462.26 237.131C460.97 235.901 460.53 234.741 460.56 233.631C459.37 233.461 458.21 232.901 457.36 232.041C456.64 233.081 455.82 233.951 454.88 234.321C448.91 236.701 448.67 241.041 449.5 246.131C451.38 257.631 457.35 266.841 465.64 274.731C474.07 282.761 477 282.361 482.91 272.121C485.59 267.471 488 262.651 490.98 257.061C493.35 267.021 494.3 275.851 491.64 284.781C485.14 306.621 478.84 328.521 472.1 350.281C470.62 355.061 472.26 358.041 475.58 360.621C477.38 362.021 479.58 363.451 481.75 363.721C492.72 365.101 494.79 372.441 494.4 381.681C494.34 383.011 494.59 384.361 494.47 385.671C492.98 401.751 496.05 417.171 501.22 432.271C503.71 439.561 504.66 446.381 500.96 453.951C499.53 456.871 498.34 458.291 496.14 458.811C496.21 459.361 496.21 459.931 496.12 460.501H518.1C518.1 459.981 518.19 459.461 518.33 458.961H517.57C516.72 454.861 516.11 451.541 515.33 448.271C514.8 446.011 513.75 443.851 513.44 441.571C510.21 417.871 511.44 394.151 513.38 370.441C513.44 369.651 514.59 368.591 515.43 368.351C516.05 368.181 517.61 369.051 517.69 369.611C518.59 375.661 519.81 381.731 519.89 387.811C519.99 395.761 519.17 403.731 518.68 411.691C518.52 414.331 518.59 417.101 517.82 419.581C514.65 429.781 517.82 439.651 519.15 449.581C519.6 452.941 522.59 455.131 525.77 454.011C528.36 453.101 530.84 450.701 532.33 448.311C533.24 446.851 532.49 444.081 531.94 442.041C530.77 437.711 528.73 433.561 528.03 429.181C527.4 425.251 526.99 420.671 528.39 417.131C533.81 403.391 538.53 389.651 536.62 374.551C535.9 368.831 538.24 365.391 544.02 364.171C545.92 363.771 547.63 362.501 549.46 361.691C553.58 359.871 554.73 357.291 553.54 352.581C547.48 328.731 541.73 304.791 536.09 280.831C534.75 275.111 534.73 269.231 537.13 262.481C539.38 266.661 541.18 269.801 542.79 273.051C548.14 283.831 555.06 287.591 566.87 285.751C568.17 285.551 570.13 284.441 570.35 283.441C570.87 281.031 571.39 277.941 570.3 276.081C569.28 274.341 566.18 273.001 563.97 272.961H564.01Z" fill="black"/>
</svg>
