<svg width="552" height="506" viewBox="0 0 552 506" fill="none" xmlns="http://www.w3.org/2000/svg">
<path d="M64 0C68.64 1.74 73.43 3.17 77.87 5.32C80.47 6.58 82.65 8.85 84.75 10.93C85.59 11.76 86.48 13.9 86.05 14.44C82.83 18.59 85.95 22.23 86.6 26.05C87.62 32.03 88.57 38.02 89.66 44.65C89.17 44.88 87.74 45.54 85.99 46.35C86.39 50.18 86.8 54.03 87.12 57.14C90.54 55.93 93 55.05 95.46 54.2C100.4 52.5 105.35 50.82 111.27 48.8C106.75 46.85 101.74 46.75 101.85 41.14C101.87 39.97 102.62 38.83 102.67 37.66C102.79 34.67 102.71 31.68 102.71 27.84C107.21 25.69 108.84 20.69 109.04 14.91C109.07 14.1 109.01 12.91 109.49 12.54C112.34 10.33 115.09 7.23 118.35 6.48C123.66 5.26 129.34 5.33 134.86 5.4C141.72 5.49 145.24 11.36 149.99 15.04C151.62 16.3 152.9 18.01 155.62 19.44C154.69 24.11 153.7 28.77 152.89 33.46C152.74 34.32 153.2 35.39 153.66 36.22C155.94 40.33 154.59 42.88 151.5 46.1C147.75 50 144.92 54.69 139.15 56.05C138.65 56.17 138.42 57.41 137.95 58.38C145.29 60.13 151.73 62.96 157.3 67.75C159.92 70 162.98 72.07 166.2 73.17C168 73.79 170.92 72.81 172.66 71.59C176.3 69.03 179.19 65.35 182.96 63.08C185.3 61.67 190.53 60.74 191.26 61.8C193.12 64.5 193.46 68.42 193.72 71.91C193.77 72.56 190.48 73.24 189 74.28C187.17 75.55 185.56 77.16 183.96 78.73C180.47 82.16 177.47 86.31 173.46 88.9C170.47 90.83 166.23 91.13 162.49 91.46C160.31 91.65 158.01 90.48 154.89 89.71C154.19 94.17 152.78 98.4 153.05 102.51C153.56 110.35 150.49 116.72 146.79 123.15C145.88 124.73 145.48 127.18 145.98 128.91C149.12 139.81 143.96 153.69 134.49 160.23C132.67 161.49 131.15 164.31 130.95 166.53C130.57 170.79 130.92 175.2 131.55 179.46C133.12 190.1 130.48 192.43 119.14 188.55C119.6 192.03 119.96 195 120.38 197.97C121.14 203.35 121.97 208.71 122.7 214.09C123.42 219.36 123.39 224.84 124.93 229.84C126.2 233.97 129.48 237.46 131.5 241.41C132.44 243.24 133.53 246.78 132.79 247.39C128.08 251.24 128.7 256.83 127.2 262.04C128.75 261.82 130.19 261.4 131.61 261.48C134.07 261.61 138.24 261.4 138.64 262.46C139.75 265.45 140.61 269.74 139.24 272.23C133.51 282.56 138.43 292.08 140.63 301.76C140.93 303.09 143.98 304.12 145.93 304.71C152.42 306.69 160.78 305.08 163.7 302.08C162.72 295.56 161.7 289.59 160.97 283.58C160.29 277.99 159.48 272.36 159.59 266.77C159.64 263.97 160.89 260.47 162.84 258.57C169.08 252.51 183.99 250.61 190.74 254.89C193.17 256.43 195.05 259.24 196.51 261.84C199.06 266.4 201.48 271.12 203.21 276.03C204.96 280.98 205.78 286.24 207.07 291.36C207.35 292.47 207.9 293.51 209.51 294.31C209.51 289.99 209.63 285.66 209.48 281.34C209.31 276.28 209.35 271.3 204.57 267.57C201.63 265.28 201.3 261.99 203.66 258.24C205.12 255.92 206.09 255.34 208.61 255.83C212.17 256.53 217.13 255.49 219.06 257.51C220.94 259.47 219.48 264.4 219.98 267.96C220.43 271.17 221.73 274.24 222.3 277.44C223.27 282.84 224.04 288.29 224.76 293.73C225.41 298.67 225.04 303.29 220.94 307.03C219.78 308.09 219.29 310.14 218.98 311.83C218.52 314.31 218.69 316.85 215.21 317.4C214.41 317.53 213.36 319.24 213.28 320.28C212.76 327.24 211.86 334.26 212.33 341.17C212.63 345.48 215.16 349.63 216.61 353.88C218.64 359.83 220.59 365.81 222.68 372.07C221.1 372.9 219.7 373.63 219.06 373.96C219.06 380.88 219.59 387.37 218.96 393.74C217.23 411.1 218.87 428.26 220.92 445.45C221.45 449.9 219.42 454.6 222.8 458.82C223.42 459.59 222.46 462.45 221.41 463.6C216 469.54 216.67 477.16 215.39 484.21C215.16 485.45 216.16 486.94 216.7 488.28C217 489.02 218.03 490.06 217.85 490.3C213.8 495.6 219.52 500.77 218 505.98H200C200.29 501.75 200.58 497.52 200.93 492.45C199.16 494.02 198.06 495 195.96 496.86C197.01 493.01 197.2 490.1 198.52 487.87C204.17 478.31 200.85 470.31 194.27 463.17C191.11 459.74 190.37 456.33 190.63 451.89C191.06 444.74 190.74 437.55 190.74 430.37C189.54 437.42 189.45 444.52 188.72 451.56C188.26 455.92 188.05 461.15 185.58 464.3C177.05 475.17 176.44 487.5 177.11 500.25C177.29 503.76 176.44 505.04 172.82 504.93C169.89 504.84 166.94 505.59 164 505.97H158C156.38 505.71 154.69 505.63 153.15 505.12C151.58 504.6 148.85 503.54 148.9 502.9C149.06 500.98 150.02 498.91 151.25 497.36C152.44 495.86 154.36 494.93 156.13 493.62C151.68 488.95 158.75 487.67 158.71 483.25C155.93 485.79 153.67 487.86 150.96 490.34C152.18 485.45 154.68 482.53 159.08 481.93C162.19 481.51 163.28 479.88 162.66 477.22C161.44 472 159.9 466.85 158.49 461.67C157.28 457.22 154.88 452.72 155.11 448.34C155.6 438.92 157.45 429.57 158.72 420.18C159.7 412.97 161.05 405.78 161.52 398.53C162.07 390.12 161.72 381.65 162.01 373.21C162.11 370.47 163.54 367.74 163.41 365.05C163.07 358.11 162.14 351.21 161.55 344.28C161.01 337.87 160.6 331.45 160.19 325.87C156.21 324.35 153.17 323.06 150.05 322.03C145.17 320.42 140.15 319.2 135.32 317.44C129.45 315.3 126.63 310.82 125.75 304.62C124.99 299.22 123.34 293.95 122.32 288.57C122.03 287.06 121.98 284.91 122.82 283.89C127.95 277.71 125.25 270.73 125.89 264.45C120.98 264.98 116.64 265.45 112.13 265.94C112.14 274.7 112.93 283.36 111.75 292.39C108.95 313.81 108.55 335.53 106.97 357.12C105.86 372.22 104.35 387.28 103.12 402.37C102.67 407.83 101.23 413.61 102.46 418.71C105.32 430.5 103.96 441.84 101.49 453.32C101.23 454.53 101.18 455.97 101.57 457.12C104.19 464.79 106.89 472.43 109.75 480.01C110.46 481.89 111.51 483.99 113.04 485.16C118.4 489.27 124.34 492.11 131.33 492.33C134.47 492.43 137.84 492.49 140.64 493.67C142.42 494.42 143.89 497.05 144.41 499.12C144.65 500.07 142.48 502.33 141 502.85C137.11 504.21 133.01 504.95 128.99 505.93H104.99C99.36 504.58 93.73 503.21 88.08 501.91C87.32 501.74 86.25 501.64 85.69 502.03C78.69 506.89 70.83 504.71 63.37 504.51C55.6 504.3 55.01 503.01 56.73 495.33C57.25 493 57.11 490.75 54.22 491.56C44.84 494.19 35.4 489.44 25.41 493.82C18.31 497.02 8.57 494.18 0 494C0 491.67 0 489.33 0 487C0.42 486.32 1.08 485.69 1.22 484.96C2.44 478.85 3.6 472.72 4.69 466.58C4.95 465.13 5.32 463.42 4.8 462.17C1.87 455.08 4.69 448.93 7.21 442.49C9.98 435.41 12.99 428.22 14.28 420.8C17.32 403.41 16.74 385.35 24.44 368.85C25.05 367.54 25.17 365.92 25.19 364.44C25.38 350.67 27.41 337.33 34.06 325.01C34.45 324.29 34.76 323.44 34.79 322.64C34.86 321.17 34.92 319.63 34.6 318.21C32.62 309.68 30.29 301.22 28.53 292.65C25.95 280.05 26.11 280.02 13.39 278.81C13.24 278.8 13.09 278.68 12.2 278.28C11.08 266.3 9.5 253.93 8.86 241.51C7.63 217.57 7.09 193.59 5.98 169.64C5.25 153.87 4.19 138.11 2.99 122.37C1.38 101.17 8.6 83.88 25.11 70.46C26.22 69.56 27.11 68.27 27.82 67.01C29.38 64.24 30.17 60.7 32.39 58.72C34.98 56.4 34.99 54.73 33.75 51.96C29.38 42.19 27.49 31.99 28.98 21.28C30.26 12.05 34.95 5.55 44.01 2.58C46.67 1.66 49.34 0.84 52 0C56 0 60 0 64 0ZM55.86 420.92H55.06C53.93 425.24 52.7 429.53 51.68 433.87C49.5 443.17 47.45 452.51 45.28 461.81C44.96 463.2 44.55 464.76 43.67 465.81C39.87 470.3 42.01 476.82 47.89 477.99C51.1 478.63 54.37 478.92 57.61 479.37C58.51 475.67 59.12 472.13 60.26 468.77C61.08 466.37 61.1 464.94 59.29 462.65C57.32 460.16 56.13 456.43 56.01 453.19C55.62 442.44 55.86 431.68 55.86 420.92ZM76.53 76.98C81.33 83.81 86.49 91.15 91.66 98.52C92.81 90.34 93.97 82.12 95.08 74.22C88.54 75.19 82.22 76.13 76.53 76.98ZM112.11 233.22C111.21 240.48 108.68 246.88 111.83 253.44C112.09 246.97 117.42 240.75 112.11 233.22Z" fill="black"/>
<path d="M460 505.999C458.97 505.509 457.9 505.069 456.9 504.519C454.54 503.219 454.2 501.519 456.44 499.899C458.86 498.159 461.33 496.319 464.07 495.219C468.74 493.339 470.86 489.859 472.27 485.289C478.18 466.179 479.01 447.399 472.46 427.979C467.48 413.219 464.89 397.659 461.07 382.489C459.9 377.829 458.99 372.789 456.52 368.819C449.91 358.219 448.33 346.499 446.93 334.549C446.64 332.049 444.64 329.789 443.69 327.309C443.01 325.519 442.47 323.579 442.37 321.679C441.06 294.579 443.96 267.839 448.35 241.119C450.8 226.239 454.36 211.839 459.78 197.789C460.74 195.309 459.23 191.889 458.77 188.179C454.91 189.679 452.53 190.769 450.05 191.519C443.98 193.369 441.13 192.329 437.89 186.959C436.53 184.699 435.56 182.189 434.52 179.739C433 176.179 432.7 171.869 428.28 170.189C427.88 170.039 427.48 169.469 427.38 169.029C424.51 155.719 414.1 144.019 418.89 128.989C419.39 127.409 418 125.199 417.37 123.309C417.17 122.719 416.34 122.269 416.28 121.709C414.98 109.719 411.72 97.5395 418.46 86.1295C419.7 84.0295 421.9 82.1295 424.1 81.0595C427.27 79.5095 426.78 78.1795 424.69 76.3695C423.94 75.7195 423.03 75.2595 422.18 74.7295C411.81 68.2995 408.98 58.4895 410.2 47.1195C410.95 40.0895 417.57 34.6595 427.03 33.2195C434.75 32.0395 442.1 33.8395 448.43 38.2395C454.5 42.4595 457.28 48.3295 455.27 56.0795C454.62 58.5795 454.85 61.5695 455.53 64.1095C457.79 72.5495 455.33 76.7895 448.33 77.9795C453.59 80.9295 459.77 84.6295 466.18 87.8695C468.1 88.8495 470.66 88.8495 472.92 88.8195C475.4 88.7895 477.88 88.2395 480.34 87.8595C485.56 87.0528 488.04 83.9228 487.78 78.4695C486.34 77.9095 484.84 77.3295 482.34 76.3495C484.65 73.2795 486.57 70.4995 488.72 67.9095C491.74 64.2495 493.08 60.7895 490.03 56.2195C487.7 52.7295 488.55 48.9395 491.32 45.6195C503.96 30.4695 529.75 28.2795 544.34 41.5995C547.62 44.5895 549.48 49.1395 551.99 52.9795V61.9795C551.71 62.5595 551.24 63.1195 551.17 63.7295C549.69 76.1595 544.02 85.6995 532.57 91.5295C531.28 92.1895 529.82 94.5595 530.06 95.8295C530.84 99.9195 531.51 104.459 533.76 107.779C545.58 125.229 549.4 143.179 539.17 162.729C536.47 167.889 534.42 173.379 531.81 178.579C525.87 190.419 523.45 202.919 525.79 215.919C530.39 241.419 526.8 265.799 518.08 289.969C512.85 304.469 509.78 319.729 504.87 334.359C502.41 341.679 500.71 348.599 502.96 356.119C504.73 362.009 506.26 367.989 508.31 373.779C513.91 389.609 514.48 405.629 511.14 422.009C509.15 431.789 507.72 441.689 506.38 451.579C506.08 453.819 506.38 457.039 507.78 458.479C517.6 468.659 513.02 480.219 511.48 491.519C511.46 491.639 510.89 491.679 509.84 491.949C509.34 489.989 508.99 487.979 508.31 486.079C507.73 484.469 506.78 482.989 506 481.459C504.58 482.619 502.63 483.489 501.82 484.989C496.4 494.909 489.75 503.289 478.01 505.979H460.01L460 505.999ZM474.06 125.229C474.91 123.839 475.68 122.939 476.05 121.889C479.66 111.769 485.97 106.099 497.53 106.469C503.9 106.669 504.71 104.439 503.32 97.7195C492.47 101.699 481.57 105.709 470.05 109.939C468.777 115.966 470.114 121.066 474.06 125.239V125.229Z" fill="black"/>
<path d="M278.999 506C276.639 505.32 274.179 504.86 271.959 503.87C270.439 503.19 268.229 501.8 268.169 500.64C268.089 499.08 269.649 497.31 270.789 495.86C271.469 495 272.779 494.68 273.709 493.99C278.389 490.51 278.159 489.29 273.549 486.09C271.589 484.73 270.479 482.13 268.979 480.09C271.259 478.8 273.479 477.39 275.829 476.25C278.999 474.73 282.309 473.51 285.459 471.95C286.219 471.58 287.209 470.21 287.029 469.64C284.749 462.64 288.439 454.35 281.659 448.17C278.099 444.92 275.929 440.17 272.979 436.21C270.949 433.49 268.939 430.65 266.409 428.43C261.659 424.26 262.769 418.68 262.409 413.55C262.119 409.45 263.029 405.27 262.949 401.14C262.719 387.82 264.469 374.77 267.549 361.23C263.719 359.07 257.289 358.64 258.979 350.84C260.069 345.83 257.429 339.94 263.499 336.22C256.249 327.49 262.449 317.89 260.599 308.37C257.119 310.15 253.949 311.89 250.689 313.4C241.649 317.58 236.339 315.48 233.379 306.01C231.359 299.54 228.689 292.74 228.989 286.22C229.329 279.03 229.269 272.85 224.689 266.93C223.799 265.77 224.929 262.13 226.209 260.45C227.659 258.54 230.209 257.32 232.489 256.23C235.159 254.96 238.569 253.56 240.329 257.02C241.779 259.88 243.179 263.78 242.339 266.55C241.039 270.88 240.429 274.26 243.219 278.22C244.529 280.07 244.199 283.04 244.769 285.46C245.249 287.47 245.959 289.43 246.319 290.62C248.909 289.46 250.979 288.53 252.909 287.67C255.829 283.56 258.909 279.37 261.839 275.07C264.139 271.7 264.349 268.45 261.819 264.78C260.719 263.18 260.659 260.38 261.069 258.32C262.529 251 264.219 243.72 266.159 236.51C268.389 228.19 269.929 219.15 279.949 216.23C283.019 215.33 286.389 215.47 289.359 215.89C291.489 216.72 294.039 217.06 295.689 218.46C299.929 222.05 304.889 225.49 307.469 230.15C310.259 235.18 313.109 240.51 314.629 246.26C315.139 248.18 315.829 250.06 316.579 251.9C318.249 256.02 318.229 255.95 314.179 259.92C313.539 260.55 313.649 261.96 313.629 262.09C311.729 261.84 309.909 261.59 308.089 261.35C307.789 261.86 307.499 262.37 307.199 262.88C309.299 264.58 311.159 267.23 313.529 267.8C322.149 269.87 324.959 277.91 330.349 283.23C332.289 285.15 333.509 287.81 335.059 290.13L337.329 288.67C337.919 286.68 338.469 284.68 339.119 282.71C341.019 276.93 342.029 270.59 348.619 267.76C349.149 267.53 349.419 266.74 349.899 266.31C350.789 265.52 351.739 264.79 352.659 264.04C353.029 265.19 353.429 266.33 353.759 267.49C354.069 268.58 353.989 269.91 354.609 270.75C357.759 275.05 356.519 278.61 353.329 282.24C352.459 283.23 351.809 285.3 352.249 286.43C355.319 294.45 354.159 302.58 352.709 310.55C352.329 312.6 349.199 315.18 346.929 315.67C339.839 317.19 332.959 316.51 327.869 310.24C327.379 309.63 326.609 309.24 324.759 307.8C324.399 314.92 324.049 321.03 323.799 327.14C323.659 330.62 323.799 334.12 323.569 337.6C323.269 341.91 322.169 346.23 322.369 350.5C322.829 360.28 318.549 368.74 315.359 377.44C311.379 388.31 306.689 398.92 302.319 409.64C302.199 409.94 302.299 410.39 302.109 410.6C295.479 417.79 302.909 424.16 303.339 430.93C303.649 435.73 304.489 440.5 304.999 445.29C305.899 453.74 310.519 460.49 314.439 467.71C316.729 471.94 317.289 477.37 317.469 482.3C317.519 483.61 313.299 485.08 310.619 486.75C310.619 486.5 310.519 486.99 310.629 487.42C313.179 497.11 312.479 497.73 302.669 500.06C297.599 501.26 292.879 503.96 287.999 505.98H278.999V506Z" fill="black"/>
<path d="M387.999 506.001C381.689 504.671 375.359 503.441 369.089 501.971C365.679 501.171 364.209 499.031 364.959 495.291C367.759 481.321 370.349 467.311 373.129 453.341C373.439 451.761 374.629 450.361 375.049 448.781C375.499 447.101 375.479 445.301 375.749 443.571C376.059 441.551 376.449 439.551 376.589 438.761C376.039 434.681 375.659 431.641 375.219 428.601C374.509 423.761 374.019 419.141 371.259 414.531C368.329 409.631 367.429 403.441 366.039 397.711C365.269 394.521 365.289 391.131 364.429 387.811C364.109 390.371 364.169 393.061 363.359 395.451C362.629 397.571 361.009 399.421 359.639 401.291C358.489 402.871 357.139 404.321 355.349 406.451C351.399 405.511 346.289 404.771 344.629 398.741C344.369 397.801 343.909 396.721 344.149 395.871C345.439 391.221 346.929 386.631 348.299 382.001C348.529 381.231 348.759 380.291 348.509 379.591C346.959 375.261 349.339 372.061 351.019 368.381C353.189 363.631 354.149 358.351 356.009 353.431C357.349 349.881 359.309 346.571 361.009 343.151C361.669 341.811 362.629 340.561 362.999 339.151C365.179 330.841 367.199 322.491 369.359 314.181C369.679 312.951 370.189 311.541 371.079 310.711C373.839 308.141 376.819 305.811 379.729 303.371C379.959 303.621 380.499 304.211 381.589 305.401C381.829 303.491 381.989 302.191 382.149 300.901C383.809 302.331 385.249 303.571 385.979 304.201C387.039 297.731 387.469 291.301 389.229 285.261C391.869 276.211 399.119 271.031 407.899 270.061C417.539 269.001 426.789 273.151 430.959 281.861C433.609 287.391 433.509 295.521 431.589 301.511C430.199 305.821 423.729 308.081 423.369 314.611C423.269 316.381 417.689 317.851 414.209 319.681C414.359 320.111 414.399 321.221 414.969 321.761C420.429 326.881 418.959 333.041 418.299 339.431C417.549 346.611 417.169 354.001 418.099 361.111C418.539 364.481 422.469 367.361 424.649 370.571C425.619 372.001 426.159 373.711 426.929 375.281C427.929 377.321 428.929 379.371 430.019 381.361C430.329 381.921 431.009 382.261 431.409 382.781C433.699 385.721 436.399 389.111 433.899 392.631C432.219 395.001 428.729 396.091 425.559 398.061C424.359 388.441 423.009 387.041 416.019 387.271C416.539 398.551 415.289 410.011 420.849 420.621C425.169 428.881 425.919 437.181 420.999 445.661C420.039 447.311 420.569 449.811 420.359 451.911C419.799 457.661 419.389 463.431 418.499 469.131C418.259 470.651 416.529 471.931 415.439 473.381C418.799 478.131 422.649 481.981 429.569 481.101C431.149 480.901 434.159 483.091 434.509 484.641C434.889 486.271 433.349 489.411 431.799 490.191C428.789 491.701 425.219 492.391 421.819 492.741C416.209 493.321 410.539 493.241 404.919 493.681C396.599 494.321 393.839 492.641 393.409 484.461C393.129 479.131 394.219 473.681 395.139 468.361C396.289 461.701 397.889 455.111 399.289 448.491C398.809 448.341 398.329 448.191 397.849 448.041C395.949 452.801 393.719 457.471 392.249 462.361C390.729 467.421 389.989 472.711 388.839 477.881C387.219 485.151 391.919 493.251 398.909 495.221C399.869 495.491 400.809 495.851 401.719 496.251C407.509 498.801 408.029 501.031 403.989 505.961H387.989L387.999 506.001Z" fill="black"/>
<path d="M55.8604 420.92C55.8604 431.68 55.6204 442.45 56.0104 453.19C56.1304 456.43 57.3204 460.15 59.2904 462.65C61.1004 464.94 61.0804 466.36 60.2604 468.77C59.1204 472.13 58.5104 475.67 57.6104 479.37C54.3704 478.92 51.0904 478.63 47.8904 477.99C42.0004 476.81 39.8704 470.29 43.6704 465.81C44.5504 464.77 44.9604 463.21 45.2804 461.81C47.4504 452.51 49.5004 443.17 51.6804 433.87C52.7004 429.53 53.9304 425.24 55.0604 420.93H55.8604V420.92Z" fill="white"/>
<path d="M91.6593 98.5302C86.4793 91.1602 81.3193 83.8102 76.5293 76.9902Z" fill="white"/>
<path d="M112.119 233.221C117.429 240.751 112.099 246.971 111.839 253.441C108.689 246.881 111.219 240.491 112.119 233.221Z" fill="white"/>
</svg>
