<svg width="108" height="360" viewBox="0 0 108 360" fill="none" xmlns="http://www.w3.org/2000/svg">
<path d="M68.8524 227.914C68.3401 230.833 65.8214 228.756 65.0672 230.555C63.4165 243.413 59.0122 256.606 57.5608 269.393C55.2555 289.608 55.4049 312.941 54.6222 333.52C54.5724 334.733 53.9321 335.853 53.8965 337.073C58.9624 338.194 68.8453 339.464 70.5245 345.436C71.5135 348.961 67.1732 348.633 67.4365 349.211C74.9927 359.35 60.9689 356.375 54.9495 356.674C45.3584 357.153 34.2304 357.959 24.6961 355.676C19.5804 354.448 16.0442 350.088 15.4892 344.929C13.995 331.094 16.0798 315.966 16.2292 302.145C16.3999 286.911 16.6774 271.612 16.9407 256.478C17.1328 245.646 14.4504 228.842 9.22792 219.195C6.74476 214.607 1.06691 213.322 0.511935 207.243C-0.149769 199.979 -0.213805 184.424 0.540395 177.231C1.65035 166.613 5.7273 154.626 6.94398 142.981C8.83659 124.878 6.59534 108.024 7.6626 90.8987C8.95044 70.22 22.2059 49.5057 44.654 49.8624C45.6928 40.8432 40.4347 31.3815 42.8894 22.7618C47.8629 5.32981 70.2754 -6.95751 86.1492 4.30943C88.241 5.79362 91.2151 10.8313 91.4144 13.2217C91.5922 15.348 88.9312 19.2226 88.8743 21.6487C88.8174 24.0748 90.6602 27.721 90.5463 30.2541C90.4681 32.0094 89.3083 33.4508 89.4364 35.9197C89.6 39.0807 92.4674 42.5771 91.4784 45.7881C90.9234 47.6005 88.5043 47.3436 87.1524 49.3201C85.4092 51.8675 85.8077 57.8899 84.1997 59.2028C79.7029 60.6228 74.7935 60.6156 70.9798 63.7695C75.5193 69.4779 77.0348 76.3066 78.6001 83.2352C80.4144 91.2769 82.3853 92.9394 85.3238 100.039C87.067 104.256 89.045 109.922 89.4577 114.446C90.3329 124.05 87.0599 133.969 87.4513 143.58C92.1615 147.269 97.8037 148.725 101.56 153.684C103.211 155.853 106.42 162.61 106.52 165.172C106.655 168.804 103.154 170.31 102.976 170.959C102.678 172.058 102.884 175.79 102.955 177.26C105.808 235.314 102.72 294.874 106.555 352.75C106.698 354.855 107.502 357.11 107.978 359.172L101.61 359.971L100.166 359.193L97.8606 167.377C96.9784 165.329 94.8154 165.015 92.9085 164.487C91.0017 163.959 86.3128 162.639 85.274 164.466L78.038 218.232L68.824 215.399C68.3615 219.188 69.4572 224.297 68.824 227.886L68.8524 227.914Z" fill="black"/>
</svg>
