<svg width="175" height="380" viewBox="0 0 175 380" fill="none" xmlns="http://www.w3.org/2000/svg">
<path d="M137.117 158.757C139.114 160.668 157.062 161.051 157.862 162.22C157.962 162.366 157.512 163.036 157.679 163.448C157.879 163.952 159.422 165.063 159.944 165.738C163.143 169.917 167.13 175.682 164.982 181.148C162.951 186.318 161.837 185.698 162.025 192.383C162.484 208.68 164.636 225.581 165.791 241.907C168.406 278.809 171.13 315.707 173.307 352.626C173.707 359.415 175 367.183 175.005 373.86C175.005 375.076 173.953 377.919 172.89 378.443C170.892 379.426 167.847 377.769 167.489 375.504C166.967 372.22 167.293 367.362 167.042 363.878C162.746 303.469 158.242 243.072 154.951 182.588C153.095 181.972 152.457 184.249 151.323 184.586C150.701 184.77 148.207 185.398 147.623 185.498C143.302 186.231 141.534 180.07 138.668 178.238C136.378 176.773 132.925 176.923 130.969 174.688C126.264 183.962 115.779 174.346 109.285 172.177C112.125 201.079 115.378 230.014 117.831 258.974C119.482 278.493 121.138 298.061 121.58 317.655C121.197 319.633 117.163 320.353 115.42 320.665C109.005 321.81 102.19 321.368 95.7086 321.806C95.2164 322.151 94.9453 324.424 94.8827 325.144C94.3113 331.759 94.4698 345.42 97.6021 351.182C100.505 356.522 111.466 363.899 117.238 365.718C120.304 366.684 128.779 367.408 129.847 371.034C131.365 376.183 127.791 377.423 123.691 378.456C113.535 381.012 105.681 379.009 95.9421 379.026C90.4742 379.034 85.0354 380.325 79.2421 379.913C75.1005 379.617 72.4103 378.739 71.6428 374.176C70.0162 364.511 75.4884 355.161 74.8752 345.558C74.4206 338.419 72.2017 331.321 70.7586 324.357L46.1048 323.283C45.5626 330.077 41.0331 337.703 40.7786 344.434C40.4867 352.139 50.8178 361.959 57.6664 364.398C62.5921 366.151 68.4521 365.343 68.6357 372.216C68.7566 376.766 60.6569 377.219 57.1742 377.415C49.1745 377.865 41.2166 376.037 33.3837 376.154C28.775 376.224 18.5147 376.328 14.6734 374.006C9.82685 371.075 12.6797 360.61 14.2146 356.185C15.9955 351.032 19.1737 348.967 20.4583 343.685C22.452 335.484 21.6971 326.668 22.331 318.288C18.9777 317.98 15.5451 317.535 12.2418 316.91C9.81434 316.452 0.967994 314.975 0.0212135 312.872C-0.112253 304.231 1.56025 295.51 2.30683 286.86C4.80099 257.896 6.21908 228.794 8.98434 199.864C10.3107 185.977 12.4086 171.911 16.3792 158.54C17.6305 154.319 20.0913 149.274 20.9713 145.224C22.4019 138.659 22.3185 129.51 23.2152 122.487C26.9148 93.4775 34.1387 68.622 60.8362 53.0536C63.5306 51.4842 69.5533 49.1656 71.5135 47.4755C72.7189 46.4349 73.2987 44.2869 74.0411 42.9216C67.8891 41.7518 62.7047 40.5613 60.3774 34.0925C58.4421 28.7143 59.1303 22.7991 62.7756 18.3575C66.4209 13.9159 70.4416 13.2957 76.0848 13.9492C77.97 8.66257 81.5653 4.17935 86.8289 1.98561C95.7419 -1.73168 104.976 0.249764 113.535 3.93375C117.547 5.66127 124.012 8.93315 124.5 13.841C124.596 14.815 124.17 15.6059 124.279 16.5134C124.929 21.9915 128.687 26.3291 126.206 32.9602C125.855 33.8927 124.821 34.3214 124.917 35.4037C125.046 36.8815 129.009 41.9059 129.438 45.1195C130.03 49.5278 126.093 47.9709 123.737 49.1614C123.903 50.1646 125.088 52.4125 124.871 53.2492C124.7 53.9152 123.115 55.3472 122.719 56.9498C121.964 60.0011 123.482 62.7693 120.779 65.0047C117.885 67.3982 113.948 66.1119 110.553 66.4533C106.607 66.8487 103.304 69.696 101.243 72.818C103.316 77.8133 105.798 82.6295 107.537 87.7663C110.995 97.9649 117.401 118.445 117.026 128.698C116.871 132.961 114.915 136.869 114.577 141.074C119.265 146.469 125.459 150.423 131.482 154.199C132.721 154.977 134.506 155.456 135.578 156.355C136.583 157.2 136.687 158.328 137.137 158.753L137.117 158.757Z" fill="black"/>
</svg>
