<svg width="263" height="967" viewBox="0 0 263 967" fill="none" xmlns="http://www.w3.org/2000/svg">
<g clip-path="url(#clip0_202_2)">
<path d="M31.7157 492.881L38.799 533.965C39.7751 536.296 44.237 542.715 46.0636 544.111C50.1909 547.265 55.2246 545.269 56.7723 550.126C57.8739 589.382 61.6107 629.852 59.812 669.136C56.5492 739.834 38.4783 817.049 46.3564 888.583C47.0676 895.045 50.428 901.939 51.0833 909.461C51.7387 916.983 50.2328 924.337 52.1291 931.58L86.6674 956.769C101.866 966.217 121.819 967.905 139.235 964.459C148.41 962.644 156.762 960.174 154.545 948.633C152.662 938.892 130.213 926.528 122.544 919.634C113.118 911.163 116.242 913.256 114.471 902.106C112.714 891.04 114.011 893.105 114.596 883.699C115.991 861.524 114.708 837.661 115.754 815.346C118.64 754.264 127.689 686.804 139.318 626.754C140.768 619.26 142.832 609.115 144.993 601.955C145.481 600.323 145.091 598.16 147.475 597.741C147.824 605.64 147.057 613.678 147.434 621.563C148.228 638.086 150.71 654.888 151.184 671.453C152.844 728.726 143.892 786.305 142.553 843.396C142.121 862.013 145.37 875.745 146.304 892.184C146.639 898.157 144.617 907.926 145.509 912.377C147.615 922.844 169.506 923.43 178.193 926.095C202.859 933.673 211.769 945.8 241.887 942.814C253.474 941.656 270.026 933.561 259.596 920.248C252.554 911.261 211.337 897.696 211.281 888.57C211.281 887.021 213.805 883.504 214.209 880.964C219.173 849.899 216.817 802.479 218.197 769.112C219.815 729.8 219.633 689.846 221.753 650.729C223.175 624.479 228.697 596.973 230.314 570.291C231.541 550.251 231.611 530.1 231.555 509.948C234.135 510.813 233.41 515.656 237.69 513.046C243.421 507.339 237.495 497.919 238.987 492.406C239.168 491.75 240.521 489.894 241.302 491.025C248.343 494.011 248.329 510.158 247.325 516.577C246.461 522.103 240.423 527.016 241.316 533.114C247.493 534.663 250.965 528.886 253.725 524.211C258.564 516.047 261.018 502.971 260.892 493.481C260.823 488.932 256.709 477.195 257.267 475.381C257.825 473.567 260.642 473.371 261.408 472.157C262.705 470.106 261.13 449.047 260.781 444.735C257.211 399.673 244.481 355.742 240.089 311.797C236.421 275.081 238.597 237.527 235.181 200.866C234.497 193.512 232.448 180.589 228.794 174.323C221.293 161.47 193.768 155.051 180.759 149.232C174.498 146.427 169.618 141.807 163.315 139.267C174.61 175.133 179.476 213.119 177.942 250.84C177.886 252.319 178.862 255.376 176.743 255.097C173.41 236.829 172.183 215.338 166.355 197.81C164.947 193.582 159.704 185.362 159.104 182.068C158.323 177.714 163.455 170.346 162.674 165.95C162.451 164.652 157.096 155.163 156.399 155.023L141.912 157.451C130.213 168.685 146.304 175.105 147.517 182.613C148.173 186.674 145.44 192.772 145.077 197.196C143.515 216.566 151.965 240.011 151.143 259.981C144.519 250.728 139.277 239.132 134.271 228.707C123.925 207.188 111.529 181.51 103.943 159.07C100.123 147.78 97.5015 138.067 98.7565 125.856C90.1811 128.885 84.5758 137.286 76.4188 141.905C62.4195 149.832 43.9582 153.669 29.2895 161.805C18.6506 167.694 11.8182 171.797 8.95976 184.134C-0.828643 226.404 9.51749 282.505 1.235 326.394C-1.27485 381.685 11.8321 435.525 21.1186 489.504C22.3874 495.937 26.9052 494.221 31.7296 492.895L31.7157 492.881ZM59.7423 407.516C57.5392 407.056 57.4695 405.116 57.2743 403.302C55.0294 382.285 58.1248 361.464 55.113 341.075L57.3301 311.197C59.6586 311.615 59.3519 313.737 59.812 315.411C61.6805 322.124 63.0469 333.944 63.4652 341.033C64.762 363.334 61.7502 385.453 59.7423 407.544V407.516Z" fill="black"/>
<path d="M161 134.495C164.207 133.35 170.663 133.615 173.061 131.327C174.065 130.364 179.099 116.59 180.019 113.896C185.569 97.6804 186.615 88.4001 187.702 71.584C187.911 68.3324 190.17 64.1319 190.017 61.7595C189.905 60.0011 188.009 58.6614 187.702 56.8472C186.322 48.795 197.142 46.4505 194.465 33.0953C190.059 11.1715 140.071 -3.23037 120.606 0.774797C109.353 3.09138 107.262 11.0459 101.21 17.9398C95.7303 24.1778 91.0313 24.7779 87.7127 34.9234C78.2172 63.9504 103.664 84.1577 104.877 109.333C105.323 118.544 101.824 121.697 107.959 130.643C119.574 147.585 159.508 170.988 161 134.495Z" fill="black"/>
</g>
<defs>
<clipPath id="clip0_202_2">
<rect width="262" height="966" fill="white" transform="matrix(-1 0 0 1 262.9 0.10498)"/>
</clipPath>
</defs>
</svg>
