<svg width="576" height="1500" viewBox="0 0 576 1500" fill="none" xmlns="http://www.w3.org/2000/svg">
<path d="M2.66991 279.05C4.83991 278.54 7.52991 277.38 10.2199 277.35C28.0299 277.19 45.8399 277.26 63.9199 277.26C66.6299 282.01 68.9699 286.11 71.7199 290.93C82.6999 284.48 88.2899 274.56 93.5699 264.54C104.33 244.11 109.97 222.04 113.83 199.45C115.51 189.62 116.95 179.75 118.45 170.23C133.9 160.67 149.39 152.03 163.84 141.88C178.56 131.54 189.78 117.49 199.76 102.55C209.73 87.63 217.94 71.71 223.03 54.56C228.08 37.56 231.63 20.12 235.85 2.86C252.1 -0.709999 314.67 -1.07 336.78 2.52C337.82 7.48 339.17 12.89 340.05 18.37C344.41 45.44 353.22 70.94 367.3 94.47C385.34 124.62 409.57 148.15 441.95 162.71C445.82 164.45 449.54 166.51 452.95 168.24C467.74 224.38 485.19 260.14 508.25 280.93C510.42 277.43 512.49 274.09 514.43 270.97H573.11C574.13 274.93 575.67 278.18 575.7 281.44C575.9 306.39 575.81 331.35 575.81 357.41C573.38 359.38 570.94 361.89 568.04 363.62C563.14 366.53 561.47 370.83 561.42 376.14C561.37 381.14 561.27 386.13 561.29 391.13C562.23 634.5 563.09 877.87 564.17 1121.24C564.69 1238.28 565.65 1355.32 566.3 1472.36C566.34 1480.03 567.57 1487.96 563.9 1496.32C559.6 1496.8 555.51 1497.57 551.39 1497.69C455.01 1500.48 32.4499 1500.33 13.0799 1497.4C12.4399 1493.7 11.3099 1489.68 11.1199 1485.61C10.7799 1478.49 10.9899 1471.34 10.9899 1464.2C10.9899 1109.48 10.9899 754.76 10.9899 400.05C10.9899 393.63 10.9199 387.2 10.9899 380.78C11.0599 374.22 10.2599 368.36 4.88991 363.33C2.12991 360.74 0.129908 355.92 0.0899079 352.09C-0.150092 329.28 0.249908 306.45 0.559908 283.63C0.579908 282.35 1.70991 281.09 2.68991 279.06L2.66991 279.05ZM247.25 16.13C245.78 21.94 244.48 28.18 242.61 34.25C238.41 47.85 235.04 61.85 229.36 74.82C209.89 119.34 181.01 155.43 135.02 175.27C133.8 175.8 132.88 177.03 130.73 178.88C129.22 187.55 127.58 197.36 125.79 207.15C122.18 226.85 117.3 246.18 108.86 264.45C99.6499 284.39 86.5699 300.98 66.9299 311.56C63.6399 313.33 59.4899 313.5 55.5399 314.46C54.5499 306.02 53.7499 299.09 52.8599 291.52C39.5699 289.96 27.1499 288.17 15.1599 292.84C12.1799 317.72 12.7299 338.5 16.8399 353.66C47.8399 352.31 75.1999 342.86 95.9699 318.33C123.73 285.54 142.87 248.66 149.45 205.79C149.98 202.36 151.23 199.04 152.2 195.46C220.8 166.18 254.58 111.69 264.68 40.82C283.43 36.83 290.56 36.9 307.74 41.29C317.45 112.44 352.1 166.26 420.84 196.08C422.39 203.43 424 211.03 425.6 218.63C431.7 247.59 442.63 274.49 459.55 298.89C474.91 321.04 494.89 338.08 518.26 351.04C532.77 359.08 547.77 361.31 563.07 348.97C562.71 328.33 565.11 307.21 561.19 285.73C548.93 283.03 537.91 281.96 527.41 285C521.56 294.67 527.49 305.39 522.63 314.5C491.99 296.84 464.88 251.45 440.25 177.18C371.03 145.98 339.49 86.86 325.13 16.44C306.09 11.98 267.08 11.88 247.26 16.14L247.25 16.13Z" fill="black"/>
<path d="M247.25 16.13C267.07 11.86 306.08 11.97 325.12 16.43C339.47 86.85 371.02 145.96 440.24 177.17C464.87 251.45 491.98 296.83 522.62 314.49C527.49 305.38 521.55 294.66 527.4 284.99C537.9 281.95 548.91 283.02 561.18 285.72C565.09 307.2 562.7 328.32 563.06 348.96C547.75 361.3 532.75 359.08 518.25 351.03C494.88 338.07 474.9 321.03 459.54 298.88C442.62 274.48 431.7 247.58 425.59 218.62C423.99 211.02 422.38 203.43 420.83 196.07C352.09 166.25 317.44 112.43 307.73 41.28C290.54 36.89 283.41 36.82 264.67 40.81C254.57 111.69 220.79 166.17 152.19 195.45C151.22 199.04 149.97 202.36 149.44 205.78C142.86 248.65 123.72 285.53 95.9601 318.32C75.1901 342.85 47.8301 352.3 16.8301 353.65C12.7201 338.49 12.1701 317.71 15.1501 292.83C27.1401 288.17 39.5601 289.95 52.8501 291.51C53.7301 299.08 54.5401 306.01 55.5301 314.45C59.4901 313.49 63.6301 313.32 66.9201 311.55C86.5601 300.97 99.6501 284.38 108.85 264.44C117.29 246.17 122.17 226.83 125.78 207.14C127.57 197.36 129.21 187.55 130.72 178.87C132.88 177.02 133.79 175.78 135.01 175.26C181.01 155.43 209.88 119.34 229.35 74.81C235.03 61.83 238.4 47.84 242.6 34.24C244.47 28.17 245.77 21.93 247.24 16.12L247.25 16.13Z" fill="#7F7F7F"/>
<path d="M354.89 1450.36H219.71C218.865 1450.36 218.18 1451.04 218.18 1451.89V1460.28C218.18 1461.12 218.865 1461.81 219.71 1461.81H354.89C355.735 1461.81 356.42 1461.12 356.42 1460.28V1451.89C356.42 1451.04 355.735 1450.36 354.89 1450.36Z" fill="#7F7F7F"/>
<path d="M345.34 1425.53H229.65C228.805 1425.53 228.12 1426.22 228.12 1427.06V1435.45C228.12 1436.29 228.805 1436.98 229.65 1436.98H345.34C346.185 1436.98 346.87 1436.29 346.87 1435.45V1427.06C346.87 1426.22 346.185 1425.53 345.34 1425.53Z" fill="#7F7F7F"/>
<path d="M367.51 1475.18H210.94C209.808 1475.18 208.89 1476.1 208.89 1477.23V1484.58C208.89 1485.71 209.808 1486.63 210.94 1486.63H367.51C368.642 1486.63 369.56 1485.71 369.56 1484.58V1477.23C369.56 1476.1 368.642 1475.18 367.51 1475.18Z" fill="#7F7F7F"/>
<path d="M124.1 1113.73H134.21C156.47 1113.73 174.54 1131.8 174.54 1154.06V1318.39H84.5898V1153.25C84.5898 1131.44 102.3 1113.74 124.1 1113.74V1113.73Z" fill="#F9EA3E"/>
<path d="M129.56 1097.09V1337.85" stroke="black" stroke-width="3" stroke-miterlimit="10"/>
<path d="M59.4102 1220.43H199.36" stroke="black" stroke-width="3" stroke-miterlimit="10"/>
<path d="M427.24 1113.73H437.35C459.61 1113.73 477.68 1131.8 477.68 1154.06V1318.39H387.73V1153.25C387.73 1131.44 405.44 1113.74 427.24 1113.74V1113.73Z" fill="#F9EA3E"/>
<path d="M272.63 1149.3H301.54C323.8 1149.3 341.87 1167.37 341.87 1189.63V1410.14H233.12V1188.81C233.12 1167 250.83 1149.3 272.63 1149.3Z" fill="#7F7F7F"/>
<path d="M432.7 1097.09V1337.85" stroke="black" stroke-width="3" stroke-miterlimit="10"/>
<path d="M362.55 1220.43H502.5" stroke="black" stroke-width="3" stroke-miterlimit="10"/>
<path d="M124.1 824.34H134.21C156.47 824.34 174.54 842.41 174.54 864.67V1029H84.5898V863.86C84.5898 842.05 102.3 824.35 124.1 824.35V824.34Z" fill="#F9EA3E"/>
<path d="M129.56 807.69V1048.46" stroke="black" stroke-width="3" stroke-miterlimit="10"/>
<path d="M59.4102 931.04H199.36" stroke="black" stroke-width="3" stroke-miterlimit="10"/>
<path d="M427.24 824.34H437.35C459.61 824.34 477.68 842.41 477.68 864.67V1029H387.73V863.86C387.73 842.05 405.44 824.35 427.24 824.35V824.34Z" fill="#F9EA3E"/>
<path d="M432.7 807.69V1048.46" stroke="black" stroke-width="3" stroke-miterlimit="10"/>
<path d="M362.55 931.04H502.5" stroke="black" stroke-width="3" stroke-miterlimit="10"/>
<path d="M275.85 824.34H285.96C308.22 824.34 326.29 842.41 326.29 864.67V1029H236.34V863.86C236.34 842.05 254.05 824.35 275.85 824.35V824.34Z" fill="#F9EA3E"/>
<path d="M281.31 807.69V1048.46" stroke="black" stroke-width="3" stroke-miterlimit="10"/>
<path d="M211.16 931.04H351.11" stroke="black" stroke-width="3" stroke-miterlimit="10"/>
<path d="M124.1 603.12H134.21C156.47 603.12 174.54 621.19 174.54 643.45V765.11H84.5898V642.63C84.5898 620.82 102.3 603.12 124.1 603.12Z" fill="#F9EA3E"/>
<path d="M129.56 589.95V780.52" stroke="black" stroke-width="3" stroke-miterlimit="10"/>
<path d="M59.4102 687.58H199.36" stroke="black" stroke-width="3" stroke-miterlimit="10"/>
<path d="M427.24 603.12H437.35C459.61 603.12 477.68 621.19 477.68 643.45V765.11H387.73V642.63C387.73 620.82 405.44 603.12 427.24 603.12Z" fill="#F9EA3E"/>
<path d="M432.7 589.95V780.52" stroke="black" stroke-width="3" stroke-miterlimit="10"/>
<path d="M362.55 687.58H502.5" stroke="black" stroke-width="3" stroke-miterlimit="10"/>
<path d="M124.1 401.65H134.21C156.47 401.65 174.54 419.72 174.54 441.98V563.64H84.5898V441.16C84.5898 419.35 102.3 401.65 124.1 401.65Z" fill="#F9EA3E"/>
<path d="M129.56 388.48V579.05" stroke="black" stroke-width="3" stroke-miterlimit="10"/>
<path d="M59.4102 486.11H199.36" stroke="black" stroke-width="3" stroke-miterlimit="10"/>
<path d="M427.24 401.65H437.35C459.61 401.65 477.68 419.72 477.68 441.98V563.64H387.73V441.16C387.73 419.35 405.44 401.65 427.24 401.65Z" fill="#F9EA3E"/>
<path d="M432.7 388.48V579.05" stroke="black" stroke-width="3" stroke-miterlimit="10"/>
<path d="M362.55 486.11H502.5" stroke="black" stroke-width="3" stroke-miterlimit="10"/>
<path d="M275.67 401.65H285.78C308.04 401.65 326.11 419.72 326.11 441.98V563.64H236.16V441.16C236.16 419.35 253.87 401.65 275.67 401.65Z" fill="#F9EA3E"/>
<path d="M281.13 388.48V579.05" stroke="black" stroke-width="3" stroke-miterlimit="10"/>
<path d="M210.98 486.11H350.93" stroke="black" stroke-width="3" stroke-miterlimit="10"/>
<path d="M286.39 184.98H290.64C307.26 184.98 320.75 198.47 320.75 215.09V316.4H256.87V214.49C256.87 198.21 270.09 184.98 286.38 184.98H286.39Z" fill="#F9EA3E"/>
<path d="M288.83 174.29V328.9" stroke="black" stroke-width="3" stroke-miterlimit="10"/>
<path d="M239.01 253.5H338.39" stroke="black" stroke-width="3" stroke-miterlimit="10"/>
<path d="M275.67 602H285.78C308.04 602 326.11 620.07 326.11 642.33V763.99H236.16V641.51C236.16 619.7 253.87 602 275.67 602Z" fill="#F9EA3E"/>
<path d="M281.13 588.83V779.4" stroke="black" stroke-width="3" stroke-miterlimit="10"/>
<path d="M210.98 686.46H350.93" stroke="black" stroke-width="3" stroke-miterlimit="10"/>
</svg>
