<svg width="828" height="1349" viewBox="0 0 828 1349" fill="none" xmlns="http://www.w3.org/2000/svg">
<path d="M797.788 296.684C797.788 304.044 797.788 310.664 797.788 317.284C797.788 357.254 798.048 397.234 797.638 437.204C797.508 450.204 798.158 462.514 808.458 472.714C804.888 475.744 801.978 478.214 797.788 481.764V502.504C797.788 543.814 797.788 585.114 797.788 626.424C797.788 639.91 800.342 652.017 805.448 662.744C800.758 666.394 797.558 670.544 797.688 677.334C798.088 698.644 797.788 719.974 797.788 741.294C797.788 783.264 797.788 825.244 797.788 867.214C797.788 882.747 801.942 896.48 810.248 908.414C806.848 910.014 802.488 910.734 800.618 913.284C798.518 916.154 798.198 920.634 797.928 924.474C797.508 930.444 797.778 936.454 797.778 942.454C797.778 1069.03 797.808 1195.62 797.708 1322.2C797.708 1330.06 799.218 1338.19 795.118 1346.39C791.538 1347.03 787.698 1348.06 783.808 1348.33C778.498 1348.69 773.148 1348.49 767.818 1348.49C534.578 1348.49 301.338 1348.51 68.0882 1348.44C59.5382 1348.44 50.8082 1349.66 42.8782 1346.68C38.1782 1340.15 39.7082 1333.29 39.6882 1326.81C39.5382 1291.5 39.6182 1256.19 39.6182 1220.88C39.6182 1126.27 39.6182 1031.67 39.6082 937.064C39.6082 931.074 40.2282 924.924 39.1182 919.134C38.3382 915.104 35.0882 911.544 32.3482 906.734C37.9482 900.964 39.8482 892.474 39.7982 882.634C39.4482 816.014 39.6282 749.384 39.5782 682.764C39.5782 678.144 39.1082 673.524 38.8282 668.404C35.1182 666.804 31.5982 665.284 28.1482 663.804C28.1482 662.524 27.6182 660.624 28.2282 660.124C38.5682 651.624 39.9082 640.364 39.7782 627.844C39.3482 585.214 39.6182 542.564 39.6082 499.924C39.6082 496.594 39.5182 493.264 39.5682 489.934C39.6882 482.824 38.9482 476.244 28.9982 475.494C33.0182 468.284 37.2082 463.024 38.9182 457.054C40.5182 451.484 39.5782 445.164 39.5882 439.164C39.6182 399.194 39.6582 359.214 39.5582 319.244C39.5382 312.024 40.6582 304.594 37.3282 297.254C32.5782 295.074 27.3582 293.474 23.0782 290.514C17.1382 286.414 10.7582 282.144 6.56815 276.474C-6.71184 258.524 0.988153 235.044 22.0882 227.814C31.6482 224.544 41.4882 224.284 51.6682 225.574C83.7382 229.624 115.528 227.714 146.718 218.844C185.088 207.924 217.518 188.184 240.028 154.374C250.358 138.864 260.308 123.084 270.108 107.234C278.508 93.6438 286.298 79.6638 294.628 66.0338C318.508 26.9938 353.018 5.10376 398.878 0.953762C425.798 -1.48624 452.138 0.603762 477.818 8.98376C505.838 18.1338 529.038 34.8138 547.178 57.7138C559.548 73.3238 570.408 90.1838 581.128 107.014C591.848 123.854 601.348 141.484 611.758 158.524C621.888 175.104 634.388 189.664 649.008 202.614C670.638 221.794 695.728 230.384 724.288 228.954C738.248 228.254 752.218 227.034 766.058 225.124C776.868 223.634 787.438 223.754 797.628 227.284C803.798 229.424 810.148 232.304 815.128 236.414C833.388 251.444 831.858 275.564 812.218 288.764C808.388 291.334 804.118 293.244 797.788 296.684ZM71.9282 239.064C63.9682 238.434 56.0082 237.554 48.0282 237.264C42.0882 237.054 36.0482 237.054 30.1982 237.944C21.7882 239.224 15.1482 243.584 12.7682 252.284C10.4182 260.854 13.4982 268.154 19.7382 273.934C28.9882 282.504 39.9782 286.554 52.6982 284.724C76.4082 281.304 100.278 278.694 123.748 274.054C153.198 268.234 181.648 258.864 208.358 244.724C238.468 228.774 263.088 207.114 280.168 177.294C289.428 161.124 298.788 144.994 308.498 129.084C315.428 117.724 322.628 106.504 330.358 95.6838C351.468 66.1438 380.298 50.4638 416.668 49.0038C445.068 47.8638 471.048 54.7138 492.158 74.4638C501.808 83.5038 510.608 93.7238 518.378 104.434C527.728 117.344 535.798 131.204 543.988 144.914C553.208 160.344 561.758 176.164 570.938 191.614C595.568 233.094 631.408 259.984 677.738 273.114C714.058 283.404 751.248 284.684 788.638 283.814C795.458 283.654 801.818 281.744 807.358 277.714C816.938 270.764 818.658 259.174 811.568 249.654C807.458 244.134 801.928 240.484 795.328 238.664C786.918 236.354 778.448 235.404 769.648 236.614C757.778 238.244 745.828 239.304 733.898 240.434C698.268 243.784 666.828 234.464 639.828 210.314C624.258 196.394 611.288 180.504 600.508 162.794C589.778 145.174 579.598 127.214 569.108 109.444C558.938 92.2138 547.968 75.5438 534.508 60.6438C518.148 42.5338 498.948 28.4738 475.678 20.6738C442.628 9.59376 409.078 8.80376 375.268 17.0638C349.548 23.3538 329.068 37.7138 314.048 59.1238C302.978 74.8938 293.648 91.8638 283.308 108.154C270.828 127.804 258.628 147.674 245.348 166.784C226.108 194.474 199.278 212.504 168.048 224.384C137.068 236.164 104.968 240.514 71.9482 239.074L71.9282 239.064Z" fill="black"/>
<path d="M71.9281 239.064C104.948 240.504 137.038 236.154 168.028 224.374C199.268 212.494 226.088 194.464 245.328 166.774C258.608 147.664 270.808 127.804 283.288 108.144C293.628 91.8538 302.958 74.8838 314.028 59.1138C329.058 37.7038 349.538 23.3438 375.248 17.0538C409.058 8.79378 442.608 9.58378 475.658 20.6638C498.928 28.4638 518.118 42.5238 534.488 60.6338C547.948 75.5338 558.918 92.2038 569.088 109.434C579.578 127.204 589.758 145.164 600.488 162.784C611.268 180.494 624.238 196.374 639.808 210.304C666.808 234.444 698.248 243.764 733.878 240.424C745.808 239.304 757.758 238.244 769.628 236.604C778.428 235.394 786.898 236.334 795.308 238.654C801.918 240.474 807.438 244.124 811.548 249.644C818.638 259.164 816.918 270.754 807.338 277.704C801.798 281.724 795.438 283.644 788.618 283.804C751.228 284.664 714.038 283.394 677.718 273.104C631.388 259.974 595.548 233.084 570.918 191.604C561.738 176.154 553.198 160.324 543.968 144.904C535.778 131.194 527.708 117.334 518.358 104.424C510.598 93.7138 501.798 83.4838 492.138 74.4538C471.028 54.7038 445.048 47.8538 416.648 48.9938C380.268 50.4538 351.438 66.1338 330.338 95.6738C322.608 106.494 315.408 117.724 308.478 129.074C298.768 144.984 289.408 161.114 280.148 177.284C263.068 207.104 238.458 228.764 208.338 244.714C181.628 258.864 153.178 268.224 123.728 274.044C100.258 278.684 76.3881 281.294 52.6781 284.714C39.9581 286.554 28.9681 282.504 19.7181 273.924C13.4781 268.144 10.3881 260.844 12.7481 252.274C15.1381 243.584 21.7781 239.214 30.1781 237.934C36.0281 237.044 42.0781 237.034 48.0081 237.254C55.9881 237.544 63.9381 238.424 71.9081 239.054L71.9281 239.064Z" fill="#7F7F7F"/>
<path d="M671.678 503.604H562.998C560.049 503.604 557.658 505.995 557.658 508.944V608.104C557.658 611.053 560.049 613.444 562.998 613.444H671.678C674.627 613.444 677.018 611.053 677.018 608.104V508.944C677.018 505.995 674.627 503.604 671.678 503.604Z" fill="#F9EA3E"/>
<path d="M671.678 321.534H562.998C560.049 321.534 557.658 323.924 557.658 326.874V426.034C557.658 428.983 560.049 431.374 562.998 431.374H671.678C674.627 431.374 677.018 428.983 677.018 426.034V326.874C677.018 323.924 674.627 321.534 671.678 321.534Z" fill="#F9EA3E"/>
<path d="M465.797 503.604H357.117C354.168 503.604 351.777 505.995 351.777 508.944V608.104C351.777 611.053 354.168 613.444 357.117 613.444H465.797C468.747 613.444 471.137 611.053 471.137 608.104V508.944C471.137 505.995 468.747 503.604 465.797 503.604Z" fill="#F9EA3E"/>
<path d="M465.797 321.724H357.117C354.168 321.724 351.777 324.115 351.777 327.064V426.224C351.777 429.173 354.168 431.564 357.117 431.564H465.797C468.747 431.564 471.137 429.173 471.137 426.224V327.064C471.137 324.115 468.747 321.724 465.797 321.724Z" fill="#F9EA3E"/>
<path d="M273.618 321.724H164.938C161.988 321.724 159.598 324.115 159.598 327.064V426.224C159.598 429.173 161.988 431.564 164.938 431.564H273.618C276.567 431.564 278.958 429.173 278.958 426.224V327.064C278.958 324.115 276.567 321.724 273.618 321.724Z" fill="#F9EA3E"/>
<path d="M671.678 692.404H562.998C560.049 692.404 557.658 694.795 557.658 697.744V862.714C557.658 865.663 560.049 868.054 562.998 868.054H671.678C674.627 868.054 677.018 865.663 677.018 862.714V697.744C677.018 694.795 674.627 692.404 671.678 692.404Z" fill="#F9EA3E"/>
<path d="M465.797 692.714H357.117C354.168 692.714 351.777 695.105 351.777 698.054V863.024C351.777 865.973 354.168 868.364 357.117 868.364H465.797C468.747 868.364 471.137 865.973 471.137 863.024V698.054C471.137 695.105 468.747 692.714 465.797 692.714Z" fill="#F9EA3E"/>
<path d="M273.618 503.604H164.938C161.988 503.604 159.598 505.995 159.598 508.944V608.104C159.598 611.053 161.988 613.444 164.938 613.444H273.618C276.567 613.444 278.958 611.053 278.958 608.104V508.944C278.958 505.995 276.567 503.604 273.618 503.604Z" fill="#F9EA3E"/>
<path d="M273.618 692.714H164.938C161.988 692.714 159.598 695.105 159.598 698.054V863.024C159.598 865.973 161.988 868.364 164.938 868.364H273.618C276.567 868.364 278.958 865.973 278.958 863.024V698.054C278.958 695.105 276.567 692.714 273.618 692.714Z" fill="#F9EA3E"/>
<path d="M275.638 1210.12H156.788C153.838 1210.12 151.448 1207.73 151.448 1204.78V1005.35C151.448 1002.4 153.838 1000.01 156.788 1000.01L216.218 985.434L275.648 1000.01C278.598 1000.01 280.988 1002.4 280.988 1005.35V1204.78C280.988 1207.73 278.598 1210.12 275.648 1210.12H275.638Z" fill="#F9EA3E"/>
<path d="M678.438 1210.12H559.588C556.638 1210.12 554.248 1207.73 554.248 1204.78V1005.35C554.248 1002.4 556.638 1000.01 559.588 1000.01L619.018 985.434L678.448 1000.01C681.398 1000.01 683.788 1002.4 683.788 1005.35V1204.78C683.788 1207.73 681.398 1210.12 678.448 1210.12H678.438Z" fill="#F9EA3E"/>
<path d="M486.348 1301.25H360.378C359.533 1301.25 358.848 1301.94 358.848 1302.78V1310.41C358.848 1311.26 359.533 1311.94 360.378 1311.94H486.348C487.193 1311.94 487.878 1311.26 487.878 1310.41V1302.78C487.878 1301.94 487.193 1301.25 486.348 1301.25Z" fill="#7F7F7F"/>
<path d="M480.568 1057.51H367.478C363.076 1057.51 359.508 1061.08 359.508 1065.48V1280.8C359.508 1285.21 363.076 1288.77 367.478 1288.77H480.568C484.97 1288.77 488.538 1285.21 488.538 1280.8V1065.48C488.538 1061.08 484.97 1057.51 480.568 1057.51Z" fill="#7F7F7F"/>
<path d="M421.447 262.854C452.541 262.854 477.747 237.648 477.747 206.554C477.747 175.46 452.541 150.254 421.447 150.254C390.354 150.254 365.147 175.46 365.147 206.554C365.147 237.648 390.354 262.854 421.447 262.854Z" fill="#F9EA3E"/>
<path d="M219.277 503.604V613.444" stroke="black" stroke-width="5" stroke-miterlimit="10"/>
<path d="M292.558 558.524H147.158" stroke="black" stroke-width="5" stroke-miterlimit="10"/>
<path d="M410.888 503.604V613.444" stroke="black" stroke-width="5" stroke-miterlimit="10"/>
<path d="M484.168 558.524H338.758" stroke="black" stroke-width="5" stroke-miterlimit="10"/>
<path d="M618.438 503.604V613.444" stroke="black" stroke-width="5" stroke-miterlimit="10"/>
<path d="M691.717 558.524H546.317" stroke="black" stroke-width="5" stroke-miterlimit="10"/>
<path d="M618.438 316.474V431.564" stroke="black" stroke-width="5" stroke-miterlimit="10"/>
<path d="M691.717 376.644H546.317" stroke="black" stroke-width="5" stroke-miterlimit="10"/>
<path d="M413.368 316.474V431.564" stroke="black" stroke-width="5" stroke-miterlimit="10"/>
<path d="M486.648 376.644H341.238" stroke="black" stroke-width="5" stroke-miterlimit="10"/>
<path d="M219.277 316.474V431.564" stroke="black" stroke-width="5" stroke-miterlimit="10"/>
<path d="M292.558 376.644H147.158" stroke="black" stroke-width="5" stroke-miterlimit="10"/>
<path d="M219.277 681.924V883.394" stroke="black" stroke-width="5" stroke-miterlimit="10"/>
<path d="M292.558 782.854H147.158" stroke="black" stroke-width="5" stroke-miterlimit="10"/>
<path d="M411.458 674.354V889.184" stroke="black" stroke-width="5" stroke-miterlimit="10"/>
<path d="M484.738 782.854H339.338" stroke="black" stroke-width="5" stroke-miterlimit="10"/>
<path d="M618.438 674.354V876.684" stroke="black" stroke-width="5" stroke-miterlimit="10"/>
<path d="M691.717 782.854H546.317" stroke="black" stroke-width="5" stroke-miterlimit="10"/>
<path d="M618.438 967.804V1242.97" stroke="black" stroke-width="5" stroke-miterlimit="10"/>
<path d="M691.717 1100.39H546.317" stroke="black" stroke-width="5" stroke-miterlimit="10"/>
<path d="M215.638 958.794V1229.84" stroke="black" stroke-width="5" stroke-miterlimit="10"/>
<path d="M288.918 1100.39H143.518" stroke="black" stroke-width="5" stroke-miterlimit="10"/>
</svg>
