<?xml version="1.0" encoding="UTF-8"?><svg id="Layer_1" xmlns="http://www.w3.org/2000/svg" viewBox="0 0 178.78 410.65"><path d="M145.42,108.13v-37.86h-26.01v-31.94h-20.65V15.48h-18.74v22.85h-20.65v31.94h-26.01v37.86h-14.55V395.17H159.97V108.13h-14.55ZM62.18,362.65h-16.56v-36.67h16.56v36.67Zm0-57.96h-16.56v-36.67h16.56v36.67Zm0-61.51h-16.56v-36.67h16.56v36.67Zm0-60.32h-16.56v-36.67h16.56v36.67Zm35.49,179.79h-16.56v-36.67h16.56v36.67Zm0-57.96h-16.56v-36.67h16.56v36.67Zm0-61.51h-16.56v-36.67h16.56v36.67Zm0-60.32h-16.56v-36.67h16.56v36.67Zm1.18-62.1h-16.56v-36.67h16.56v36.67Zm34.3,241.89h-16.56v-36.67h16.56v36.67Zm0-57.96h-16.56v-36.67h16.56v36.67Zm0-61.51h-16.56v-36.67h16.56v36.67Zm0-60.32h-16.56v-36.67h16.56v36.67Z"/></svg>