<?xml version="1.0" encoding="UTF-8"?><svg id="Layer_1" xmlns="http://www.w3.org/2000/svg" viewBox="0 0 178.78 410.65"><path d="M144.4,112.29L99.46,47.67V12.69h-20.14V46.03L34.69,112.29H13.52V397.95H165.26V112.29h-20.87ZM60.14,323.59h-17.8v-39.42h17.8v39.42Zm0-66.12h-17.8v-39.42h17.8v39.42Zm11.44-79.47h-17.8v-39.42h17.8v39.42Zm26.7,145.59h-17.8v-39.42h17.8v39.42Zm0-66.12h-17.8v-39.42h17.8v39.42Zm0-79.47h-17.8v-39.42h17.8v39.42Zm8.9-39.42h17.8v39.42h-17.8v-39.42Zm29.24,185h-17.8v-39.42h17.8v39.42Zm0-66.12h-17.8v-39.42h17.8v39.42Z"/></svg>