<?xml version="1.0" encoding="UTF-8"?><svg id="Layer_1" xmlns="http://www.w3.org/2000/svg" viewBox="0 0 178.78 410.65"><path d="M144.23,92.82c-6.78,0-12.32,5.51-12.32,12.33,0,.5,.03,1.01,.1,1.48h-9.4V40.57h-24.72v-12.76c0-2.45-1.01-4.67-2.62-6.25-1.61-1.61-3.83-2.62-6.25-2.62-4.9,0-8.9,4-8.9,8.87v12.76h-24.68V106.62h-8.7c.07-.47,.1-.97,.1-1.48,0-6.82-5.51-12.33-12.32-12.33s-12.29,5.51-12.29,12.33c0,.5,.03,1.01,.1,1.48h-.1V391.71H115.13v-47.01h22.39v47.01h18.3V109.28c.5-1.28,.74-2.69,.74-4.13,0-6.82-5.54-12.33-12.32-12.33ZM59.78,374.72h-17.79v-28.49h17.79v28.49Zm0-47.02h-17.79v-28.49h17.79v28.49Zm0-48.14h-17.79v-28.49h17.79v28.49Zm0-48.14h-17.79v-28.49h17.79v28.49Zm0-46.87h-17.79v-28.49h17.79v28.49Zm38.12,190.15h-17.79v-28.49h17.79v28.49Zm0-47.02h-17.79v-28.49h17.79v28.49Zm0-48.14h-17.79v-28.49h17.79v28.49Zm0-48.14h-17.79v-28.49h17.79v28.49Zm0-46.87h-17.79v-28.49h17.79v28.49Zm.06-65.99h-15.67v-34.7h15.67v34.7Zm38.06,209.13h-17.79v-28.49h17.79v28.49Zm0-48.14h-17.79v-28.49h17.79v28.49Zm0-48.14h-17.79v-28.49h17.79v28.49Zm0-46.87h-17.79v-28.49h17.79v28.49Z"/></svg>