<?xml version="1.0" encoding="UTF-8"?><svg id="Layer_1" xmlns="http://www.w3.org/2000/svg" viewBox="0 0 567.5 341.02"><defs><style>.cls-1{fill:#fff;}.cls-2{fill:#2d2d2d;}</style></defs><path class="cls-2" d="M19.78,99.22c3.56-3.66,7.09-7.36,10.73-10.96,.65-.65,1.7-.98,2.63-1.25,14.92-4.36,28.3-.97,39.12,9.69,3.15,3.1,4.05,9.21,4.53,14.09,.45,4.55-2.58,6.98-7.66,4.89,1.78,5.32,3.6,6.95,10.89,10.35,1.02,2.75,1.86,5,2.7,7.26,1.43-1.39,2.86-2.78,5.03-4.88,6.88,2.27,9.27-3.67,12.18-9.2,4.23-8.06,8.72-15.98,14.1-23.47-5.1,10.39-10.2,20.77-15.42,31.42,5.05,1.86,8.28,1.14,10.43-3.68,1.75-3.92,4.2-7.52,7.26-10.83-2.79,5.59-5.59,11.18-8.91,17.81,3.58,.95,6.6,2.34,9.68,2.47,8.29,.33,16.61,.11,24.92,.11,.18-.42,.36-.84,.55-1.25-3.79-1.98-7.49-4.19-11.41-5.86-2.57-1.1-3.68-2.52-3.31-5.26,.81-5.91,1.54-11.83,2.34-18.07,1.82,.26,3.05,.43,5.99,.84-1.45-2.63-2.04-4.72-3.4-5.93-2.93-2.61-7.23-4.15-9.23-7.25-5.32-8.21-8.13-17.44-7.42-27.43,.45-6.38,4.1-8.25,9.34-4.64,4.09,2.81,7.95,5.97,12.27,9.25,3.01-4.7,5.69-9.05,8.54-13.27,1.49-2.2,3.26-4.2,4.97-6.24,1.87-2.22,3.88-3.3,6.92-1.68,3.14,1.67,3.44,4.07,3.02,7.12-.84,6.09-1.46,12.21-2.3,18.3-.6,4.31,1.4,6.28,5.4,7.37,4.8,1.31,9.63,2.8,14.14,4.88,20.5,9.42,42.01,4.86,63.13,4.6,23.84-.3,47.43-3.44,70.79-8.31,2.4-.5,5.64,.55,7.83,1.94,23.07,14.55,45.99,29.33,68.97,44.01,3.65,2.33,7.33,4.61,11.15,6.64,5.63,3,11.35,3.25,17.02-.07-.92-2.66,.45-6.01,4.12-10.06-5.25-5.2-7.73-11.59-7.49-19.18,.06-1.79-1.81-3.73-3.01-5.44-1.91-2.73-4.65-5.12-.27-8.23,1.45-1.03,2.6-3.17,2.87-4.95,.17-1.14-1.3-3.32-2.46-3.69-2.97-.96-6.26-.93-9.28-1.78-1.26-.36-2.17-1.97-3.54-3.29,6.48-3.14,12.88,4.45,18.24-2.35,7.3,2.69,15.2,5.6,23.1,8.5,.05,.33,.1,.65,.15,.98-2.66,.21-5.32,.42-9.11,.72,6.99,6.56,5.5,14.46,5.28,21.91-.16,5.33,.76,9.51,6.48,11.89,3.39-2.68,7.38-5.38,10.69-8.74,.89-.91,.07-3.91-.51-5.78-1.61-5.22,1.82-10.99,7.19-11.68-.2-.42-.41-.85-.61-1.27,1.7-.91,3.52-1.65,5.04-2.79,1.26-.95,2.16-2.38,4.11-4.62,3.66,2.89,7.67,6.05,11.28,8.9,12.03-6.13,24.11-12.28,37.05-18.88-3.05-1.06-5.54-2.25-8.16-2.76-5.11-.99-6.96-3.9-5.49-8.83,.54-1.8,.42-3.79,.66-6.42,2.53-.44,5.57-.98,8.76-1.54-1.81-4.28-11.11,1.95-8.27-6.93-6.09-3.15-6.68-3.78-1.82-8.7,4.97-5.03,3.49-11.9,6.72-17.29,3-5,4.65-10.92,8.13-15.5,2.01-2.65,6.42-4.72,9.83-4.85,13.53-.51,26.79,.99,36.13,12.56,2.08,2.57,3.71,6.11,4.06,9.36,1.21,11.25-.64,21.77-8.59,30.69-2.59,2.9-4.02,6.84-5.97,10.3,.51-.04,1.02-.09,1.53-.13,.97,3.97,1.88,7.96,2.94,11.91,1.45,5.44,2.39,11.12,4.65,16.21,6.02,13.58,7.45,27.19,1.75,41.09-1.42,3.46-3.79,6.54-5.75,9.77-1.88,3.09-4.98,5.99-5.46,9.27-1.35,9.22-6.55,16.37-11.54,23.52-5.21,7.48-10.83,14.9-17.48,21.04-2.97,2.75-9.53,4.21-13.35,2.93-9.85-3.3-14.81,.71-19.85,8.41-11.28,17.26-23.36,34.01-34.95,51.08-4.27,6.28-4.78,6.48-12.03,1.33v-10.92c-5.27,3.99-9.4,7.57-14.96,4.19-.75,2.49-1.08,4.3-1.82,5.93-1.25,2.74-2.51,4.8-5.12,.67-.73-1.15-3.63-.92-5.97-1.41-.02-.08-.21-.98-.49-2.27-1.03,.85-1.85,1.51-3.02,2.48-.41-1.15-.75-2.11-1.01-2.85-3.78-.57-7.46-1.13-11.55-1.75-.55,5.58-2.14,10.42,5.21,11.15,1.44,.14,2.69,2.13,3.72,4.34h-9.28c1.03,4.57,3.41,5.96,7.34,6.38,17.26,1.81,31.56,10.72,45.98,19.46,9.79,5.94,19.76,11.77,31.91,11.67,4.33-.04,6.76,2.4,6.14,7.13-.21,1.64-.17,3.33-.15,5,.05,3.56,.59,7.29-5.09,6.7-.94-.1-2.07,1.59-3.17,2.51,4.86,4.01,5.77,7.31,2.89,10.11-2.52,2.46-5.43,1.9-7.53-.36-3.29-3.53-1.69-6.65,2.65-9.77-2.12-1.06-3.76-2.63-5.23-2.5-13.61,1.25-25.45-3.8-37.09-9.83-10.96-5.68-22.73-8.12-35.73-8.72v17.34c-2.95,1.57-5.04,2.68-7.78,4.14,3.98,2.6,7.07,5.33,3.52,9.36-2.21,2.51-5.57,2.86-7.97,.19-3.56-3.95-.08-6.55,3.09-9.7-2.49-1.32-4.66-2.48-7.69-4.09,0-3.13-.35-7.3,.09-11.37,.54-4.96-1.66-5.83-5.99-5.64-12.17,.55-23.58,3.86-34.61,8.78-4.25,1.89-8.71,3.41-12.76,5.66-6.08,3.37-12.5,4.18-19.27,4.15-2.12,0-4.25,1.29-7.09,2.22,5.34,4.11,6.18,7.68,3.29,10.64-2.42,2.47-5.07,2.36-7.53,.14-2.93-2.64-2.26-6.27,2.4-10.27-2.27-1.01-4.23-2.66-6.05-2.52-3.57,.28-4.18-1.05-4.22-4.2-.15-12.85-.25-12.96,12.44-14.31,12.36-1.32,21.84-8.34,31.42-15.31,12.5-9.08,26.62-14.34,41.79-16.57,3.99-.59,7.15-1.23,8.83-5.91h-10.15c-.2-.55-.4-1.1-.61-1.64,2.28-1.23,4.61-2.38,6.84-3.71,1.46-.88,3.98-2.1,3.92-3.01-.22-3.01-.48-7.39-2.41-8.63-4.68-3.02-7.53-6.64-10.35-11.46-1.87-3.21-8.06-3.96-12.43-5.5-.26-.09-1.32,2.75-2.33,3.96-.86,1.04-2.17,1.72-3.28,2.56-.22-1.39-.51-2.78-.64-4.18-.04-.44,.37-.91,.56-1.37,3.66-9.06,1.98-17-5.04-23.83-3.88-3.74-8.03-7.2-12.4-11.1,.53-1.68,1.15-3.67,1.93-6.17-25.54-8.26-50.94-16.47-77.44-25.04v7.09c.07,43.01,.21,86.03,.17,129.04,0,9.66-.8,19.32-.88,28.99-.03,4.33-2.53,4.08-5.52,4.25-3.22,.19-4.48-.9-4.51-4.18-.04-3.47-.64-6.93-1.04-10.73h-42.72c-.5,4.99-.98,9.72-1.49,14.84h-11.62c-.58-4.5-1.19-9.19-1.85-14.27H22.47c-.48,4.97-.96,10.02-1.49,15.53-3.58,0-6.89,.27-10.12-.16-1-.13-2.37-2.12-2.5-3.37-.64-6.46-1.25-12.95-1.27-19.43-.12-36.51-.06-73.02-.12-109.54,0-2.13-.09-4.43-.87-6.35C.12,187.23-.64,171.75,.38,156.24c.64-9.73,2.95-19.35,4.61-29.01,.18-1.07,.97-2.04,1.47-3.05-4.12,17.06-5.99,34.33-4.27,51.85,.62,6.31,1.84,12.56,2.78,18.84l1.5-.27v-60.16c3.27-.41,7.58,.28,9.06-1.45,1.75-2.05,1.06-6.18,1.44-9.54,6.5-1.44,10.05-6.11,13.64-11.49-9.35-2.35-9.31-2.35-8.92-10.97,.03-.57-1.24-1.19-1.91-1.79v.02h0Zm348.98,115.55c-.39,.58-.78,1.17-1.16,1.75,6.17,4.35,12.33,8.71,18.53,13.01,.48,.33,1.28,.5,1.85,.38,6.3-1.42,11.16,2.41,15.6,5.4,5.18,3.49,16.55,7.5,23.88,5.63-20.15-8.98-39.42-17.57-58.7-26.17Zm-205.53-82.05c-6.78-3.76-9.97-3.55-12.46,0h12.46Zm209.74,101.1c-2.94-2.62-5.27-4.71-7.75-6.92-2.04,4.78-.53,6.15,7.75,6.92Z"/><path class="cls-1" d="M163.23,132.72h-12.46c2.49-3.55,5.69-3.76,12.46,0Z"/><path class="cls-1" d="M372.97,233.82c-8.28-.77-9.79-2.13-7.75-6.92,2.48,2.21,4.81,4.29,7.75,6.92Z"/></svg>