<?xml version="1.0" encoding="UTF-8"?><svg id="Layer_1" xmlns="http://www.w3.org/2000/svg" viewBox="0 0 214.81 294"><polygon points="138.47 151.8 137.31 151.8 138.33 150.77 138.47 151.8"/><path d="M73.75,147.7c.09,.23,.21,.45,.35,.68l-.52-.51,.17-.17Z"/><path d="M74.49,149.8l.25-.25c.04,.09,.09,.17,.15,.25h-.4Z"/><path d="M75,149.29l-.25,.25c-.23-.37-.45-.77-.65-1.16l.91,.91Z"/><path d="M136.54,130.65c.03,.39,.04,.77,.05,1.18l-1.18-1.18h1.12Z"/><polygon points="138.47 151.8 137.31 151.8 138.33 150.77 138.47 151.8"/><path d="M74.09,148.38l.91,.91-.25,.25c-.23-.37-.45-.77-.65-1.16Z"/><path d="M136.6,131.83l-1.18-1.18h1.12c.03,.39,.04,.77,.05,1.18Z"/><g><g><path d="M73.75,147.7c.09,.23,.21,.45,.35,.68l-.52-.51,.17-.17Z"/><path d="M74.75,149.54c.04,.09,.09,.17,.15,.25h-.4l.25-.25Z"/><path d="M75,149.29l-.25,.25c-.23-.37-.45-.77-.65-1.16l.91,.91Z"/><path d="M75,149.29l-.25,.25c-.23-.37-.45-.77-.65-1.16l.91,.91Z"/></g><polygon points="138.47 151.8 137.31 151.8 138.33 150.77 138.47 151.8"/></g><path d="M148.21,130.65h-11.66c.03,.39,.04,.77,.05,1.18l-1.18-1.18h1.12c-.72-12.09-7.89-22.43-18.11-27.64l22.82-22.82,13.17,13.18,52.75-52.77-13.17-13.17,.31-.31-5.7-5.7L109.96,100.08c-2.12-.43-4.33-.65-6.59-.65-3.22,0-6.32,.45-9.26,1.32l-20.55-20.55,13.18-13.18L33.99,14.26l-13.17,13.18-.31-.31-5.7,5.69L86.18,104.2c-9.07,5.5-15.31,15.23-15.98,26.45h-11.65v5.86L7.63,187.44l13.18,13.18-.31,.31,5.69,5.69,40.16-40.16-14.85,113.27h103.74l-13.81-105.32,39.38,39.38,13.18-13.17,.31,.31,5.69-5.7-51.79-51.79v-12.78Zm-73.31,19.14h-.4l.25-.25c-.23-.37-.45-.77-.65-1.16l-.52-.51,.17-.17c.09,.23,.21,.45,.35,.68l.91,.91-.25,.25c.04,.09,.09,.17,.15,.25Zm9.34,27.19h10.07v18.13h-10.07v-18.13Zm0,30.55h10.07v18.13h-10.07v-18.13Zm29.72,72.19h-21.15v-32.23h21.15v32.23Zm8.56-54.06h-10.07v-18.13h10.07v18.13Zm0-30.55h-10.07v-18.13h10.07v18.13Zm14.79-43.32l1.03-1.03,.13,1.03h-1.16Z"/></svg>