<svg width="926" height="445" viewBox="0 0 926 445" fill="none" xmlns="http://www.w3.org/2000/svg">
<path d="M917 145.03H926L925 444.03H0V226.53L1 223.03C2.09 218.98 6.77 216.2 9.51 213.04C15.7 205.93 14.72 207.5 14.72 207.5L14.99 202.02V160.02H11.99V157.02H29.99V159.77H26.97L26.55 187.72C32.81 177.57 30.63 163.78 36.45 152.96C48.33 130.86 54.89 172.67 56.74 178.77C61.98 196.05 72.75 210.09 86 222.01V149.16L100.49 149C109.58 128.74 141.38 97.43 137.99 77H142.01L142 71H151.01L151.04 76.97H155.44C151.3 94.55 190.56 140.43 190.97 148.91L208.28 149.62L208.08 130.5L218.2 129.93L237.69 45.45L305.12 45.97L324.27 128.82C325.28 132.24 334.22 129.64 335.08 130.51L334.99 146.02H340V125.01L350.9 124.91C358.93 93.24 395.43 64.25 395.89 36.91L394.45 36.94L394.5 28.41C401.95 29.58 400.62 18.57 405.59 13.1C410.33 5.82998 419.01 8.38998 418.56 -0.0200195L425 -1.95317e-05C424.3 6.42998 432.46 5.30998 436 12.05C442.21 17.63 441.93 29.49 448.08 28.16L448.13 35.88H447.17C447.43 61.41 473.87 86.49 485.16 108.34C492.76 123.76 486.32 125.89 502.99 125.01V146.01H506.99L506.88 101.5C506.88 101.24 509.52 102.03 511.34 99.45C514.01 95.66 526.71 67.96 528.11 63.22C529.22 59.46 528.94 56.3 528.88 52.49H538.89V29.49H557.89V52.49H569.9L570.38 38.48L597.3 24.48L623.97 38.91L624.89 52.49H664.89C664.76 55.98 664.65 58.79 665.67 62.21C666.62 65.43 681.65 98.31 683 99.89C684.79 102 686.9 101.27 686.9 101.48L687.01 148.99H699.9V128.89L712.9 128.67V107.89H724.9V87.89H737.9L737.97 67.89H773.9V87.89L788 88.21L787.89 107.9L799.46 108.2L799.56 128.57L812.9 128.89V149.06H827.4L829.62 145.11L837.01 145V157.01C847.09 159.43 846.97 150.89 853.51 146C863.48 140.55 861 144.42 864.14 133.63C866.49 129.33 873.54 127.36 873.85 126.84C874.87 125.14 872.54 117.68 877.49 117C880.97 118.54 879.43 126.11 880.11 126.9C887.51 128.96 891.39 134.16 892.07 141.94C914.3 148.14 905.99 159.76 917.05 157.3" fill="black"/>
</svg>
