<svg width="414" height="452" viewBox="0 0 414 452" fill="none" xmlns="http://www.w3.org/2000/svg">
<path d="M412.08 233.879C411 231.919 406.69 228.079 406.69 228.079C406.69 228.079 408.9 226.089 406.03 222.999C403.16 219.909 405.81 218.359 405.81 218.359C407.58 214.609 402.28 212.619 402.28 212.619C405.81 209.089 402.94 207.099 402.94 207.099C404.49 204.229 400.29 201.799 400.29 201.799C401.83 197.829 396.98 195.179 393.67 190.319C390.36 185.459 391.02 169.349 389.26 166.699C387.5 164.049 383.96 156.989 381.98 152.569C379.99 148.159 364.76 113.499 362.12 109.529C359.47 105.559 344.24 98.0492 345.34 96.9492C346.44 95.8492 342.91 92.3092 342.91 92.3092C342.91 92.3092 341.81 88.3392 338.49 85.0292C335.18 81.7192 328.56 87.4592 327.23 82.3792C325.91 77.2992 321.49 75.9792 321.49 75.9792L323.48 70.0192C326.13 70.4592 327.89 58.5392 329.88 52.5792C331.87 46.6192 327.45 49.9292 327.45 49.9292C327.45 49.9292 327.45 34.6992 325.46 23.6592C323.47 12.6192 313.1 6.21922 313.1 6.21922L316.41 5.55922C312.66 2.24922 301.18 2.90922 301.18 2.90922C295.88 -0.180778 288.6 1.36922 288.6 1.36922L292.35 2.46922C279.99 1.80922 272.48 9.30922 272.48 9.30922L275.79 8.64922C255.48 24.3192 264.75 61.3992 264.75 61.3992L266.07 58.5292C266.73 61.1792 271.37 75.9692 271.37 75.9692C268.72 73.5392 263.87 80.6092 261.44 83.2592C259.01 85.9092 257.91 87.4492 254.82 90.5392C251.73 93.6292 254.16 94.9592 254.16 94.9592C254.16 94.9592 245.99 100.919 243.79 104.669C241.58 108.419 238.27 115.039 238.27 115.039C228.34 136.229 224.36 145.279 223.48 147.709C222.6 150.139 220.61 154.329 219.73 158.749C218.85 163.159 222.6 163.389 220.39 167.799C218.18 172.209 214.43 180.819 212.44 189.649C210.45 198.479 212.88 196.709 212.88 196.709C212.88 196.709 212.88 202.229 212.66 204.209C212.44 206.199 212.88 207.519 212.88 207.519C207.58 216.129 204.27 224.069 204.27 226.279C204.27 228.489 206.04 227.599 206.04 227.599C206.92 230.909 210.67 227.379 210.67 227.379C213.98 230.029 216.19 222.959 216.19 222.959C219.06 226.489 224.8 220.089 224.8 216.999C224.8 213.909 229.88 209.939 229.88 209.939C229.88 209.939 228.78 220.089 233.19 218.549C237.6 216.999 238.71 212.149 238.71 212.149C238.71 212.149 243.12 208.619 244.67 204.869C246.21 201.119 246.43 198.469 248.2 194.939C249.96 191.409 247.54 188.539 250.19 185.889C252.84 183.239 254.61 176.179 253.72 174.189C252.84 172.199 253.94 166.459 254.6 163.809C255.49 160.249 254.29 161.699 255.62 157.369C256.28 162.889 254.6 175.949 254.15 180.359C253.71 184.769 251.5 186.979 251.5 190.289C251.5 193.599 250.62 198.019 248.85 203.749C247.08 209.489 249.07 213.899 249.07 213.899C249.07 213.899 251.06 217.869 251.28 221.399C251.5 224.929 252.83 225.809 252.83 225.809C251.28 230.889 236.12 268.839 241.62 306.339C244.53 326.169 248.75 325.629 251.62 327.839C254.49 330.049 279.76 338.159 279.76 338.159C276.67 351.179 276.67 354.709 278.66 361.559C280.65 368.399 291.68 366.639 291.68 366.639C291.68 366.639 294.55 365.319 291.9 368.629C289.25 371.939 292.12 374.589 290.36 376.799C288.59 379.009 287.71 381.879 287.93 385.409C288.15 388.939 292.12 386.739 292.12 386.739L289.69 399.099L290.57 399.759C290.57 399.759 290.57 404.839 291.01 408.149C291.45 411.459 285.93 428.899 286.37 441.039C286.81 453.179 299.17 451.629 299.17 451.629C326.54 449.639 316.39 430.219 316.39 424.919C316.39 419.619 313.3 407.479 313.3 407.479L313.52 406.379C313.74 405.279 319.04 393.359 321.91 389.379C324.78 385.409 324.56 384.519 323.23 377.459C321.91 370.399 324.78 368.409 324.33 364.659C323.89 360.909 325.43 354.069 326.98 350.309C328.52 346.559 327.2 338.389 327.2 338.389C331.17 332.869 327.2 328.019 327.2 326.029C327.2 324.039 328.97 307.489 331.17 302.629C333.38 297.769 336.25 293.799 336.25 290.489C336.25 287.179 338.46 276.809 339.12 265.769C339.78 254.729 339.75 234.709 339.75 234.709L340.63 234.219L339.55 224.799C339.55 224.799 339.84 221.459 342 218.329C344.16 215.189 340.82 213.419 345.73 209.009C350.63 204.599 350.14 202.629 350.73 196.649C351.32 190.669 352.4 186.249 352.1 183.499C351.81 180.749 350.92 169.669 350.92 169.669L354.94 175.069C354.94 175.069 359.45 181.049 361.32 183.209C363.18 185.369 367.5 190.959 367.21 193.019C366.92 195.079 369.56 196.849 369.37 199.299C369.17 201.749 370.65 204.989 373.1 206.759C375.55 208.529 374.38 210.979 374.38 210.979C371.53 215.789 375.66 219.219 377.22 219.609C378.79 219.999 378.4 221.469 378.4 221.469C375.26 227.059 380.85 228.929 380.85 228.929L381.34 230.109C382.91 235.699 384.68 236.979 384.68 236.979L385.46 236.689L386.15 237.479C386.25 245.429 392.13 245.619 392.13 245.619C392.13 245.619 391.93 252.099 395.66 252.879C399.39 253.669 399.49 250.529 399.49 250.529C399.49 250.529 400.47 251.899 403.12 251.509C405.77 251.119 406.65 248.959 406.65 248.959C406.65 248.959 408.81 249.059 410.57 248.079C412.34 247.099 411.36 244.249 411.36 244.249C415.58 242.879 413.13 235.809 412.05 233.849L412.08 233.879ZM290.13 303.339C290.13 303.339 285.42 302.459 285.71 301.569C286 300.689 283.65 295.389 286.59 293.619C289.53 291.859 286.3 288.909 286.59 286.849C286.88 284.789 287.18 279.489 288.36 277.139C289.54 274.789 291.89 264.479 291.89 264.479C291.89 264.479 291.89 272.129 291.6 273.899C291.31 275.669 291.31 279.489 291.31 282.439C291.31 285.389 291.9 292.149 293.08 295.979C294.26 299.809 290.14 303.339 290.14 303.339H290.13Z" fill="black"/>
<path d="M169.7 231.77L161.72 228.7C161.72 228.7 163.36 227.47 161.72 226.45C160.08 225.43 155.58 223.17 155.58 223.17C155.58 223.17 160.49 222.35 158.65 220.1C156.81 217.85 154.76 215.6 152.92 215.19C151.08 214.78 154.15 209.66 149.24 209.87C144.33 210.07 150.06 203.32 143.92 203.11C137.78 202.91 148.01 197.38 145.15 194.51C142.28 191.64 143.72 183.66 142.08 177.52C140.44 171.38 138.6 168.51 137.78 167.29C136.96 166.06 134.91 146 131.84 141.7C131.84 141.7 133.68 142.72 133.68 140.06C133.68 137.4 132.25 129.01 130.41 127.57C128.57 126.14 125.5 125.93 121.61 123.68C117.72 121.43 115.06 119.59 112.6 117.13C110.14 114.67 108.51 112.42 108.51 112.42C108.51 112.42 113.01 106.89 117.11 98.4996C121.2 90.1096 120.39 85.8096 120.39 82.9396C120.39 80.0696 123.87 76.9996 124.89 71.2696L126.94 71.4696L127.76 66.5596L129.19 72.4996C129.19 72.4996 138.81 29.5196 99.7097 25.6296C99.7097 25.6296 99.3197 25.5796 98.6197 25.5496C72.6697 23.4896 64.4597 41.6496 64.4597 41.6496C66.3097 38.4396 68.8897 36.0796 71.5597 34.3596C60.6297 44.3996 58.3597 61.8596 58.3597 61.8596C59.2997 59.8096 60.2697 57.8396 61.2397 55.9796L59.9997 62.6696L62.0497 63.8996L63.0697 61.4396V65.5296H64.2997C64.2997 65.5296 56.1097 67.1696 58.9797 76.3796C61.8497 85.5896 65.7297 89.8896 69.2097 87.6396C69.2097 87.6396 71.4597 108.11 61.4297 106.88C61.4297 106.88 60.8197 103.81 57.7497 103.81C54.6797 103.81 46.4897 111.79 42.8097 113.84C39.1297 115.89 42.1997 116.71 42.1997 116.71C42.1997 116.71 29.0997 123.87 28.0797 126.74C27.0597 129.61 11.9097 149.46 9.85968 155.4C7.80968 161.34 4.73968 165.84 8.62968 169.52C8.62968 169.52 4.73968 178.12 8.01968 180.98C11.2997 183.85 7.19968 187.12 9.24968 190.4C11.2997 193.68 8.42968 199 10.4797 202.07C12.5297 205.14 22.7597 210.67 22.7597 210.67C22.7597 210.67 23.5797 225.41 21.7397 231.14C19.8997 236.87 18.4597 250.38 25.8297 254.68C25.8297 254.68 23.7797 257.34 26.6497 259.18C29.5197 261.02 25.4197 274.12 25.4197 274.12L27.4697 274.94C27.4697 274.94 23.7897 291.52 23.3797 304.42C22.9697 317.31 23.3797 324.89 23.5797 328.16C23.7797 331.44 19.2797 333.28 20.7097 336.96C22.1397 340.64 16.4097 339.83 17.2297 342.69C18.0497 345.56 14.9797 348.42 14.9797 348.42C14.9797 348.42 4.74968 359.68 3.10968 364.39C1.46968 369.1 -4.67032 379.95 6.99968 387.11C18.6697 394.27 25.6297 381.38 30.3297 374.01L35.2397 362.96C35.2397 362.96 45.4697 363.98 52.6397 356.41C52.6397 356.41 56.1197 352.32 57.9597 348.84C59.7997 345.36 61.4397 341.06 59.1897 340.86C56.9397 340.66 64.0997 331.44 61.8497 330.01C59.5997 328.58 64.9197 324.28 63.4897 322.64C62.0597 321 67.1697 320.8 65.9497 312.81C64.7197 304.83 69.0197 297.46 69.0197 297.46C69.0197 297.46 66.7697 319.77 70.2497 325.5C73.7297 331.23 73.5197 336.76 73.9297 342.69C74.3397 348.63 74.3397 349.44 76.3897 352.72C78.4397 356 71.4797 362.96 75.1597 370.73C78.8397 378.51 73.5197 379.12 73.5197 385.06C73.5197 391 73.7197 392.43 76.5897 398.36C79.4597 404.3 80.2697 406.14 80.2697 406.14L80.8797 423.33C80.8797 423.33 75.5597 435.61 80.8797 444.62C86.1997 453.63 98.2797 453.63 105.65 447.08C105.65 447.08 112.61 441.55 106.47 432.96C100.33 424.36 101.97 423.95 101.97 423.95L103.4 422.93L105.45 405.12C105.45 405.12 111.59 406.96 112 403.28C112.41 399.6 110.57 399.6 109.54 395.5C108.52 391.41 111.18 394.07 110.36 386.08C109.54 378.1 111.38 377.28 110.15 371.75C108.92 366.22 116.09 367.25 111.99 362.54C111.99 362.54 113.42 356.81 110.56 355.99C107.69 355.17 113.22 350.67 112.2 341.05C111.18 331.43 111.38 325.49 111.38 324.27C111.38 323.05 114.04 314.24 114.25 303.19C114.46 292.14 114.66 287.63 114.46 286.2C114.25 284.77 114.87 272.69 114.87 272.69L116.1 273.92L116.92 260.62C116.92 260.62 125.31 257.34 125.11 253.46C124.91 249.57 124.09 243.02 123.27 236.06C122.45 229.1 122.86 228.28 122.25 224.8C121.64 221.32 121.43 218.66 120.82 214.97C120.21 211.29 121.02 210.26 121.02 210.26C121.02 210.26 122.86 230.32 125.52 232.98C128.18 235.64 129.82 236.05 131.25 238.51C132.68 240.97 137.6 244.04 140.05 242.6C142.51 241.17 142.3 244.85 143.94 244.65C145.58 244.45 147.01 245.67 147.01 245.67L151.31 246.49C151.31 246.49 149.67 248.74 152.13 251.2C152.13 251.2 152.74 255.5 155.81 256.32C155.81 256.32 161.95 256.93 164.41 256.52C166.87 256.11 173.83 254.27 174.64 249.77C175.46 245.27 176.48 236.67 169.73 231.76L169.7 231.77Z" fill="black"/>
<path d="M239.483 419.249C256.471 402.262 256.471 374.719 239.483 357.731C222.496 340.743 194.953 340.743 177.965 357.731C160.977 374.719 160.977 402.262 177.965 419.249C194.953 436.237 222.496 436.237 239.483 419.249Z" fill="black"/>
</svg>
